<svg width="202" height="464" viewBox="0 0 202 464" fill="none" xmlns="http://www.w3.org/2000/svg">
<path d="M39.9585 171.722L30.1957 161.995L32.2725 161.089L24.48 156.634C19.6873 153.829 11.9658 157.433 6.28564 165.438C0.0374456 174.278 -1.34712 185.124 3.21478 189.685L11.2913 197.744C13.5634 200.016 14.5041 203.939 13.8829 208.661L3.30353 290.384L11.096 294.858L15.0367 283.604L17.6815 282.077L41.982 185.656C43.4908 179.674 42.7453 174.473 39.9762 171.704L39.9585 171.722Z" fill="#B3B3B3"/>
<path d="M49.7753 190.165C51.284 184.183 50.5385 178.982 47.7694 176.213L33.6932 162.172C29.1313 157.628 20.3626 161.107 14.1144 169.947C7.86616 178.787 6.48162 189.632 11.0435 194.194L19.12 202.253C21.3921 204.525 22.3329 208.448 21.7116 213.17L11.1323 294.893L25.4925 286.604L49.793 190.183L49.7753 190.165Z" fill="#333333"/>
<path d="M45.8162 176.195L32.6453 199.004L17.5041 190.005C15.8355 189.011 14.806 186.934 14.806 183.952C14.806 177.988 18.9596 170.763 24.0895 167.799C26.6634 166.308 28.9887 166.184 30.675 167.178L45.8162 176.177V176.195Z" fill="#B3B3B3"/>
<path d="M45.8161 176.195L30.6749 167.196C28.9886 166.202 26.6633 166.326 24.0895 167.817C21.2139 169.468 18.6578 172.467 16.9537 175.822L38.6449 188.603L45.8161 176.195Z" fill="#E6E6E6"/>
<path d="M38.7159 176.514C33.586 179.479 29.4324 186.703 29.4324 192.667C29.4324 198.632 33.586 201.063 38.7159 198.099C43.8459 195.135 47.9995 187.91 47.9995 181.946C47.9995 175.982 43.8459 173.55 38.7159 176.514Z" fill="#999999"/>
<path d="M57.7266 175.822L38.1833 209.655L26.9826 203.193C24.5153 201.72 22.971 198.631 22.971 194.229C22.971 185.39 29.1305 174.668 36.7454 170.284C40.5618 168.083 44.0232 167.887 46.5083 169.361L57.7089 175.822H57.7266Z" fill="#B3B3B3"/>
<path d="M57.727 175.822L46.5264 169.361C44.0236 167.888 40.58 168.083 36.7636 170.266C32.5035 172.734 28.7049 177.154 26.1843 182.142L47.0944 194.212L57.727 175.805V175.822Z" fill="#E6E6E6"/>
<path d="M47.2008 176.302C39.6036 180.686 33.4264 191.425 33.4264 200.247C33.4264 209.069 39.5859 212.69 47.2008 208.306C54.7981 203.922 60.9753 193.183 60.9753 184.361C60.9753 175.539 54.8158 171.917 47.2008 176.302Z" fill="#999999"/>
<path d="M58.97 452.252V400.189L77.7679 411.035V463.097L58.97 452.252Z" fill="#999999"/>
<path d="M77.7677 463.098L187.59 407.645V334.335L77.7677 411.035V463.098Z" fill="#808080"/>
<path d="M187.59 334.335L77.7677 411.035L58.9699 400.189L158.71 317.667L187.59 334.335Z" fill="#D9D9D9"/>
<path d="M5.98419 313.371V330.607L111.92 391.935V374.682L5.98419 313.371Z" fill="#999999"/>
<path d="M201.827 322.744L111.921 374.682V391.935L201.827 339.997V322.744Z" fill="#808080"/>
<path d="M111.919 374.682L5.98405 313.371L95.8906 261.433L201.826 322.744L111.919 374.682Z" fill="#D9D9D9"/>
<path d="M201.826 322.744L126.44 366.304H110.606L110.34 281.917H131.303L201.826 322.744Z" fill="#999999"/>
<path d="M188.105 202.608V321.608L110.837 366.304V247.286C110.837 235.5 103.665 221.796 94.8255 216.684L33.9411 181.538C30.0715 179.301 26.5036 179.088 23.7523 180.544L100.506 136.15V136.185C103.346 134.41 107.109 134.463 111.227 136.86L172.111 172.006C180.969 177.1 188.122 190.804 188.122 202.608H188.105Z" fill="#F2F2F2"/>
<path d="M188.105 202.608V221.992L110.837 266.616V247.286C110.837 238.908 107.216 229.589 101.979 223.057L179.283 178.432C184.537 184.946 188.123 194.265 188.123 202.626L188.105 202.608Z" fill="#B3B3B3"/>
<path d="M188.105 205.892V321.607L110.819 366.303V250.517L188.105 205.892Z" fill="#808080"/>
<path d="M110.819 247.286V366.303L17.8948 312.644V193.644C17.8948 187.094 20.1136 182.496 23.6105 180.597C23.646 180.562 23.6638 180.544 23.717 180.544C26.4683 179.088 30.0362 179.301 33.9058 181.538L94.7903 216.684C103.648 221.796 110.801 235.5 110.801 247.286H110.819Z" fill="#999999"/>
<path d="M72.1583 153.83H133.824V176.799C133.77 181.343 130.735 185.869 124.718 189.348C112.63 196.324 93.1217 196.36 81.1046 189.419C75.0694 185.94 72.0872 181.361 72.1405 176.799V153.83H72.1583Z" fill="#999999"/>
<path d="M72.1579 153.83V176.799C72.1046 181.378 75.1045 185.958 81.1219 189.437C87.8316 193.307 96.9022 195.011 105.706 194.514V153.83H72.1756H72.1579Z" fill="#B3B3B3"/>
<path d="M81.1228 167.835C93.1222 174.757 112.648 174.722 124.736 167.764C136.824 160.805 136.877 149.516 124.878 142.593C112.879 135.671 93.353 135.688 81.2648 142.664C69.1767 149.64 69.1234 160.912 81.1228 167.835Z" fill="#F2F2F2"/>
<path d="M173.248 242.387L153.704 276.219L142.504 269.758C140.036 268.285 138.492 265.196 138.492 260.794C138.492 251.954 144.651 241.233 152.266 236.849C156.083 234.647 159.544 234.452 162.029 235.925L173.23 242.387H173.248Z" fill="#B3B3B3"/>
<path d="M173.248 242.387L162.065 235.926C159.562 234.452 156.119 234.648 152.302 236.831C148.042 239.28 144.244 243.718 141.723 248.706L162.633 260.776L173.266 242.369L173.248 242.387Z" fill="#E6E6E6"/>
<path d="M162.722 242.866C155.125 247.25 148.948 257.989 148.948 266.812C148.948 275.634 155.107 279.255 162.722 274.87C170.319 270.486 176.497 259.747 176.497 250.925C176.497 242.103 170.337 238.482 162.722 242.866Z" fill="#999999"/>
<path d="M184.555 256.534L171.384 279.343L156.243 270.344C154.574 269.35 153.545 267.255 153.545 264.291C153.545 258.327 157.698 251.102 162.828 248.138C165.402 246.647 167.727 246.523 169.414 247.517L184.555 256.516V256.534Z" fill="#B3B3B3"/>
<path d="M184.555 256.534L169.414 247.534C167.727 246.54 165.402 246.665 162.828 248.156C159.953 249.807 157.397 252.806 155.692 256.161L177.384 268.942L184.555 256.534Z" fill="#E6E6E6"/>
<path d="M177.472 256.853C172.342 259.818 168.189 267.042 168.189 273.006C168.189 278.971 172.342 281.402 177.472 278.438C182.602 275.474 186.756 268.249 186.756 262.285C186.756 256.321 182.602 253.889 177.472 256.853Z" fill="#999999"/>
<path d="M92.6071 261.362V298.354C92.6071 298.993 92.5538 299.597 92.4473 300.147C92.3586 300.68 92.1988 301.177 92.0036 301.603C91.8083 302.046 91.5953 302.419 91.3113 302.739C91.0451 303.058 90.7433 303.325 90.406 303.52L85.6133 306.324C86.8204 305.455 87.5659 303.697 87.5659 301.283V264.291C87.5659 264.025 87.5659 263.723 87.5304 263.457C87.2287 258.93 84.4773 253.925 81.1225 251.99L80.0574 251.369L36.7993 226.411C35.3438 225.577 33.9947 225.453 32.912 225.897L37.7046 223.074C38.8229 222.488 40.2429 222.577 41.8227 223.483L85.0453 248.44L86.1104 249.061C86.7849 249.434 87.4239 249.949 88.0097 250.552C89.838 252.345 91.3113 254.99 92.039 257.723C92.2875 258.646 92.4473 259.587 92.5183 260.528C92.5361 260.812 92.5538 261.096 92.5538 261.38L92.6071 261.362Z" fill="#E6E6E6"/>
<path d="M92.607 261.362V264.06L87.5836 267.007V264.291C87.5836 264.025 87.5836 263.723 87.5481 263.457C87.2463 258.93 84.495 253.925 81.1402 251.99L80.0751 251.369L85.0808 248.44L86.1458 249.061C86.8204 249.451 87.4416 249.948 88.0451 250.552C89.8734 252.363 91.329 255.007 92.0745 257.723C92.323 258.646 92.4828 259.587 92.5538 260.528C92.5715 260.812 92.5893 261.096 92.5893 261.38L92.607 261.362Z" fill="#D9D9D9"/>
<path d="M92.6067 261.362V298.354C92.6067 298.993 92.5534 299.597 92.4469 300.147C92.3404 300.68 92.1984 301.177 92.0032 301.603C91.8079 302.047 91.5772 302.419 91.3109 302.739C91.0447 303.058 90.7429 303.325 90.4056 303.52L85.613 306.324C86.82 305.455 87.5655 303.697 87.5655 301.283V264.291C87.5655 264.025 87.5656 263.723 87.5301 263.457L92.5534 260.51C92.5712 260.794 92.5889 261.078 92.5889 261.362H92.6067Z" fill="#808080"/>
<path d="M87.5653 264.291V301.283C87.5653 303.697 86.8198 305.455 85.6127 306.324L85.2045 306.555C84.104 307.105 82.6839 307.017 81.1396 306.147L36.8342 280.568C33.2841 278.509 30.3908 273.007 30.3908 268.249V231.257C30.3908 228.453 31.3848 226.553 32.9468 225.879C34.0296 225.435 35.3609 225.559 36.8342 226.394L81.1396 251.972C84.6897 254.031 87.5831 259.534 87.5831 264.273L87.5653 264.291Z" fill="#B3B3B3"/>
<path d="M72.9392 258.895V289.781C72.9392 290.952 72.5664 291.822 71.9806 292.248L71.7854 292.372C71.2529 292.639 70.5606 292.603 69.7973 292.177L48.1771 279.699C46.4376 278.687 45.0353 276.006 45.0353 273.681V242.795C45.0353 241.428 45.5146 240.505 46.2778 240.168C46.8104 239.955 47.4494 240.008 48.1771 240.417L69.7973 252.895C71.5369 253.907 72.9392 256.587 72.9392 258.895Z" fill="#333333"/>
<path d="M72.6021 256.836C72.1938 258.38 71.4483 259.995 70.4365 261.54C68.3064 264.717 65.5373 267.255 62.4842 269.474C61.3837 270.291 60.2654 271.054 59.1116 271.782C57.9224 272.545 56.6976 273.291 55.4905 274.054C55.2065 274.214 54.887 274.391 54.603 274.586C54.2125 274.817 53.8397 275.048 53.4492 275.279C52.6859 275.74 51.9404 276.184 51.2126 276.663C51.1594 276.681 51.1239 276.734 51.0706 276.752C50.2364 277.249 49.4553 277.799 48.6388 278.296C48.2306 278.562 47.8223 278.846 47.4495 279.13C44.5562 281.083 41.9114 283.142 39.4263 285.308C36.2667 288.024 33.4266 290.899 30.9237 293.899C30.3735 294.538 29.841 295.195 29.3439 295.852C26.8411 299.1 24.64 302.561 22.8295 306.236C21.942 308.011 21.1609 309.821 20.4687 311.65C20.1314 312.555 19.8297 313.496 19.5457 314.401C19.3149 315.111 19.2084 316.247 18.3209 316.424C17.9836 316.495 17.6286 316.442 17.3091 316.336C16.2085 315.945 17.1671 314.099 17.3978 313.407C18.5871 309.626 20.1847 306.005 22.1017 302.543C24.1253 298.958 26.5039 295.55 29.1487 292.39C31.5628 289.497 34.3141 286.674 37.314 284.083C39.9943 281.669 42.8699 279.397 46.0117 277.249C46.9347 276.61 47.8933 275.989 48.8696 275.367C49.2246 275.101 49.5796 274.87 49.9701 274.657C50.4671 274.338 50.9819 274.018 51.4967 273.734C51.6564 273.61 51.8517 273.504 52.0292 273.397C52.4907 273.113 52.9344 272.847 53.4137 272.581C53.6267 272.456 53.8397 272.314 54.0527 272.172C56.2183 270.859 58.4016 269.527 60.4784 268.036C61.579 267.273 62.6262 266.457 63.6558 265.605C65.5018 264.007 67.1704 262.267 68.5017 260.226C69.7265 258.345 70.7738 255.877 70.6495 253.534C71.5015 254.315 72.2293 255.54 72.6021 256.8V256.836Z" fill="#CB0A29"/>
<path d="M51.0528 276.752C50.9108 278.278 50.9641 279.805 51.0706 281.367C51.1948 282.822 51.4078 284.278 51.6208 285.734C51.7628 286.639 51.9226 287.544 52.0823 288.432C52.1356 288.733 52.2066 289.071 52.2421 289.408C52.4551 290.597 52.6504 291.822 52.7924 293.047C52.8811 293.757 52.9521 294.431 53.0231 295.124C53.3071 298.159 53.8041 301.159 54.3189 304.07C55.0822 308.632 55.8987 313.353 55.8455 318.253C55.7922 321.998 55.3839 325.779 54.5319 329.435C53.9284 331.921 53.1474 334.352 52.1178 336.678C51.6386 337.707 51.1415 338.737 50.5913 339.713C50.1653 340.459 49.7748 341.328 49.1358 341.914C48.7097 342.322 47.3607 342.518 47.1122 341.772C46.8459 341.08 47.5027 339.962 47.9287 339.411C48.5677 338.577 49.0825 337.672 49.5263 336.713C50.4138 334.92 51.106 333.039 51.6741 331.122C52.9166 326.95 53.4669 322.601 53.5201 318.253C53.5734 313.549 52.7746 308.934 52.0113 304.478C51.5321 301.514 51.0173 298.461 50.7155 295.354C50.6445 294.609 50.5558 293.846 50.4493 293.118C50.3783 292.621 50.3073 292.106 50.2363 291.609C50.112 290.757 49.9523 289.905 49.8103 289.071C49.7925 288.982 49.7925 288.911 49.757 288.84C49.26 285.982 48.7807 282.982 48.6387 280C48.621 279.45 48.621 278.882 48.621 278.332C48.6387 277.728 48.6742 277.089 48.7097 276.486C48.7275 276.131 48.7807 275.776 48.8517 275.403C49.0647 273.663 49.4552 271.941 49.899 270.273C50.2008 269.243 50.538 268.214 50.8753 267.184C51.3723 265.782 51.9048 264.397 52.4551 263.013C52.9166 261.788 53.3781 260.581 53.8219 259.338C55.2064 255.451 56.804 249.931 55.739 244.801L58.295 246.274C58.8275 251.368 57.3365 256.463 56.0229 260.12C55.5969 261.362 55.0999 262.605 54.6384 263.847C53.8751 265.835 53.0941 267.859 52.4728 269.918C52.1533 270.93 51.9048 271.924 51.6563 272.918C51.6031 273.202 51.5321 273.468 51.4966 273.752C51.2836 274.728 51.1416 275.687 51.0706 276.663V276.752H51.0528Z" fill="#CB0A29"/>
<path d="M65.6437 250.481C65.6437 255.611 64.9515 260.705 63.6379 265.622C63.3007 266.918 62.9279 268.196 62.4664 269.474C61.6143 272.013 60.5848 274.48 59.36 276.876C59.2358 277.107 59.1293 277.355 58.9695 277.568C58.8985 277.71 58.8453 277.852 58.7743 277.977C58.4902 278.598 58.153 279.166 57.798 279.77C57.727 279.894 57.656 280.036 57.585 280.142C56.875 281.438 56.1294 282.681 55.4194 283.888C55.4017 283.905 55.4017 283.941 55.3662 283.959C54.3189 285.751 53.2183 287.544 52.2421 289.408C51.745 290.313 51.2835 291.219 50.8575 292.159C50.7155 292.461 50.5735 292.781 50.4492 293.082C50.1475 293.686 49.899 294.307 49.6682 294.929C48.5677 297.857 47.8222 300.875 47.3784 303.981C46.8459 307.585 46.7039 311.224 46.7571 314.862C46.7749 316.655 46.8281 318.448 46.9169 320.241C46.9701 321.128 47.0057 322.016 47.0589 322.886C47.1122 323.649 47.3606 324.199 46.7039 324.803C46.5619 324.927 46.3844 324.998 46.2246 325.034C45.2661 325.318 44.8401 324.732 44.7868 323.862C44.7336 322.957 44.6626 322.069 44.6271 321.164C44.5383 319.3 44.4673 317.454 44.4318 315.608C44.2898 308.348 44.8578 300.946 47.4672 294.094C47.8932 293.011 48.3192 292 48.834 290.97C49.1357 290.331 49.473 289.674 49.8102 289.035C50.3782 287.917 50.9995 286.817 51.6208 285.734C52.1888 284.722 52.7923 283.746 53.3603 282.769C53.3603 282.752 53.3781 282.752 53.3781 282.716C54.2301 281.261 55.1176 279.805 55.9519 278.296C56.0229 278.154 56.1117 278.012 56.1827 277.87C56.52 277.267 56.8039 276.681 57.1057 276.095C57.159 276.006 57.1945 275.9 57.2477 275.811C57.301 275.74 57.3187 275.669 57.3365 275.598C57.9577 274.356 58.5612 273.06 59.0228 271.782H59.0405C59.573 270.557 60.0168 269.314 60.4073 268.054C62.3954 262.125 63.3362 255.86 63.2474 249.594C63.2474 249.452 63.2474 249.292 63.2297 249.132L65.5905 250.463L65.6437 250.481Z" fill="#CB0A29"/>
<path d="M74.7848 305.739C74.0393 301.052 72.495 296.526 70.1519 292.372C69.7259 291.609 69.2467 290.846 68.7674 290.1C66.4243 286.444 63.4422 283.16 60.5844 279.983C59.9809 279.308 59.3951 278.651 58.7916 277.977C58.3301 277.497 57.9041 277 57.4603 276.503C57.3715 276.379 57.2473 276.237 57.1408 276.113C56.6793 275.58 56.2887 275.066 55.8272 274.515C55.703 274.373 55.5965 274.231 55.4722 274.054C54.9752 273.45 54.4959 272.829 54.0344 272.19C53.4842 271.444 52.9516 270.681 52.4546 269.9C51.8866 269.013 51.3541 268.107 50.8748 267.184C50.5731 266.616 50.3068 266.031 50.0406 265.445C47.1472 258.806 47.5732 249.523 49.3305 241.091L48.159 240.417C47.804 240.204 47.4667 240.079 47.1295 240.062C45.1414 249.168 44.7154 259.072 47.8927 266.386C48.4607 267.717 49.153 269.03 49.8985 270.273C50.4488 271.178 51.0523 272.066 51.6381 272.918C51.7623 273.078 51.9044 273.255 51.9931 273.415C52.4724 274.054 52.9517 274.657 53.4309 275.279C53.8392 275.776 54.2474 276.29 54.6735 276.787C55.0995 277.32 55.5255 277.835 55.9692 278.314C56.058 278.438 56.1822 278.545 56.271 278.669C56.697 279.166 57.1585 279.681 57.5845 280.142C58.0106 280.622 58.4188 281.083 58.8448 281.545C61.2412 284.189 63.7085 286.941 65.7853 289.887C66.1403 290.367 66.4776 290.864 66.8148 291.361C69.3709 295.284 71.146 299.65 72.0867 304.177C73.1873 309.289 73.2405 314.596 72.211 319.726C71.7317 322.069 71.0395 324.359 70.2229 326.631C69.8147 327.749 69.3887 328.85 68.9271 329.968C68.6609 330.643 67.5426 332.24 68.5721 332.684C70.3117 333.394 70.9152 331.299 71.4122 330.057C71.8382 328.974 72.2465 327.891 72.637 326.791C73.4003 324.625 74.0393 322.424 74.5008 320.152C75.4594 315.395 75.5304 310.513 74.7671 305.721L74.7848 305.739Z" fill="#CB0A29"/>
<path d="M58.0651 82.8626L44.8942 105.672L40.1193 102.921C38.4507 101.927 37.4212 99.8499 37.4212 96.8678C37.4212 90.9036 41.5748 83.6791 46.7047 80.7148C49.2785 79.2237 51.6039 79.0995 53.2902 80.0935L58.0651 82.8449V82.8626Z" fill="#B3B3B3"/>
<path d="M58.065 82.8627L53.2901 80.1113C51.6038 79.1173 49.2785 79.2416 46.7047 80.7326C43.8291 82.3834 41.273 85.3833 39.5689 88.7381L50.8938 95.2703L58.065 82.8627Z" fill="#E6E6E6"/>
<path d="M50.9648 83.1822C45.8349 86.1465 41.6812 93.371 41.6812 99.3352C41.6812 105.299 45.8349 107.731 50.9648 104.767C56.0947 101.803 60.2483 94.578 60.2483 88.6139C60.2483 82.6497 56.0947 80.2178 50.9648 83.1822Z" fill="#999999"/>
<path d="M74.4305 85.7913L54.8871 119.624L43.6865 113.163C41.2192 111.689 39.6749 108.601 39.6749 104.199C39.6749 95.3589 45.8343 84.6376 53.4493 80.2532C57.2657 78.0521 60.7271 77.8568 63.2121 79.3301L74.4127 85.7913H74.4305Z" fill="#B3B3B3"/>
<path d="M74.431 85.7915L63.2481 79.3303C60.7453 77.857 57.3017 78.0522 53.4853 80.2355C49.2252 82.6851 45.4266 87.1228 42.906 92.1107L63.8161 104.181L74.4487 85.7737L74.431 85.7915Z" fill="#E6E6E6"/>
<path d="M63.9226 86.2708C56.3253 90.6552 50.1481 101.394 50.1481 110.216C50.1481 119.038 56.3076 122.659 63.9226 118.275C71.5198 113.891 77.697 103.152 77.697 94.3295C77.697 85.5075 71.5376 81.8864 63.9226 86.2708Z" fill="#999999"/>
<path d="M148.699 90.6374L100.204 62.6448C98.5002 61.6508 96.9203 61.562 95.6956 62.2188L48.7808 89.3239L56.3426 105.015L93.1395 115.95V121.009C93.1395 126.192 96.2991 132.227 100.187 134.481L104.003 136.682L94.0271 164.107L106.044 190.129L153.349 162.829C154.823 161.941 155.746 159.971 155.746 157.149V104.128C155.746 98.9447 152.586 92.9095 148.699 90.6552V90.6374Z" fill="#E6E6E6"/>
<path d="M155.746 104.092V107.057L103.897 136.984L73.8627 154.309V132.476L93.1576 121.328L147.51 89.9452L148.681 90.6197C152.569 92.874 155.746 98.9092 155.746 104.075V104.092Z" fill="#B3B3B3"/>
<path d="M155.746 104.092V157.113C155.746 159.918 154.805 161.906 153.332 162.776L106.027 190.076L94.0094 164.054L104.003 136.629L100.861 134.801L155.693 103.152C155.71 103.471 155.728 103.755 155.728 104.075L155.746 104.092Z" fill="#808080"/>
<path d="M101.607 189.632L53.1125 161.64C49.2251 159.385 46.0655 153.368 46.0655 148.167V95.1461C46.0655 89.9629 49.2251 87.5666 53.1125 89.8209L101.607 117.814C105.494 120.068 108.654 126.085 108.654 131.286V184.307C108.654 189.49 105.494 191.887 101.607 189.632Z" fill="#999999"/>
<g style="mix-blend-mode:multiply">
<path d="M100.897 128.872C101.394 129.156 101.891 129.653 102.264 130.31L103.489 132.422C104.234 133.736 104.234 135.138 103.489 135.564L99.0512 138.085L103.471 145.717C104.217 147.013 104.217 148.415 103.471 148.859L102.246 149.552C101.874 149.765 101.377 149.694 100.88 149.41C100.382 149.126 99.8855 148.628 99.5127 147.972L95.1106 140.339L90.6729 142.877C90.3002 143.09 89.8032 143.019 89.3062 142.735C88.8092 142.451 88.3121 141.954 87.9393 141.298L86.7323 139.185C85.969 137.889 85.9868 136.469 86.7323 136.043L91.17 133.505L86.7678 125.872C86.0045 124.576 86.0223 123.156 86.7678 122.73L87.9926 122.038C88.3654 121.825 88.8624 121.896 89.3594 122.18C89.8564 122.464 90.3534 122.961 90.7262 123.618L95.1283 131.251L99.566 128.73C99.9388 128.517 100.436 128.588 100.933 128.872H100.897Z" fill="#999999"/>
</g>
<g style="mix-blend-mode:multiply">
<path d="M96.5304 170.391L94.0809 161.799L91.8443 164.994L67.8988 151.167C67.0645 150.688 66.3012 150.617 65.68 150.883C64.7924 151.273 64.2244 152.356 64.2244 153.954V160.788C64.2244 163.503 65.8752 166.645 67.8988 167.835L93.2466 182.461C94.1164 182.958 94.9329 183.011 95.5719 182.692L95.8027 182.55C96.4949 182.053 96.9209 181.041 96.9209 179.656V172.822C96.9209 172.024 96.7612 171.189 96.5127 170.373L96.5304 170.391Z" fill="#999999"/>
</g>
<g style="mix-blend-mode:multiply">
<path d="M65.9646 113.749C70.1183 116.145 73.4909 122.003 73.4909 126.831C73.4909 131.659 70.1183 133.629 65.9646 131.233C61.811 128.837 58.4384 122.979 58.4384 118.151C58.4384 113.323 61.811 111.352 65.9646 113.749Z" fill="#999999"/>
</g>
<path d="M127.683 102.743L79.1881 74.7507C77.4841 73.7567 75.9043 73.668 74.6795 74.3247L71.2536 76.3305C72.4784 75.6915 74.0405 75.7803 75.7623 76.7566L124.257 104.749C128.144 107.004 131.304 113.021 131.304 118.222V171.243C131.304 173.959 130.434 175.876 129.067 176.799L132.333 174.917C133.807 174.03 134.73 172.059 134.73 169.237V116.216C134.73 111.033 131.57 104.998 127.683 102.743Z" fill="#686868"/>
<path d="M151.734 130.434L132.191 164.267L120.99 157.805C118.523 156.332 116.978 153.244 116.978 148.841C116.978 140.002 123.138 129.28 130.753 124.896C134.569 122.695 138.031 122.5 140.516 123.973L151.716 130.434H151.734Z" fill="#B3B3B3"/>
<path d="M151.716 130.434L140.515 123.973C138.013 122.5 134.569 122.695 130.753 124.878C126.492 127.328 122.694 131.765 120.173 136.753L141.083 148.824L151.716 130.416V130.434Z" fill="#E6E6E6"/>
<path d="M141.209 130.913C133.611 135.298 127.434 146.037 127.434 154.859C127.434 163.681 133.594 167.302 141.209 162.918C148.806 158.533 154.983 147.812 154.983 138.972C154.983 130.132 148.824 126.529 141.209 130.913Z" fill="#999999"/>
<path d="M152.675 138.333L139.504 161.143L134.729 158.391C133.061 157.397 132.031 155.303 132.031 152.338C132.031 146.374 136.185 139.15 141.315 136.185C143.888 134.694 146.214 134.57 147.9 135.564L152.675 138.315V138.333Z" fill="#B3B3B3"/>
<path d="M152.675 138.333L147.9 135.582C146.214 134.588 143.889 134.712 141.315 136.203C138.439 137.854 135.883 140.854 134.179 144.209L145.504 150.741L152.675 138.333Z" fill="#E6E6E6"/>
<path d="M145.593 138.653C140.463 141.617 136.309 148.841 136.309 154.806C136.309 160.77 140.463 163.202 145.593 160.237C150.723 157.273 154.876 150.048 154.876 144.084C154.876 138.12 150.723 135.688 145.593 138.653Z" fill="#999999"/>
<g style="mix-blend-mode:multiply">
<path d="M130.825 84.2116C128.322 82.7738 125.003 82.0993 121.736 82.188L100.613 82.1703V96.2997H121.736C124.985 96.3352 128.286 95.6607 130.771 94.2229C135.564 91.4538 135.582 86.9807 130.825 84.2293V84.2116Z" fill="#D9D9D9"/>
</g>
<path d="M88.3292 82.9869H112.789V89.1996C112.772 90.9924 111.565 92.803 109.186 94.1698C104.393 96.9389 96.6542 96.9566 91.8793 94.2053C89.483 92.8208 88.3114 91.0102 88.3292 89.1996V82.9869Z" fill="#999999"/>
<path d="M88.3292 82.9869V89.1996C88.3114 91.0102 89.5007 92.8385 91.8793 94.2053C94.5419 95.7496 98.1453 96.4241 101.624 96.2289V82.9869H88.3292Z" fill="#B3B3B3"/>
<path d="M91.8793 88.5428C96.6364 91.2942 104.393 91.2764 109.186 88.5073C113.979 85.7382 113.996 81.2651 109.239 78.5138C104.482 75.7624 96.7252 75.7802 91.9325 78.5493C87.1399 81.3183 87.1221 85.7915 91.8793 88.5428Z" fill="#F2F2F2"/>
<path d="M106.914 82.2769C106.861 83.1644 106.239 84.052 105.068 84.7265C102.583 86.1643 98.5712 86.1643 96.1038 84.7442C94.9678 84.0875 94.3643 83.2532 94.2755 82.3834L94.3465 81.6024L100.541 4.60046L106.861 81.6379L106.914 82.2769Z" fill="#B3B3B3"/>
<path d="M106.915 82.2769C106.862 83.1644 106.24 84.0519 105.069 84.7264C103.826 85.4364 102.175 85.8092 100.542 85.8092V4.61816L106.862 81.6556L106.915 82.2946V82.2769Z" fill="#999999"/>
<path d="M105.44 3.25138C107.002 5.94947 106.079 9.39308 103.381 10.9551C100.683 12.5172 97.2396 11.5941 95.6776 8.89606C94.1155 6.19797 95.0386 2.75437 97.7366 1.19232C100.435 -0.369726 103.878 0.553296 105.44 3.25138Z" fill="url(#paint0_radial_642_4826)"/>
<path d="M54.3368 108.778L65.0049 127.257L68.8746 125.02C70.2236 124.221 71.0579 122.517 71.0579 120.121C71.0579 115.293 67.6853 109.435 63.5316 107.039C61.4548 105.832 59.5555 105.725 58.2065 106.542L54.3368 108.778Z" fill="#808080"/>
<path d="M54.3368 108.778L58.2065 106.542C59.5733 105.743 61.4548 105.832 63.5494 107.039C65.8747 108.388 67.9515 110.802 69.3183 113.518L60.1413 118.808L54.3368 108.761V108.778Z" fill="#E6E6E6"/>
<path d="M60.0708 109.045C64.2245 111.441 67.5971 117.299 67.5971 122.127C67.5971 126.955 64.2245 128.925 60.0708 126.529C55.9172 124.133 52.5446 118.275 52.5446 113.447C52.5446 108.619 55.9172 106.648 60.0708 109.045Z" fill="#B3B3B3"/>
<path d="M60.0707 112.95C62.3605 114.281 64.2243 117.512 64.2243 120.192C64.2243 122.872 62.3605 123.955 60.0707 122.624C57.7808 121.293 55.917 118.062 55.917 115.382C55.917 112.701 57.7808 111.619 60.0707 112.95Z" fill="#686868"/>
<path d="M94.347 163.716V170.55C94.347 170.923 94.3115 171.26 94.2582 171.58C94.205 171.882 94.1163 172.166 94.0098 172.414C93.9033 172.663 93.779 172.876 93.6192 173.071C93.4595 173.248 93.2997 173.408 93.1045 173.515L86.1285 177.544C86.8208 177.047 87.2468 176.035 87.2468 174.651V167.817C87.2468 167.657 87.2468 167.497 87.229 167.337C87.0515 164.746 85.4895 161.888 83.5724 160.77L82.9689 160.415L58.2246 146.143C57.3903 145.664 56.6271 145.593 56.0058 145.859L62.9818 141.812C63.6208 141.475 64.4373 141.528 65.3426 142.043L90.0691 156.314L90.6904 156.669C91.0632 156.882 91.4359 157.166 91.7732 157.521C92.8205 158.533 93.6548 160.06 94.0808 161.622C94.2228 162.154 94.3115 162.687 94.347 163.219C94.347 163.379 94.3647 163.539 94.3647 163.699L94.347 163.716Z" fill="#E6E6E6"/>
<path d="M94.3472 163.716V165.261L87.2292 169.379V167.835C87.2292 167.675 87.2292 167.515 87.2115 167.355C87.034 164.764 85.4719 161.906 83.5549 160.788L82.9513 160.433L90.0516 156.314L90.6729 156.669C91.0456 156.9 91.4184 157.184 91.7557 157.522C92.8029 158.551 93.6372 160.06 94.0632 161.622C94.2052 162.154 94.294 162.687 94.3295 163.219C94.3295 163.379 94.3472 163.539 94.3472 163.699V163.716Z" fill="#D9D9D9"/>
<path d="M94.3468 163.716V170.55C94.3468 170.923 94.3112 171.26 94.258 171.58C94.2047 171.882 94.116 172.166 94.0095 172.414C93.903 172.663 93.761 172.876 93.619 173.071C93.4592 173.248 93.2995 173.408 93.1042 173.515L86.1283 177.544C86.8205 177.047 87.2465 176.035 87.2465 174.651V167.817C87.2465 167.657 87.2465 167.497 87.2288 167.337L94.3468 163.219C94.3468 163.379 94.3645 163.539 94.3645 163.699L94.3468 163.716Z" fill="#808080"/>
<path d="M87.2293 167.834V174.668C87.2293 176.053 86.8033 177.065 86.111 177.562L85.8802 177.704C85.2412 178.023 84.4424 177.97 83.5549 177.473L58.2071 162.846C56.1658 161.675 54.5327 158.515 54.5327 155.8V148.966C54.5327 147.368 55.1008 146.285 55.9883 145.895C56.6096 145.628 57.3728 145.717 58.2071 146.179L83.5549 160.805C85.5962 161.977 87.2293 165.136 87.2293 167.834Z" fill="#B3B3B3"/>
<path d="M78.869 164.746V168.083C78.869 168.758 78.656 169.255 78.3188 169.485L78.1945 169.556C77.8927 169.716 77.4844 169.681 77.0584 169.432L64.6863 162.296C63.6923 161.728 62.8935 160.184 62.8935 158.853V155.516C62.8935 154.735 63.1775 154.202 63.6035 154.007C63.9053 153.883 64.2781 153.918 64.6863 154.149L77.0584 161.285C78.0525 161.853 78.8513 163.397 78.8513 164.71L78.869 164.746Z" fill="#CB0A29"/>
<path d="M80.6433 135.813L84.2644 133.7L88.702 131.162L85.0631 133.274L80.6433 135.813Z" fill="#6D64FF"/>
<path d="M80.679 122.5L84.3179 120.387L85.5249 119.695L81.9038 121.807L80.679 122.5Z" fill="#6D64FF"/>
<path d="M101.021 143.374L96.601 135.741L92.9621 137.854L97.382 145.487C98.1275 146.782 98.1275 148.185 97.382 148.628L101.021 146.516C101.784 146.09 101.784 144.688 101.021 143.374Z" fill="#CC0007"/>
<path d="M88.2759 121.275C87.9031 120.618 87.4061 120.121 86.9091 119.837C86.4121 119.553 85.9151 119.482 85.5423 119.695L81.9034 121.807C82.2762 121.594 82.7732 121.665 83.2702 121.949C83.7672 122.233 84.2642 122.73 84.637 123.387L89.0391 131.02L92.678 128.908L88.2759 121.275Z" fill="#FF999D"/>
<path d="M89.0393 131.02L92.6782 128.908L97.1158 126.369L93.477 128.482L89.0393 131.02Z" fill="#CC0007"/>
<path d="M94.8438 128.624C95.3408 128.908 95.8378 129.405 96.2106 130.061L97.4354 132.174C98.1809 133.487 98.1809 134.89 97.4354 135.316L92.9977 137.836L97.4176 145.469C98.1631 146.765 98.1631 148.167 97.4176 148.611L96.1929 149.303C95.8201 149.516 95.3231 149.445 94.826 149.161C94.329 148.877 93.832 148.38 93.4593 147.723L89.0571 140.09L84.6195 142.629C84.2467 142.842 83.7497 142.771 83.2527 142.487C82.7557 142.203 82.2586 141.706 81.8859 141.049L80.6788 138.937C79.9156 137.641 79.9333 136.221 80.6788 135.795L85.1165 133.256L80.7144 125.624C79.9511 124.328 79.9689 122.908 80.7144 122.482L81.9391 121.79C82.3119 121.577 82.8089 121.648 83.3059 121.932C83.803 122.216 84.3 122.713 84.6727 123.369L89.0749 131.002L93.5125 128.482C93.8853 128.269 94.3823 128.34 94.8793 128.624H94.8438Z" fill="#FF3D44"/>
<path d="M101.056 130.061L99.8309 127.949C99.4582 127.292 98.9612 126.795 98.4642 126.511C97.9672 126.227 97.4701 126.156 97.0973 126.369L93.4585 128.482C93.8313 128.269 94.3283 128.34 94.8253 128.624C95.3223 128.908 95.8193 129.405 96.1921 130.061L97.4168 132.174C98.1624 133.487 98.1624 134.889 97.4168 135.315L101.056 133.203C101.819 132.777 101.819 131.357 101.056 130.061Z" fill="#FF999D"/>
<path d="M88.3998 402.177L93.2279 398.947C93.4942 398.769 93.7072 398.592 93.9202 398.397C94.1154 398.219 94.2752 398.024 94.3995 397.829C94.5415 397.633 94.6302 397.438 94.7012 397.243C94.7722 397.048 94.8077 396.852 94.8077 396.657V389.805C94.7367 390.533 94.2042 391.314 93.2279 391.953L88.3998 395.184C88.2933 395.255 88.169 395.326 88.0625 395.397C86.1632 396.497 83.5006 396.746 81.9385 395.911L81.4415 395.645L69.5132 389.326C68.8387 388.953 68.4659 388.456 68.3949 387.888V394.74C68.4126 395.361 68.7854 395.911 69.5132 396.302L81.4238 402.603L81.9208 402.87C82.2226 403.047 82.5776 403.171 82.9681 403.242C84.1219 403.491 85.5242 403.384 86.8022 402.923C87.2283 402.781 87.6542 402.586 88.0447 402.355C88.169 402.284 88.2755 402.213 88.3998 402.142V402.177Z" fill="#CCCCCC"/>
<path d="M88.4004 402.177L89.4831 401.45V394.474L88.3826 395.201C88.2761 395.272 88.1518 395.343 88.0453 395.414C86.146 396.515 83.4835 396.763 81.9214 395.929L81.4244 395.663V402.639L81.9214 402.905C82.2409 403.065 82.5782 403.189 82.9687 403.278C84.1225 403.526 85.5248 403.402 86.8028 402.958C87.2288 402.816 87.6548 402.621 88.0453 402.39C88.1696 402.319 88.2761 402.248 88.4004 402.177Z" fill="#B3B3B3"/>
<path d="M88.4002 402.178L93.2284 398.947C93.4946 398.769 93.7076 398.592 93.9206 398.397C94.1159 398.201 94.2757 398.024 94.3999 397.829C94.5419 397.633 94.6306 397.438 94.7016 397.243C94.7726 397.048 94.8081 396.852 94.8081 396.657V389.805C94.7371 390.533 94.1869 391.314 93.2106 391.953L88.3824 395.184C88.2759 395.255 88.1517 395.326 88.0452 395.397V402.373C88.1694 402.302 88.276 402.231 88.4002 402.16V402.178Z" fill="#808080"/>
<path d="M88.4004 395.184L93.2286 391.953C94.2048 391.296 94.7373 390.515 94.8083 389.805V389.575C94.7728 388.971 94.4001 388.421 93.6901 388.048L81.2647 381.462C79.5961 380.575 76.7028 380.894 74.7857 382.19L69.9576 385.421C68.8215 386.184 68.289 387.089 68.3778 387.906C68.4488 388.474 68.8216 388.971 69.4961 389.344L81.9215 395.929C83.59 396.817 86.4833 396.497 88.4004 395.201V395.184Z" fill="#E6E6E6"/>
<path d="M84.4418 391.545L86.8027 389.965C87.2819 389.645 87.5482 389.273 87.5659 388.918V388.793C87.5659 388.509 87.3707 388.225 87.0157 388.048L81.8857 385.474C81.0692 385.048 79.6669 385.208 78.7261 385.829L76.3653 387.409C75.8151 387.782 75.5488 388.225 75.602 388.616C75.6375 388.882 75.8151 389.131 76.1523 389.308L81.2822 391.882C82.0987 392.308 83.501 392.148 84.4418 391.527V391.545Z" fill="#FF3D44"/>
<defs>
<radialGradient id="paint0_radial_642_4826" cx="0" cy="0" r="1" gradientUnits="userSpaceOnUse" gradientTransform="translate(99.1034 4.84894) scale(6.3902 6.3902)">
<stop stop-color="#F2F2F2"/>
<stop offset="1" stop-color="#686868"/>
</radialGradient>
</defs>
</svg>
