<svg width="40" height="40" viewBox="0 0 40 40" fill="none" xmlns="http://www.w3.org/2000/svg">
<rect width="40" height="40" rx="20" fill="#DEB645"/>
<path fill-rule="evenodd" clip-rule="evenodd" d="M12.0003 14.9709C12.4883 18.7834 14.8816 21.9176 17.5718 24.1798C20.2796 26.4569 23.1992 27.7763 24.5822 28.0068C25.8441 28.2171 26.7984 27.5999 27.4093 26.7668C27.7159 26.3488 27.9222 25.8915 28.0232 25.494C28.1312 25.0694 28.0961 24.8102 28.0528 24.7236C27.9339 24.4859 27.4843 23.909 26.9154 23.3785C26.6377 23.1196 26.3509 22.8902 26.0859 22.7286C25.8081 22.5593 25.6116 22.5 25.5 22.5C25.1235 22.5 24.7849 22.6894 24.4273 23.043C24.1671 23.3004 23.9441 23.5929 23.7084 23.902C23.6062 24.0362 23.5015 24.1735 23.3904 24.3123C23.263 24.4716 23.0517 24.5375 22.8563 24.4789C20.7364 23.8429 19.0766 22.4802 17.8692 21.0616C16.6628 19.644 15.8832 18.1418 15.5301 17.1709C15.4569 16.9696 15.52 16.7441 15.687 16.6101C16.1476 16.2404 16.6718 15.7842 17.052 15.3581C17.2435 15.1436 17.3808 14.956 17.4583 14.806C17.5105 14.7049 17.5184 14.6547 17.52 14.6414C17.3072 14.0199 16.7635 13.3503 16.1209 12.8245C15.8022 12.5637 15.4751 12.3517 15.179 12.2071C14.8733 12.0578 14.6406 12 14.5 12C14.3301 12 14.0859 12.075 13.79 12.2599C13.5013 12.4404 13.2003 12.7027 12.9267 13.0163C12.3736 13.6501 12.0122 14.3969 12.0003 14.9709ZM13.26 11.4119C13.6391 11.175 14.0699 11 14.5 11C14.8594 11 15.2517 11.1297 15.6179 11.3085C15.9937 11.4921 16.3853 11.7488 16.7541 12.0505C17.4807 12.645 18.1831 13.4681 18.4743 14.3419C18.5889 14.6857 18.471 15.0244 18.3468 15.2649C18.214 15.5221 18.0144 15.7816 17.7981 16.024C17.447 16.4174 17.0052 16.8167 16.5982 17.1565C16.9595 18.0211 17.6371 19.2459 18.6308 20.4134C19.6914 21.6597 21.09 22.8151 22.8202 23.4164C22.8359 23.3958 22.8518 23.375 22.8678 23.3539C23.1193 23.0242 23.4111 22.6416 23.7241 22.332C24.1671 21.8939 24.7452 21.5 25.5 21.5C25.8884 21.5 26.2773 21.6742 26.6064 21.8748C26.9482 22.0831 27.2896 22.3601 27.5974 22.6471C28.1995 23.2086 28.7498 23.8816 28.9472 24.2764C29.1539 24.6898 29.1188 25.2431 28.9924 25.7404C28.8591 26.2647 28.5966 26.8387 28.2157 27.3582C27.4516 28.4001 26.1559 29.2829 24.4178 28.9932C22.8008 28.7237 19.7204 27.2931 16.9282 24.9452C14.1262 22.5889 11.5254 19.2347 11.0039 15.062C11.0013 15.0414 11 15.0207 11 15C11 14.0777 11.5358 13.0892 12.1733 12.3587C12.4997 11.9848 12.8737 11.6534 13.26 11.4119Z" fill="#282828"/>
</svg>
