<svg width="265" height="325" viewBox="0 0 265 325" fill="none" xmlns="http://www.w3.org/2000/svg">
<path d="M15.5765 288.663L11.4317 286.24C9.14906 284.919 7.72742 282.095 7.72742 278.131L11.8722 280.554C11.8722 284.538 13.2939 287.342 15.5765 288.663Z" fill="#E8EFEF"/>
<path d="M125.644 14.8662L129.789 17.289C127.487 15.9475 124.283 16.1277 120.779 18.15L116.634 15.7272C120.138 13.7049 123.342 13.5247 125.644 14.8662Z" fill="#E8EFEF"/>
<path d="M11.8523 280.554L7.7075 278.131L7.18689 93.5176L11.3317 95.9404L11.8523 280.554Z" fill="#E8EFEF"/>
<path d="M23.9866 74.035L19.8218 71.6322L116.634 15.7275L120.799 18.1503L23.9866 74.035Z" fill="#E8EFEF"/>
<path d="M11.3318 95.9395L7.18694 93.5167C7.16692 85.5074 12.8535 75.656 19.8416 71.6113L23.9864 74.0341C17.0183 78.0588 11.3117 87.9102 11.3318 95.9395Z" fill="#E8EFEF"/>
<path d="M120.798 18.1494C127.766 14.1248 133.493 17.3885 133.513 25.3978L134.033 210.011C134.053 218.021 128.367 227.892 121.399 231.917L24.5868 287.801C17.6187 291.826 11.8721 288.562 11.8521 280.553L11.3315 95.9394C11.3115 87.9302 16.998 78.0788 23.9861 74.0341L120.798 18.1494Z" fill="#FAFCFC"/>
<path d="M28.4519 261.011L25.5685 259.329C24.9278 258.948 24.5273 258.167 24.5273 257.046L27.4107 258.728C27.4107 259.849 27.8111 260.63 28.4519 261.011Z" fill="#C0D5EB"/>
<path d="M48.1549 220.284L51.0382 221.966C50.3975 221.585 49.4964 221.645 48.5153 222.206L45.632 220.524C46.6131 219.963 47.5141 219.903 48.1549 220.284Z" fill="#C0D5EB"/>
<path d="M27.4311 258.729L24.5277 257.047L24.4677 236.823L27.371 238.505L27.4311 258.729Z" fill="#C0D5EB"/>
<path d="M30.9155 232.378L28.0121 230.696L45.6125 220.524L48.4958 222.206L30.9155 232.378Z" fill="#C0D5EB"/>
<path d="M27.3705 238.504L24.4872 236.822C24.4872 234.56 26.069 231.817 28.0313 230.695L30.9146 232.377C28.9523 233.519 27.3705 236.262 27.3705 238.504Z" fill="#C0D5EB"/>
<path d="M48.4954 222.206C50.4577 221.064 52.0595 221.985 52.0595 224.228L52.1196 244.451C52.1196 246.714 50.5378 249.457 48.5755 250.578L30.9751 260.73C29.0129 261.871 27.411 260.95 27.411 258.708L27.351 238.484C27.351 236.222 28.9328 233.479 30.895 232.357L48.4954 222.206Z" fill="#D4E8FF"/>
<path d="M28.3316 217.16L25.4483 215.478C24.8076 215.098 24.4071 214.317 24.4071 213.195L27.2904 214.877C27.2904 215.999 27.6909 216.779 28.3316 217.16Z" fill="#C0D5EB"/>
<path d="M48.0147 176.433L50.8981 178.115C50.2573 177.735 49.3563 177.795 48.3752 178.355L45.4918 176.673C46.473 176.113 47.374 176.053 48.0147 176.433Z" fill="#C0D5EB"/>
<path d="M27.2908 214.878L24.4075 213.196L24.3474 192.973L27.2307 194.655L27.2908 214.878Z" fill="#C0D5EB"/>
<path d="M30.7747 188.527L27.8914 186.845L45.4917 176.673L48.3751 178.355L30.7747 188.527Z" fill="#C0D5EB"/>
<path d="M27.2307 194.654L24.3474 192.972C24.3474 190.709 25.9292 187.966 27.8915 186.845L30.7748 188.527C28.8126 189.668 27.2307 192.411 27.2307 194.654Z" fill="#C0D5EB"/>
<path d="M48.3748 178.355C50.3371 177.214 51.9389 178.135 51.9389 180.377L51.999 200.601C51.999 202.863 50.4172 205.606 48.4549 206.728L30.8546 216.88C28.8923 218.021 27.2904 217.1 27.2904 214.857L27.2303 194.634C27.2303 192.371 28.8122 189.628 30.7745 188.507L48.3748 178.355Z" fill="#D4E8FF"/>
<path d="M28.2113 173.308L25.328 171.626C24.6872 171.246 24.2867 170.465 24.2867 169.344L27.1701 171.026C27.1701 172.147 27.5705 172.928 28.2113 173.308Z" fill="#C0D5EB"/>
<path d="M47.8949 132.582L50.7782 134.264C50.1375 133.883 49.2364 133.943 48.2553 134.504L45.3719 132.822C46.3531 132.261 47.2541 132.201 47.8949 132.582Z" fill="#C0D5EB"/>
<path d="M27.1707 171.026L24.2874 169.344L24.2273 149.121L27.1106 150.803L27.1707 171.026Z" fill="#C0D5EB"/>
<path d="M30.6548 144.655L27.7715 142.993L45.3719 132.821L48.2552 134.503L30.6548 144.655Z" fill="#C0D5EB"/>
<path d="M27.1106 150.802L24.2273 149.12C24.2273 146.858 25.8091 144.114 27.7714 142.993L30.6547 144.675C28.6925 145.816 27.1106 148.56 27.1106 150.802Z" fill="#C0D5EB"/>
<path d="M48.2551 134.503C50.2173 133.362 51.8192 134.283 51.8192 136.526L51.8793 156.749C51.8793 159.012 50.2974 161.755 48.3352 162.876L30.7348 173.028C28.7725 174.169 27.1707 173.248 27.1707 171.006L27.1106 150.782C27.1106 148.52 28.6924 145.776 30.6547 144.655L48.2551 134.503Z" fill="#D4E8FF"/>
<path d="M28.0909 129.458L25.2076 127.776C24.5668 127.395 24.1664 126.614 24.1664 125.493L27.0497 127.175C27.0497 128.296 27.4502 129.077 28.0909 129.458Z" fill="#C0D5EB"/>
<path d="M47.7741 88.731L50.6575 90.413C50.0167 90.0326 49.1157 90.0926 48.1346 90.6533L45.2512 88.9713C46.2324 88.4107 47.1334 88.3506 47.7741 88.731Z" fill="#C0D5EB"/>
<path d="M27.0502 127.176L24.1669 125.494L24.1068 105.271L26.9902 106.952L27.0502 127.176Z" fill="#C0D5EB"/>
<path d="M30.5341 100.825L27.6508 99.1435L45.2511 88.9717L48.1345 90.6536L30.5341 100.825Z" fill="#C0D5EB"/>
<path d="M26.9902 106.952L24.1068 105.27C24.1068 103.007 25.6886 100.264 27.6509 99.1426L30.5342 100.825C28.572 101.966 26.9902 104.709 26.9902 106.952Z" fill="#C0D5EB"/>
<path d="M48.1342 90.6528C50.0965 89.5115 51.6983 90.4326 51.6983 92.6751L51.7584 112.899C51.7584 115.161 50.1766 117.904 48.2143 119.026L30.6139 129.177C28.6517 130.319 27.0498 129.398 27.0498 127.155L26.9897 106.932C26.9897 104.669 28.5716 101.926 30.5338 100.805L48.1342 90.6528Z" fill="#D4E8FF"/>
<path d="M102.718 202.704L105.602 204.386C104.981 204.026 104.14 204.086 103.199 204.626L100.315 202.944C101.257 202.404 102.097 202.364 102.718 202.704Z" fill="#C0D5EB"/>
<path d="M66.596 225.751L63.7126 224.069L100.335 202.944L103.218 204.626L66.596 225.751Z" fill="#C0D5EB"/>
<path d="M64.2332 233.72L61.3499 232.038C60.7492 231.677 60.3688 230.936 60.3688 229.875C60.3688 227.753 61.8705 225.13 63.7327 224.068L66.616 225.75C64.7538 226.832 63.2521 229.435 63.2521 231.557C63.2521 232.618 63.6326 233.359 64.2332 233.72Z" fill="#C0D5EB"/>
<path d="M103.219 204.626C105.081 203.545 106.583 204.426 106.603 206.549C106.603 208.691 105.101 211.294 103.239 212.355L66.6164 233.5C64.7543 234.581 63.2526 233.72 63.2325 231.577C63.2325 229.455 64.7343 226.832 66.5964 225.771L103.219 204.626Z" fill="#D4E8FF"/>
<path d="M124.983 175.851L127.867 177.533C127.246 177.173 126.405 177.233 125.464 177.774L122.581 176.092C123.522 175.551 124.363 175.511 124.983 175.851Z" fill="#C0D5EB"/>
<path d="M66.5554 211.773L63.6721 210.111L122.58 176.092L125.464 177.774L66.5554 211.773Z" fill="#C0D5EB"/>
<path d="M64.1932 219.742L61.3099 218.06C60.7092 217.7 60.3287 216.959 60.3287 215.898C60.3287 213.755 61.8305 211.152 63.6926 210.091L66.576 211.773C64.7138 212.854 63.2121 215.437 63.2121 217.579C63.2121 218.641 63.5925 219.382 64.1932 219.742Z" fill="#C0D5EB"/>
<path d="M125.463 177.773C127.326 176.692 128.827 177.553 128.847 179.696C128.847 181.838 127.346 184.441 125.483 185.502L66.5753 219.502C64.7131 220.583 63.2114 219.722 63.1914 217.58C63.1713 215.437 64.6931 212.834 66.5553 211.773L125.463 177.773Z" fill="#D4E8FF"/>
<path d="M102.598 158.852L105.481 160.534C104.861 160.174 104.02 160.234 103.079 160.775L100.195 159.093C101.136 158.552 101.977 158.512 102.598 158.852Z" fill="#C0D5EB"/>
<path d="M66.4757 181.899L63.5924 180.237L100.195 159.093L103.098 160.775L66.4757 181.899Z" fill="#C0D5EB"/>
<path d="M64.113 189.868L61.2297 188.186C60.629 187.826 60.2485 187.085 60.2485 186.024C60.2485 183.881 61.7503 181.278 63.6124 180.217L66.4958 181.899C64.6336 182.98 63.1319 185.563 63.1319 187.705C63.1319 188.767 63.5123 189.508 64.113 189.868Z" fill="#C0D5EB"/>
<path d="M103.098 160.774C104.96 159.693 106.462 160.554 106.482 162.697C106.502 164.839 104.98 167.442 103.138 168.503L66.516 189.648C64.6538 190.729 63.1521 189.868 63.132 187.726C63.112 185.583 64.6338 182.98 66.4959 181.919L103.118 160.774H103.098Z" fill="#D4E8FF"/>
<path d="M124.843 132.002L127.726 133.684C127.106 133.323 126.265 133.383 125.324 133.924L122.44 132.242C123.381 131.702 124.222 131.661 124.843 132.002Z" fill="#C0D5EB"/>
<path d="M66.4352 167.923L63.5519 166.262L122.46 132.242L125.343 133.924L66.4352 167.923Z" fill="#C0D5EB"/>
<path d="M64.0725 175.892L61.1891 174.21C60.5884 173.85 60.208 173.109 60.208 172.048C60.208 169.905 61.7097 167.302 63.5719 166.241L66.4552 167.923C64.5931 169.004 63.0913 171.587 63.0913 173.73C63.0913 174.791 63.4718 175.532 64.0725 175.892Z" fill="#C0D5EB"/>
<path d="M125.343 133.924C127.205 132.843 128.707 133.704 128.727 135.846C128.727 137.989 127.225 140.592 125.363 141.653L66.455 175.652C64.5929 176.733 63.0911 175.872 63.0711 173.73C63.0511 171.587 64.5729 168.984 66.435 167.923L125.343 133.924Z" fill="#D4E8FF"/>
<path d="M102.477 115.002L105.361 116.684C104.74 116.323 103.899 116.383 102.958 116.924L100.075 115.242C101.016 114.701 101.857 114.641 102.477 115.002Z" fill="#C0D5EB"/>
<path d="M66.3561 138.048L63.4728 136.386L100.075 115.241L102.958 116.923L66.3561 138.048Z" fill="#C0D5EB"/>
<path d="M63.9729 146.017L61.0895 144.335C60.4888 143.975 60.1084 143.234 60.1084 142.173C60.1084 140.03 61.6101 137.447 63.4723 136.366L66.3556 138.048C64.4935 139.129 62.9917 141.712 62.9917 143.855C62.9917 144.916 63.3722 145.657 63.9729 146.017Z" fill="#C0D5EB"/>
<path d="M102.958 116.924C104.82 115.843 106.322 116.704 106.342 118.846C106.342 120.989 104.84 123.592 102.978 124.653L66.3554 145.797C64.4933 146.879 62.9915 146.018 62.9715 143.875C62.9515 141.733 64.4732 139.15 66.3354 138.068L102.958 116.924Z" fill="#D4E8FF"/>
<path d="M124.723 88.1503L127.606 89.8323C126.986 89.4718 126.145 89.5319 125.204 90.0725L122.32 88.3906C123.261 87.85 124.102 87.8099 124.723 88.1503Z" fill="#C0D5EB"/>
<path d="M66.3162 124.072L63.4329 122.39L122.341 88.3906L125.224 90.0726L66.3162 124.072Z" fill="#C0D5EB"/>
<path d="M63.9331 132.041L61.0497 130.359C60.449 129.998 60.0686 129.258 60.0686 128.196C60.0686 126.054 61.5703 123.451 63.4325 122.39L66.3158 124.072C64.4537 125.153 62.9519 127.736 62.9519 129.878C62.9519 130.94 63.3324 131.68 63.9331 132.041Z" fill="#C0D5EB"/>
<path d="M125.224 90.0723C127.086 88.991 128.588 89.852 128.608 91.9945C128.608 94.137 127.106 96.74 125.244 97.8012L66.336 131.801C64.4738 132.882 62.9721 132.021 62.9521 129.878C62.9321 127.736 64.4538 125.133 66.316 124.072L125.224 90.0723Z" fill="#D4E8FF"/>
<path d="M102.357 71.1503L105.24 72.8323C104.62 72.4718 103.779 72.5319 102.838 73.0725L99.9543 71.3906C100.895 70.85 101.736 70.8099 102.357 71.1503Z" fill="#C0D5EB"/>
<path d="M66.2358 94.197L63.3524 92.5151L99.9548 71.3906L102.838 73.0726L66.2358 94.197Z" fill="#C0D5EB"/>
<path d="M63.853 102.166L60.9697 100.484C60.369 100.123 59.9885 99.3826 59.9885 98.3214C59.9885 96.1789 61.4903 93.5759 63.3524 92.5146L66.2358 94.1966C64.3736 95.2778 62.8719 97.8608 62.8719 100.003C62.8719 101.065 63.2523 101.805 63.853 102.166Z" fill="#C0D5EB"/>
<path d="M102.838 73.0723C104.7 71.991 106.202 72.852 106.222 74.9945C106.222 77.137 104.72 79.74 102.878 80.8012L66.2556 101.946C64.3934 103.027 62.8917 102.166 62.8717 100.023C62.8516 97.881 64.3734 95.278 66.2355 94.2168L102.858 73.0723H102.838Z" fill="#D4E8FF"/>
<path d="M124.603 44.2997L127.486 45.9817C126.865 45.6212 126.024 45.6813 125.083 46.2219L122.2 44.54C123.141 43.9994 123.982 43.9593 124.603 44.2997Z" fill="#C0D5EB"/>
<path d="M66.1958 80.2213L63.3125 78.5594L122.201 44.54L125.104 46.222L66.1958 80.2213Z" fill="#C0D5EB"/>
<path d="M63.8126 88.1902L60.9293 86.5083C60.3286 86.1479 59.9481 85.407 59.9481 84.3458C59.9481 82.2033 61.4499 79.6003 63.312 78.5391L66.1953 80.221C64.3332 81.3023 62.8314 83.8852 62.8314 86.0277C62.8314 87.089 63.2119 87.8298 63.8126 88.1902Z" fill="#C0D5EB"/>
<path d="M125.104 46.2217C126.966 45.1405 128.468 46.0014 128.488 48.1439C128.488 50.2864 126.986 52.8894 125.124 53.9506L66.2155 87.95C64.3534 89.0312 62.8516 88.1702 62.8316 86.0278C62.8116 83.8853 64.3334 81.2823 66.1955 80.221L125.104 46.2217Z" fill="#D4E8FF"/>
<path d="M260.54 7.17645C261.461 8.45793 260.68 8.57807 258.778 7.4768C256.876 6.37552 254.593 4.43328 253.672 3.17182C252.751 1.91036 253.532 1.77019 255.434 2.87147C257.337 3.97274 259.619 5.91499 260.54 7.17645Z" fill="#D96428"/>
<path d="M262.423 8.87864C261.942 8.21787 261.302 7.6372 260.521 7.17667C259.6 5.89518 257.317 3.97296 255.415 2.87169C253.513 1.77041 252.732 1.89055 253.653 3.17203C254.574 4.45351 256.856 6.37574 258.759 7.47701C260.661 8.57829 261.442 8.45815 260.521 7.17667C261.302 7.6372 261.922 8.21787 262.423 8.87864C262.763 9.35919 263.484 10.3603 263.985 11.782C264.565 13.3838 264.565 14.7254 264.565 14.8656C264.565 15.7666 264.565 15.8267 264.485 16.4073C264.365 17.2683 264.165 17.9091 264.165 17.9091C263.865 18.7901 263.785 18.9903 263.604 19.3508C263.257 19.9915 262.85 20.6189 262.383 21.2329C261.822 21.9137 259.64 21.293 256.236 19.2907C250.669 16.0469 243.982 10.3804 241.258 6.65606C240.237 5.23442 239.917 4.29333 240.257 3.85282C241.379 2.35108 242.84 1.24981 244.622 0.589043C247.165 -0.372069 249.568 0.108488 250.009 0.208604C250.749 0.368789 251.59 0.569021 252.932 1.20976C254.013 1.71034 255.135 2.37111 256.276 3.17203C257.237 3.85282 257.858 4.3534 258.318 4.71382C258.398 4.77389 259.059 5.31451 259.86 6.05537C261.282 7.3769 261.962 8.29797 262.423 8.89866V8.87864Z" fill="#D96428"/>
<path d="M262.424 8.87891C262.944 9.63979 263.605 10.6009 264.105 12.1427C264.226 12.5031 264.386 13.1038 264.486 13.9047C264.566 14.4654 264.566 14.7056 264.566 15.5266C264.566 15.7669 264.526 17.0283 263.945 18.5901C263.665 19.311 263.365 19.8316 263.264 20.0118C263.004 20.4523 262.924 20.5524 262.383 21.2532C262.744 20.8327 262.444 19.8716 261.402 18.43C263.985 15.2863 264.286 11.4419 262.444 8.89893L262.424 8.87891Z" fill="#DEB645"/>
<path d="M254.493 2.0108C256.856 3.41243 260.36 6.03546 262.422 8.87875C264.265 11.4217 263.984 15.2661 261.381 18.4098C258.678 14.6855 251.97 9.01891 246.404 5.77516C242.96 3.75282 240.757 3.15213 240.237 3.85294C240.898 3.03199 240.998 2.91185 241.318 2.63152C241.498 2.47134 241.739 2.25108 241.919 2.11092C242.279 1.83059 242.78 1.4902 243.16 1.26995C243.821 0.889507 244.482 0.649229 244.602 0.609183C245.443 0.328859 245.863 0.208719 246.824 0.0885803C248.006 -0.071605 249.307 0.02851 250.689 0.388927C251.81 0.669251 253.192 1.26995 254.473 2.03083L254.493 2.0108Z" fill="#E69900"/>
<path d="M240.237 3.87256C239.917 4.31307 240.237 5.25416 241.258 6.65578C243.961 10.3801 250.669 16.0466 256.236 19.2904C259.64 21.2727 261.822 21.8934 262.383 21.2327C242.42 44.7599 214.587 61.5994 202.513 91.8143C202.093 92.3149 200.451 91.8544 197.888 90.3526C193.723 87.9098 188.677 83.6649 186.655 80.8616C185.894 79.8004 185.654 79.0996 185.894 78.7592C204.015 53.7903 222.136 28.8214 240.257 3.85254L240.237 3.87256Z" fill="#D96428"/>
<path d="M262.383 21.2334C242.419 44.7606 222.456 68.2879 202.513 91.8151C202.794 91.4947 202.553 90.7939 201.772 89.6926L261.401 18.4102C262.463 19.8518 262.743 20.8129 262.383 21.2334Z" fill="#DEB645"/>
<path d="M185.894 78.7804C204.015 53.8115 222.136 28.8426 240.257 3.8737C240.777 3.15286 242.98 3.77358 246.424 5.7759C251.99 9.01965 258.678 14.6862 261.401 18.4105L201.772 89.693C199.73 86.8898 194.704 82.6448 190.539 80.202C187.956 78.6803 186.294 78.2197 185.894 78.7604V78.7804Z" fill="#E69900"/>
<path d="M185.894 78.7588C185.634 79.0792 185.874 79.78 186.655 80.8612C188.697 83.6645 193.723 87.9094 197.888 90.3522C200.451 91.8539 202.113 92.3145 202.513 91.7939L188.077 110.175C187.676 110.696 186.014 110.235 183.451 108.733C179.287 106.291 174.241 102.046 172.218 99.2425C171.438 98.1612 171.217 97.4604 171.458 97.14C175.783 91.6337 181.549 84.2852 185.894 78.7588Z" fill="#D96428"/>
<path d="M202.514 91.8143L188.077 110.196C188.338 109.875 188.097 109.174 187.316 108.093L201.753 89.7119C202.534 90.7932 202.754 91.494 202.514 91.8143Z" fill="#DEB645"/>
<path d="M171.457 97.141L185.894 78.7598C186.294 78.2392 187.956 78.6997 190.519 80.2014C194.684 82.6443 199.73 86.8892 201.752 89.6924L187.316 108.074C185.273 105.27 180.247 101.026 176.083 98.5827C173.52 97.081 171.858 96.6204 171.457 97.141Z" fill="#E69900"/>
<path d="M187.336 108.074C189.378 110.877 187.636 111.178 183.451 108.735C179.286 106.292 174.241 102.047 172.218 99.2438C170.176 96.4406 171.918 96.1402 176.103 98.5831C180.267 101.026 185.313 105.271 187.336 108.074Z" fill="#E69900"/>
<path d="M255.535 4.39278C253.453 1.42935 246.484 0.908751 245.063 1.40933C243.641 1.90991 174.681 96.9199 174.681 96.9199L179.207 99.4628C179.207 99.4628 248.667 5.8745 250.749 4.63306C252.812 3.41165 255.535 4.37276 255.535 4.37276V4.39278Z" fill="#DEB645"/>
<path d="M175.923 112.217L156.36 100.844C165.03 105.89 170.396 116.582 170.436 131.82C170.517 162.455 148.972 199.778 122.321 215.176C108.905 222.925 96.7512 223.646 87.9611 218.54L107.524 229.913C116.294 235.019 128.468 234.298 141.883 226.549C168.554 211.151 190.099 173.828 189.999 143.193C189.959 127.975 184.573 117.263 175.923 112.217Z" fill="url(#paint0_linear_780_19136)"/>
<path opacity="0.64" d="M136.037 223.166C162.708 207.768 184.253 170.445 184.153 139.81C184.072 109.174 162.387 96.7998 135.716 112.198C109.046 127.595 87.5007 164.919 87.6008 195.554C87.6809 226.189 109.386 238.544 136.037 223.146V223.166Z" fill="#6792D1"/>
<path opacity="0.64" d="M166.131 107.052C172.779 112.718 176.784 122.47 176.824 135.605C176.904 166.24 155.359 203.563 128.708 218.961C117.195 225.609 106.602 227.071 98.2727 224.127C107.163 231.696 120.779 231.996 136.016 223.186C162.687 207.788 184.232 170.465 184.132 139.83C184.092 122.43 177.064 110.936 166.111 107.052H166.131Z" fill="#DEECFF"/>
<path d="M141.543 107.473C172.118 89.8122 196.987 103.989 197.087 139.129C197.187 174.25 172.478 217.039 141.903 234.7C111.328 252.36 86.4588 238.184 86.3587 203.063C86.2586 167.943 110.967 125.153 141.543 107.493V107.473ZM141.883 226.55C168.554 211.153 190.099 173.829 189.999 143.194C189.919 112.559 168.233 100.184 141.563 115.582C114.892 130.98 93.3468 168.303 93.4469 198.938C93.527 229.574 115.232 241.928 141.883 226.53V226.55Z" fill="#D8E3E3"/>
<path d="M161.366 92.2345C151.294 86.3878 137.358 87.2087 121.98 96.099C91.4047 113.759 66.6961 156.529 66.7962 191.67C66.8362 209.11 73.0034 221.404 82.9349 227.171L102.498 238.544C92.566 232.777 86.3989 220.483 86.3588 203.043C86.2587 167.922 110.967 125.133 141.543 107.472C156.92 98.5819 170.857 97.7609 180.928 103.608L161.366 92.2345Z" fill="url(#paint1_linear_780_19136)"/>
<g style="mix-blend-mode:screen" opacity="0.64">
<path d="M149.952 123.871C155.559 128.717 154.357 139.289 147.289 147.458C140.201 155.648 129.929 158.331 124.323 153.485C118.716 148.64 119.917 138.068 126.986 129.898C134.074 121.709 144.346 119.026 149.952 123.871Z" fill="#646B78"/>
</g>
<g style="mix-blend-mode:multiply">
<path d="M5.18503 323.082L3.74338 322.241C-1.1623 319.398 -0.541592 314.412 5.12496 311.128L114.051 248.235C119.718 244.952 128.388 244.591 133.293 247.434L134.735 248.275C139.641 251.119 139.02 256.104 133.353 259.388L24.4273 322.281C18.7607 325.565 10.0907 325.925 5.18503 323.082Z" fill="#D3D8E6"/>
</g>
<defs>
<linearGradient id="paint0_linear_780_19136" x1="114.892" y1="234.158" x2="182.971" y2="116.222" gradientUnits="userSpaceOnUse">
<stop stop-color="#DAE7E7"/>
<stop offset="0.01" stop-color="#E1EAEA"/>
<stop offset="0.03" stop-color="#E3EBEB"/>
<stop offset="0.14" stop-color="#E3EBEB"/>
<stop offset="0.23" stop-color="#FEFFFF"/>
<stop offset="0.32" stop-color="#FCFDFD"/>
<stop offset="0.36" stop-color="#F5F8F8"/>
<stop offset="0.38" stop-color="#E9EFEF"/>
<stop offset="0.39" stop-color="#E3EBEB"/>
<stop offset="0.93" stop-color="#E3EBEB"/>
<stop offset="0.99" stop-color="#CAE3E3"/>
</linearGradient>
<linearGradient id="paint1_linear_780_19136" x1="73.4439" y1="221.744" x2="151.494" y2="86.548" gradientUnits="userSpaceOnUse">
<stop stop-color="#CAE3E3"/>
<stop offset="0.07" stop-color="#E3EBEB"/>
<stop offset="0.61" stop-color="#E3EBEB"/>
<stop offset="0.62" stop-color="#E9EFEF"/>
<stop offset="0.64" stop-color="#F5F8F8"/>
<stop offset="0.68" stop-color="#FCFDFD"/>
<stop offset="0.77" stop-color="#FEFFFF"/>
<stop offset="0.86" stop-color="#E3EBEB"/>
<stop offset="0.97" stop-color="#E3EBEB"/>
<stop offset="0.99" stop-color="#DAE7E7"/>
<stop offset="1" stop-color="#CDE3E3"/>
</linearGradient>
</defs>
</svg>
