<svg width="731" height="261" viewBox="0 0 731 261" fill="none" xmlns="http://www.w3.org/2000/svg">
<path d="M536.54 17.4802L655.887 21.1114L536.54 24.7256V17.4802Z" fill="#F6C22F"/>
<path d="M536.54 150.144L655.887 153.775L536.54 157.389V150.144Z" fill="#F8AF22"/>
<path d="M536.54 7.32983L623.41 9.50854L536.54 11.6872V7.32983Z" fill="#F6C332"/>
<path d="M536.54 31.7345L730.496 37.5443L536.54 43.3373V31.7345Z" fill="#F6C02E"/>
<path d="M536.54 129.607L730.496 136.852L536.54 144.097V129.607Z" fill="#F8B124"/>
<path d="M536.761 63L726.968 69.5L536.761 76V63Z" fill="#EEEEEE"/>
<path d="M536.54 82.7227L600.536 89.2418L536.54 95.7779V82.7227Z" fill="#EEEEEE"/>
<path d="M536.54 186.151L730.496 188.33L536.54 190.492V186.151Z" fill="#050505"/>
<path d="M536.54 198.463L664.549 202.82L536.54 207.161V198.463Z" fill="#050505"/>
<path d="M464.336 249.215L592.361 253.572L464.336 257.913V249.215Z" fill="black"/>
<path d="M468.676 239.791L548.801 244.148L468.676 248.489V239.791Z" fill="black"/>
<path d="M468.676 224.81L528.349 229.151L468.676 233.508V224.81Z" fill="#233A4C"/>
<path d="M135.88 249.215L263.889 253.572L135.88 257.913V249.215Z" fill="black"/>
<path d="M140.202 239.791L220.344 244.148L140.202 248.489V239.791Z" fill="black"/>
<path d="M140.202 224.81L199.892 229.151L140.202 233.508V224.81Z" fill="#233A4C"/>
<path d="M554.636 221.787C551.34 221.787 548.666 219.102 548.666 215.791V193.025C548.666 189.715 551.34 187.029 554.636 187.029C557.933 187.029 560.607 189.715 560.607 193.025V215.791C560.607 219.102 557.933 221.787 554.636 221.787Z" fill="#050505"/>
<path d="M195.805 44.0635V218.139H210.841V44.0635H195.805Z" fill="#050505"/>
<path d="M195.805 221.787H18.7356C16.4482 221.787 14.5981 219.929 14.5981 217.632V139.605C14.5981 136.041 16.4482 132.731 19.4588 130.873L31.333 123.56L56.8304 54.0788C59.9924 43.9116 69.3773 36.9702 80.0069 36.9702H192.374C196.276 36.9702 199.421 40.1454 199.421 44.0467V218.122C199.438 220.149 197.807 221.787 195.805 221.787Z" fill="#050505"/>
<path d="M168.945 193.498H199.437V44.0467C199.437 40.1285 196.275 36.9702 192.39 36.9702H80.023C69.4103 36.9702 60.0253 43.8947 56.8465 54.0788L31.3491 123.56L19.4749 130.873C16.4475 132.731 14.6143 136.041 14.6143 139.605V217.632C14.6143 219.929 16.4643 221.787 18.7517 221.787H73.3795C73.1441 219.811 73.0095 217.801 73.0095 215.775C73.0095 187.756 95.6309 165.04 123.533 165.04C143.481 165.023 160.737 176.643 168.945 193.498Z" fill="url(#paint0_linear_1801_893)"/>
<path opacity="0.5" d="M190.239 193.498V49.6538C190.239 44.8742 186.37 40.9897 181.61 40.9897H80.0243C71.1103 40.9897 63.3231 46.732 60.6994 55.1765L33.8228 129.032V204.408C33.8228 211.789 39.7935 217.784 47.1433 217.784H73.0781C73.0444 217.109 73.0108 216.45 73.0108 215.774C73.0108 214.913 73.0276 214.052 73.0781 213.19H47.1433C42.3163 213.19 38.3807 209.238 38.3807 204.391V129.843L65.0218 56.6459C67.0906 50.0254 73.1117 45.5836 80.0243 45.5836H181.61C183.847 45.5836 185.664 47.4076 185.664 49.6538V193.498H190.239Z" fill="#F8A71D"/>
<path opacity="0.5" d="M173.722 45.5836H80.0239C73.1114 45.5836 67.0902 50.0254 65.0551 56.5953L40.9704 121.5C40.264 123.763 40.6677 126.178 42.0637 128.087C43.4596 129.995 45.6293 131.11 48.0007 131.11H66.3838C74.9783 131.11 83.3541 128.053 89.9303 122.496L92.2176 120.554C98.3902 115.352 106.228 112.481 114.301 112.481H173.722C178.112 112.481 181.677 108.901 181.677 104.493V53.5721C181.677 49.1641 178.112 45.5836 173.722 45.5836Z" fill="#F8A71D"/>
<path d="M181.627 42.1382H80.0408C71.6313 42.1382 64.2815 47.5596 61.7923 55.565L35.0502 129.032L34.9829 129.218V204.391C34.9829 211.13 40.4491 216.619 47.1598 216.619H189.111V49.6369C189.095 45.516 185.748 42.1382 181.627 42.1382ZM186.824 214.339H47.1598C41.6937 214.339 37.2535 209.88 37.2535 204.391V129.623L63.9451 56.2912C66.1652 49.1978 72.6236 44.4182 80.024 44.4182H181.61C184.469 44.4182 186.807 46.7658 186.807 49.6369V214.339H186.824Z" fill="#050505"/>
<path d="M114.301 111.333H173.722C177.49 111.333 180.534 108.276 180.534 104.493V53.5721C180.534 49.789 177.49 46.7321 173.722 46.7321H80.0241C73.6161 46.7321 68.0323 50.853 66.1149 57.0006L42.047 121.855C40.7856 125.874 43.7962 129.978 47.9841 129.978H66.3672C74.7094 129.978 82.7824 127.023 89.1736 121.635L91.461 119.693C97.8858 114.288 105.959 111.333 114.301 111.333Z" fill="#050505"/>
<path opacity="0.5" d="M179.037 123.577H160.771C159.089 123.577 157.727 124.945 157.727 126.634C157.727 128.323 159.089 129.691 160.771 129.691H179.037C180.718 129.691 182.081 128.323 182.081 126.634C182.081 124.945 180.718 123.577 179.037 123.577Z" fill="#F8A71D"/>
<path d="M177.489 122.023H159.223C157.542 122.023 156.179 123.391 156.179 125.08C156.179 126.769 157.542 128.137 159.223 128.137H177.489C179.171 128.137 180.533 126.769 180.533 125.08C180.533 123.391 179.171 122.023 177.489 122.023Z" fill="white"/>
<path d="M26.187 206.08H10.495V172.691C10.495 169.6 7.85443 167.151 4.72611 167.438C2.00145 167.691 0 170.157 0 172.91V206.063V210.286C0 212.464 1.09323 214.39 2.77512 215.521C3.78426 216.197 4.99521 216.602 6.29027 216.602H10.495H26.4225C29.5004 216.602 31.9391 213.95 31.6532 210.809C31.3673 208.09 28.9285 206.08 26.187 206.08Z" fill="#050505"/>
<path d="M168.945 193.498C172.225 200.22 174.058 207.769 174.058 215.758C174.058 217.801 173.924 219.794 173.688 221.77H195.788C197.79 221.77 199.421 220.132 199.421 218.122V193.498H168.945Z" fill="#050505"/>
<path d="M48.2531 97.7031L44.822 96.2844C44.5865 96.1831 43.5101 96.2844 43.5101 96.2844C42.7028 95.9466 42.0469 97.7707 42.0469 100.372V123.797C42.0469 126.381 42.7028 128.762 43.5101 129.1L46.9412 130.518C47.1766 130.62 48.2531 130.518 48.2531 130.518C49.0604 130.856 49.7163 129.032 49.7163 126.431V102.989C49.7331 100.405 49.0772 98.024 48.2531 97.7031Z" fill="white"/>
<path d="M46.9573 97.7032L43.5262 96.2845C42.7189 95.9468 42.063 97.7708 42.063 100.372V123.797C42.063 126.381 42.7189 128.762 43.5262 129.1L46.9573 130.519C47.7646 130.856 48.4205 129.032 48.4205 126.431V102.989C48.4205 100.405 47.7646 98.0241 46.9573 97.7032Z" fill="white"/>
<path d="M168.945 193.498C160.738 176.642 143.481 165.023 123.534 165.023C122.828 165.023 122.138 165.04 121.449 165.073C140.471 165.884 156.752 177.25 164.673 193.498C167.953 200.22 169.786 207.769 169.786 215.757C169.786 217.801 169.652 219.794 169.416 221.77H173.705C173.941 219.794 174.075 217.784 174.075 215.757C174.058 207.786 172.225 200.22 168.945 193.498Z" fill="white"/>
<path d="M123.535 260.632C148.206 260.632 168.206 240.549 168.206 215.775C168.206 191.001 148.206 170.917 123.535 170.917C98.8641 170.917 78.8643 191.001 78.8643 215.775C78.8643 240.549 98.8641 260.632 123.535 260.632Z" fill="#6A757D"/>
<path d="M123.535 257.389C146.422 257.389 164.976 238.758 164.976 215.774C164.976 192.791 146.422 174.16 123.535 174.16C100.647 174.16 82.0928 192.791 82.0928 215.774C82.0928 238.758 100.647 257.389 123.535 257.389Z" fill="#29333B"/>
<path d="M123.535 243.675C138.88 243.675 151.32 231.184 151.32 215.774C151.32 200.365 138.88 187.874 123.535 187.874C108.19 187.874 95.75 200.365 95.75 215.774C95.75 231.184 108.19 243.675 123.535 243.675Z" fill="#6A757D"/>
<path d="M123.535 239.875C136.79 239.875 147.535 229.085 147.535 215.774C147.535 202.464 136.79 191.674 123.535 191.674C110.28 191.674 99.5342 202.464 99.5342 215.774C99.5342 229.085 110.28 239.875 123.535 239.875Z" fill="white"/>
<path d="M138.385 196.859C141.615 200.963 143.549 206.131 143.549 211.755C143.549 225.063 132.801 235.856 119.548 235.856C113.947 235.856 108.801 233.913 104.714 230.671C109.104 236.261 115.898 239.875 123.551 239.875C136.804 239.875 147.552 229.083 147.552 215.775C147.535 208.09 143.952 201.267 138.385 196.859Z" fill="#C5C8CA"/>
<path d="M221.841 221.787H532.554C542.225 221.787 550.063 213.917 550.063 204.205V17.5815C550.063 7.8703 542.225 0 532.554 0H221.841C212.171 0 204.333 7.8703 204.333 17.5815V204.205C204.333 213.917 212.171 221.787 221.841 221.787Z" fill="url(#paint1_linear_1801_893)"/>
<path d="M525.641 221.787H355.736C353.55 221.787 351.767 219.997 351.767 217.801V142.932C351.767 139.52 353.533 136.345 356.443 134.555L367.846 127.529L392.317 60.8512C395.362 51.0893 404.36 44.4351 414.552 44.4351H522.378C526.112 44.4351 529.139 47.4751 529.139 51.2245V218.274C529.139 220.216 527.575 221.787 525.641 221.787Z" fill="#050505"/>
<path d="M525.809 36.9702H413.442C402.829 36.9702 393.444 43.8947 390.265 54.0788L364.768 123.56L352.894 130.873C349.866 132.731 348.033 136.041 348.033 139.605V217.632C348.033 219.929 349.883 221.787 352.171 221.787H406.798C406.563 219.811 406.428 217.801 406.428 215.775C406.428 187.756 429.05 165.04 456.952 165.04C476.9 165.04 494.156 176.66 502.363 193.515C505.643 200.237 507.476 207.786 507.476 215.775C507.476 217.818 507.342 219.811 507.106 221.787H529.206C531.225 221.787 532.839 220.149 532.839 218.139V193.515V44.0636C532.873 40.1453 529.711 36.9702 525.809 36.9702Z" fill="url(#paint2_linear_1801_893)"/>
<path d="M550.079 48.6404H204.333V98.3279H550.079V48.6404Z" fill="#EEEEEE"/>
<path opacity="0.5" d="M537.026 11.0286H217.366C216.474 11.0286 215.768 11.7548 215.768 12.633V209.137C215.768 210.032 216.491 210.742 217.366 210.742H537.009C537.901 210.742 538.607 210.015 538.607 209.137V12.633C538.624 11.7379 537.901 11.0286 537.026 11.0286ZM536.353 13.2917V208.462H218.039V13.2917H536.353Z" fill="#F8A71D"/>
<path d="M538.171 10.8766H216.224C215.652 10.8766 215.181 11.3495 215.181 11.9237V209.846C215.181 210.421 215.652 210.894 216.224 210.894H538.188C538.76 210.894 539.231 210.421 539.231 209.846V11.9237C539.214 11.3495 538.76 10.8766 538.171 10.8766ZM538.087 209.745H216.308V12.0251H538.071V209.745H538.087Z" fill="#050505"/>
<path d="M456.97 260.632C481.641 260.632 501.641 240.549 501.641 215.775C501.641 191.001 481.641 170.917 456.97 170.917C432.299 170.917 412.299 191.001 412.299 215.775C412.299 240.549 432.299 260.632 456.97 260.632Z" fill="#6A757D"/>
<path d="M456.969 257.389C479.856 257.389 498.41 238.758 498.41 215.774C498.41 192.791 479.856 174.16 456.969 174.16C434.081 174.16 415.527 192.791 415.527 215.774C415.527 238.758 434.081 257.389 456.969 257.389Z" fill="#29333C"/>
<path d="M456.97 243.675C472.316 243.675 484.755 231.184 484.755 215.774C484.755 200.365 472.316 187.874 456.97 187.874C441.625 187.874 429.186 200.365 429.186 215.774C429.186 231.184 441.625 243.675 456.97 243.675Z" fill="#6A757D"/>
<path d="M456.969 239.875C470.224 239.875 480.97 229.085 480.97 215.774C480.97 202.464 470.224 191.674 456.969 191.674C443.714 191.674 432.969 202.464 432.969 215.774C432.969 229.085 443.714 239.875 456.969 239.875Z" fill="white"/>
<path d="M471.803 196.859C475.033 200.963 476.967 206.131 476.967 211.755C476.967 225.064 466.219 235.856 452.966 235.856C447.365 235.856 442.219 233.913 438.132 230.671C442.522 236.261 449.316 239.875 456.969 239.875C470.222 239.875 480.97 229.083 480.97 215.775C480.97 208.09 477.37 201.267 471.803 196.859Z" fill="#C5C8CA"/>
<path d="M502.38 193.498C494.173 176.643 476.917 165.023 456.969 165.023C456.263 165.023 455.573 165.04 454.884 165.074C473.906 165.884 490.187 177.251 498.108 193.498C501.388 200.22 503.221 207.769 503.221 215.758C503.221 217.801 503.087 219.794 502.851 221.77H507.14C507.376 219.794 507.51 217.784 507.51 215.758C507.493 207.786 505.643 200.22 502.38 193.498Z" fill="white"/>
<path opacity="0.25" d="M538.524 159.264H215.366V160.902H538.524V159.264Z" fill="#050505"/>
<defs>
<linearGradient id="paint0_linear_1801_893" x1="107.021" y1="221.788" x2="107.021" y2="36.9781" gradientUnits="userSpaceOnUse">
<stop stop-color="#FE9F0F"/>
<stop offset="1" stop-color="#FDBF2C"/>
</linearGradient>
<linearGradient id="paint1_linear_1801_893" x1="377.198" y1="221.787" x2="377.198" y2="-0.0212855" gradientUnits="userSpaceOnUse">
<stop stop-color="#FE9F0F"/>
<stop offset="1" stop-color="#FDBF2C"/>
</linearGradient>
<linearGradient id="paint2_linear_1801_893" x1="440.45" y1="219.41" x2="440.45" y2="0.0097173" gradientUnits="userSpaceOnUse">
<stop stop-color="#FE9F0F"/>
<stop offset="1" stop-color="#FDBF2C"/>
</linearGradient>
</defs>
</svg>
