<svg width="232" height="197" viewBox="0 0 232 197" fill="none" xmlns="http://www.w3.org/2000/svg">
<path d="M72.4261 191.351L5.32666 152.198V141.061L72.4261 180.167V191.351Z" fill="#AFBBD8"/>
<path d="M72.4263 180.168L79.2054 176.179V187.339L72.4263 191.351V180.168Z" fill="#9EAAC8"/>
<path d="M10.7687 141.038L72.4264 176.917L76.4616 174.542L79.2056 176.179L72.4264 180.168L8.04785 142.675L10.7687 141.038Z" fill="#CCD8F5"/>
<path d="M72.4261 191.351L5.32666 152.198V141.061L72.4261 180.167V191.351Z" fill="#AFBBD8"/>
<path d="M72.4263 180.168L79.2054 176.179V187.339L72.4263 191.351V180.168Z" fill="#9EAAC8"/>
<path d="M10.7687 141.038L72.4264 176.917L76.4616 174.542L79.2056 176.179L72.4264 180.168L8.04785 142.675L10.7687 141.038Z" fill="#CCD8F5"/>
<path d="M109.711 145.166L98.689 138.641V156.834L109.711 163.359V145.166Z" fill="#BD4417"/>
<path d="M220.253 81.7564L209.231 75.231V93.4239L220.253 99.9494V81.7564Z" fill="#ACBAD9"/>
<path d="M208.815 90.4712C206.97 89.3874 204.48 89.4336 201.713 90.7709C201.413 90.9093 201.113 91.0707 200.814 91.2552C196.802 93.5841 193.297 98.0343 191.314 102.807C190.23 105.436 189.607 108.157 189.607 110.67C189.607 114.221 190.876 116.711 192.882 117.887L200.491 122.315C198.485 121.139 197.217 118.648 197.217 115.097C197.217 112.561 197.839 109.863 198.923 107.235C200.906 102.461 204.411 97.9882 208.423 95.6824C208.723 95.4979 209.022 95.3365 209.322 95.1981C212.089 93.8607 214.579 93.8146 216.424 94.8984L208.815 90.4712Z" fill="#1C2024"/>
<path d="M208.446 95.6816C214.649 92.0845 219.699 94.9668 219.722 102.115C219.745 109.24 214.718 117.956 208.515 121.53C202.313 125.127 197.24 122.245 197.217 115.097C197.217 107.949 202.243 99.2556 208.446 95.6816Z" fill="#1D2A36"/>
<path d="M216.24 104.122C216.24 109.056 212.781 115.051 208.515 117.518C206.048 118.925 203.858 118.902 202.428 117.68C201.367 116.758 200.722 115.19 200.722 113.091C200.699 108.18 204.181 102.162 208.446 99.7175C210.222 98.7029 211.836 98.4262 213.15 98.8643C215.041 99.3485 216.217 101.239 216.24 104.122Z" fill="#CCCCCC"/>
<path d="M214.88 103.429C214.88 108.341 211.421 114.359 207.155 116.826C205.38 117.841 203.742 118.118 202.428 117.656C201.367 116.734 200.722 115.166 200.722 113.068C200.699 108.156 204.181 102.138 208.446 99.694C210.222 98.6794 211.836 98.4028 213.15 98.8409C214.234 99.7401 214.856 101.308 214.88 103.429Z" fill="#A6A6A6"/>
<path d="M208.469 100.962C208.469 101.631 208.008 102.438 207.432 102.761C206.855 103.084 206.394 102.83 206.394 102.161C206.394 101.493 206.855 100.686 207.432 100.363C207.985 100.04 208.469 100.317 208.469 100.962Z" fill="#CCCCCC"/>
<path d="M205.54 102.853C205.84 103.268 205.656 104.098 205.171 104.721C204.664 105.344 204.042 105.505 203.742 105.09C203.442 104.675 203.627 103.845 204.111 103.222C204.618 102.623 205.241 102.461 205.54 102.853Z" fill="#CCCCCC"/>
<path d="M203.074 106.128C203.581 106.174 203.742 106.796 203.466 107.557C203.166 108.295 202.543 108.871 202.036 108.825C201.552 108.779 201.367 108.157 201.667 107.396C201.944 106.658 202.589 106.081 203.074 106.128Z" fill="#CCCCCC"/>
<path d="M201.759 109.932C202.336 109.61 202.797 109.863 202.797 110.532C202.797 111.201 202.336 112.008 201.759 112.33C201.183 112.653 200.722 112.4 200.722 111.731C200.722 111.062 201.183 110.255 201.759 109.932Z" fill="#CCCCCC"/>
<path d="M201.943 113.207C202.45 112.584 203.073 112.423 203.373 112.838C203.649 113.253 203.488 114.083 202.981 114.705C202.473 115.328 201.851 115.489 201.551 115.097C201.274 114.659 201.436 113.829 201.943 113.207Z" fill="#CCCCCC"/>
<path d="M203.535 115.096C203.835 114.359 204.457 113.782 204.964 113.828C205.449 113.874 205.633 114.497 205.333 115.258C205.057 115.996 204.411 116.572 203.904 116.526C203.42 116.48 203.258 115.834 203.535 115.096Z" fill="#CCCCCC"/>
<path d="M206.163 115.12C206.163 114.451 206.624 113.644 207.2 113.321C207.777 112.999 208.238 113.252 208.238 113.921C208.238 114.59 207.777 115.397 207.2 115.72C206.624 116.042 206.163 115.766 206.163 115.12Z" fill="#CCCCCC"/>
<path d="M209.091 113.229C208.814 112.814 208.976 111.984 209.483 111.361C209.99 110.739 210.613 110.577 210.913 110.993C211.213 111.408 211.028 112.238 210.544 112.86C210.014 113.46 209.391 113.644 209.091 113.229Z" fill="#CCCCCC"/>
<path d="M211.535 109.955C211.051 109.909 210.866 109.286 211.166 108.525C211.466 107.787 212.089 107.211 212.596 107.257C213.103 107.303 213.264 107.949 212.988 108.687C212.688 109.424 212.042 110.001 211.535 109.955Z" fill="#CCCCCC"/>
<path d="M212.873 106.173C212.296 106.496 211.835 106.242 211.835 105.574C211.835 104.905 212.296 104.098 212.873 103.775C213.449 103.452 213.91 103.706 213.91 104.375C213.91 105.02 213.449 105.827 212.873 106.173Z" fill="#CCCCCC"/>
<path d="M212.689 102.876C212.181 103.499 211.559 103.66 211.259 103.268C210.982 102.853 211.144 102.023 211.651 101.401C212.135 100.778 212.781 100.617 213.058 101.032C213.357 101.424 213.196 102.254 212.689 102.876Z" fill="#CCCCCC"/>
<path d="M211.098 100.985C210.798 101.723 210.175 102.3 209.668 102.254C209.161 102.208 209 101.562 209.299 100.824C209.576 100.086 210.222 99.5097 210.729 99.5558C211.19 99.6019 211.375 100.248 211.098 100.985Z" fill="#CCCCCC"/>
<path d="M209.184 103.637C208.654 103.338 207.939 103.338 207.132 103.73C207.039 103.776 206.97 103.822 206.878 103.868C205.725 104.537 204.711 105.828 204.134 107.211C203.811 107.972 203.65 108.756 203.65 109.494C203.65 110.509 204.019 111.246 204.595 111.569L205.702 112.215C205.126 111.869 204.757 111.154 204.757 110.14C204.757 109.402 204.941 108.618 205.241 107.857C205.817 106.473 206.832 105.182 207.985 104.514C208.077 104.467 208.169 104.421 208.239 104.375C209.046 103.983 209.76 103.983 210.291 104.283L209.184 103.637Z" fill="#414141"/>
<path d="M207.962 104.514C209.76 103.476 211.213 104.306 211.213 106.381C211.213 108.433 209.76 110.947 207.962 111.984C206.163 113.022 204.71 112.192 204.71 110.117C204.71 108.065 206.163 105.551 207.962 104.514Z" fill="#808080"/>
<path d="M208.447 95.6816C202.244 99.2556 197.217 107.972 197.24 115.097C197.263 122.222 202.313 125.104 208.539 121.53C214.741 117.933 219.768 109.24 219.745 102.115C219.699 94.9668 214.649 92.0845 208.447 95.6816ZM207.155 116.849C205.38 117.864 203.743 118.14 202.428 117.679C201.368 116.757 200.722 115.189 200.722 113.091C200.699 108.179 204.181 102.161 208.447 99.7168C210.222 98.7022 211.836 98.4255 213.15 98.8636C214.211 99.7859 214.857 101.354 214.88 103.452C214.88 108.341 211.444 114.359 207.155 116.849Z" fill="#1A1C1F"/>
<path d="M97.9287 152.913C96.084 151.829 93.5937 151.875 90.8268 153.213C90.527 153.351 90.2272 153.513 89.9275 153.697C85.9154 156.026 82.4105 160.476 80.4275 165.249C79.3437 167.878 78.7212 170.599 78.7212 173.112C78.7212 176.663 79.9894 179.153 81.9955 180.329L89.6047 184.757C87.5986 183.581 86.3304 181.09 86.3304 177.539C86.3304 175.003 86.953 172.305 88.0367 169.676C90.0197 164.903 93.5245 160.43 97.5367 158.124C97.8364 157.94 98.1362 157.778 98.4359 157.64C101.203 156.303 103.693 156.256 105.538 157.34L97.9287 152.913Z" fill="#1C2024"/>
<path d="M97.5595 158.124C103.762 154.527 108.835 157.409 108.835 164.557C108.858 171.682 103.831 180.398 97.6286 183.972C91.426 187.569 86.3531 184.687 86.3301 177.539C86.3301 170.414 91.3337 161.721 97.5595 158.124Z" fill="#1D2A36"/>
<path d="M105.353 166.563C105.353 171.498 101.894 177.493 97.6283 179.96C95.161 181.367 92.9705 181.344 91.5409 180.122C90.4802 179.199 89.8346 177.631 89.8346 175.533C89.8115 170.622 93.2933 164.604 97.5591 162.159C99.3346 161.145 100.949 160.868 102.263 161.306C104.154 161.813 105.33 163.704 105.353 166.563Z" fill="#CCCCCC"/>
<path d="M103.992 165.895C103.992 170.806 100.534 176.824 96.2679 179.292C94.4924 180.306 92.8552 180.583 91.5409 180.122C90.4802 179.199 89.8346 177.631 89.8346 175.533C89.8115 170.622 93.2933 164.604 97.5591 162.159C99.3346 161.145 100.949 160.868 102.263 161.306C103.347 162.205 103.969 163.773 103.992 165.895Z" fill="#A6A6A6"/>
<path d="M97.5821 163.427C97.5821 164.096 97.1209 164.903 96.5444 165.226C95.968 165.549 95.5068 165.295 95.5068 164.626C95.5068 163.958 95.968 163.151 96.5444 162.828C97.0978 162.505 97.5821 162.759 97.5821 163.427Z" fill="#CCCCCC"/>
<path d="M94.6307 165.318C94.9305 165.733 94.746 166.563 94.2618 167.186C93.7545 167.808 93.132 167.97 92.8322 167.555C92.5324 167.14 92.7169 166.31 93.2011 165.687C93.7315 165.088 94.354 164.903 94.6307 165.318Z" fill="#CCCCCC"/>
<path d="M92.187 168.592C92.6943 168.638 92.8557 169.261 92.579 170.022C92.2792 170.759 91.6567 171.336 91.1494 171.29C90.6652 171.244 90.4807 170.621 90.7804 169.86C91.0571 169.122 91.7028 168.546 92.187 168.592Z" fill="#CCCCCC"/>
<path d="M90.8721 172.375C91.4485 172.052 91.9097 172.305 91.9097 172.974C91.9097 173.643 91.4485 174.45 90.8721 174.773C90.2956 175.096 89.8345 174.842 89.8345 174.173C89.8345 173.505 90.2956 172.721 90.8721 172.375Z" fill="#CCCCCC"/>
<path d="M91.0337 175.671C91.5409 175.048 92.1635 174.887 92.4633 175.302C92.74 175.717 92.5785 176.547 92.0943 177.17C91.587 177.792 90.9645 177.954 90.6647 177.562C90.365 177.124 90.5494 176.271 91.0337 175.671Z" fill="#CCCCCC"/>
<path d="M92.6481 177.562C92.9479 176.824 93.5704 176.248 94.0777 176.294C94.5619 176.34 94.7464 176.963 94.4467 177.724C94.17 178.462 93.5243 179.038 93.0171 178.992C92.5328 178.946 92.3714 178.3 92.6481 177.562Z" fill="#CCCCCC"/>
<path d="M95.2764 177.562C95.2764 176.893 95.7375 176.086 96.314 175.763C96.8904 175.441 97.3516 175.694 97.3516 176.363C97.3516 177.032 96.8904 177.839 96.314 178.161C95.7375 178.507 95.2764 178.231 95.2764 177.562Z" fill="#CCCCCC"/>
<path d="M98.2049 175.671C97.9282 175.256 98.0896 174.426 98.5969 173.803C99.1042 173.181 99.7268 173.019 100.027 173.434C100.326 173.849 100.142 174.68 99.6576 175.302C99.1273 175.925 98.5047 176.086 98.2049 175.671Z" fill="#CCCCCC"/>
<path d="M100.648 172.397C100.164 172.351 99.9797 171.728 100.279 170.967C100.579 170.229 101.202 169.653 101.709 169.699C102.216 169.745 102.378 170.368 102.101 171.128C101.778 171.889 101.156 172.443 100.648 172.397Z" fill="#CCCCCC"/>
<path d="M101.964 168.615C101.387 168.937 100.926 168.684 100.926 168.015C100.926 167.346 101.387 166.539 101.964 166.216C102.54 165.894 103.002 166.147 103.002 166.816C103.025 167.485 102.54 168.292 101.964 168.615Z" fill="#CCCCCC"/>
<path d="M101.802 165.341C101.294 165.963 100.672 166.125 100.372 165.733C100.095 165.318 100.257 164.487 100.764 163.865C101.248 163.242 101.894 163.081 102.17 163.496C102.47 163.888 102.309 164.718 101.802 165.341Z" fill="#CCCCCC"/>
<path d="M100.189 163.427C99.8889 164.165 99.2663 164.742 98.759 164.695C98.2518 164.649 98.0903 164.004 98.3901 163.266C98.6668 162.528 99.3124 161.952 99.8197 161.998C100.304 162.067 100.488 162.689 100.189 163.427Z" fill="#CCCCCC"/>
<path d="M98.2747 166.103C97.7443 165.803 97.0295 165.803 96.2225 166.195C96.1303 166.241 96.038 166.287 95.9689 166.333C94.8159 167.002 93.8014 168.293 93.2249 169.677C92.9021 170.438 92.7407 171.222 92.7407 171.959C92.7407 172.974 93.1096 173.712 93.6861 174.035L94.7929 174.68C94.2164 174.334 93.8475 173.62 93.8475 172.605C93.8475 171.867 94.032 171.083 94.3317 170.322C94.9082 168.939 95.9227 167.647 97.0756 166.979C97.1679 166.933 97.2601 166.887 97.3293 166.84C98.1363 166.448 98.8511 166.449 99.3815 166.748L98.2747 166.103Z" fill="#414141"/>
<path d="M97.0759 166.956C98.8745 165.919 100.327 166.749 100.327 168.824C100.327 170.876 98.8745 173.39 97.0759 174.427C95.2774 175.465 93.8247 174.635 93.8247 172.56C93.8247 170.507 95.2774 167.994 97.0759 166.956Z" fill="#808080"/>
<path d="M97.5599 158.124C91.3572 161.698 86.3305 170.414 86.3536 177.539C86.3767 184.664 91.4264 187.546 97.6521 183.972C103.855 180.375 108.881 171.682 108.858 164.557C108.812 157.432 103.763 154.55 97.5599 158.124ZM96.2686 179.291C94.4932 180.306 92.856 180.583 91.5417 180.121C90.481 179.199 89.8354 177.631 89.8354 175.533C89.8123 170.621 93.2941 164.603 97.5599 162.159C99.3354 161.144 100.949 160.868 102.264 161.306C103.324 162.228 103.97 163.796 103.993 165.894C103.993 170.806 100.557 176.801 96.2686 179.291Z" fill="#1A1C1F"/>
<path d="M14.8266 140.508L12.1058 138.871L5.32666 142.86L8.04751 144.497L14.8266 140.508Z" fill="#AFBBD8"/>
<path d="M14.8266 138.686L12.1058 137.049L5.32666 141.061L8.04751 142.698L14.8266 138.686Z" fill="#CCD8F5"/>
<path d="M176.049 57.6139L212.665 33.0338C212.665 31.0278 157.003 0.844536 157.003 0.844536C155.988 -0.285317 153.544 -0.28533 151.538 0.867581L125.736 15.7632L120.571 18.7377L118.634 19.8445C116.789 20.9052 115.267 23.1649 115.037 25.0787L175.472 59.8967C175.818 59.1357 176.049 58.3517 176.049 57.6139Z" fill="#EFF3FC"/>
<path d="M115.014 25.1011C114.991 25.2855 114.968 25.447 114.968 25.6084V74.4688V96.5124L170.631 128.586L172.383 63.3547C173.651 62.6168 174.781 61.3025 175.427 59.9421L115.014 25.1011Z" fill="#ACBAD9"/>
<path d="M47.0387 167.601C47.2001 167.786 47.3615 167.947 47.5229 168.131V168.224C47.2232 167.993 46.9234 167.763 46.6006 167.578V167.163C46.7389 167.324 46.9003 167.463 47.0387 167.601Z" fill="#C0C2C1"/>
<path d="M46.6006 166.656V89.4575H47.5229V167.579C47.2232 167.279 46.9234 166.956 46.6006 166.656Z" fill="#BD4417"/>
<path d="M4.77246 70.0874V139.354L65.2081 104.444L4.77246 70.0874Z" fill="#E69900"/>
<path d="M4.77246 139.354V139.378L68.8282 175.948V106.497L65.2081 104.444L4.77246 139.354Z" fill="#E69900"/>
<path d="M71.4335 118.51L71.3643 142.882L43.4639 159.092L43.533 134.72L71.4335 118.51Z" fill="#C5975B"/>
<path d="M43.5339 134.719L43.4647 159.092L10.5376 139.93L10.6068 115.558L43.5339 134.719Z" fill="#DAAF6A"/>
<path d="M71.4336 118.51L43.5331 134.719L10.606 115.558L38.4833 99.3481L71.4336 118.51Z" fill="#EFD996"/>
<path d="M27.6465 105.643L21.8589 109.01L54.8091 128.171L60.5736 124.827L27.6465 105.643Z" fill="#F7ECEA"/>
<path d="M54.8096 128.171L60.5741 124.827V130.638L54.8096 133.958V128.171Z" fill="#C2AB9D"/>
<path d="M68.4596 141.476V142.052L64.1016 144.565V143.989L68.4596 141.476Z" fill="#5C4123"/>
<path d="M67.6061 141.637L67.1219 141.914V138.847L66.6377 139.147L67.3756 137.44L68.1134 138.294L67.6061 138.57V141.637Z" fill="#5C4123"/>
<path d="M65.4383 142.905L64.931 143.181V140.115L64.4468 140.391L65.1846 138.708L65.9225 139.561L65.4383 139.838V142.905Z" fill="#5C4123"/>
<path d="M62.6494 144.934V140.669C62.6494 139.839 63.3181 138.778 64.1482 138.317L68.414 135.849C69.2441 135.365 69.9127 135.665 69.9127 136.472V140.738C69.9127 141.568 69.2441 142.629 68.414 143.09L64.1482 145.557C63.3181 146.041 62.6494 145.764 62.6494 144.934ZM64.1482 138.593C63.4795 138.985 62.9491 139.815 62.9491 140.484V144.75C62.9491 145.419 63.4795 145.626 64.1482 145.257L68.414 142.79C69.0827 142.398 69.613 141.568 69.613 140.899V136.633C69.613 135.965 69.0827 135.757 68.414 136.126L64.1482 138.593Z" fill="#5C4123"/>
<path d="M55.1095 146.872C55.1325 146.872 55.1325 146.848 55.1325 146.825C55.1325 146.733 55.5014 146.41 56.0318 146.111C56.5621 145.811 56.9311 145.696 56.9311 145.788C56.9311 145.811 56.9311 145.811 56.9541 145.788C56.9772 145.788 56.9772 145.765 56.9772 145.742C56.9772 145.649 57.277 145.396 57.7151 145.119V147.471V147.748C57.7612 148.024 58.0148 148.071 58.3376 147.886C58.6835 147.679 58.9602 147.24 58.9602 146.918C58.9602 146.825 58.891 146.802 58.8218 146.848C58.7527 146.895 58.6835 146.987 58.6835 147.079C58.6835 147.241 58.5221 147.471 58.3376 147.586C57.9687 147.794 57.9918 147.333 57.9918 147.333V144.912C58.4299 144.681 58.7296 144.589 58.7296 144.681C58.7296 144.704 58.7296 144.704 58.7527 144.681C58.7757 144.681 58.7757 144.658 58.7757 144.635C58.7757 144.543 59.1447 144.22 59.675 143.92C60.2053 143.62 60.5743 143.505 60.5743 143.597C60.5743 143.62 60.5743 143.62 60.5973 143.597C60.6204 143.597 60.6204 143.574 60.6204 143.551C60.5743 142.491 59.4444 142.075 58.0609 142.767C58.0609 142.698 57.9687 142.698 57.8534 142.744C57.7381 142.813 57.6459 142.929 57.6459 142.998C56.2624 143.897 55.1095 145.626 55.0864 146.733C55.0864 146.895 55.0864 146.895 55.1095 146.872Z" fill="#5C4123"/>
<path d="M54.2329 149.8V145.534C54.2329 144.704 54.9016 143.643 55.7317 143.182L59.9975 140.715C60.8276 140.23 61.4963 140.53 61.4963 141.337V145.603C61.4963 146.433 60.8276 147.494 59.9975 147.955L55.7317 150.422C54.9016 150.906 54.2329 150.607 54.2329 149.8ZM55.7317 143.459C55.063 143.828 54.5327 144.681 54.5327 145.349V149.615C54.5327 150.284 55.063 150.491 55.7317 150.122L59.9975 147.655C60.6662 147.286 61.1965 146.433 61.1965 145.764V141.499C61.1965 140.83 60.6662 140.622 59.9975 140.991L55.7317 143.459Z" fill="#5C4123"/>
<path d="M48.3062 150.008C48.3292 150.676 48.7673 150.953 49.3438 150.676V152.798L48.6059 153.213V153.49L50.2661 152.544V152.267L49.5282 152.683V150.561C50.1047 150.169 50.5428 149.362 50.5658 148.693V147.125L48.3062 148.44V150.008Z" fill="#5C4123"/>
<path d="M45.8159 154.642V150.376C45.8159 149.546 46.4846 148.485 47.3147 148.024L51.5805 145.557C52.4106 145.073 53.0792 145.372 53.0792 146.179V150.445C53.0792 151.275 52.4106 152.336 51.5805 152.797L47.3147 155.264C46.4846 155.749 45.8159 155.472 45.8159 154.642ZM47.3147 148.324C46.646 148.693 46.1157 149.546 46.1157 150.215V154.48C46.1157 155.149 46.646 155.357 47.3147 154.988L51.5805 152.521C52.2492 152.129 52.7795 151.298 52.7795 150.63V146.364C52.7795 145.695 52.2492 145.488 51.5805 145.857L47.3147 148.324Z" fill="#5C4123"/>
<path d="M34.5869 133.821L25.8709 128.771L21.4437 126.188L13.1888 121.392L13.1196 102.692L21.4437 107.511L21.9971 107.834L34.5177 115.12L34.5869 133.821Z" fill="#BB884F"/>
<path d="M65.8306 115.789L52.4108 123.537L47.9605 126.096L34.5867 133.821L34.5176 115.12L47.9605 107.35L52.4108 104.79L65.7614 97.0889L65.8306 115.789Z" fill="#E0B477"/>
<path d="M65.7616 97.0892L52.4109 104.791L47.9606 107.35L34.5177 115.121L13.1196 102.692L26.4934 94.9678L30.9437 92.4083L44.3635 84.6377L65.7616 97.0892Z" fill="#EFCD90"/>
<g opacity="0.5">
<path d="M51.8115 105.16L47.3612 107.719L25.894 95.3369L30.3443 92.7544L51.8115 105.16Z" fill="#E4CDBF"/>
</g>
<path opacity="0.5" d="M51.8121 105.159V123.882L47.3618 126.465V107.718L51.8121 105.159Z" fill="#E4CDBF"/>
<path d="M52.4106 104.79L47.9604 107.35L26.4932 94.9677L30.9434 92.4082L52.4106 104.79Z" fill="#F7ECEA"/>
<g opacity="0.6">
<path d="M53.2415 89.7793L57.6686 92.3618L26.4247 110.393L21.9976 107.834L53.2415 89.7793Z" fill="#F7ECEA"/>
</g>
<path opacity="0.6" d="M26.4017 110.394V129.071L21.9976 126.512V107.834L22.551 108.157L26.4017 110.394Z" fill="#C2AB9D"/>
<path d="M52.6873 89.4795L57.1144 92.062L25.8706 110.094L21.4434 107.511L52.6873 89.4795Z" fill="#F7ECEA"/>
<path d="M25.8706 110.094V128.771L21.4434 126.188V107.511L21.9968 107.834L25.8706 110.094Z" fill="#C2AB9D"/>
<path d="M57.023 82.7466L56.9307 98.749L41.3203 107.765L41.4125 91.7854L57.023 82.7466Z" fill="#E0B477"/>
<path d="M41.412 91.7864L41.3197 107.766L25.4326 98.5194L25.5018 82.54L41.412 91.7864Z" fill="#BB884F"/>
<path d="M57.0221 82.7467L41.4116 91.7855L25.5015 82.5392L41.1119 73.5234L57.0221 82.7467Z" fill="#EFCD90"/>
<path d="M35.048 77.0283L31.8198 78.896L47.7069 88.1424L50.9351 86.2747L35.048 77.0283Z" fill="#F7ECEA"/>
<path d="M47.7301 88.1421L50.9352 86.2744V89.5256L47.707 91.3703L47.7301 88.1421Z" fill="#C2AB9D"/>
<path d="M73.6019 103.73L0 61.8793L93.2014 7.66943L167.103 49.9352L73.6019 103.73Z" fill="#FFD54D"/>
<path opacity="0.1" d="M73.6016 103.73L93.2011 7.66943L167.103 49.9352L73.6016 103.73Z" fill="#FF8C00"/>
<path d="M167.08 49.7969V130.247L111.348 162.413L109.711 163.359C109.526 158.148 106.69 154.827 102.401 154.827C100.626 154.827 98.7581 155.404 96.8212 156.51C90.3649 160.246 85.1307 169.308 85.1537 176.732C85.1537 177.009 85.1537 177.263 85.1768 177.539L73.6016 184.203V183.097V178.831V163.197V162.183V103.776L167.08 49.7969Z" fill="#E69900"/>
<path opacity="0.1" d="M167.08 49.7969V130.247L111.348 162.413L109.711 163.359C109.526 158.148 106.69 154.827 102.401 154.827C100.626 154.827 98.7581 155.404 96.8212 156.51C90.3649 160.246 85.1307 169.308 85.1537 176.732C85.1537 177.009 85.1537 177.263 85.1768 177.539L73.6016 184.203V183.097L167.08 49.7969Z" fill="#DE6000"/>
<path d="M229.867 52.4715L212.642 32.9412C211.628 31.8113 209.184 31.8114 207.178 32.9643L181.398 47.8599L176.233 50.8575L174.297 51.9642C172.29 53.1172 170.653 55.6997 170.653 57.7058V106.566V128.61L174.297 126.511L175.795 125.658L180.292 123.053L185.526 120.032L195.741 114.129C195.718 113.806 195.695 113.461 195.695 113.115C195.671 105.69 200.906 96.628 207.362 92.8926C209.299 91.7858 211.167 91.2094 212.942 91.2094C217.3 91.2094 220.136 94.645 220.252 99.9715L224.932 97.2737L228.068 95.4751C230.074 94.3222 231.711 91.7397 231.711 89.7567V58.19C231.711 56.1839 230.881 53.6244 229.867 52.4715Z" fill="#CCD8F5"/>
<path d="M199.223 44.7935V93.4233C194.703 98.3116 191.521 103.2 191.014 109.449L175.45 118.441V58.5362L199.223 44.7935Z" fill="#ACBAD9"/>
<path d="M197.171 81.271V84.5453L192.605 87.3584V84.0841L197.171 81.271Z" fill="#8F9CBB"/>
<path d="M196.686 84.1994V81.5707L197.171 81.271V84.5453L192.605 87.3584V86.7127L196.686 84.1994Z" fill="#EFF3FC"/>
<path d="M196.686 81.5707V84.1994L197.17 84.5453V81.271L196.686 81.5707Z" fill="#CCD8F5"/>
<path d="M6.66406 147.725L12.3594 151.068L13.4893 150.377L7.79389 147.033L6.66406 147.725Z" fill="#D63A3B"/>
<path d="M6.66406 147.724V152.244L12.3594 155.587V151.068L6.66406 147.724Z" fill="#B32B2B"/>
<path d="M12.3599 151.069V155.588L13.4897 154.919V150.377L12.3599 151.069Z" fill="#872220"/>
<path d="M63.6636 180.86L69.359 184.203L70.4888 183.511L64.7934 180.168L63.6636 180.86Z" fill="#D63A3B"/>
<path d="M63.6636 180.859V185.402L69.359 188.745V184.203L63.6636 180.859Z" fill="#B32B2B"/>
<path d="M69.3594 184.204V188.746L70.4892 188.055V183.512L69.3594 184.204Z" fill="#872220"/>
<path d="M191.43 49.3359L175.427 81.2716V70.8954L184.097 53.6017L191.43 49.3359Z" fill="#2D3C4E"/>
<path d="M184.097 53.6011L175.427 70.8947V58.6278L184.097 53.6011Z" fill="#29313B"/>
<path d="M199.224 76.9138V64.6699L190.554 81.9405L199.224 76.9138Z" fill="#29313B"/>
<path d="M199.223 44.8394V54.3855L183.267 86.1597L175.427 90.7252V81.2714L191.43 49.3357L199.223 44.8394Z" fill="#29313B"/>
<path d="M199.223 64.6697V54.3857L183.267 86.16L190.553 81.9403L199.223 64.6697Z" fill="#2D3C4E"/>
<path d="M201.183 43.917V50.4655L205.795 41.2422L201.183 43.917Z" fill="#29313B"/>
<path d="M210.729 41.7266L201.183 60.7727V76.0142L207.017 72.6246L217.877 50.9729L210.729 41.7266Z" fill="#29313B"/>
<path d="M208.954 39.4209L205.795 41.2425L201.183 50.4658V60.7728L210.729 41.7267L208.954 39.4209Z" fill="#2D3C4E"/>
<path d="M217.877 50.9736L207.017 72.6253L214.626 68.1981L221.151 55.2163L217.877 50.9736Z" fill="#2D3C4E"/>
<path d="M221.151 55.2153L214.626 68.1971L226.063 61.5794L221.151 55.2153Z" fill="#29313B"/>
<path d="M0 61.8799V142.169L73.6249 184.181V103.731L0 61.8799ZM68.8288 175.949L4.77304 139.402V139.356V70.0886L65.2087 104.445L68.8288 106.498V175.949Z" fill="#E4C000"/>
<path d="M68.8282 127.088L4.77246 90.541V70.0884L65.2081 104.445L68.8282 106.497V127.088Z" fill="#FF8C00"/>
<path d="M68.8282 127.088L4.77246 90.5406V86.5054L68.8282 122.914V127.088Z" fill="#FFD54D"/>
<path d="M68.8282 119.64L4.77246 83.0923V79.0571L68.8282 115.466V119.64Z" fill="#FFD54D"/>
<path d="M68.8282 113.046L4.77246 76.4986V72.4634L68.8282 108.895V113.046Z" fill="#FFD54D"/>
<path d="M50.5669 176.501C50.5669 176.87 50.8205 177.308 51.1434 177.493L61.3582 183.396C61.681 183.58 61.9346 183.419 61.9346 183.073V178.992C61.9346 178.623 61.681 178.185 61.3582 178L51.1434 172.097C50.8205 171.913 50.5669 172.074 50.5669 172.42V176.501Z" fill="#10171E"/>
<path d="M14.5034 156.28C14.5034 156.649 14.7571 157.087 15.0799 157.272L25.2947 163.175C25.6175 163.359 25.8711 163.198 25.8711 162.852V158.77C25.8711 158.401 25.6175 157.963 25.2947 157.779L15.0799 151.876C14.7571 151.692 14.5034 151.853 14.5034 152.199V156.28Z" fill="#10171E"/>
<path d="M229.245 89.3875L224.495 92.2006L223.55 91.6241L228.323 88.811L229.245 89.3875Z" fill="#FFC64A"/>
<path d="M229.269 89.3877V93.1923L224.496 95.9823V92.2008L229.246 89.3877H229.269Z" fill="#FFA200"/>
<path d="M224.495 92.201V95.9825L223.55 95.4061V91.6245L224.495 92.201Z" fill="#DE6000"/>
<path d="M177.849 119.294L173.099 122.084L172.153 121.507L176.903 118.694L177.849 119.294Z" fill="#FFC64A"/>
<path d="M177.849 119.293V123.075L173.099 125.865V122.083L177.849 119.293Z" fill="#FFA200"/>
<path d="M173.099 122.085V125.866L172.153 125.29V121.508L173.099 122.085Z" fill="#DE6000"/>
<path d="M163.045 6.67871V7.46268L159.586 9.46877V8.68477L163.045 6.67871Z" fill="#27272E"/>
<path d="M152.116 4.37305V5.1801L159.587 9.46893V8.68492L152.116 4.37305Z" fill="#1A1A1F"/>
<path d="M159.587 8.68463L163.045 6.67858L155.459 2.3667L152.116 4.37275L159.587 8.68463Z" fill="#42424D"/>
<path d="M161.938 4.8335V6.60899L159.425 8.08471V6.28618L161.938 4.8335Z" fill="#FFA200"/>
<path d="M153.245 2.71191V4.51045L159.425 8.08449V6.28595L153.245 2.71191Z" fill="#DE6000"/>
<path d="M159.425 6.28595L161.938 4.83327L155.643 1.25928L153.245 2.71192L159.425 6.28595Z" fill="#FFC64A"/>
<path d="M181.93 17.5625V18.3465L178.448 20.3756V19.5916L181.93 17.5625Z" fill="#27272E"/>
<path d="M171 15.2793V16.0863L178.448 20.3752V19.5912L171 15.2793Z" fill="#1A1A1F"/>
<path d="M178.448 19.591L181.93 17.5619L174.343 13.25L171 15.2791L178.448 19.591Z" fill="#42424D"/>
<path d="M180.8 15.7168V17.5153L178.31 18.968V17.1925L180.8 15.7168Z" fill="#FFA200"/>
<path d="M172.107 13.6196V15.3951L178.31 18.9691V17.1936L172.107 13.6196Z" fill="#DE6000"/>
<path d="M178.31 17.1933L180.8 15.7176L174.528 12.1436L172.107 13.6193L178.31 17.1933Z" fill="#FFC64A"/>
<path d="M200.793 28.4688V29.2528L197.334 31.2588V30.4748L200.793 28.4688Z" fill="#27272E"/>
<path d="M189.862 26.1631V26.9701L197.333 31.259V30.475L189.862 26.1631Z" fill="#1A1A1F"/>
<path d="M197.333 30.4747L200.792 28.4686L193.206 24.1567L189.862 26.1628L197.333 30.4747Z" fill="#42424D"/>
<path d="M199.686 26.6235V28.399L197.173 29.8517V28.0762L199.686 26.6235Z" fill="#FFA200"/>
<path d="M190.993 24.5029V26.3015L197.172 29.8525V28.077L190.993 24.5029Z" fill="#DE6000"/>
<path d="M197.172 28.0765L199.686 26.6238L193.391 23.0498L190.993 24.5024L197.172 28.0765Z" fill="#FFC64A"/>
<path d="M178.193 157.595L178.124 181.068L151.261 196.701L151.33 173.205L178.193 157.595Z" fill="#C5975B"/>
<path d="M151.331 173.205L151.262 196.701L119.534 178.209L119.58 154.735L151.331 173.205Z" fill="#DAAF6A"/>
<path d="M178.194 157.594L151.331 173.205L119.58 154.735L146.465 139.125L178.194 157.594Z" fill="#EFD996"/>
<path d="M135.997 145.189L130.44 148.417L162.192 166.887L167.749 163.659L135.997 145.189Z" fill="#F7ECEA"/>
<path d="M162.191 166.887L167.748 163.659V169.262L162.191 172.467V166.887Z" fill="#C2AB9D"/>
<path d="M175.334 179.73V180.26L171.137 182.705V182.151L175.334 179.73Z" fill="#5C4123"/>
<path d="M174.527 179.869L174.066 180.145V177.194L173.582 177.471L174.296 175.833L175.011 176.64L174.527 176.917V179.869Z" fill="#5C4123"/>
<path d="M172.428 181.091L171.944 181.368V178.393L171.483 178.67L172.198 177.033L172.889 177.863L172.428 178.14V181.091Z" fill="#5C4123"/>
<path d="M169.731 183.051V178.924C169.731 178.14 170.377 177.102 171.161 176.641L175.288 174.266C176.072 173.805 176.718 174.082 176.718 174.866V178.993C176.718 179.777 176.072 180.815 175.288 181.276L171.161 183.651C170.377 184.112 169.731 183.835 169.731 183.051ZM171.184 176.941C170.538 177.31 170.031 178.117 170.031 178.763V182.89C170.031 183.536 170.538 183.743 171.184 183.374L175.312 180.999C175.957 180.63 176.464 179.823 176.464 179.178V175.05C176.464 174.405 175.957 174.197 175.312 174.566L171.184 176.941Z" fill="#5C4123"/>
<path d="M162.467 184.919C162.49 184.919 162.49 184.896 162.49 184.872C162.49 184.78 162.836 184.481 163.343 184.181C163.85 183.881 164.196 183.789 164.196 183.881C164.196 183.904 164.196 183.904 164.219 183.881C164.242 183.881 164.242 183.858 164.242 183.835C164.242 183.743 164.542 183.489 164.957 183.235V185.518V185.795C165.003 186.072 165.257 186.118 165.557 185.933C165.902 185.749 166.156 185.311 166.156 184.988C166.156 184.896 166.087 184.872 166.018 184.919C165.949 184.965 165.879 185.057 165.879 185.149C165.879 185.311 165.718 185.541 165.533 185.633C165.165 185.841 165.211 185.403 165.211 185.403V183.074C165.649 182.843 165.925 182.774 165.925 182.843C165.925 182.866 165.925 182.866 165.949 182.843C165.972 182.843 165.972 182.82 165.972 182.797C165.972 182.705 166.317 182.405 166.825 182.106C167.332 181.806 167.678 181.714 167.678 181.806C167.678 181.829 167.678 181.829 167.701 181.806C167.724 181.806 167.724 181.783 167.724 181.76C167.678 180.745 166.594 180.33 165.257 180.999C165.257 180.93 165.165 180.93 165.049 180.976C164.934 181.045 164.842 181.137 164.842 181.229C163.504 182.106 162.398 183.766 162.375 184.849C162.444 184.919 162.467 184.942 162.467 184.919Z" fill="#5C4123"/>
<path d="M161.637 187.731V183.604C161.637 182.82 162.283 181.782 163.067 181.321L167.194 178.946C167.978 178.485 168.647 178.761 168.647 179.545V183.673C168.647 184.457 168.001 185.494 167.194 185.956L163.067 188.331C162.283 188.792 161.637 188.515 161.637 187.731ZM163.067 181.621C162.421 181.99 161.914 182.797 161.914 183.442V187.57C161.914 188.215 162.421 188.423 163.067 188.054L167.194 185.679C167.84 185.31 168.347 184.503 168.347 183.857V179.73C168.347 179.084 167.84 178.877 167.194 179.246L163.067 181.621Z" fill="#5C4123"/>
<path d="M155.92 187.939C155.943 188.585 156.381 188.862 156.911 188.585V190.614L156.196 191.029V191.283L157.787 190.36V190.107L157.072 190.522V188.493C157.626 188.124 158.064 187.34 158.064 186.694V185.195L155.896 186.463V187.939H155.92Z" fill="#5C4123"/>
<path d="M153.522 192.413V188.286C153.522 187.502 154.168 186.464 154.975 186.003L159.102 183.628C159.886 183.167 160.555 183.444 160.555 184.228V188.355C160.555 189.139 159.909 190.177 159.102 190.638L154.975 193.013C154.168 193.474 153.522 193.197 153.522 192.413ZM154.952 186.303C154.306 186.672 153.799 187.479 153.799 188.124V192.252C153.799 192.898 154.306 193.105 154.952 192.736L159.079 190.361C159.725 189.992 160.232 189.185 160.232 188.539V184.412C160.232 183.766 159.725 183.559 159.079 183.928L154.952 186.303Z" fill="#5C4123"/>
<path d="M142.684 172.328L134.314 167.463L130.048 164.995L122.07 160.361L122.024 142.329L130.048 146.987L130.579 147.31L142.638 154.319L142.684 172.328Z" fill="#BB884F"/>
<path d="M172.798 154.966L159.863 162.413L155.597 164.881L142.684 172.328L142.638 154.32L155.597 146.826L159.863 144.359L172.752 136.934L172.798 154.966Z" fill="#E0B477"/>
<path d="M172.752 136.934L159.862 144.358L155.597 146.826L142.638 154.32L122.024 142.329L134.913 134.881L139.179 132.414L152.138 124.943L172.752 136.934Z" fill="#EFCD90"/>
<g opacity="0.5">
<path d="M159.309 144.704L155.02 147.172L134.337 135.251L138.626 132.76L159.309 144.704Z" fill="#E4CDBF"/>
</g>
<path opacity="0.5" d="M159.309 144.704V162.758L155.02 165.248V147.171L159.309 144.704Z" fill="#E4CDBF"/>
<path d="M159.862 144.358V162.436L155.573 164.903V146.848L159.862 144.358Z" fill="#C2AB9D"/>
<path d="M159.863 144.358L155.597 146.825L134.914 134.881L139.179 132.414L159.863 144.358Z" fill="#F7ECEA"/>
<g opacity="0.6">
<path d="M160.67 129.9L164.935 132.391L134.821 149.777L130.556 147.286L160.67 129.9Z" fill="#F7ECEA"/>
</g>
<path opacity="0.6" d="M134.821 149.753V167.762L130.556 165.295V147.286L131.109 147.586L134.821 149.753Z" fill="#C2AB9D"/>
<path d="M160.162 129.601L164.428 132.091L134.314 149.477L130.048 146.987L160.162 129.601Z" fill="#F7ECEA"/>
<path d="M134.314 149.477V167.463L130.048 164.995V146.987L130.579 147.31L134.314 149.477Z" fill="#C2AB9D"/>
<path d="M164.313 123.122L164.244 138.524L149.21 147.217L149.279 131.815L164.313 123.122Z" fill="#E0B477"/>
<path d="M149.279 131.815L149.21 147.218L133.876 138.317L133.946 122.915L149.279 131.815Z" fill="#BB884F"/>
<path d="M164.313 123.122L149.279 131.815L133.945 122.914L148.979 114.221L164.313 123.122Z" fill="#EFCD90"/>
<path d="M143.146 117.611L140.033 119.41L155.366 128.31L158.456 126.512L143.146 117.611Z" fill="#F7ECEA"/>
<path d="M155.366 128.31L158.456 126.511V129.647L155.366 131.423V128.31Z" fill="#C2AB9D"/>
</svg>
