<svg width="1274" height="66" viewBox="0 0 1274 66" fill="none" xmlns="http://www.w3.org/2000/svg">
<path d="M72.9204 12.8444L71.9084 14.8158L71.4025 15.8117L70.9774 16.8279L70.1274 18.8805L69.4393 20.9942L69.0952 22.051L68.8321 23.1484C68.6702 23.8801 68.4678 24.5914 68.3464 25.3433C67.9213 27.6196 67.719 29.9365 67.719 32.2737C67.2737 31.1762 66.8487 30.0381 66.4844 28.9C65.6141 26.2376 64.9462 23.4736 64.4807 20.669C64.5819 23.5143 64.9057 26.3392 65.4724 29.1642C65.6748 30.2616 65.9582 31.3591 66.2415 32.4566C63.8938 29.7535 61.2627 27.3554 58.4697 25.1808C57.0125 24.124 55.5755 23.0265 54.0373 22.1119C53.2683 21.6445 52.5397 21.1161 51.7503 20.7096L49.3824 19.4293C48.6133 18.9822 47.8037 18.596 46.9739 18.2301L44.5452 17.092C42.9059 16.401 41.226 15.7913 39.5664 15.1206C41.1653 15.8929 42.7844 16.6246 44.3631 17.4376L46.6906 18.7382C47.4597 19.165 48.249 19.5918 48.9776 20.0999L51.2039 21.5429C51.9527 22.0103 52.6409 22.5794 53.3492 23.0875C54.7862 24.1036 56.1017 25.2824 57.4578 26.4002C60.0686 28.7577 62.477 31.3185 64.5414 34.1231C65.0676 34.8141 65.5736 35.5255 66.0391 36.2571C66.5248 36.9684 66.9701 37.7204 67.3951 38.4724C68.0023 39.5495 68.5892 40.7079 69.0547 41.8054C69.2166 42.3541 69.3988 42.8825 69.6214 43.4516L72.4347 42.0696C72.4144 42.0493 72.4144 42.0289 72.3942 41.9883L72.4549 41.968C72.1918 41.3583 71.9287 40.7892 71.6453 40.2608C71.4025 39.6105 71.1798 38.9195 70.9774 38.2691C70.6131 36.9074 70.2691 35.5457 70.0869 34.1231C69.6821 31.3185 69.5809 28.4325 69.8643 25.5669C69.925 24.8556 70.0667 24.1443 70.1476 23.433L70.3096 22.3558L70.5524 21.299L71.0382 19.1853L71.6858 17.1124L72.0096 16.0759L72.4144 15.0597L73.2442 13.0273C73.8514 11.686 74.5598 10.4056 75.2074 9.10492C74.4788 10.3243 73.649 11.5641 72.9204 12.8444Z" fill="#79A51D"/>
<path d="M125.036 0C91.0146 0 63.4287 27.7009 63.4287 61.8646H186.664C186.644 27.7009 159.058 0 125.036 0Z" fill="#79A51D"/>
<path d="M38.7778 22.9249C17.3649 22.9249 -0.000244141 40.3624 -0.000244141 61.8646H77.5761C77.5761 40.3624 60.211 22.9249 38.7778 22.9249Z" fill="#79A51D"/>
<path opacity="0.3" d="M38.7775 22.9249C36.7131 22.9249 34.669 23.0875 32.6855 23.4127C51.2043 26.3392 65.3716 42.4557 65.3716 61.885H77.5556C77.5758 40.3624 60.2107 22.9249 38.7775 22.9249Z" fill="#79A51D"/>
<path opacity="0.3" d="M125.036 0C123.154 0 121.312 0.101627 119.471 0.264215C150.882 3.08918 175.513 29.591 175.513 61.8646H186.644C186.644 27.7009 159.058 0 125.036 0Z" fill="#79A51D"/>
<path d="M106.093 33.5744C113.09 33.5744 118.763 27.8783 118.763 20.8519C118.763 13.8255 113.09 8.12939 106.093 8.12939C99.0957 8.12939 93.4233 13.8255 93.4233 20.8519C93.4233 27.8783 99.0957 33.5744 106.093 33.5744Z" fill="#96BE26"/>
<path d="M84.6602 35.7693C87.6446 35.7693 90.064 33.3399 90.064 30.343C90.064 27.3461 87.6446 24.9166 84.6602 24.9166C81.6757 24.9166 79.2563 27.3461 79.2563 30.343C79.2563 33.3399 81.6757 35.7693 84.6602 35.7693Z" fill="#96BE26"/>
<path d="M26.9577 40.9315C30.5234 40.9315 33.414 38.0288 33.414 34.4483C33.414 30.8677 30.5234 27.9651 26.9577 27.9651C23.392 27.9651 20.5015 30.8677 20.5015 34.4483C20.5015 38.0288 23.392 40.9315 26.9577 40.9315Z" fill="#96BE26"/>
<path d="M16.0294 42.0492C17.5495 42.0492 18.7819 40.8118 18.7819 39.2853C18.7819 37.7588 17.5495 36.5212 16.0294 36.5212C14.5092 36.5212 13.2769 37.7588 13.2769 39.2853C13.2769 40.8118 14.5092 42.0492 16.0294 42.0492Z" fill="#96BE26"/>
<path d="M773.214 32.7818L772.526 34.1029L772.182 34.7736L771.898 35.4645L771.331 36.8465L770.866 38.2692L770.643 38.9805L770.461 39.7121C770.36 40.1999 770.218 40.6877 770.137 41.1958C769.854 42.72 769.712 44.285 769.712 45.8499C769.409 45.0979 769.125 44.3459 768.883 43.5939C768.296 41.8055 767.85 39.956 767.547 38.0659C767.628 39.9764 767.83 41.8868 768.215 43.7768C768.356 44.5288 768.538 45.2604 768.721 45.9921C767.142 44.1833 765.381 42.5574 763.499 41.0941C762.507 40.3828 761.556 39.6512 760.504 39.0212C759.998 38.7163 759.492 38.3505 758.965 38.0659L757.387 37.1921C756.861 36.8872 756.314 36.6433 755.768 36.3791L754.128 35.6272C753.015 35.1597 751.902 34.7532 750.789 34.3061C751.861 34.8345 752.954 35.3223 754.027 35.871L755.585 36.7449C756.112 37.0295 756.638 37.314 757.124 37.6595L758.621 38.635C759.127 38.9602 759.593 39.326 760.058 39.6715C761.03 40.3422 761.92 41.1348 762.811 41.9071C764.551 43.4923 766.171 45.2198 767.567 47.0896C767.911 47.557 768.255 48.0244 768.579 48.5325C768.903 49.0203 769.206 49.5081 769.49 50.0162C769.894 50.7478 770.299 51.5201 770.603 52.272C770.704 52.6379 770.846 53.0037 770.987 53.3899L772.87 52.455C772.87 52.4347 772.849 52.4143 772.849 52.4143L772.89 52.394C772.708 51.9876 772.526 51.6014 772.343 51.2356C772.181 50.7885 772.02 50.3413 771.898 49.8942C771.655 48.9797 771.433 48.0651 771.291 47.1099C771.008 45.2198 770.947 43.2891 771.149 41.3583C771.19 40.8706 771.271 40.4032 771.352 39.9154L771.453 39.2041L771.615 38.4927L771.939 37.0701L772.384 35.6678L772.607 34.9768L772.89 34.3061L773.457 32.9445C773.861 32.0502 774.347 31.1966 774.772 30.3024C774.246 31.095 773.699 31.9282 773.214 32.7818Z" fill="#79A51D"/>
<path d="M808.227 24.1443C785.357 24.1443 766.818 42.7606 766.818 65.7261H849.657C849.657 42.7606 831.118 24.1443 808.227 24.1443Z" fill="#79A51D"/>
<path d="M750.262 39.5698C735.872 39.5698 724.194 51.2965 724.194 65.7465H776.33C776.33 51.2762 764.652 39.5698 750.262 39.5698Z" fill="#79A51D"/>
<path opacity="0.3" d="M750.262 39.5698C748.865 39.5698 747.509 39.6918 746.173 39.895C758.62 41.8664 768.153 52.6988 768.153 65.7465H776.35C776.33 51.2762 764.652 39.5698 750.262 39.5698Z" fill="#79A51D"/>
<path opacity="0.3" d="M808.227 24.1443C806.972 24.1443 805.717 24.2053 804.482 24.3272C825.592 26.2376 842.147 44.041 842.147 65.7464H849.636C849.656 42.7606 831.117 24.1443 808.227 24.1443Z" fill="#79A51D"/>
<path d="M795.496 46.7238C800.202 46.7238 804.017 42.8931 804.017 38.1676C804.017 33.4422 800.202 29.6114 795.496 29.6114C790.79 29.6114 786.976 33.4422 786.976 38.1676C786.976 42.8931 790.79 46.7238 795.496 46.7238Z" fill="#96BE26"/>
<path d="M781.107 48.1871C783.108 48.1871 784.73 46.5583 784.73 44.5492C784.73 42.54 783.108 40.9113 781.107 40.9113C779.106 40.9113 777.484 42.54 777.484 44.5492C777.484 46.5583 779.106 48.1871 781.107 48.1871Z" fill="#96BE26"/>
<path d="M742.309 51.6827C744.712 51.6827 746.661 49.7264 746.661 47.3131C746.661 44.8999 744.712 42.9435 742.309 42.9435C739.906 42.9435 737.958 44.8999 737.958 47.3131C737.958 49.7264 739.906 51.6827 742.309 51.6827Z" fill="#96BE26"/>
<path d="M734.961 52.4143C735.978 52.4143 736.803 51.5863 736.803 50.5649C736.803 49.5435 735.978 48.7155 734.961 48.7155C733.944 48.7155 733.119 49.5435 733.119 50.5649C733.119 51.5863 733.944 52.4143 734.961 52.4143Z" fill="#96BE26"/>
<path d="M1175.99 20.7738L1175.13 22.4557L1174.7 23.3053L1174.34 24.1723L1173.61 25.9235L1173.02 27.7268L1172.73 28.6284L1172.5 29.5647C1172.37 30.1889 1172.19 30.7957 1172.09 31.4373C1171.73 33.3792 1171.56 35.3559 1171.56 37.3499C1171.18 36.4136 1170.81 35.4426 1170.5 34.4716C1169.76 32.2002 1169.19 29.8421 1168.79 27.4493C1168.88 29.8768 1169.15 32.2869 1169.64 34.697C1169.81 35.6333 1170.05 36.5696 1170.29 37.5059C1168.29 35.1998 1166.05 33.1539 1163.66 31.2986C1162.42 30.397 1161.19 29.4606 1159.88 28.6804C1159.23 28.2816 1158.6 27.8308 1157.93 27.484L1155.91 26.3917C1155.26 26.0102 1154.56 25.6807 1153.86 25.3686L1151.78 24.3977C1150.39 23.8081 1148.95 23.288 1147.54 22.7158C1148.9 23.3746 1150.28 23.9989 1151.63 24.6924L1153.61 25.8021C1154.27 26.1662 1154.94 26.5304 1155.57 26.9638L1157.47 28.1949C1158.1 28.5937 1158.69 29.0792 1159.3 29.5127C1160.52 30.3796 1161.64 31.3853 1162.8 32.3389C1165.03 34.3503 1167.08 36.535 1168.84 38.9277C1169.29 39.5173 1169.72 40.1242 1170.12 40.7484C1170.54 41.3552 1170.92 41.9968 1171.28 42.6383C1171.8 43.5573 1172.3 44.5456 1172.69 45.4819C1172.83 45.95 1172.99 46.4008 1173.18 46.8863L1175.58 45.7073C1175.56 45.69 1175.56 45.6726 1175.54 45.6379L1175.6 45.6206C1175.37 45.1005 1175.15 44.615 1174.9 44.1642C1174.7 43.6093 1174.51 43.0198 1174.34 42.4649C1174.02 41.3032 1173.73 40.1415 1173.58 38.9277C1173.23 36.535 1173.14 34.0728 1173.39 31.628C1173.44 31.0212 1173.56 30.4143 1173.63 29.8075L1173.77 28.8884L1173.97 27.9868L1174.39 26.1836L1174.94 24.415L1175.22 23.5307L1175.56 22.6638L1176.27 20.9298C1176.79 19.7855 1177.39 18.6931 1177.94 17.5834C1177.32 18.6238 1176.61 19.6814 1175.99 20.7738Z" fill="#79A51D"/>
<path d="M1220.46 9.81555C1191.43 9.81555 1167.89 33.4486 1167.89 62.5955H1273.03C1273.02 33.4486 1249.48 9.81555 1220.46 9.81555Z" fill="#79A51D"/>
<path d="M1146.86 29.374C1128.59 29.374 1113.78 44.2508 1113.78 62.5955H1179.96C1179.95 44.2508 1165.13 29.374 1146.86 29.374Z" fill="#79A51D"/>
<path opacity="0.3" d="M1146.86 29.374C1145.1 29.374 1143.36 29.5127 1141.67 29.7901C1157.46 32.287 1169.55 46.0368 1169.55 62.6129H1179.95C1179.95 44.2509 1165.13 29.374 1146.86 29.374Z" fill="#79A51D"/>
<path opacity="0.3" d="M1220.46 9.81555C1218.85 9.81555 1217.28 9.90226 1215.71 10.041C1242.51 12.4511 1263.52 35.0611 1263.52 62.5955H1273.02C1273.02 33.4486 1249.48 9.81555 1220.46 9.81555Z" fill="#79A51D"/>
<path d="M1204.29 38.4596C1210.26 38.4596 1215.1 33.6 1215.1 27.6054C1215.1 21.6108 1210.26 16.7512 1204.29 16.7512C1198.32 16.7512 1193.48 21.6108 1193.48 27.6054C1193.48 33.6 1198.32 38.4596 1204.29 38.4596Z" fill="#96BE26"/>
<path d="M1186.01 40.3322C1188.55 40.3322 1190.62 38.2595 1190.62 35.7027C1190.62 33.1459 1188.55 31.0732 1186.01 31.0732C1183.46 31.0732 1181.4 33.1459 1181.4 35.7027C1181.4 38.2595 1183.46 40.3322 1186.01 40.3322Z" fill="#96BE26"/>
<path d="M1136.78 44.7363C1139.82 44.7363 1142.29 42.2599 1142.29 39.2052C1142.29 36.1504 1139.82 33.674 1136.78 33.674C1133.74 33.674 1131.27 36.1504 1131.27 39.2052C1131.27 42.2599 1133.74 44.7363 1136.78 44.7363Z" fill="#96BE26"/>
<path d="M1127.45 45.6899C1128.75 45.6899 1129.8 44.6342 1129.8 43.3318C1129.8 42.0295 1128.75 40.9737 1127.45 40.9737C1126.16 40.9737 1125.11 42.0295 1125.11 43.3318C1125.11 44.6342 1126.16 45.6899 1127.45 45.6899Z" fill="#96BE26"/>
</svg>
