<svg width="1286" height="50" viewBox="0 0 1286 50" fill="none" xmlns="http://www.w3.org/2000/svg">
<path d="M1286 4.55243H4.61621V49.6502H1286V4.55243Z" fill="#14151A"/>
<path d="M183.047 0H11.0824C7.50362 0 4.61621 2.03233 4.61621 4.55244C4.61621 7.07255 7.50362 9.10487 11.0824 9.10487H183.047C186.625 9.10487 189.513 7.07255 189.513 4.55244C189.513 2.03233 186.625 0 183.047 0Z" fill="#777777"/>
<path d="M1041.61 0H373.331C369.753 0 366.865 2.03233 366.865 4.55244C366.865 7.07255 369.753 9.10487 373.331 9.10487H1041.61C1045.18 9.10487 1048.07 7.07255 1048.07 4.55244C1048.07 2.03233 1045.18 0 1041.61 0Z" fill="#777777"/>
<path d="M1279.53 0H1235.61C1232.03 0 1229.15 2.03233 1229.15 4.55244C1229.15 7.07255 1232.03 9.10487 1235.61 9.10487H1279.53C1283.11 9.10487 1286 7.07255 1286 4.55244C1286 2.03233 1283.11 0 1279.53 0Z" fill="#777777"/>
<path d="M33.8763 35.7286H1.89106C0.854026 35.7286 0 36.3993 0 37.2326C0 38.0658 0.833692 38.7365 1.89106 38.7365H33.8967C34.9337 38.7365 35.7877 38.0658 35.7877 37.2326C35.7674 36.3993 34.9337 35.7286 33.8763 35.7286Z" fill="#D8CBC5"/>
<path d="M245.044 35.7286H180.951C179.914 35.7286 179.06 36.3993 179.06 37.2326C179.06 38.0658 179.894 38.7365 180.951 38.7365H245.044C246.081 38.7365 246.935 38.0658 246.935 37.2326C246.935 36.3993 246.081 35.7286 245.044 35.7286Z" fill="#D8CBC5"/>
<path d="M456.191 35.7286H392.099C391.062 35.7286 390.208 36.3993 390.208 37.2326C390.208 38.0658 391.041 38.7365 392.099 38.7365H456.191C457.228 38.7365 458.082 38.0658 458.082 37.2326C458.082 36.3993 457.248 35.7286 456.191 35.7286Z" fill="#D8CBC5"/>
<path d="M878.507 35.7286H814.414C813.377 35.7286 812.523 36.3993 812.523 37.2326C812.523 38.0658 813.357 38.7365 814.414 38.7365H878.507C879.544 38.7365 880.398 38.0658 880.398 37.2326C880.398 36.3993 879.544 35.7286 878.507 35.7286Z" fill="#D8CBC5"/>
<path d="M667.359 35.7286H603.246C602.209 35.7286 601.355 36.3993 601.355 37.2326C601.355 38.0658 602.189 38.7365 603.246 38.7365H667.359C668.396 38.7365 669.25 38.0658 669.25 37.2326C669.25 36.3993 668.396 35.7286 667.359 35.7286Z" fill="#D8CBC5"/>
<path d="M1089.68 35.7286H1025.58C1024.55 35.7286 1023.69 36.3993 1023.69 37.2326C1023.69 38.0658 1024.53 38.7365 1025.58 38.7365H1089.68C1090.71 38.7365 1091.57 38.0658 1091.57 37.2326C1091.55 36.3993 1090.71 35.7286 1089.68 35.7286Z" fill="#D8CBC5"/>
<path d="M1268.74 35.7286H1236.73C1235.69 35.7286 1234.84 36.3993 1234.84 37.2326C1234.84 38.0658 1235.67 38.7365 1236.73 38.7365H1268.74C1269.77 38.7365 1270.63 38.0658 1270.63 37.2326C1270.61 36.3993 1269.77 35.7286 1268.74 35.7286Z" fill="#D8CBC5"/>
</svg>
