<svg width="467" height="463" viewBox="0 0 467 463" fill="none" xmlns="http://www.w3.org/2000/svg">
<path d="M60.2951 371.22C56.8738 368.995 62.392 365.958 61.8264 363.802C61.2608 361.633 59.2881 357.994 62.5024 356.874C65.7167 355.755 69.0966 354.747 70.4485 353.375C71.8005 352.004 71.2763 347.707 73.8422 345.048C76.4081 342.388 81.071 339.463 84.2026 337.644C87.3203 335.81 89.6379 332.339 92.8937 331.597C96.1494 330.841 96.3563 331.303 99.2258 332.311C102.095 333.319 101.626 335.712 103.157 337.112C104.703 338.511 107.738 338.469 110.331 337.322C112.925 336.188 117.601 333.263 120.843 333.669C124.085 334.074 126.541 336.678 129.12 335.348C131.7 334.033 134.087 332.437 136.777 332.017C139.467 331.597 142.019 330.1 138.998 327.832C135.977 325.565 137.191 324.277 139.177 323.115C141.164 321.954 146.185 319.393 154.545 318.147C162.919 316.887 164.106 315.432 165.444 312.716C166.782 310.015 169.748 310.575 172.866 308.755C175.983 306.922 175.266 305.998 172.424 302.681C169.582 299.35 165.237 297.475 162.174 296.005C159.098 294.535 155.414 295.543 154.738 297.474C154.062 299.406 151.386 301.169 148.02 301.03C144.654 300.89 148.255 301.659 145.62 303.787C142.985 305.9 138.281 305.97 132.376 305.018C126.472 304.053 126.734 301.211 120.622 302.289C114.511 303.367 114.759 305.34 114.815 307.034C114.87 308.727 118.526 308.699 121.767 309.105C125.009 309.511 124.94 312.632 123.864 313.822C122.788 315.026 117.96 312.856 114.263 312.52C110.566 312.184 104.978 311.233 100.095 309.875C95.2113 308.517 92.7143 309.203 86.9202 309.147C81.1262 309.077 75.6908 309.385 73.2076 310.267C70.7244 311.149 71.8005 312.436 75.2907 313.654C78.7947 314.872 86.1339 315.18 91.2244 314.508C96.3149 313.836 98.9636 313.052 99.7224 314.326C100.495 315.6 104.565 317.825 103.958 320.302C103.351 322.78 100.785 324.277 99.3361 323.591C97.8876 322.906 99.9293 320.946 98.0531 319.351C96.177 317.755 94.7698 318.581 89.0171 318.875C83.2645 319.169 75.6632 319.211 71.9246 318.511C68.1861 317.825 65.8547 317.447 65.4546 320.372C65.0545 323.297 64.1302 324.417 60.3227 325.677C56.5152 326.936 54.4872 327.748 55.5771 329.218C56.6669 330.687 60.1434 331.723 58.5569 333.627C56.9566 335.516 56.3358 337.811 57.8119 340.009C59.3018 342.206 61.9368 341.436 62.7369 344.222C63.537 347.021 63.0956 348.421 61.5781 349.694C60.0606 350.968 58.0741 352.13 57.6602 353.725C57.2463 355.307 54.57 354.579 51.5212 355.783C48.4725 356.986 48.3897 358.778 45.8513 357.952C43.313 357.126 39.8503 354.943 37.2154 352.06C34.5805 349.19 29.3658 347.623 27.4345 345.495C25.5031 343.368 29.283 341.912 33.4079 340.849C37.5327 339.771 44.0165 336.748 42.9957 334.648C41.9748 332.549 37.6844 328.546 33.5596 328.462C29.4348 328.378 25.1858 329.708 22.8958 328.364C20.6057 327.02 25.2962 325.607 25.1168 324.179C24.9375 322.752 29.5314 317.951 28.6071 315.418C27.6828 312.884 26.9102 307.762 28.2484 305.06C29.5865 302.359 32.994 302.849 32.6215 300.96C32.2353 299.07 26.9378 299.294 25.2962 295.837C23.6545 292.38 23.6683 291.218 26.7033 291.176C29.7383 291.12 33.67 292.086 34.0425 293.975C34.4287 295.865 36.0842 298.16 38.4432 296.383C40.816 294.605 44.3614 292.534 47.8103 290.896C51.2591 289.259 53.9354 286.334 55.2598 283.45C56.5841 280.567 52.2386 279.853 50.3072 276.564C48.3759 273.275 42.8439 272.099 39.3813 270.868C35.9186 269.636 31.2834 269.65 32.0007 266.543C32.7181 263.436 34.208 260.637 32.8974 258.719C31.6007 256.788 27.2689 258.747 24.5788 260.329C21.8749 261.91 25.5583 264.555 24.634 267.019C23.7235 269.482 22.5095 270.756 24.9375 273.177C27.3655 275.598 28.8416 276.466 31.104 276.284C33.3665 276.116 38.1535 277.922 37.9741 280.133C37.7948 282.359 42.3197 283.352 41.0367 285.256C39.7537 287.159 39.8089 288.853 36.2773 288.615C32.7457 288.377 27.2689 288.321 24.2063 287.033C21.1575 285.746 19.5021 285.942 19.3228 288.167C19.1434 290.392 16.6189 293.402 13.9012 293.64C11.1973 293.877 8.43818 293.766 5.91362 291.792C3.38906 289.819 -0.487453 289.203 0.0505681 287.355C0.588589 285.508 3.66496 283.324 4.28576 279.685C4.90655 276.06 3.91329 269.146 2.6579 266.417C1.41632 263.688 3.37526 258.859 5.0583 255.682C6.74134 252.505 8.70029 249.174 13.8322 247.354C18.9641 245.535 27.669 243.323 31.5731 241.616C35.4772 239.908 41.6851 237.221 46.6515 237.977C51.6178 238.719 53.7147 240.944 51.3419 242.721C48.9691 244.499 46.5549 245.913 44.7615 247.354C42.9543 248.796 48.031 248.096 51.4523 249.272C54.8873 250.447 59.357 250.909 60.502 249.076C61.6471 247.256 60.502 244.079 57.9637 243.267C55.4253 242.442 51.8523 239.348 54.9425 238.509C58.0327 237.655 63.1646 234.842 65.496 232.714C67.8274 230.587 74.4768 222.833 76.0357 220.594C77.5808 218.34 76.1322 215.653 76.6427 213.959C77.1531 212.266 80.395 207.675 84.8509 206.793C89.3069 205.912 95.2803 203.756 92.5212 202.301C89.7621 200.845 87.072 201.265 84.2577 199.459C81.4435 197.64 74.9872 194.519 75.6356 192.405C76.284 190.292 81.3469 188.094 83.7197 187.661C86.1063 187.227 92.2591 182.846 90.9623 180.928C89.6655 178.997 86.1615 177.779 87.1686 176.044C88.1756 174.308 92.3143 172.069 91.7486 169.899C91.183 167.73 88.0515 167.072 88.4791 164.329C88.9068 161.586 85.7338 155.567 89.3206 153.846C92.9212 152.124 95.2803 150.347 95.2803 147.855C95.2803 145.364 88.286 142.929 90.5484 140.255C92.8109 137.582 94.9216 137.498 99.2947 138.394C103.668 139.29 106.772 137.288 109.89 135.455C113.007 133.621 117.436 134.881 120.94 134.937C124.444 134.993 125.023 136.001 126.085 138.45C127.148 140.899 129.093 141.879 133.769 140.283C138.446 138.688 149.179 133.173 152.738 129.94C156.297 126.707 159.608 125.154 157.111 123.348C154.614 121.543 154.987 120.941 160.008 118.393C165.016 115.846 172.272 115.426 175.169 116.63C178.053 117.82 180.315 120.143 185.778 121.179C191.227 122.214 193.559 120.073 192.814 118.981C192.069 117.876 192.786 116.308 195.118 114.181C197.449 112.053 197.656 110.01 195.021 107.141C192.386 104.271 193.421 104.047 196.939 102.942C200.456 101.836 207.396 100.086 211.879 100.716C216.376 101.346 223.329 102.27 225.067 100.296C226.806 98.3229 229.441 96.1955 232.186 93.8162C234.931 91.4368 238.311 90.4151 241.277 90.9889C244.243 91.5628 247.002 93.0184 250.865 89.7853C254.728 86.5661 258.08 82.8712 262.15 81.2616C266.219 79.652 261.915 78.1265 263.281 75.6071C264.646 73.0738 271.144 67.7413 274.759 66.1877C278.373 64.6481 288.223 61.7649 291.672 60.1274C295.121 58.4898 301.618 55.6486 304.805 53.0173C307.978 50.386 311.716 51.0858 314.751 48.5385C317.786 45.9912 318.876 42.4642 322.16 40.7427C325.443 39.0071 326.215 37.7895 330.037 39.2031C333.858 40.6167 333.127 42.0023 334.686 43.5839C336.245 45.1655 343.915 46.831 343.253 48.9304C342.604 51.0439 336.672 53.5632 332.892 53.8431C329.126 54.123 327.719 55.1447 325.843 57.2022C323.967 59.2596 323.346 59.2316 322.78 60.7292C322.201 62.2268 325.236 63.3325 326.229 65.236C327.222 67.1534 329.016 69.3648 333.679 70.0926C338.328 70.8204 342.328 69.8267 343.68 70.9604C345.032 72.0941 342.37 72.6819 342.908 75.8311C343.446 78.9802 348.274 87.2939 347.033 88.3996C345.805 89.5053 341.211 89.3094 340.618 91.9687C340.025 94.614 336.438 96.3355 338.121 97.6511C339.804 98.9668 342.066 101.794 344.439 101.024C346.812 100.254 351.902 99.5686 356.814 101.122C361.725 102.662 365.449 104.523 366.553 107.322C367.657 110.136 372.899 113.201 371.823 115.566C370.747 117.932 369.105 116.966 363.38 114.936C357.655 112.907 346.84 109.072 341.777 106.273C336.714 103.474 331.209 98.2529 329.168 97.7211C327.126 97.1892 327.305 98.6169 324.863 99.8625C322.422 101.094 315.896 99.9325 315.593 102.41C315.289 104.887 324.643 106.707 325.843 109.086C327.043 111.451 324.505 111.787 321.484 112.025C318.462 112.249 313.551 114.363 310.42 117.358C307.288 120.353 300.625 123.096 301.756 124.93C302.887 126.763 305.798 128.135 308.461 131.186C311.123 134.237 312.337 136.784 315.883 135.861C319.428 134.937 326.574 136.127 327.788 133.691C329.016 131.242 331.113 129.814 334.865 129.352C338.617 128.891 347.571 133.635 351.268 135.301C354.979 136.966 362.566 140.731 364.084 142.971C366.498 146.554 370.609 147.785 368.898 149.955C367.188 152.11 362.483 151.019 362.097 152.782C361.711 154.546 364.842 156.547 367.008 156.827C369.174 157.093 369.892 158.017 371.602 159.514C373.313 161.012 375.203 160.284 379.879 160.046C384.57 159.794 389.412 160.802 392.516 161.292C395.62 161.782 396.793 162.635 395.855 164.903C394.916 167.184 390.419 166.54 386.529 165.757C382.625 164.973 376.776 165.701 371.492 164.763C366.208 163.825 362.111 163.923 361.283 165.938C360.469 167.954 358.331 169.2 354.289 168.5C350.247 167.8 350.426 169.228 352.013 170.991C353.599 172.755 359.821 173.902 362.47 173.118C365.118 172.335 367.215 169.577 369.616 169.312C372.016 169.06 372.747 169.983 373.175 172.223C373.603 174.476 374.623 176.562 380.349 176.086C386.074 175.61 397.207 178.311 400.807 179.081C404.408 179.851 405.539 181.684 409.181 185.323C412.823 188.948 416.741 192.419 416.603 196.156C416.451 199.893 411.692 205.758 411.181 207.787C410.671 209.816 401.925 210.516 401.814 213.274C401.69 216.031 401.373 218.34 404.504 220.342C407.636 222.343 414.299 223.253 422.066 223.309C429.833 223.365 431.088 224.932 436.372 227.032C441.655 229.131 442.331 229.691 442.207 232.448C442.083 235.206 444.166 237.249 440.221 238.607C436.275 239.95 424.687 238.495 420.769 238.859C416.851 239.222 412.713 238.97 415.099 241.028C417.486 243.085 421.5 247.606 424.039 248.264C426.563 248.922 429.088 248.404 432.026 249.944C434.951 251.497 437.944 252.239 439.945 251.259C441.959 250.279 445.697 250.965 448.898 251.007C452.098 251.049 456.816 254.814 460.61 255.864C464.39 256.914 467.094 256.676 466.997 258.271C466.887 259.867 457.355 260.273 452.623 258.999C447.905 257.725 441.545 254.338 436.923 253.792C432.288 253.247 424.659 253.093 420.397 250.601C416.134 248.11 406.905 242.372 400.242 240.132C393.578 237.893 390.902 238.495 390.64 239.992C390.364 241.49 391.288 244.037 388.529 243.911C385.77 243.799 383.356 240.216 379.079 240.034C374.803 239.852 368.471 239.138 364.098 238.243C359.724 237.347 358.069 236.199 356.207 238.439C354.344 240.678 351.433 242.959 348.426 244.527C345.419 246.095 348.95 246.333 349.723 248.95C350.495 251.567 350.206 255.388 351.847 258.845C353.489 262.302 351.709 263.926 352.482 266.543C353.254 269.16 355.006 268.516 358.897 270.462C362.787 272.407 368.829 275.78 370.457 279.056C372.071 282.331 374.596 285.466 370.499 285.564C366.401 285.662 364.553 284.248 356.745 282.667C348.936 281.085 338.052 277.866 331.402 275.808C324.753 273.751 317.648 270.42 314.255 268.754C310.861 267.103 310.916 267.635 309.592 269.188C308.254 270.742 305.729 271.26 302.101 271.456C298.473 271.666 298.831 270.868 295.714 270.21C292.582 269.538 282.705 269.58 279.752 270.336C276.8 271.106 275.172 271.484 269.916 274.563C264.66 277.642 260.011 281.897 254.507 281.673C249.002 281.435 249.554 281.603 245.623 283.954C241.677 286.306 236.821 287.621 231.413 286.935C226.006 286.264 220.487 284.696 217.852 286.809C215.218 288.923 213.466 290.728 219.053 291.68C224.654 292.632 231.951 292.576 235.428 293.612C238.904 294.647 242.477 295.249 245.567 294.395C248.658 293.542 251.527 290.896 251.389 288.489C251.251 286.082 252.244 285.494 256.687 285.774C261.129 286.054 262.701 286.474 266.247 285.55C269.792 284.626 273.462 283.618 274.993 286.18C276.524 288.741 277.338 292.87 279.256 294.829C281.173 296.789 280.732 298.188 279.877 301.184C279.021 304.179 278.759 305.676 277.297 307.496C275.848 309.301 275.269 313.29 273.655 317.503C272.041 321.716 270.303 326.195 267.475 326.699C264.646 327.202 261.308 326.083 258.052 324.347C254.797 322.612 242.05 320.47 237.732 319.924C233.4 319.393 230.434 319.98 226.875 319.56C223.329 319.141 220.777 316.985 218.432 316.439C216.087 315.893 213.259 315.236 208.679 315.054C204.098 314.872 201.436 313.64 196.345 312.828C191.255 312.017 188.979 312.003 188.11 313.654C187.24 315.306 191.669 316.565 197.766 317.979C203.878 319.393 207.465 321.324 211.3 321.576C215.135 321.828 217.37 321.478 220.446 322.948C223.522 324.417 224.93 326.405 229.192 326.237C233.455 326.069 236.007 325.733 238.449 326.992C240.891 328.252 243.774 329.442 248.34 329.456C252.907 329.456 261.763 329.666 266.192 331.093C270.634 332.535 274.069 334.55 276.828 332.157C279.573 329.778 284.195 326.489 284.871 323.228C285.533 319.952 287.588 319.337 290.306 320.428C293.024 321.52 297.024 326.866 300.446 331.191C303.867 335.53 308.171 339.533 308.102 343.998C308.033 348.449 306.722 351.346 307.757 353.613C308.792 355.881 309.068 359.38 312.199 365.034C315.331 370.689 314.269 373.236 320.297 375.265C326.326 377.309 333.775 379.66 336.893 380.332C340.025 381.004 345.612 385.594 349.888 388.282C354.179 390.955 358.303 392.383 356.979 395.266C355.655 398.149 354.537 400.15 355.034 404.279C355.544 408.408 357.393 411.151 358.455 411.109C359.517 411.067 364.277 412.691 367.16 415.042C370.03 417.394 371.506 416.918 370.25 420.347C368.995 423.776 371.395 424.672 374.182 427.639C376.982 430.606 379.369 437.66 381.438 440.865C383.508 444.07 381.756 450.859 379.052 452.44C376.348 454.022 369.698 455.617 367.836 459.004C365.974 462.405 366.098 463.483 361.311 462.825C356.51 462.181 355.986 460.376 353.53 458.934C351.075 457.493 333.968 455.799 327.098 453.098C320.228 450.397 313.33 445.036 310.061 444.448C306.791 443.86 289.395 440.991 284.884 437.688C280.373 434.371 275.31 427.919 273.503 425.526C271.682 423.132 265.116 420.445 260.329 418.639C255.542 416.834 245.857 414.818 240.974 413.461C236.09 412.103 225.923 412.299 222.653 410.55C219.398 408.814 217.052 404.615 214.39 402.712C211.727 400.822 208.816 399.451 204.581 399.619C200.346 399.801 198.718 402.67 194.662 403.132C190.607 403.579 187.075 400.85 183.75 402.222C180.412 403.593 175.914 407.778 174.866 410.494C173.831 413.209 170.244 417.436 166.92 417.646C163.595 417.87 161.498 421.789 160.119 422.978C158.739 424.168 154.021 425.4 144.861 425.19C135.701 424.98 133.066 424.602 126.623 424.154C120.181 423.706 115.146 422.418 109.407 421.551C103.668 420.683 98.0807 418.583 96.0666 415.728C94.0387 412.873 91.183 408.212 86.1339 406.757C81.0848 405.301 80.4364 406.253 77.0703 403.607C73.7042 400.962 68.2964 390.983 66.8341 388.632C65.358 386.266 69.4139 383.327 69.6898 381.815C69.9657 380.318 68.2551 376.315 60.3227 371.164L60.2951 371.22Z" fill="#5A9FF4" fill-opacity="0.1"/>
<path d="M333.644 97.7991C335.625 97.7991 336.859 99.428 336.859 102.056L337.289 270.776C337.289 274.941 334.336 280.049 330.673 282.141L261.278 321.827C260.287 322.382 259.334 322.678 258.475 322.678C256.493 322.678 255.26 321.049 255.26 318.421L254.83 149.701C254.83 145.537 257.783 140.446 261.446 138.336L330.841 98.6505C331.831 98.0952 332.785 97.7991 333.644 97.7991Z" fill="#5243C1"/>
<path d="M294.62 216.356L256.587 194.588L282.846 179.577L320.879 201.326L294.62 216.356Z" fill="#FECA85"/>
<path d="M294.62 237.051L256.587 215.301V194.588L294.62 216.356V237.051Z" fill="#B78351"/>
<path d="M320.879 222.039L294.62 237.05V216.356L320.879 201.326V222.039Z" fill="#E2B06D"/>
<path d="M306.096 209.804L268.025 188.036L271.183 186.24L309.236 208.008L306.096 209.804Z" fill="#A2A2BC"/>
<path d="M309.236 217.485L306.096 219.281V209.804L309.236 208.008V217.485Z" fill="#787895"/>
<path d="M241.542 237.032L175.306 199.16L235.43 164.787L301.648 202.659L241.542 237.032Z" fill="#FECA85"/>
<path d="M241.542 277.143L175.306 239.272V199.16L241.542 237.032V277.143Z" fill="#B78351"/>
<path d="M301.648 242.77L241.542 277.144V237.032L301.648 202.659V242.77Z" fill="#E2B06D"/>
<path d="M270.641 220.391L233.655 199.253L236.813 197.457L273.781 218.596L270.641 220.391Z" fill="#A2A2BC"/>
<path d="M273.781 242.437L270.642 244.251V220.391L273.781 218.596V242.437Z" fill="#787895"/>
<path d="M222.591 176.467L220.086 173.561L169.288 202.603L207.115 224.223H228.777L222.591 176.467Z" fill="#B78351"/>
<path d="M228.795 199.586L185.678 174.931L222.684 153.792L265.782 178.429L228.795 199.586Z" fill="#FECA85"/>
<path d="M228.795 224.279L185.678 199.623V174.931L228.795 199.586V224.279Z" fill="#B78351"/>
<path d="M265.782 203.121L228.795 224.278V199.586L265.782 178.429V203.121Z" fill="#E2B06D"/>
<path d="M245.728 189.887L202.63 165.25L205.788 163.454L248.868 188.091L245.728 189.887Z" fill="#A2A2BC"/>
<path d="M248.868 201.659L245.728 203.473V189.887L248.868 188.091V201.659Z" fill="#787895"/>
<path d="M163.008 177.707L121.161 153.792L163.008 129.859L204.854 153.792L163.008 177.707Z" fill="#FECA85"/>
<path d="M163.008 280.216L121.162 256.283V153.792L163.008 177.707V280.216Z" fill="#B78351"/>
<path d="M204.854 256.283L163.008 280.216V177.707L204.854 153.792V216.06V256.283Z" fill="#E2B06D"/>
<path d="M183.211 166.175L141.347 142.242L144.505 140.446L186.37 164.38L183.211 166.175Z" fill="#A2A2BC"/>
<path d="M186.37 217.689L183.211 219.484V166.175L186.37 164.38V217.689Z" fill="#787895"/>
<path d="M190.911 268.37L162.895 252.358L204.742 228.425L232.739 244.436L190.911 268.37Z" fill="#FECA85"/>
<path d="M190.911 296.301L162.895 280.29V252.358L190.911 268.37V296.301Z" fill="#B78351"/>
<path d="M232.739 272.368L190.911 296.301V268.37L232.739 244.436V272.368Z" fill="#E2B06D"/>
<path d="M232.739 272.368L200.2 290.97V286.528L232.739 267.907V272.368Z" fill="#B78351"/>
<path d="M211.04 256.856L183.024 240.845L186.183 239.031L214.18 255.042L211.04 256.856Z" fill="#A2A2BC"/>
<path d="M214.18 268.629L211.04 270.424V256.856L214.18 255.042V268.629Z" fill="#787895"/>
<path d="M168.596 286.14L111.761 253.636L140.917 236.958L197.771 269.462L168.596 286.14Z" fill="#FECA85"/>
<path d="M168.596 317.866L111.761 285.362V253.636L168.596 286.14V317.866Z" fill="#B78351"/>
<path d="M197.77 301.188L168.596 317.866V286.14L197.77 269.462V301.188Z" fill="#E2B06D"/>
<path d="M111.761 253.636L140.281 269.962H145.813L138.263 238.476L111.761 253.636Z" fill="#B78351"/>
<path d="M182.127 278.421L139.047 253.784L142.187 251.988L185.267 276.625L182.127 278.421Z" fill="#A2A2BC"/>
<path d="M185.267 290.193L182.127 291.988V278.42L185.267 276.625V290.193Z" fill="#787895"/>
<path d="M145.813 269.98L116.676 253.302V221.428L145.813 238.106V269.98Z" fill="#B78351"/>
<path d="M172.259 254.857L145.813 269.98V238.105L172.259 222.983V254.857Z" fill="#E2B06D"/>
<path d="M145.813 238.106L116.676 221.428L143.103 206.305L172.259 222.983L145.813 238.106Z" fill="#FECA85"/>
<path d="M123.292 217.633H162.896L143.103 206.305L123.292 217.633Z" fill="#B78351"/>
<path d="M158.298 230.961L129.123 214.283L132.263 212.488L161.438 229.165L158.298 230.961Z" fill="#A2A2BC"/>
<path d="M161.438 242.752L158.298 244.547V230.961L161.438 229.165V242.752Z" fill="#787895"/>
<path d="M132.263 212.488L129.123 214.283L134.973 217.633H141.272L132.263 212.488Z" fill="#787895"/>
<path d="M261.259 178.003L250.513 184.149L245.952 181.539L256.699 175.394L261.259 178.003Z" fill="#FDF8F2"/>
<path d="M204.742 228.425L196.705 233.034L224.702 249.045V276.958L232.739 272.368V244.436L204.742 228.425Z" fill="#B78351"/>
<path d="M196.705 228.425V233.034L204.742 228.425L204.854 216.06L196.705 228.425Z" fill="#B78351"/>
<path d="M202.761 193.57V225.148L205.62 231.331L204.854 190.405L202.761 193.57Z" fill="#B78351"/>
<path d="M199.733 153.607L188.986 159.753L184.426 157.143L195.173 150.997L199.733 153.607Z" fill="#FDF8F2"/>
<path d="M294.564 202.844L283.818 208.989L279.257 206.379L290.004 200.234L294.564 202.844Z" fill="#FDF8F2"/>
<path d="M226.87 244.714L216.124 250.859L211.563 248.249L222.31 242.104L226.87 244.714Z" fill="#FDF8F2"/>
<path d="M233.673 165.972L232.346 164.436L205.62 179.725L222.31 189.276H233.711L233.673 165.972Z" fill="#B78351"/>
<path d="M233.711 176.3L214.255 165.176L233.711 154.033L253.185 165.176L233.711 176.3Z" fill="#FECA85"/>
<path d="M233.711 189.295L214.255 178.17V165.176L233.711 176.301V189.295Z" fill="#B78351"/>
<path d="M253.185 178.17L233.711 189.295V176.301L253.185 165.176V178.17Z" fill="#E2B06D"/>
<path d="M241.934 171.71L222.46 160.567L225.599 158.771L245.074 169.896L241.934 171.71Z" fill="#A2A2BC"/>
<path d="M245.074 179.077L241.934 180.872V171.71L245.074 169.896V179.077Z" fill="#787895"/>
<path d="M237.86 162.51L246.083 167.212L249.578 165.213L241.355 160.511L237.86 162.51Z" fill="#FDF8F2"/>
<path d="M156.242 220.243L164.914 225.204L168.615 223.113L159.924 218.133L156.242 220.243Z" fill="#FDF8F2"/>
<path d="M177.249 265.797L187.996 271.942L192.556 269.332L181.809 263.187L177.249 265.797Z" fill="#FDF8F2"/>
<path d="M217.432 244.88L221.992 247.49L226.87 244.714L222.31 242.104L217.432 244.88Z" fill="#C2B2B2"/>
<path d="M245.411 285.047L324.038 240.086L297.76 225.056L219.152 270.017L245.411 285.047Z" fill="#FECA85"/>
<path d="M245.41 305.741L324.038 260.78V240.086L245.41 285.047V305.741Z" fill="#E2B06D"/>
<path d="M219.151 290.73L245.41 305.742V285.047L219.151 270.017V290.73Z" fill="#B78351"/>
<path d="M233.935 278.494L312.581 233.515L309.441 231.719L230.795 276.699L233.935 278.494Z" fill="#A2A2BC"/>
<path d="M230.795 286.177L233.935 287.972V278.495L230.795 276.699V286.177Z" fill="#787895"/>
<path d="M300.545 249.582L289.798 255.727L285.238 253.117L295.985 246.972L300.545 249.582Z" fill="#FDF8F2"/>
<path d="M254.606 318.421L254.176 149.701C254.176 145.314 257.278 139.984 261.128 137.781L330.523 98.0952C331.645 97.4474 332.71 97.1512 333.644 97.1512C334.336 97.1512 334.934 97.3363 335.476 97.6325C335.476 97.614 328.43 93.5973 328.43 93.5973C327.159 92.8754 325.402 92.9679 323.477 94.0786L254.082 133.764C250.232 135.967 247.13 141.298 247.13 145.685L247.56 314.404C247.56 316.588 248.345 318.106 249.597 318.828L256.643 322.845C255.409 322.104 254.624 320.587 254.606 318.421Z" fill="#C2B2B2"/>
<path d="M254.755 147.98C254.886 146.481 255.353 145.074 256.026 143.723C256.662 142.464 257.484 141.316 258.549 140.372C259.54 139.484 260.661 138.744 261.633 137.837C261.745 137.781 261.801 137.707 261.895 137.633C261.932 137.614 261.951 137.614 261.988 137.596L254.064 133.746C250.232 135.93 247.149 141.205 247.13 145.574L254.643 149.868C254.662 149.239 254.718 148.591 254.774 147.962L254.755 147.98Z" fill="url(#paint0_linear_660_10606)"/>
<path d="M335.476 97.614L328.43 93.5973C327.159 92.8754 325.402 92.9679 323.477 94.0786L254.082 133.764L261.577 138.059L291.742 121.029C291.742 121.029 329.738 98.9652 331.289 98.1323C332.859 97.2993 335.476 97.6325 335.476 97.6325V97.614Z" fill="#FDF8F2"/>
<path d="M247.149 157.531V159.771L254.475 163.936V161.715L247.149 157.531Z" fill="#CFC1C0"/>
<path d="M247.522 299.985L247.541 302.224L254.98 306.482V304.26L247.522 299.985Z" fill="#CFC1C0"/>
<path d="M333.644 97.799C335.625 97.799 336.859 99.4279 336.859 102.056L337.289 270.776C337.289 274.941 334.336 280.049 330.673 282.141L261.278 321.827C260.287 322.382 259.334 322.678 258.475 322.678C256.493 322.678 255.26 321.049 255.26 318.421L254.83 149.701C254.83 145.537 257.783 140.446 261.446 138.336L330.841 98.6505C331.831 98.0951 332.785 97.799 333.644 97.799ZM333.644 97.1511C332.71 97.1511 331.645 97.4473 330.523 98.0951L261.128 137.781C257.278 139.983 254.176 145.314 254.176 149.701L254.606 318.421C254.606 321.53 256.194 323.307 258.475 323.307C259.409 323.307 260.474 323.011 261.596 322.363L330.99 282.678C334.841 280.475 337.943 275.144 337.943 270.757L337.513 102.038C337.513 98.9281 335.924 97.1511 333.644 97.1511Z" fill="#E5D7D6"/>
<path d="M248.943 279.901V259.466C248.943 258.041 249.821 257.393 250.905 258.004C251.989 258.615 252.867 260.281 252.867 261.706V282.141C252.867 283.566 251.989 284.214 250.905 283.603C249.821 282.993 248.943 281.327 248.943 279.901Z" fill="#CFC1C0"/>
<path d="M252.774 181.742V204.01C252.774 204.565 252.569 204.973 252.251 205.139L251.653 205.472C251.971 205.287 252.176 204.899 252.176 204.343V182.076C252.176 180.965 251.391 179.614 250.419 179.058C249.933 178.781 249.504 178.762 249.186 178.947L249.784 178.614C250.102 178.429 250.532 178.466 251.017 178.725C251.989 179.281 252.774 180.632 252.774 181.742Z" fill="#E5D7D6"/>
<path d="M252.176 204.362C252.176 205.472 251.391 205.935 250.419 205.38C249.448 204.825 248.663 203.473 248.663 202.363V180.095C248.663 178.985 249.448 178.522 250.419 179.077C251.391 179.632 252.176 180.984 252.176 182.094V204.362Z" fill="#CFC1C0"/>
<path d="M272.828 133.764C272.828 136.911 275.071 138.188 277.818 136.615L314.674 115.55C317.441 113.977 319.665 110.145 319.665 106.98V104.333L272.828 131.117V133.764Z" fill="#E5D7D6"/>
<path d="M288.602 125.564C288.602 126.082 288.976 126.304 289.443 126.045L303.648 117.919C304.115 117.66 304.489 117.012 304.489 116.494C304.489 115.976 304.115 115.754 303.648 116.013L289.443 124.139C288.976 124.398 288.602 125.046 288.602 125.564Z" fill="#272335"/>
<path d="M279.575 129.507C278.958 130.266 278.734 131.302 279.108 131.802C279.482 132.302 280.267 132.098 280.883 131.339C281.5 130.58 281.725 129.544 281.351 129.044C280.996 128.544 280.192 128.748 279.575 129.507Z" fill="#272335"/>
<path d="M207.341 364.757L163.65 339.532V305.825L207.341 331.051V364.757Z" fill="#B76F3F"/>
<path d="M164.797 338.868L163.675 305.838L163.65 305.825V339.532L207.341 364.757L164.797 338.868Z" fill="#A45823"/>
<path d="M182.027 350.065V316.206L188.964 320.211V354.465L182.027 350.065Z" fill="#A45823"/>
<path d="M207.341 331.051L163.65 305.825L207.341 280.6L251.033 305.825L207.341 331.051Z" fill="#EFD995"/>
<path d="M188.913 320.415L206.844 329.291L224.213 318.833L251.033 305.825L207.341 331.051L188.913 320.415Z" fill="#FFEDB4"/>
<path d="M182.868 294.781L233.536 323.871L241.213 319.509L189.806 290.764L182.868 294.781Z" fill="#C39055"/>
<path d="M181.976 316.41L226.394 290.879L234.072 295.24L188.913 320.415L181.976 316.41Z" fill="#C39055"/>
<path d="M183.353 294.513L234.021 323.616L241.698 319.254L190.291 290.509L183.353 294.513Z" fill="#E6E1E4"/>
<g style="mix-blend-mode:multiply">
<path d="M221.357 313.949L239.3 303.568C240.741 302.739 240.78 300.66 239.364 299.78C237.311 298.492 234.709 298.454 232.618 299.665L214.674 310.046C213.233 310.875 213.195 312.954 214.61 313.834C216.664 315.122 219.265 315.16 221.357 313.949Z" fill="#D4BAA5"/>
</g>
<path d="M181.414 316.142L225.846 290.624L233.523 294.985L188.352 320.147L181.414 316.142Z" fill="#F1F1F1"/>
<path d="M208.412 300.635L215.886 304.818L208.476 308.937L201.182 304.792L208.412 300.635Z" fill="#F9F9F9"/>
<path d="M181.414 350.001V316.142L188.352 320.147V354.401L181.414 350.001Z" fill="#B3A4AD"/>
<path d="M207.341 364.757L251.033 339.532V305.825L207.341 331.051V364.757Z" fill="#D9AF6A"/>
<path d="M234.888 348.93V314.689L227.937 318.693V352.935L234.888 348.93Z" fill="#D6D6D6"/>
<path d="M176.798 331.216L166.647 325.35V310.416L176.798 316.283V331.216ZM167.59 324.814L175.867 329.597V316.818L167.59 312.036V324.814Z" fill="#A45823"/>
<path d="M169.796 323.935L173.24 325.924V321.83L169.796 319.841V323.935Z" fill="#A45823"/>
<path d="M168.113 318.897L174.923 322.825L171.518 315.696L168.113 318.897Z" fill="#A45823"/>
<path d="M299.456 324.138L289.929 318.756L290.019 304.371L299.545 309.753L299.456 324.138Z" fill="#CC6300"/>
<mask id="mask0_660_10606" style="mask-type:luminance" maskUnits="userSpaceOnUse" x="288" y="301" width="12" height="9">
<path d="M288.82 301.145L298.346 306.527C299.124 306.973 299.558 308.07 299.545 309.753L290.019 304.371C290.019 302.675 289.611 301.578 288.82 301.145Z" fill="white"/>
</mask>
<g mask="url(#mask0_660_10606)">
<path d="M299.545 309.753L290.019 304.371C290.019 302.905 289.713 301.885 289.126 301.349L298.653 306.731C299.239 307.266 299.558 308.286 299.545 309.753Z" fill="#B13D04"/>
<path d="M298.64 306.743L289.113 301.362C289.024 301.272 288.922 301.209 288.82 301.145L298.346 306.527C298.448 306.59 298.551 306.654 298.64 306.743Z" fill="#F08A00"/>
</g>
<path d="M294.215 292.141L303.741 297.523C303.205 297.217 302.568 297.076 301.866 297.102C300.706 297.14 299.328 297.638 297.773 298.607C294.253 300.851 291.562 304.142 289.955 308.427L280.429 303.045C282.035 298.773 284.726 295.47 288.246 293.225C289.802 292.256 291.179 291.758 292.34 291.72C293.054 291.695 293.679 291.835 294.215 292.141Z" fill="#CC6300"/>
<mask id="mask1_660_10606" style="mask-type:luminance" maskUnits="userSpaceOnUse" x="280" y="291" width="24" height="18">
<path d="M294.215 292.141L303.741 297.523C303.205 297.217 302.568 297.076 301.866 297.102C300.706 297.14 299.328 297.638 297.773 298.607C294.253 300.851 291.562 304.142 289.955 308.427L280.429 303.045C282.035 298.773 284.726 295.47 288.246 293.225C289.802 292.256 291.179 291.758 292.34 291.72C293.054 291.695 293.679 291.835 294.215 292.141Z" fill="white"/>
</mask>
<g mask="url(#mask1_660_10606)">
<path d="M289.955 308.414L280.429 303.032C280.492 302.879 280.543 302.726 280.607 302.573L290.134 307.955C290.07 308.108 290.006 308.261 289.955 308.414Z" fill="#B13D04"/>
<path d="M290.134 307.942L280.607 302.56C280.798 302.076 281.015 301.591 281.245 301.132L290.771 306.514C290.542 306.973 290.338 307.458 290.134 307.942Z" fill="#B13D04"/>
<path d="M290.759 306.514L281.232 301.132C281.423 300.737 281.627 300.354 281.831 299.984L291.358 305.366C291.154 305.736 290.95 306.118 290.759 306.514Z" fill="#CC6300"/>
<path d="M291.358 305.379L281.831 299.997C282.023 299.665 282.214 299.346 282.418 299.028L291.945 304.409C291.741 304.728 291.549 305.047 291.358 305.379Z" fill="#CC6300"/>
<path d="M291.945 304.409L282.418 299.028C282.609 298.734 282.801 298.454 282.992 298.173L292.518 303.555C292.314 303.835 292.123 304.116 291.945 304.409Z" fill="#CC6300"/>
<path d="M292.531 303.555L283.005 298.173C283.196 297.905 283.387 297.65 283.591 297.395L293.118 302.777C292.914 303.032 292.722 303.287 292.531 303.555Z" fill="#F69000"/>
<path d="M293.118 302.777L283.591 297.395C283.783 297.153 283.987 296.91 284.191 296.681L293.717 302.063C293.513 302.292 293.309 302.535 293.118 302.777Z" fill="#F69000"/>
<path d="M293.704 302.063L284.178 296.681C284.382 296.452 284.599 296.222 284.816 295.992L294.342 301.374C294.125 301.604 293.908 301.821 293.704 302.063Z" fill="#F79100"/>
<path d="M294.342 301.374L284.816 295.993C285.032 295.763 285.262 295.546 285.504 295.329L295.031 300.711C294.801 300.928 294.572 301.145 294.342 301.374Z" fill="#F79100"/>
<path d="M295.031 300.711L285.504 295.329C285.747 295.1 286.002 294.87 286.269 294.653L295.796 300.035C295.541 300.252 295.286 300.481 295.031 300.711Z" fill="#F99300"/>
<path d="M295.796 300.035L286.269 294.653C286.563 294.411 286.869 294.169 287.188 293.939L296.714 299.321C296.408 299.551 296.102 299.793 295.796 300.035Z" fill="#F99300"/>
<path d="M296.701 299.321L287.175 293.939C287.519 293.684 287.864 293.455 288.221 293.225L297.747 298.607C297.39 298.836 297.033 299.079 296.701 299.321Z" fill="#FFB73B"/>
<path d="M297.76 298.607L288.233 293.225C288.233 293.225 288.233 293.225 288.246 293.225C288.782 292.893 289.305 292.613 289.802 292.383L299.328 297.765C298.831 297.982 298.308 298.262 297.773 298.607C297.773 298.607 297.773 298.607 297.76 298.607Z" fill="#FFB73B"/>
<path d="M299.328 297.752L289.802 292.371C290.159 292.218 290.491 292.09 290.822 291.988L300.349 297.37C300.017 297.472 299.686 297.599 299.328 297.752Z" fill="#FFB73B"/>
<path d="M300.349 297.37L290.822 291.988C291.192 291.873 291.536 291.797 291.868 291.759L301.394 297.14C301.063 297.179 300.706 297.268 300.349 297.37Z" fill="#FC9600"/>
<path d="M301.395 297.128L291.868 291.746C292.034 291.72 292.187 291.708 292.34 291.708C292.365 291.708 292.378 291.708 292.404 291.708L301.93 297.089C301.93 297.089 301.892 297.089 301.866 297.089C301.713 297.089 301.56 297.102 301.395 297.128Z" fill="#FA9400"/>
<path d="M301.93 297.089L292.404 291.708C292.544 291.708 292.684 291.708 292.812 291.708L302.338 297.089C302.198 297.089 302.07 297.077 301.93 297.089Z" fill="#CC6300"/>
<path d="M302.338 297.102L292.812 291.72C292.927 291.72 293.054 291.746 293.169 291.758L302.695 297.14C302.581 297.115 302.466 297.102 302.338 297.102Z" fill="#CC6300"/>
<path d="M302.695 297.14L293.169 291.759C293.271 291.771 293.386 291.797 293.488 291.822L303.014 297.204C302.912 297.179 302.81 297.153 302.695 297.14Z" fill="#CC6300"/>
<path d="M303.001 297.217L293.475 291.835C293.577 291.86 293.666 291.886 293.755 291.924L303.282 297.306C303.193 297.268 303.091 297.242 303.001 297.217Z" fill="#CC6300"/>
<path d="M303.295 297.306L293.768 291.924C293.857 291.963 293.947 292.001 294.036 292.039L303.562 297.421C303.473 297.383 303.384 297.344 303.295 297.306Z" fill="#CC6300"/>
<path d="M303.55 297.421L294.023 292.039C294.023 292.039 294.151 292.103 294.202 292.141L303.728 297.523C303.728 297.523 303.614 297.459 303.55 297.421Z" fill="#CC6300"/>
</g>
<path d="M283.362 334.162L273.835 328.793L274.065 292.396L283.578 297.765L283.362 334.162Z" fill="#CC6300"/>
<path d="M283.579 297.765L274.065 292.396L280.518 288.366L290.032 293.735L283.579 297.765Z" fill="#FFB73B"/>
<path d="M290.032 293.735L289.942 308.401C291.549 304.129 294.24 300.826 297.76 298.581C299.316 297.612 300.693 297.115 301.854 297.077C304.493 296.987 306.024 299.219 305.998 303.504L305.896 320.083L299.443 324.113L299.532 309.74C299.545 307.432 298.755 306.233 297.352 306.284C296.727 306.31 295.974 306.577 295.12 307.113C291.893 309.179 289.904 313.247 289.891 317.124L289.815 330.119L283.362 334.137L283.579 297.74L290.032 293.71V293.735Z" fill="#FFDE00"/>
<path d="M276.768 321.014L267.255 315.632L272.114 312.597L281.64 317.966L276.768 321.014Z" fill="#FFB73B"/>
<path d="M268.211 343.625L258.697 338.243L258.748 328.997L268.275 334.379L268.211 343.625Z" fill="#CC6300"/>
<path d="M260.738 331.012L251.211 325.631L258.799 320.899L268.326 326.281L260.738 331.012Z" fill="#FFB73B"/>
<path d="M268.377 317.29L258.85 311.908L267.306 306.629L276.832 312.01L268.377 317.29Z" fill="#FFB73B"/>
<path d="M268.326 326.281L258.799 320.899L258.85 311.908L268.377 317.29L268.326 326.281Z" fill="#CC6300"/>
<path d="M251.262 344.989L241.736 339.62L241.774 332.479L251.301 337.861L251.262 344.989Z" fill="#CC6300"/>
<path d="M236.443 355.013L226.917 349.631L242.042 340.207L251.556 345.576L236.443 355.013Z" fill="#FFB73B"/>
<path d="M262.778 305.175L253.252 299.793L262.026 294.335L271.54 299.704L262.778 305.175Z" fill="#FFB73B"/>
<path d="M271.54 299.704L260.738 331.012L268.326 326.281L268.377 317.29L276.832 312.01L276.768 321.014L281.64 317.966L281.589 326.064L276.73 329.112L276.666 338.345L268.211 343.625L268.275 334.379L251.262 344.989L251.301 337.861L262.778 305.175L271.54 299.704Z" fill="#FFDE00"/>
<path d="M251.301 337.861L241.774 332.479L253.252 299.793L262.778 305.175L251.301 337.861Z" fill="#F08A00"/>
<path d="M224.66 370.789L215.146 365.407L215.184 358.508L224.711 363.89L224.66 370.789Z" fill="#CC6300"/>
<path d="M224.711 363.889L215.184 358.508L228.09 334.621L237.604 340.003L224.711 363.889Z" fill="#F18B00"/>
<mask id="mask2_660_10606" style="mask-type:luminance" maskUnits="userSpaceOnUse" x="228" y="323" width="14" height="18">
<path d="M230.743 323.233L240.269 328.615C240.805 328.921 241.098 329.609 241.086 330.668C241.086 332.594 239.619 336.305 237.604 340.003L228.077 334.621C230.092 330.91 231.546 327.199 231.559 325.286C231.559 324.228 231.278 323.539 230.743 323.233Z" fill="white"/>
</mask>
<g mask="url(#mask2_660_10606)">
<path d="M237.604 340.003L228.078 334.621C228.447 333.933 228.805 333.244 229.136 332.568L238.663 337.95C238.331 338.626 237.974 339.314 237.604 340.003Z" fill="#F38D00"/>
<path d="M238.663 337.95L229.136 332.568C229.583 331.65 229.991 330.745 230.322 329.903L239.849 335.285C239.504 336.139 239.109 337.032 238.663 337.95Z" fill="#CC6300"/>
<path d="M239.861 335.285L230.335 329.903C230.628 329.163 230.883 328.449 231.087 327.799L240.614 333.18C240.423 333.831 240.168 334.532 239.861 335.285Z" fill="#CC6300"/>
<path d="M240.614 333.181L231.087 327.799C231.253 327.238 231.393 326.715 231.47 326.243L240.996 331.625C240.92 332.084 240.78 332.607 240.614 333.181Z" fill="#CC6300"/>
<path d="M240.996 331.624L231.47 326.243C231.534 325.886 231.559 325.567 231.572 325.273C231.572 324.368 231.368 323.73 230.973 323.373L240.499 328.755C240.894 329.112 241.098 329.75 241.098 330.655C241.098 330.936 241.06 331.267 240.996 331.624Z" fill="#CC6300"/>
<path d="M240.499 328.768L230.973 323.386C230.909 323.322 230.832 323.271 230.743 323.22L240.27 328.602C240.346 328.653 240.423 328.704 240.499 328.768Z" fill="#F08A00"/>
</g>
<path d="M238.739 312.419L248.266 317.8C247.513 317.379 246.62 317.188 245.575 317.226L236.048 311.845C237.081 311.806 237.987 311.998 238.739 312.419Z" fill="#CC6300"/>
<mask id="mask3_660_10606" style="mask-type:luminance" maskUnits="userSpaceOnUse" x="236" y="311" width="13" height="7">
<path d="M238.739 312.419L248.266 317.8C247.513 317.379 246.62 317.188 245.575 317.226L236.048 311.845C237.081 311.806 237.987 311.998 238.739 312.419Z" fill="white"/>
</mask>
<g mask="url(#mask3_660_10606)">
<path d="M245.575 317.226L236.048 311.845C236.048 311.845 236.112 311.845 236.15 311.845L245.677 317.226C245.677 317.226 245.613 317.226 245.575 317.226Z" fill="#FA9400"/>
<path d="M245.677 317.226L236.15 311.844C236.367 311.844 236.584 311.844 236.788 311.857L246.314 317.239C246.11 317.226 245.894 317.213 245.677 317.226Z" fill="#CC6300"/>
<path d="M246.314 317.239L236.788 311.857C236.966 311.87 237.145 311.896 237.311 311.921L246.837 317.303C246.672 317.277 246.493 317.252 246.314 317.239Z" fill="#CC6300"/>
<path d="M246.837 317.303L237.311 311.921C237.464 311.946 237.617 311.985 237.757 312.023L247.284 317.405C247.143 317.366 246.99 317.328 246.837 317.303Z" fill="#CC6300"/>
<path d="M247.284 317.405L237.757 312.023C237.897 312.061 238.025 312.1 238.152 312.151L247.679 317.532C247.551 317.481 247.424 317.443 247.284 317.405Z" fill="#CC6300"/>
<path d="M247.679 317.532L238.152 312.151C238.267 312.189 238.395 312.24 238.497 312.304L248.023 317.685C247.908 317.634 247.794 317.583 247.679 317.532Z" fill="#CC6300"/>
<path d="M248.023 317.673L238.497 312.291C238.573 312.329 238.65 312.368 238.739 312.419L248.266 317.8C248.189 317.762 248.113 317.711 248.023 317.673Z" fill="#CC6300"/>
</g>
<path d="M227.249 340.794L225.336 339.71L217.722 335.412L214.33 329.877L223.856 335.259L225.922 338.639L227.249 340.794Z" fill="#CC6300"/>
<path d="M251.556 345.589L251.505 354.044L224.66 370.789L224.698 363.89L237.604 340.003C239.606 336.292 241.073 332.581 241.073 330.655C241.073 330.502 241.073 330.362 241.06 330.222C240.971 328.997 240.397 328.385 239.44 328.423C238.803 328.449 237.999 328.742 237.056 329.342C234.135 331.165 230.526 335.438 227.236 340.781L225.91 338.626L223.844 335.259C228.371 328.474 233.306 323.067 238.433 319.879C241.175 318.17 243.598 317.29 245.562 317.226C248.712 317.112 250.638 319.114 250.612 323.22C250.587 327.773 247.679 334.303 243.764 341.419L236.431 355.013L251.543 345.589H251.556Z" fill="#FFDE00"/>
<path d="M276.781 321.001L276.768 322.047L281.64 319.012V317.966L276.781 321.001Z" fill="#FFF39F"/>
<path d="M268.326 326.281L261.184 330.732L260.738 332.045L268.326 327.327L268.377 318.323L276.819 313.043L276.832 312.01L268.377 317.29L268.326 326.281Z" fill="#FFF39F"/>
<path d="M251.301 338.894L262.778 306.208L271.093 301.03L271.54 299.704L262.778 305.175L251.301 337.861L251.262 344.989L251.301 338.894Z" fill="#FFF39F"/>
<path d="M237.285 354.49L236.443 356.046L251.556 346.622V345.589L237.285 354.49Z" fill="#FFF39F"/>
<path d="M237.617 341.036C239.619 337.325 241.086 333.614 241.086 331.688C241.086 331.535 241.085 331.395 241.073 331.254C241.073 331.191 241.06 331.14 241.047 331.089C240.856 333.104 239.479 336.547 237.604 340.003L224.698 363.889L224.66 370.789L224.698 364.922L237.604 341.036H237.617Z" fill="#FFF39F"/>
<path d="M238.446 320.912C241.188 319.203 243.611 318.323 245.575 318.259C248.597 318.157 250.472 320.019 250.599 323.794C250.599 323.603 250.625 323.399 250.625 323.207C250.65 319.101 248.725 317.111 245.575 317.213C243.611 317.277 241.175 318.157 238.446 319.866C233.332 323.054 228.396 328.462 223.856 335.246L224.188 335.795C228.626 329.24 233.446 324.011 238.433 320.899L238.446 320.912Z" fill="#FFF39F"/>
<path d="M289.955 309.447C291.562 305.175 294.253 301.872 297.773 299.627C299.328 298.658 300.706 298.161 301.866 298.122C304.481 298.033 305.998 300.227 306.011 304.422V303.517C306.036 299.232 304.506 296.987 301.866 297.089C300.706 297.128 299.328 297.625 297.773 298.594C294.253 300.839 291.575 304.129 289.955 308.401V309.447Z" fill="#FFF39F"/>
<path d="M283.578 298.811L290.031 294.781V293.735L283.578 297.765L283.362 334.162H283.374L283.578 298.811Z" fill="#FFF39F"/>
<path d="M299.532 310.658L299.456 324.138L299.532 310.799C299.532 310.748 299.532 310.709 299.532 310.658Z" fill="#FFF39F"/>
<mask id="mask4_660_10606" style="mask-type:luminance" maskUnits="userSpaceOnUse" x="214" y="311" width="32" height="25">
<path d="M223.856 335.259L214.33 329.877C218.857 323.105 223.792 317.685 228.919 314.497C231.648 312.788 234.084 311.908 236.048 311.844L245.575 317.226C243.611 317.29 241.175 318.183 238.446 319.879C233.319 323.067 228.384 328.487 223.856 335.259Z" fill="white"/>
</mask>
<g mask="url(#mask4_660_10606)">
<path d="M223.856 335.259L214.33 329.877C214.865 329.074 215.414 328.283 215.962 327.531L225.489 332.912C224.94 333.677 224.392 334.455 223.856 335.259Z" fill="#F67A00"/>
<path d="M225.489 332.912L215.962 327.531C216.702 326.498 217.454 325.503 218.207 324.559L227.733 329.941C226.981 330.897 226.228 331.892 225.489 332.912Z" fill="#F67A00"/>
<path d="M227.733 329.928L218.207 324.546C218.87 323.717 219.533 322.927 220.209 322.162L229.735 327.543C229.059 328.309 228.396 329.099 227.733 329.928Z" fill="#F69000"/>
<path d="M229.735 327.543L220.209 322.161C220.808 321.486 221.408 320.822 222.02 320.198L231.546 325.579C230.934 326.204 230.335 326.855 229.735 327.543Z" fill="#F79100"/>
<path d="M231.546 325.579L222.02 320.198C222.581 319.624 223.142 319.063 223.716 318.54L233.242 323.922C232.669 324.444 232.107 325.006 231.546 325.579Z" fill="#F79100"/>
<path d="M233.242 323.922L223.716 318.54C224.252 318.043 224.8 317.558 225.336 317.112L234.862 322.493C234.314 322.952 233.778 323.424 233.242 323.922Z" fill="#F99300"/>
<path d="M234.862 322.493L225.336 317.111C225.897 316.652 226.458 316.206 227.019 315.798L236.545 321.18C235.984 321.588 235.423 322.034 234.862 322.493Z" fill="#F99300"/>
<path d="M236.545 321.18L227.019 315.798C227.644 315.339 228.269 314.918 228.894 314.523L238.42 319.904C237.795 320.3 237.17 320.721 236.545 321.18Z" fill="#FFB73B"/>
<path d="M238.42 319.904L228.894 314.523C228.894 314.523 228.906 314.523 228.919 314.51C229.901 313.898 230.858 313.388 231.75 312.979L241.277 318.361C240.371 318.769 239.428 319.267 238.446 319.892C238.446 319.892 238.433 319.892 238.42 319.904Z" fill="#FFB73B"/>
<path d="M241.277 318.361L231.75 312.979C232.35 312.711 232.936 312.482 233.497 312.316L243.024 317.698C242.463 317.876 241.876 318.093 241.277 318.361Z" fill="#FFB73B"/>
<path d="M243.037 317.685L233.51 312.304C234.135 312.112 234.734 311.972 235.296 311.896L244.822 317.277C244.261 317.354 243.662 317.481 243.037 317.685Z" fill="#FC9600"/>
<path d="M244.809 317.29L235.283 311.908C235.538 311.87 235.793 311.857 236.048 311.844L245.575 317.226C245.332 317.226 245.077 317.252 244.809 317.29Z" fill="#FA9400"/>
</g>
<path d="M203.656 287.805C203.656 293.888 204.778 297.651 207.902 300.201C208.336 300.558 209.42 301.961 210.912 302.866C212.876 304.04 215.299 304.716 215.299 304.716C215.299 304.716 219.712 302.548 224.813 299.602C236.928 292.613 247.832 252.377 247.832 252.377C247.832 252.377 246.735 250.63 244.695 249.419C243.611 248.768 241.634 248.386 240.346 248.029C236.189 246.906 231.266 246.702 225.578 249.993C213.463 256.981 203.656 273.917 203.656 287.818V287.805Z" fill="url(#paint1_linear_660_10606)"/>
<path d="M204.752 288.94C204.752 275.04 214.572 258.104 226.675 251.115C232.363 247.825 237.298 248.029 241.443 249.151C242.731 249.495 244.708 249.891 245.792 250.541C246.404 250.898 246.914 251.319 247.36 251.714C246.85 251.089 245.957 250.146 244.708 249.406C243.623 248.756 241.647 248.373 240.359 248.016C236.201 246.894 231.279 246.69 225.591 249.98C213.475 256.969 203.668 273.905 203.668 287.805C203.668 293.621 204.701 297.319 207.533 299.857C205.518 297.383 204.765 293.939 204.765 288.94H204.752Z" fill="url(#paint2_linear_660_10606)"/>
<path d="M244.707 249.406C243.674 248.794 241.864 248.411 240.576 248.08C237.209 247.812 233.447 248.399 229.276 250.796C216.791 258.002 206.678 275.448 206.678 289.769C206.678 296.031 207.839 299.921 211.065 302.535C211.244 302.675 211.524 302.994 211.894 303.377C213.603 304.218 215.312 304.69 215.312 304.69C215.312 304.69 219.724 302.522 224.826 299.576C236.941 292.588 247.845 252.352 247.845 252.352C247.845 252.352 246.748 250.605 244.707 249.393V249.406Z" fill="url(#paint3_linear_660_10606)"/>
<path d="M208.132 300.086C204.918 296.158 204.357 293.85 204.357 287.767C204.357 273.866 214.177 256.943 226.279 249.941C229.366 248.169 232.63 247.506 235.296 247.276C232.452 247.378 228.932 248.041 225.591 249.98C213.475 256.968 203.668 273.904 203.668 287.805C203.668 293.888 205.161 297.561 207.915 300.494C208.655 301.285 209.713 302.394 211.142 303.249C213.169 304.46 215.325 304.703 215.325 304.703C215.325 304.703 215.478 304.626 215.733 304.499C214.891 304.014 212.723 303.95 211.001 302.65C209.395 301.425 208.374 300.367 208.145 300.086H208.132Z" fill="#B5B2AE"/>
<path d="M245.979 286.844C254.595 272.105 254.684 256.125 246.177 251.152C237.671 246.18 223.79 254.097 215.173 268.836C206.557 283.575 206.468 299.555 214.975 304.528C223.481 309.5 237.362 301.583 245.979 286.844Z" fill="#B3B3B5"/>
<path d="M230.577 302.318C218.564 309.256 208.821 303.798 208.655 290.152C208.655 290.267 208.655 290.381 208.655 290.496C208.655 304.397 218.475 309.995 230.577 302.994C242.693 296.005 252.5 279.069 252.5 265.169C252.5 265.054 252.5 264.939 252.5 264.837C252.334 278.674 242.59 295.381 230.577 302.318Z" fill="#98989B"/>
<path d="M209.165 291.3C209.165 277.399 218.985 260.463 231.087 253.474C239.287 248.743 246.442 249.789 250.204 255.272C246.608 249.087 239.173 247.71 230.577 252.671C218.462 259.659 208.655 276.595 208.655 290.496C208.655 294.972 209.675 298.594 211.473 301.196C210.007 298.671 209.165 295.329 209.165 291.3Z" fill="#D4D4D5"/>
<path d="M212.34 289.042C212.34 301.323 219.928 306.144 230.628 299.959C241.328 293.774 250 278.814 250 266.546C250 254.278 242.412 249.444 231.712 255.629C221.012 261.815 212.34 276.774 212.34 289.042Z" fill="#D4D4D5"/>
<path d="M241.762 252.964C243.866 255.527 244.389 259.341 244.516 261.419C245.294 274.313 236.201 290.7 224.673 297.191C221.778 298.824 218.985 299.678 216.562 299.678C216.064 299.678 215.592 299.64 215.146 299.563C216.409 301.119 218.258 302.216 220.936 302.216C223.346 302.216 226.152 301.362 229.047 299.729C240.576 293.238 249.668 276.85 248.89 263.957C248.699 260.858 247.628 253.933 241.774 252.964H241.762Z" fill="url(#paint4_linear_660_10606)"/>
<path d="M246.442 262.363C246.302 260.119 245.702 255.885 243.164 253.347C242.348 253.041 241.417 252.862 240.346 252.862C237.936 252.862 235.13 253.717 232.235 255.349C220.706 261.84 211.613 278.228 212.379 291.121C212.519 293.366 213.118 297.6 215.656 300.15C216.472 300.456 217.403 300.635 218.475 300.635C220.885 300.635 223.691 299.781 226.585 298.148C238.114 291.657 247.207 275.269 246.429 262.376L246.442 262.363Z" fill="#D4D099"/>
<path d="M246.595 265.424C246.467 263.396 245.932 259.557 243.636 257.249C242.897 256.969 242.055 256.803 241.086 256.803C238.905 256.803 236.367 257.581 233.74 259.06C223.295 264.939 215.057 279.784 215.758 291.465C215.886 293.493 216.421 297.332 218.717 299.64C219.457 299.921 220.298 300.086 221.268 300.086C223.448 300.086 225.986 299.308 228.613 297.829C239.058 291.95 247.296 277.105 246.595 265.424Z" fill="#FFFBD1"/>
<g style="mix-blend-mode:multiply">
<path d="M215.019 292.792C214.241 279.899 223.334 263.511 234.875 257.02C237.77 255.387 240.563 254.533 242.986 254.533C243.419 254.533 245.103 254.75 245.498 254.814C245.192 254.354 244.172 253.819 243.177 253.347C242.361 253.041 241.43 252.862 240.359 252.862C237.948 252.862 235.143 253.717 232.248 255.349C220.719 261.84 211.626 278.228 212.391 291.121C212.532 293.366 213.131 297.6 215.669 300.15C216.396 300.941 216.983 301.222 217.429 301.451C215.758 298.926 215.133 294.705 215.019 292.805V292.792Z" fill="#D2D1D4"/>
</g>
<mask id="mask5_660_10606" style="mask-type:luminance" maskUnits="userSpaceOnUse" x="212" y="252" width="37" height="50">
<path d="M248.929 262.822C248.929 257.581 246.761 255.069 243.164 253.347C242.348 253.041 241.417 252.862 240.346 252.862C237.936 252.862 235.13 253.717 232.235 255.349C220.706 261.84 211.613 278.228 212.379 291.121C212.519 293.366 213.118 297.6 215.656 300.15C216.472 300.456 218.194 301.426 219.265 301.426C221.676 301.426 226.126 301.043 228.919 299.245C245.485 288.596 248.929 275.754 248.929 262.835V262.822Z" fill="white"/>
</mask>
<g mask="url(#mask5_660_10606)">
<path d="M243.025 284.564C250.678 271.473 250.755 257.278 243.197 252.86C235.639 248.442 223.308 255.473 215.655 268.564C208.002 281.655 207.925 295.85 215.483 300.268C223.041 304.686 235.372 297.655 243.025 284.564Z" fill="#E4D9BA"/>
<path d="M245.23 254.469C246.748 256.777 247.615 259.927 247.615 263.817C247.615 276.162 238.892 291.198 228.141 297.408C221.586 301.196 215.797 300.813 212.264 297.166C215.567 302.191 221.982 303.185 229.353 298.926C240.104 292.715 248.827 277.679 248.827 265.335C248.827 260.514 247.488 256.816 245.23 254.482V254.469Z" fill="#D2C08C"/>
<path d="M247.054 265.921C246.544 276.047 238.624 288.596 229.353 293.952C220.081 299.309 212.965 295.432 213.475 285.306C213.986 275.18 221.905 262.631 231.177 257.275C240.448 251.919 247.564 255.796 247.054 265.921Z" fill="#F0EBD5"/>
<path d="M227.823 259.354L227.274 259.672L226.586 277.297L227.3 281.863L227.797 281.569L228.575 276.149L227.823 259.354Z" fill="#D2C08C"/>
<path d="M229.149 259.315L228.613 259.634L227.925 277.259L228.55 281.276L229.098 281.786L229.914 276.111L229.621 259.277L229.149 259.315Z" fill="#131313"/>
<path d="M229.621 259.277L229.072 259.583L228.384 277.208L229.098 281.786L229.595 281.493L230.373 276.06L229.621 259.277Z" fill="#404040"/>
<path d="M229.353 278.853C229.442 278.802 229.532 278.738 229.621 278.674L229.366 281.467L229.123 278.968C229.2 278.942 229.276 278.904 229.353 278.853Z" fill="#595959"/>
<path d="M229.353 274.325C229.225 274.402 229.098 274.478 228.97 274.581L229.315 259.825L229.57 259.634L229.774 274.134C229.634 274.185 229.493 274.249 229.353 274.325Z" fill="#595959"/>
<path d="M230.947 275.652C230.947 276.672 230.233 277.897 229.353 278.407C228.473 278.917 227.759 278.509 227.759 277.488C227.759 276.468 228.473 275.244 229.353 274.734C230.233 274.224 230.947 274.632 230.947 275.652Z" fill="#A2A2A2"/>
<path d="M230.067 276.162C230.067 276.621 229.748 277.182 229.34 277.412C228.945 277.641 228.613 277.463 228.613 277.004C228.613 276.545 228.932 275.983 229.34 275.754C229.736 275.524 230.067 275.703 230.067 276.162Z" fill="#C9C9C9"/>
<path d="M233.893 254.316C233.829 254.673 233.574 255.056 233.294 255.171C233.026 255.285 232.847 255.069 232.911 254.711C232.975 254.354 233.23 253.972 233.51 253.857C233.778 253.742 233.957 253.959 233.893 254.316Z" fill="#9A715A"/>
<path d="M226.713 298.837C226.662 299.207 226.382 299.589 226.088 299.704C225.795 299.819 225.604 299.602 225.655 299.245C225.706 298.875 225.986 298.493 226.279 298.378C226.573 298.263 226.764 298.48 226.713 298.837Z" fill="#9A715A"/>
<path d="M236.699 253.602C236.597 253.972 236.303 254.316 236.048 254.367C235.793 254.405 235.666 254.138 235.768 253.768C235.87 253.398 236.163 253.054 236.418 253.003C236.673 252.964 236.801 253.232 236.699 253.602Z" fill="#9A715A"/>
<path d="M223.614 299.781C223.512 300.163 223.206 300.507 222.925 300.546C222.645 300.597 222.505 300.316 222.607 299.934C222.709 299.551 223.015 299.207 223.295 299.168C223.576 299.13 223.716 299.398 223.614 299.781Z" fill="#9A715A"/>
<path d="M239.313 253.602C239.16 253.985 238.854 254.265 238.624 254.252C238.395 254.227 238.318 253.908 238.471 253.526C238.624 253.143 238.93 252.862 239.16 252.875C239.39 252.901 239.466 253.22 239.313 253.602Z" fill="#9A715A"/>
<path d="M220.681 300.023C220.528 300.405 220.196 300.699 219.941 300.673C219.686 300.648 219.597 300.329 219.75 299.946C219.903 299.564 220.235 299.27 220.49 299.296C220.745 299.321 220.834 299.64 220.681 300.023Z" fill="#9A715A"/>
<path d="M243.7 255.273C243.47 255.63 243.126 255.783 242.935 255.63C242.744 255.477 242.769 255.069 242.999 254.724C243.228 254.367 243.573 254.214 243.764 254.367C243.955 254.52 243.93 254.928 243.7 255.273Z" fill="#9A715A"/>
<path d="M215.707 298.391C215.478 298.748 215.133 298.901 214.942 298.748C214.751 298.595 214.776 298.187 215.006 297.842C215.235 297.485 215.58 297.332 215.771 297.485C215.962 297.638 215.937 298.046 215.707 298.391Z" fill="#9A715A"/>
<path d="M245.46 257.313C245.205 257.632 244.873 257.721 244.72 257.517C244.567 257.313 244.657 256.879 244.912 256.561C245.167 256.242 245.498 256.153 245.651 256.357C245.804 256.561 245.715 256.994 245.46 257.313Z" fill="#9A715A"/>
<path d="M213.807 296.554C213.552 296.873 213.22 296.962 213.067 296.758C212.914 296.554 213.004 296.12 213.259 295.802C213.514 295.483 213.845 295.394 213.998 295.598C214.151 295.802 214.062 296.235 213.807 296.554Z" fill="#9A715A"/>
<path d="M246.723 259.953C246.442 260.234 246.136 260.246 246.034 259.978C245.932 259.711 246.072 259.277 246.353 258.996C246.633 258.716 246.939 258.703 247.041 258.971C247.143 259.239 247.003 259.672 246.723 259.953Z" fill="#9A715A"/>
<path d="M213.82 294.118C213.552 294.399 213.271 294.412 213.182 294.144C213.093 293.889 213.246 293.455 213.501 293.174C213.756 292.894 214.049 292.881 214.139 293.149C214.228 293.404 214.075 293.838 213.82 294.118Z" fill="#9A715A"/>
<path d="M247.449 263.09C247.156 263.32 246.876 263.256 246.825 262.95C246.774 262.644 246.965 262.21 247.258 261.981C247.552 261.751 247.832 261.815 247.883 262.121C247.934 262.427 247.743 262.861 247.449 263.09Z" fill="#9A715A"/>
<path d="M213.067 291.185C212.787 291.415 212.545 291.351 212.506 291.045C212.468 290.739 212.659 290.318 212.94 290.088C213.221 289.859 213.463 289.923 213.501 290.229C213.539 290.535 213.348 290.956 213.067 291.185Z" fill="#9A715A"/>
<path d="M247.271 270.487C246.978 270.602 246.786 270.385 246.837 270.028C246.888 269.658 247.169 269.276 247.462 269.161C247.756 269.046 247.947 269.263 247.896 269.62C247.845 269.99 247.564 270.372 247.271 270.487Z" fill="#9A715A"/>
<path d="M212.749 283.929C212.481 284.043 212.302 283.827 212.366 283.47C212.43 283.112 212.685 282.73 212.965 282.615C213.246 282.5 213.412 282.717 213.348 283.074C213.284 283.431 213.029 283.814 212.749 283.929Z" fill="#9A715A"/>
<path d="M246.353 274.517C246.072 274.555 245.932 274.287 246.034 273.905C246.136 273.522 246.442 273.178 246.723 273.139C247.003 273.101 247.143 273.369 247.041 273.752C246.939 274.134 246.633 274.478 246.353 274.517Z" fill="#9A715A"/>
<path d="M213.858 279.81C213.603 279.848 213.475 279.58 213.577 279.21C213.68 278.84 213.973 278.496 214.228 278.445C214.483 278.407 214.61 278.675 214.508 279.044C214.406 279.414 214.113 279.759 213.858 279.81Z" fill="#9A715A"/>
<path d="M244.912 278.611C244.657 278.585 244.567 278.266 244.72 277.884C244.873 277.501 245.205 277.208 245.46 277.233C245.715 277.259 245.804 277.578 245.651 277.96C245.498 278.343 245.167 278.636 244.912 278.611Z" fill="#9A715A"/>
<path d="M215.159 276.111C214.929 276.086 214.853 275.767 215.006 275.384C215.159 275.002 215.465 274.721 215.695 274.734C215.924 274.759 216.001 275.078 215.848 275.461C215.695 275.843 215.388 276.124 215.159 276.111Z" fill="#9A715A"/>
<path d="M243.011 282.653C242.782 282.564 242.756 282.194 242.948 281.824C243.139 281.454 243.483 281.225 243.713 281.314C243.942 281.403 243.968 281.773 243.777 282.143C243.585 282.513 243.241 282.743 243.011 282.653Z" fill="#9A715A"/>
<path d="M216.88 272.094C216.676 272.005 216.664 271.635 216.842 271.265C217.034 270.895 217.34 270.666 217.556 270.755C217.773 270.844 217.773 271.214 217.595 271.584C217.403 271.954 217.097 272.183 216.88 272.094Z" fill="#9A715A"/>
<path d="M238.025 290.05C237.872 289.846 237.961 289.412 238.216 289.093C238.471 288.775 238.803 288.685 238.956 288.889C239.109 289.093 239.02 289.527 238.765 289.846C238.51 290.165 238.178 290.254 238.025 290.05Z" fill="#9A715A"/>
<path d="M221.421 264.608C221.293 264.404 221.382 263.97 221.625 263.664C221.867 263.345 222.173 263.256 222.301 263.473C222.428 263.677 222.339 264.11 222.097 264.417C221.854 264.735 221.548 264.825 221.421 264.608Z" fill="#9A715A"/>
<path d="M235.092 293.187C234.99 292.919 235.13 292.486 235.411 292.205C235.691 291.925 235.997 291.912 236.099 292.18C236.201 292.448 236.061 292.881 235.781 293.162C235.5 293.442 235.194 293.455 235.092 293.187Z" fill="#9A715A"/>
<path d="M224.124 261.356C224.035 261.101 224.188 260.667 224.443 260.387C224.711 260.106 224.991 260.093 225.081 260.361C225.17 260.616 225.017 261.05 224.762 261.33C224.507 261.611 224.214 261.624 224.124 261.356Z" fill="#9A715A"/>
<path d="M231.993 295.827C231.942 295.521 232.133 295.087 232.427 294.858C232.72 294.628 233 294.692 233.051 294.998C233.102 295.304 232.911 295.738 232.618 295.967C232.324 296.197 232.044 296.133 231.993 295.827Z" fill="#9A715A"/>
<path d="M226.994 258.576C226.955 258.27 227.147 257.849 227.427 257.619C227.708 257.39 227.95 257.453 227.988 257.759C228.027 258.066 227.835 258.486 227.555 258.716C227.274 258.945 227.032 258.882 226.994 258.576Z" fill="#9A715A"/>
<path d="M225.859 278.598C225.859 281.225 223.997 284.439 221.701 285.765C219.406 287.091 217.544 286.033 217.544 283.393C217.544 280.753 219.406 277.552 221.701 276.226C223.997 274.899 225.859 275.958 225.859 278.598Z" fill="#D1BDA1"/>
<path d="M225.285 278.929C225.285 281.199 223.678 283.967 221.701 285.102C219.724 286.25 218.118 285.331 218.118 283.061C218.118 280.791 219.724 278.024 221.701 276.889C223.678 275.754 225.285 276.659 225.285 278.929Z" fill="#EAE2C2"/>
<path d="M221.79 277.144L221.625 277.233L221.408 281.595L221.625 283.444L221.778 283.355L222.02 281.251L221.79 277.144Z" fill="#2A3136"/>
<path d="M222.199 280.728C222.199 281.034 221.982 281.416 221.701 281.569C221.433 281.722 221.204 281.595 221.204 281.289C221.204 280.983 221.421 280.6 221.701 280.447C221.969 280.294 222.199 280.422 222.199 280.728Z" fill="#A2A2A2"/>
<path d="M221.931 280.855C221.931 280.995 221.829 281.161 221.714 281.238C221.586 281.314 221.497 281.25 221.497 281.11C221.497 280.97 221.599 280.804 221.714 280.728C221.841 280.651 221.931 280.715 221.931 280.855Z" fill="#C9C9C9"/>
<path d="M239.147 256.599V257.543L239.67 257.237C240.499 256.765 241.035 257.007 241.035 257.772C241.035 258.652 240.486 259.558 239.632 260.055C239.185 260.31 238.65 260.425 238.28 260.336L238.535 259.596C238.841 259.711 239.224 259.66 239.568 259.468C240.065 259.188 240.359 258.716 240.359 258.231C240.359 257.785 240.065 257.683 239.568 257.964C239.339 258.091 238.828 258.423 238.573 258.601V256.293L240.894 254.954V255.617L239.173 256.612L239.147 256.599Z" fill="#736457"/>
<path d="M219.878 267.719V268.663L220.4 268.357C221.229 267.885 221.765 268.128 221.765 268.893C221.765 269.773 221.204 270.678 220.362 271.163C219.916 271.418 219.38 271.533 219.01 271.443L219.265 270.704C219.571 270.818 219.954 270.767 220.286 270.576C220.783 270.296 221.076 269.824 221.076 269.339C221.076 268.893 220.783 268.791 220.286 269.071C220.056 269.199 219.546 269.53 219.291 269.709V267.401L221.612 266.062V266.725L219.89 267.719H219.878Z" fill="#736457"/>
<path d="M223.002 265.909V266.852L223.525 266.546C224.354 266.074 224.889 266.317 224.889 267.082C224.889 267.962 224.328 268.867 223.487 269.352C223.04 269.607 222.505 269.722 222.135 269.632L222.39 268.893C222.696 269.008 223.078 268.957 223.41 268.765C223.907 268.485 224.201 268.013 224.201 267.528C224.201 267.082 223.907 266.98 223.41 267.26C223.18 267.388 222.67 267.72 222.415 267.898V265.59L224.724 264.251V264.914L223.002 265.909Z" fill="#736457"/>
<path d="M218.513 294.692C219.151 294.386 219.584 294.564 219.584 295.24C219.584 296.056 219.049 296.936 218.194 297.421C217.722 297.689 217.238 297.791 216.906 297.689L217.174 296.936C217.442 297.077 217.799 297.026 218.143 296.834C218.653 296.541 218.947 296.069 218.947 295.623C218.947 295.151 218.653 295.074 218.143 295.368L217.62 295.674V295.24L218.615 293.442L217.097 294.322V293.672L219.418 292.333V292.792L218.334 294.768L218.526 294.679L218.513 294.692Z" fill="#736457"/>
<path d="M220.847 292.167V293.111L221.37 292.805C222.198 292.333 222.734 292.575 222.734 293.353C222.734 294.233 222.173 295.138 221.331 295.623C220.885 295.878 220.349 295.993 219.979 295.903L220.235 295.164C220.541 295.279 220.923 295.228 221.255 295.036C221.752 294.756 222.045 294.284 222.045 293.799C222.045 293.353 221.752 293.251 221.255 293.531C221.025 293.659 220.515 293.991 220.26 294.169V291.861L222.581 290.522V291.185L220.859 292.18L220.847 292.167Z" fill="#736457"/>
<path d="M238.42 282.424C238.42 282.87 238.127 283.521 237.719 284.26L236.724 286.033L238.586 284.962V285.625L235.882 287.194V286.658L237.285 284.12C237.566 283.636 237.744 283.176 237.744 282.921C237.744 282.577 237.502 282.501 237.107 282.73C236.775 282.921 236.393 283.355 236.074 283.878L235.819 283.457C236.227 282.832 236.711 282.322 237.209 282.029C237.923 281.621 238.42 281.761 238.42 282.424Z" fill="#736457"/>
<path d="M239.861 281.2V282.143L240.384 281.837C241.213 281.365 241.749 281.608 241.749 282.373C241.749 283.253 241.2 284.158 240.346 284.643C239.9 284.898 239.364 285.013 238.994 284.924L239.249 284.184C239.555 284.299 239.938 284.248 240.282 284.056C240.78 283.776 241.073 283.304 241.073 282.819C241.073 282.373 240.78 282.271 240.282 282.551C240.053 282.679 239.543 283.011 239.288 283.189V280.881L241.609 279.542V280.192L239.887 281.187L239.861 281.2Z" fill="#736457"/>
<path d="M241.417 271.89V268.179L240.678 268.613V267.962L242.068 267.159V271.52L241.43 271.89H241.417Z" fill="#736457"/>
<path d="M243.726 266.852V267.796L244.248 267.49C245.077 267.018 245.613 267.261 245.613 268.026C245.613 268.906 245.065 269.811 244.21 270.296C243.764 270.551 243.228 270.666 242.858 270.576L243.113 269.837C243.419 269.951 243.802 269.9 244.146 269.709C244.644 269.429 244.937 268.957 244.937 268.472C244.937 268.026 244.644 267.924 244.146 268.204C243.917 268.332 243.407 268.663 243.152 268.842V266.534L245.473 265.195V265.845L243.751 266.84L243.726 266.852Z" fill="#736457"/>
<path d="M228.396 294.118C228.919 293.863 229.276 294.003 229.276 294.577C229.276 295.253 228.83 295.98 228.129 296.375C227.746 296.605 227.338 296.681 227.07 296.592L227.287 295.967C227.516 296.082 227.797 296.044 228.09 295.878C228.511 295.636 228.753 295.253 228.753 294.883C228.753 294.513 228.511 294.437 228.09 294.679L227.657 294.934V294.577L228.473 293.098L227.21 293.825V293.289L229.123 292.18V292.562L228.231 294.195L228.396 294.118Z" fill="#736457"/>
<path d="M232.375 292.116C232.375 293.289 231.904 294.208 231.036 294.705C230.169 295.202 229.697 294.833 229.697 293.659C229.697 292.486 230.169 291.568 231.036 291.07C231.891 290.573 232.375 290.956 232.375 292.116ZM230.246 293.34C230.246 294.259 230.514 294.526 231.036 294.22C231.559 293.914 231.827 293.34 231.827 292.422C231.827 291.504 231.559 291.236 231.036 291.542C230.501 291.848 230.246 292.422 230.246 293.34Z" fill="#736457"/>
<path d="M213.59 286.109V285.255L214.088 284.974V285.829L214.547 285.561V286.096L214.088 286.364V287.257L213.59 287.538V286.645L212.086 287.512V287.053L213.157 284.171L213.667 283.877L212.647 286.645L213.578 286.109H213.59Z" fill="#736457"/>
<path d="M215.49 283.38V284.158L215.924 283.903C216.613 283.508 217.046 283.725 217.046 284.349C217.046 285.076 216.587 285.829 215.886 286.237C215.516 286.454 215.082 286.543 214.764 286.466L214.98 285.854C215.235 285.956 215.542 285.905 215.822 285.752C216.23 285.51 216.472 285.127 216.472 284.719C216.472 284.349 216.23 284.273 215.822 284.502C215.631 284.617 215.21 284.872 214.993 285.025V283.125L216.906 282.016V282.564L215.478 283.393L215.49 283.38Z" fill="#736457"/>
</g>
<g style="mix-blend-mode:screen">
<path d="M242.195 263.676C241.022 269.696 234.888 276.914 228.511 279.796C222.135 282.678 217.914 280.14 219.087 274.121C220.26 268.102 226.394 260.883 232.771 258.001C239.147 255.119 243.368 257.657 242.195 263.676Z" fill="#818188"/>
</g>
<path d="M225.961 251.638C225.476 251.192 225.259 250.707 225.297 250.273C225.297 250.133 225.374 248.539 225.374 248.539C225.374 248.539 227.032 248.054 227.644 247.863C229.098 247.429 232.006 248.603 232.006 248.603C232.006 248.603 231.993 250.694 231.827 251.192C231.687 251.638 231.253 252.186 230.577 252.39C229.123 252.824 227.057 252.658 225.961 251.625V251.638Z" fill="url(#paint5_linear_660_10606)"/>
<path d="M226.241 249.674C225.03 248.781 225.106 247.519 226.496 246.906C227.886 246.294 230.003 246.32 231.215 247.213C232.426 248.105 232.286 249.317 230.896 249.929C229.506 250.541 227.453 250.567 226.228 249.674H226.241Z" fill="#F3F3F1"/>
<path d="M227.083 248.59C226.802 248.322 226.675 248.042 226.7 247.786C226.7 247.71 226.751 244.981 226.751 244.981C226.751 244.981 227.721 244.7 228.078 244.585C228.932 244.33 230.628 245.019 230.628 245.019C230.628 245.019 230.628 248.029 230.526 248.322C230.437 248.577 230.195 248.909 229.799 249.024C228.945 249.279 227.746 249.177 227.096 248.577L227.083 248.59Z" fill="url(#paint6_linear_660_10606)"/>
<path d="M227.249 245.644C226.535 245.121 226.586 244.382 227.402 244.024C228.218 243.667 229.455 243.68 230.156 244.203C230.871 244.726 230.781 245.44 229.978 245.797C229.162 246.154 227.963 246.167 227.249 245.644Z" fill="#F3F3F1"/>
<path d="M213.463 266.163C213.016 266.329 212.646 266.304 212.379 266.138C212.289 266.087 209.343 264.531 209.343 264.531C209.343 264.531 209.573 263.319 209.65 262.86C209.841 261.789 211.537 260.323 211.537 260.323C211.537 260.323 214.814 262.006 215.082 262.274C215.312 262.516 215.529 262.962 215.439 263.46C215.248 264.531 214.47 265.794 213.45 266.151L213.463 266.163Z" fill="url(#paint7_linear_660_10606)"/>
<path d="M212.047 265.411C211.601 265.577 211.231 265.551 210.963 265.385C210.874 265.334 207.928 263.779 207.928 263.779C207.928 263.779 208.157 262.567 208.234 262.108C208.425 261.037 210.058 259.506 210.058 259.506C210.058 259.506 213.335 261.19 213.603 261.458C213.832 261.7 213.871 262.503 213.781 263.001C213.59 264.072 213.055 265.054 212.034 265.411H212.047Z" fill="url(#paint8_linear_660_10606)"/>
<path d="M210.95 265.628C210.338 265.883 210.032 265.717 209.216 265.526C209.076 265.487 207.584 264.812 207.584 264.812C207.584 264.812 207.813 263.09 207.89 262.452C208.081 260.947 210.325 258.767 210.325 258.767C210.325 258.767 212.124 259.659 212.506 260.016C213.08 260.552 213.475 261.343 213.386 262.044C213.195 263.549 212.34 265.028 210.95 265.615V265.628Z" fill="url(#paint9_linear_660_10606)"/>
<path d="M209.356 264.697C208.055 265.449 206.538 264.633 206.538 263.115C206.538 261.598 207.405 259.672 208.719 258.92C210.032 258.167 211.46 259.009 211.46 260.527C211.46 262.044 210.657 263.944 209.356 264.697Z" fill="#F3F3F1"/>
<g style="mix-blend-mode:multiply">
<path d="M37.5937 307.416C38.7223 306.775 39.8204 306.653 40.644 307.111C41.4371 307.599 41.9251 308.606 41.9251 309.917C41.9251 311.229 41.4676 312.754 40.6745 314.157C39.8509 315.561 38.7528 316.72 37.6241 317.391C36.465 318.062 35.3669 318.153 34.5433 317.726C33.7502 317.238 33.2621 316.232 33.2621 314.95C33.2621 313.639 33.7197 312.083 34.5128 310.68C35.3364 309.277 36.4345 308.118 37.5937 307.446V307.416Z" fill="url(#paint10_linear_660_10606)"/>
<path d="M370.45 102.095C370.663 104.688 368.955 108.135 366.545 109.782C366.423 109.874 366.271 109.965 366.149 110.026C363.952 111.307 362.031 110.453 361.848 107.983C361.604 105.39 363.342 101.943 365.722 100.326C365.844 100.235 365.996 100.143 366.118 100.082C368.345 98.8009 370.236 99.655 370.45 102.095Z" fill="url(#paint11_linear_660_10606)"/>
<path d="M364.806 93.4024C364.532 93.6159 364.287 93.799 364.013 93.9515C361.969 95.1412 360.139 94.5311 359.742 92.3348C359.285 89.8945 360.841 86.3866 363.159 84.5564C363.433 84.3428 363.708 84.1598 363.983 84.0073C366.026 82.8177 367.856 83.4582 368.253 85.5935C368.68 88.0643 367.155 91.5417 364.806 93.4024Z" fill="url(#paint12_linear_660_10606)"/>
<path d="M361.664 78.0585C361.268 78.4246 360.871 78.6991 360.475 78.9431C358.584 80.0413 356.845 79.5837 356.326 77.723C355.655 75.4657 356.997 71.9273 359.285 69.8836C359.682 69.5175 360.078 69.2124 360.475 68.9989C362.366 67.9008 364.074 68.3279 364.623 70.2191C365.294 72.4764 363.952 76.0148 361.664 78.089V78.0585Z" fill="url(#paint13_linear_660_10606)"/>
<path d="M359.621 56.0653C360.475 58.1091 359.407 61.6475 357.18 63.9048C356.662 64.4234 356.143 64.8504 355.625 65.1555C353.886 66.1621 352.269 65.8876 351.598 64.3014C350.714 62.2271 351.812 58.7191 354.039 56.4314C354.557 55.9128 355.076 55.4857 355.594 55.1807C357.333 54.1741 358.95 54.4486 359.651 56.0348L359.621 56.0653Z" fill="url(#paint14_linear_660_10606)"/>
<path d="M353.245 43.3148C354.313 45.145 353.489 48.6224 351.324 51.0932C350.714 51.8253 350.042 52.3744 349.371 52.7404C347.785 53.6555 346.26 53.5335 345.497 52.2218C344.43 50.3916 345.253 46.9142 347.419 44.4434C348.029 43.7113 348.7 43.1622 349.371 42.7962C350.958 41.8811 352.483 42.0031 353.245 43.3148Z" fill="url(#paint15_linear_660_10606)"/>
<path d="M345.589 32.0593C346.87 33.6455 346.26 37.0924 344.216 39.7157C343.515 40.6308 342.722 41.3324 341.928 41.7899C340.495 42.6135 339.061 42.6135 338.238 41.5459C336.956 39.9597 337.566 36.5128 339.61 33.8895C340.312 32.9744 341.105 32.2728 341.898 31.8153C343.332 30.9917 344.765 30.9916 345.589 32.0593Z" fill="url(#paint16_linear_660_10606)"/>
<path d="M336.712 22.3894C338.146 23.7621 337.81 27.087 335.889 29.8628C335.126 30.9915 334.211 31.8456 333.296 32.3641C331.984 33.1267 330.703 33.1877 329.849 32.3641C328.415 30.9915 328.751 27.6665 330.673 24.8907C331.466 23.7621 332.35 22.908 333.265 22.3894C334.577 21.6268 335.858 21.5659 336.743 22.3589L336.712 22.3894Z" fill="url(#paint17_linear_660_10606)"/>
<path d="M323.474 14.6113C324.663 13.9402 325.823 13.7877 326.677 14.3978C328.293 15.4959 328.171 18.6988 326.433 21.5967C325.609 22.9388 324.572 23.9759 323.504 24.586C322.315 25.257 321.156 25.4096 320.301 24.7995C318.685 23.7319 318.776 20.4985 320.545 17.6007C321.369 16.2585 322.406 15.2214 323.443 14.6418L323.474 14.6113Z" fill="url(#paint18_linear_660_10606)"/>
<path d="M312.676 8.44959C313.713 7.83952 314.78 7.65653 315.604 8.05308C317.373 8.87668 317.495 11.9881 315.909 14.9164C315.055 16.5026 313.896 17.7227 312.706 18.3938C311.669 19.0038 310.632 19.1564 309.778 18.7903C308.008 17.9362 307.886 14.8859 309.473 11.927C310.327 10.3713 311.486 9.15118 312.676 8.44959Z" fill="url(#paint19_linear_660_10606)"/>
<path d="M303.555 3.56898C305.477 4.11804 305.873 7.01587 304.44 10.0357C303.586 11.8049 302.305 13.2386 300.993 14.0012C300.078 14.5198 299.163 14.7333 298.37 14.4893C296.448 13.9402 296.082 11.0423 297.516 8.02248C298.37 6.25327 299.651 4.81964 300.962 4.05705C301.878 3.53848 302.793 3.32495 303.586 3.56898H303.555Z" fill="url(#paint20_linear_660_10606)"/>
<path d="M290.652 0.853945C292.695 1.09797 293.336 3.81279 292.085 6.89366C291.292 8.87639 289.858 10.5236 288.425 11.3777C287.662 11.8353 286.869 12.0488 286.137 11.9573C284.093 11.6827 283.483 8.96788 284.703 5.91752C285.527 3.90428 286.93 2.25712 288.394 1.43352C289.187 0.975967 289.95 0.762417 290.682 0.884432L290.652 0.853945Z" fill="url(#paint21_linear_660_10606)"/>
<path d="M277.017 0C279.152 0 280.037 2.47077 278.969 5.55164C278.206 7.7174 276.681 9.60864 275.095 10.5238C274.455 10.8898 273.783 11.1033 273.173 11.1033C271.038 11.1033 270.154 8.63251 271.221 5.55164C271.984 3.38588 273.509 1.49464 275.095 0.57953C275.736 0.213487 276.407 0 277.017 0Z" fill="url(#paint22_linear_660_10606)"/>
<path d="M262.711 1.00687C264.968 0.701832 266.066 2.9591 265.212 6.00947C264.571 8.35825 262.924 10.524 261.216 11.5306C260.698 11.8357 260.148 12.0187 259.66 12.0797C257.403 12.3847 256.305 10.1274 257.159 7.07707C257.8 4.72829 259.447 2.56253 261.186 1.55591C261.704 1.25088 262.223 1.06788 262.741 1.00687H262.711Z" fill="url(#paint23_linear_660_10606)"/>
<path d="M247.886 3.84332C250.174 3.26375 251.546 5.24648 250.875 8.26634C250.357 10.7676 248.618 13.1774 246.727 14.2756C246.33 14.4891 245.934 14.6721 245.537 14.7636C243.249 15.3432 241.877 13.3605 242.548 10.3406C243.066 7.83932 244.805 5.42952 246.696 4.33139C247.093 4.11787 247.489 3.93483 247.886 3.84332Z" fill="url(#paint24_linear_660_10606)"/>
<path d="M232.695 8.54138C235.044 7.71778 236.6 9.39549 236.173 12.3238C235.776 14.9472 233.976 17.662 231.933 18.8517C231.658 19.0042 231.384 19.1262 231.14 19.2177C228.791 20.0718 227.205 18.3941 227.662 15.4352C228.028 12.8424 229.858 10.0971 231.902 8.90745C232.146 8.75493 232.421 8.63289 232.695 8.54138Z" fill="url(#paint25_linear_660_10606)"/>
<path d="M217.23 15.008C219.609 13.8794 221.379 15.2825 221.165 18.1499C220.982 20.8342 219.091 23.8845 216.864 25.1657C216.742 25.2267 216.589 25.3182 216.467 25.3792C214.088 26.5079 212.319 25.1047 212.532 22.2374C212.715 19.553 214.607 16.5027 216.833 15.2215C216.956 15.1605 217.108 15.069 217.23 15.008Z" fill="url(#paint26_linear_660_10606)"/>
<path d="M201.643 23.213C204.052 21.8404 205.974 22.9385 205.974 25.6838C205.974 28.4291 204.052 31.754 201.673 33.1572C199.294 34.5298 197.342 33.4013 197.342 30.6559C197.342 27.9106 199.263 24.5857 201.643 23.1825V23.213Z" fill="url(#paint27_linear_660_10606)"/>
<path d="M186.451 32.7917C188.648 31.5106 190.569 32.3647 190.783 34.805C190.996 37.3978 189.258 40.8447 186.878 42.4614C186.726 42.5529 186.604 42.6444 186.451 42.736C184.225 44.0171 182.364 43.163 182.15 40.6922C181.937 38.0994 183.675 34.6525 186.055 33.0358C186.177 32.9443 186.329 32.8527 186.451 32.7917Z" fill="url(#paint28_linear_660_10606)"/>
<path d="M171.413 43.8638C173.457 42.6742 175.287 43.3148 175.684 45.4805C176.111 47.9208 174.555 51.4287 172.237 53.2894C171.962 53.503 171.718 53.6861 171.443 53.8386C169.4 55.0282 167.57 54.4181 167.173 52.2218C166.715 49.7815 168.271 46.2736 170.589 44.4434C170.864 44.2299 171.138 44.0469 171.413 43.8944V43.8638Z" fill="url(#paint29_linear_660_10606)"/>
<path d="M156.619 56.4012C158.51 55.3031 160.249 55.7606 160.798 57.6214C161.439 59.8786 160.127 63.4171 157.839 65.4608C157.443 65.8269 157.046 66.1318 156.65 66.3454C154.758 67.4435 153.05 67.0165 152.47 65.1252C151.83 62.868 153.142 59.36 155.429 57.2858C155.826 56.9197 156.222 56.6453 156.619 56.4012Z" fill="url(#paint30_linear_660_10606)"/>
<path d="M142.221 70.2801C143.96 69.2735 145.607 69.548 146.247 71.1342C147.102 73.1779 146.034 76.7164 143.807 78.9736C143.289 79.4922 142.77 79.9193 142.252 80.2243C140.513 81.2309 138.896 80.9564 138.225 79.3702C137.34 77.3265 138.438 73.788 140.665 71.5307C141.184 70.9817 141.733 70.5851 142.252 70.2801H142.221Z" fill="url(#paint31_linear_660_10606)"/>
<path d="M128.311 85.38C129.897 84.4649 131.453 84.5868 132.216 85.8985C133.283 87.7287 132.429 91.2367 130.294 93.677C129.684 94.3786 129.013 94.9276 128.372 95.3241C126.786 96.2392 125.261 96.1173 124.498 94.8056C123.431 92.9754 124.285 89.4674 126.42 87.0271C127.03 86.3255 127.701 85.7765 128.342 85.38H128.311Z" fill="url(#paint32_linear_660_10606)"/>
<path d="M115.073 101.577C116.507 100.753 117.94 100.753 118.764 101.79C120.045 103.407 119.435 106.824 117.391 109.447C116.69 110.362 115.896 111.064 115.103 111.521C113.67 112.345 112.236 112.345 111.412 111.308C110.162 109.691 110.772 106.244 112.785 103.651C113.487 102.736 114.28 102.035 115.073 101.577Z" fill="url(#paint33_linear_660_10606)"/>
<path d="M102.566 118.69C103.878 117.927 105.19 117.866 106.044 118.659C107.477 120.032 107.111 123.387 105.22 126.133C104.427 127.261 103.512 128.116 102.627 128.634C101.316 129.397 100.004 129.458 99.1499 128.665C97.7163 127.292 98.0823 123.937 99.9735 121.191C100.767 120.063 101.682 119.208 102.566 118.69Z" fill="url(#paint34_linear_660_10606)"/>
<path d="M90.9137 136.626C92.0729 135.955 93.2625 135.833 94.0861 136.412C95.7028 137.51 95.6113 140.713 93.8421 143.611C93.0185 144.953 91.9814 145.99 90.9442 146.6C89.7851 147.271 88.5955 147.393 87.7414 146.844C86.1247 145.746 86.2467 142.513 87.9854 139.646C88.809 138.273 89.8766 137.236 90.9137 136.656V136.626Z" fill="url(#paint35_linear_660_10606)"/>
<path d="M83.1049 154.806C84.8741 155.629 84.9961 158.71 83.41 161.669C82.5559 163.225 81.3968 164.445 80.2071 165.116C79.17 165.726 78.1023 165.909 77.2787 165.512C75.5095 164.658 75.3874 161.608 76.9736 158.649C77.8277 157.093 78.9869 155.873 80.1766 155.202C81.2137 154.592 82.2508 154.44 83.1049 154.806Z" fill="url(#paint36_linear_660_10606)"/>
<path d="M73.1304 173.718C75.0521 174.267 75.4182 177.196 73.9845 180.215C73.1304 181.985 71.8492 183.418 70.5376 184.181C69.6225 184.699 68.7073 184.913 67.9448 184.669C66.023 184.12 65.657 181.192 67.0907 178.172C67.9448 176.402 69.2259 174.969 70.5376 174.206C71.4527 173.688 72.3678 173.474 73.1304 173.718Z" fill="url(#paint37_linear_660_10606)"/>
<path d="M64.223 193.058C66.2667 193.302 66.9073 196.017 65.6566 199.067C64.833 201.08 63.4299 202.727 61.9963 203.551C61.2032 204.009 60.4406 204.222 59.7085 204.131C57.6647 203.856 57.0546 201.172 58.3053 198.091C59.0983 196.108 60.5016 194.461 61.9657 193.637C62.7588 193.18 63.5214 192.966 64.2535 193.088L64.223 193.058Z" fill="url(#paint38_linear_660_10606)"/>
<path d="M56.5058 212.55C58.6411 212.55 59.5257 215.051 58.4581 218.101C57.6955 220.297 56.1702 222.189 54.584 223.104C53.9435 223.47 53.2725 223.683 52.6624 223.683C50.5271 223.683 49.6425 221.213 50.7101 218.132C51.4727 215.935 52.9979 214.044 54.584 213.129C55.2246 212.763 55.8957 212.55 56.5058 212.55Z" fill="url(#paint39_linear_660_10606)"/>
<path d="M50.0391 232.102C52.2658 231.797 53.3945 234.054 52.5098 237.135C51.8693 239.484 50.2221 241.619 48.5139 242.626C47.9953 242.931 47.4463 243.114 46.9277 243.175C44.6704 243.48 43.5723 241.223 44.4264 238.172C45.067 235.823 46.7142 233.658 48.4529 232.651C48.9715 232.346 49.49 232.163 50.0085 232.072L50.0391 232.102Z" fill="url(#paint40_linear_660_10606)"/>
<path d="M44.8835 251.533C47.1713 250.954 48.544 252.936 47.8729 255.956C47.3238 258.458 45.6156 260.898 43.7244 261.965C43.3278 262.179 42.9313 262.362 42.5348 262.454C40.2165 263.064 38.8743 261.05 39.5148 258.061C40.0639 255.56 41.7722 253.119 43.6634 252.052C44.0599 251.838 44.4564 251.655 44.853 251.564L44.8835 251.533Z" fill="url(#paint41_linear_660_10606)"/>
<path d="M41.071 270.659C43.4198 269.835 44.9756 271.513 44.5485 274.441C44.152 277.065 42.3522 279.779 40.3085 280.969C40.0339 281.122 39.7594 281.244 39.5153 281.335C37.1665 282.189 35.5804 280.512 36.038 277.553C36.404 274.929 38.2342 272.214 40.2779 271.025C40.5525 270.872 40.7965 270.75 41.071 270.659Z" fill="url(#paint42_linear_660_10606)"/>
<path d="M38.6306 289.358C41.0404 288.229 42.7791 289.632 42.5656 292.469C42.352 295.153 40.4913 298.204 38.2951 299.454C38.1425 299.546 38.0206 299.607 37.8681 299.668C35.4888 300.797 33.7195 299.393 33.9331 296.526C34.1161 293.842 36.0073 290.791 38.2341 289.51C38.3561 289.449 38.5086 289.358 38.6306 289.297V289.358Z" fill="url(#paint43_linear_660_10606)"/>
<path d="M366.911 117.286C368.07 116.615 369.168 116.524 369.961 116.981C370.785 117.439 371.242 118.476 371.242 119.788C371.242 121.099 370.815 122.624 369.992 124.028C369.199 125.4 368.101 126.59 366.941 127.261C365.813 127.902 364.684 128.024 363.891 127.566C363.098 127.078 362.61 126.071 362.61 124.79C362.61 123.479 363.067 121.923 363.861 120.52C364.654 119.147 365.782 117.957 366.911 117.286Z" fill="url(#paint44_linear_660_10606)"/>
</g>
<path d="M371.95 155.826L378.896 151.783C377.064 152.854 374.613 152.501 372.161 151.092C368.963 149.247 365.765 145.584 363.961 140.892C361.679 134.989 362.651 130.255 365.497 128.592L358.551 132.636C355.705 134.298 354.733 139.032 357.015 144.935C358.833 149.627 362.017 153.29 365.215 155.136C367.667 156.545 370.104 156.897 371.95 155.826Z" fill="#FFC413"/>
<path d="M372.26 119.576C367.131 116.617 362.722 116.434 359.538 118.279L352.592 122.323C355.776 120.477 360.186 120.66 365.314 123.619C379.121 131.593 387.716 153.755 380.756 163.519L370.273 178.228C370.006 178.608 369.682 178.89 369.329 179.102L376.275 175.058C376.627 174.847 376.937 174.565 377.219 174.185L387.701 159.476C394.647 149.712 386.067 127.55 372.26 119.576Z" fill="#FFC413"/>
<path d="M365.3 123.605C379.107 131.58 387.701 153.742 380.741 163.505L370.259 178.214C369.118 179.82 367.117 179.806 365.131 178.651C363.144 177.496 361.158 175.227 360.016 172.297L349.661 145.556C342.785 127.818 351.478 115.631 365.286 123.605H365.3ZM373.443 154.418C377.12 149.261 372.57 137.525 365.272 133.312C357.973 129.1 353.366 135.553 357.001 144.922C358.819 149.613 362.003 153.277 365.201 155.122C368.399 156.968 371.598 156.996 373.443 154.418Z" fill="#FFC413"/>
<path d="M39.5524 311.435L33.094 307.675C34.797 308.67 37.0765 308.343 39.3559 307.033C42.3296 305.317 45.3034 301.911 46.9802 297.548C49.1024 292.06 48.1985 287.658 45.5523 286.112L52.0106 289.872C54.6569 291.418 55.5608 295.819 53.4385 301.308C51.7486 305.671 48.788 309.077 45.8142 310.793C43.5348 312.103 41.2685 312.43 39.5524 311.435Z" fill="url(#paint45_linear_660_10606)"/>
<path d="M39.2642 277.728C44.0326 274.977 48.133 274.807 51.0936 276.523L57.552 280.282C54.5914 278.566 50.491 278.737 45.7226 281.488C32.8844 288.902 24.8933 309.509 31.3648 318.587L41.1113 332.264C41.3602 332.618 41.6615 332.88 41.989 333.076L35.5307 329.316C35.2032 329.12 34.9149 328.858 34.6529 328.504L24.9064 314.828C18.4481 305.749 26.426 285.143 39.2642 277.728Z" fill="url(#paint46_linear_660_10606)"/>
<path d="M60.2505 301.911L50.6219 326.775C49.5739 329.487 47.7267 331.609 45.8665 332.683C44.0194 333.757 42.1592 333.771 41.0981 332.277L31.3516 318.601C24.8932 309.522 32.8712 288.916 45.7093 281.501C58.5475 274.086 66.6171 285.431 60.2374 301.911H60.2505ZM38.1506 310.151C39.8536 312.548 42.8404 312.522 45.8141 310.806C48.7878 309.09 51.7616 305.684 53.4384 301.321C56.8182 292.61 52.5476 286.597 45.7486 290.527C38.9628 294.444 34.7314 305.356 38.1506 310.151Z" fill="url(#paint47_linear_660_10606)"/>
<defs>
<linearGradient id="paint0_linear_660_10606" x1="259.372" y1="131.765" x2="248.411" y2="150.922" gradientUnits="userSpaceOnUse">
<stop stop-color="#FDF8F2"/>
<stop offset="0.18" stop-color="#F9F3EE"/>
<stop offset="0.36" stop-color="#EFE7E3"/>
<stop offset="0.55" stop-color="#DED3D0"/>
<stop offset="0.73" stop-color="#C6B7B6"/>
<stop offset="0.76" stop-color="#C2B2B2"/>
<stop offset="0.87" stop-color="#C5B5B5"/>
<stop offset="0.96" stop-color="#CFC0BF"/>
<stop offset="1" stop-color="#D6C7C6"/>
</linearGradient>
<linearGradient id="paint1_linear_660_10606" x1="236.048" y1="253.117" x2="211.881" y2="294.972" gradientUnits="userSpaceOnUse">
<stop stop-color="#E8E6E4"/>
<stop offset="0.02" stop-color="#E8E8E6"/>
<stop offset="0.04" stop-color="#E8E8E6"/>
<stop offset="0.16" stop-color="#E8E8E6"/>
<stop offset="0.37" stop-color="#E8E6E4"/>
<stop offset="0.38" stop-color="#D9D7D5"/>
<stop offset="0.78" stop-color="#D3D1CE"/>
<stop offset="0.79" stop-color="#CCCAC5"/>
<stop offset="0.86" stop-color="#B8B5B1"/>
<stop offset="0.93" stop-color="#AAA7A4"/>
<stop offset="1" stop-color="#A6A3A0"/>
</linearGradient>
<linearGradient id="paint2_linear_660_10606" x1="233.166" y1="251.319" x2="209.343" y2="292.575" gradientUnits="userSpaceOnUse">
<stop stop-color="#D1CFCD"/>
<stop offset="0.02" stop-color="#D1D1CF"/>
<stop offset="0.04" stop-color="#D1D1CF"/>
<stop offset="0.16" stop-color="#D1D1CF"/>
<stop offset="0.37" stop-color="#D1CFCD"/>
<stop offset="0.38" stop-color="#C2C0BE"/>
<stop offset="0.78" stop-color="#BCBAB7"/>
<stop offset="0.79" stop-color="#B5B3AF"/>
<stop offset="0.86" stop-color="#A19E9B"/>
<stop offset="0.93" stop-color="#93908E"/>
<stop offset="1" stop-color="#8F8C8A"/>
</linearGradient>
<linearGradient id="paint3_linear_660_10606" x1="237.54" y1="253.972" x2="213.399" y2="295.801" gradientUnits="userSpaceOnUse">
<stop stop-color="#F4F2F0"/>
<stop offset="0.02" stop-color="#F4F4F2"/>
<stop offset="0.04" stop-color="#F4F4F2"/>
<stop offset="0.16" stop-color="#F4F4F2"/>
<stop offset="0.37" stop-color="#F4F2F0"/>
<stop offset="0.38" stop-color="#E5E3E1"/>
<stop offset="0.78" stop-color="#DFDDDA"/>
<stop offset="0.79" stop-color="#D9D6D1"/>
<stop offset="0.86" stop-color="#C5C1BD"/>
<stop offset="0.93" stop-color="#B7B3B0"/>
<stop offset="1" stop-color="#B3AFAC"/>
</linearGradient>
<linearGradient id="paint4_linear_660_10606" x1="217.174" y1="312.763" x2="238.854" y2="275.231" gradientUnits="userSpaceOnUse">
<stop stop-color="#E8E6E4"/>
<stop offset="0.02" stop-color="#E8E8E6"/>
<stop offset="0.04" stop-color="#E8E8E6"/>
<stop offset="0.16" stop-color="#E8E8E6"/>
<stop offset="0.37" stop-color="#E8E6E4"/>
<stop offset="0.38" stop-color="#D9D7D5"/>
<stop offset="0.78" stop-color="#D3D1CE"/>
<stop offset="0.79" stop-color="#CCCAC5"/>
<stop offset="0.86" stop-color="#B8B5B1"/>
<stop offset="0.93" stop-color="#AAA7A4"/>
<stop offset="1" stop-color="#A6A3A0"/>
</linearGradient>
<linearGradient id="paint5_linear_660_10606" x1="231.999" y1="250.112" x2="225.416" y2="250.202" gradientUnits="userSpaceOnUse">
<stop stop-color="#DBDBDB"/>
<stop offset="0.02" stop-color="#DBDBDB"/>
<stop offset="0.04" stop-color="#DBDBDB"/>
<stop offset="0.16" stop-color="#DBDBDB"/>
<stop offset="0.37" stop-color="#DBDBDB"/>
<stop offset="0.38" stop-color="#CCCCCC"/>
<stop offset="0.78" stop-color="#C6C6C6"/>
<stop offset="0.79" stop-color="#BFBFBF"/>
<stop offset="0.81" stop-color="#B5B5B5"/>
<stop offset="0.88" stop-color="#9E9E9E"/>
<stop offset="0.94" stop-color="#909090"/>
<stop offset="1" stop-color="#8C8C8C"/>
</linearGradient>
<linearGradient id="paint6_linear_660_10606" x1="230.654" y1="246.796" x2="226.767" y2="246.85" gradientUnits="userSpaceOnUse">
<stop stop-color="#DBDBDB"/>
<stop offset="0.02" stop-color="#DBDBDB"/>
<stop offset="0.04" stop-color="#DBDBDB"/>
<stop offset="0.16" stop-color="#DBDBDB"/>
<stop offset="0.37" stop-color="#DBDBDB"/>
<stop offset="0.38" stop-color="#CCCCCC"/>
<stop offset="0.78" stop-color="#C6C6C6"/>
<stop offset="0.79" stop-color="#BFBFBF"/>
<stop offset="0.81" stop-color="#B5B5B5"/>
<stop offset="0.88" stop-color="#9E9E9E"/>
<stop offset="0.94" stop-color="#909090"/>
<stop offset="1" stop-color="#8C8C8C"/>
</linearGradient>
<linearGradient id="paint7_linear_660_10606" x1="213.51" y1="261.345" x2="211.41" y2="265.61" gradientUnits="userSpaceOnUse">
<stop stop-color="#DBDBDB"/>
<stop offset="0.02" stop-color="#DBDBDB"/>
<stop offset="0.04" stop-color="#DBDBDB"/>
<stop offset="0.16" stop-color="#DBDBDB"/>
<stop offset="0.37" stop-color="#DBDBDB"/>
<stop offset="0.38" stop-color="#CCCCCC"/>
<stop offset="0.78" stop-color="#C6C6C6"/>
<stop offset="0.79" stop-color="#BFBFBF"/>
<stop offset="0.81" stop-color="#B5B5B5"/>
<stop offset="0.88" stop-color="#9E9E9E"/>
<stop offset="0.94" stop-color="#909090"/>
<stop offset="1" stop-color="#8C8C8C"/>
</linearGradient>
<linearGradient id="paint8_linear_660_10606" x1="212.071" y1="260.548" x2="209.969" y2="264.841" gradientUnits="userSpaceOnUse">
<stop stop-color="#C2C2C2"/>
<stop offset="0.02" stop-color="#C2C2C2"/>
<stop offset="0.04" stop-color="#C2C2C2"/>
<stop offset="0.16" stop-color="#C2C2C2"/>
<stop offset="0.37" stop-color="#C2C2C2"/>
<stop offset="0.38" stop-color="#B3B3B3"/>
<stop offset="0.78" stop-color="#ADADAD"/>
<stop offset="0.79" stop-color="#A6A6A6"/>
<stop offset="0.81" stop-color="#9C9C9C"/>
<stop offset="0.88" stop-color="#858585"/>
<stop offset="0.94" stop-color="#777777"/>
<stop offset="1" stop-color="#737373"/>
</linearGradient>
<linearGradient id="paint9_linear_660_10606" x1="211.87" y1="259.518" x2="209.327" y2="265.513" gradientUnits="userSpaceOnUse">
<stop stop-color="#DBDBDB"/>
<stop offset="0.02" stop-color="#DBDBDB"/>
<stop offset="0.04" stop-color="#DBDBDB"/>
<stop offset="0.16" stop-color="#DBDBDB"/>
<stop offset="0.37" stop-color="#DBDBDB"/>
<stop offset="0.38" stop-color="#CCCCCC"/>
<stop offset="0.78" stop-color="#C6C6C6"/>
<stop offset="0.79" stop-color="#BFBFBF"/>
<stop offset="0.81" stop-color="#B5B5B5"/>
<stop offset="0.88" stop-color="#9E9E9E"/>
<stop offset="0.94" stop-color="#909090"/>
<stop offset="1" stop-color="#8C8C8C"/>
</linearGradient>
<linearGradient id="paint10_linear_660_10606" x1="399.946" y1="-49.9338" x2="22.7995" y2="327.213" gradientUnits="userSpaceOnUse">
<stop stop-color="#8A2387"/>
<stop offset="0.5" stop-color="#E94057"/>
<stop offset="1" stop-color="#F27121"/>
</linearGradient>
<linearGradient id="paint11_linear_660_10606" x1="460.527" y1="10.6755" x2="83.3787" y2="387.793" gradientUnits="userSpaceOnUse">
<stop stop-color="#8A2387"/>
<stop offset="0.5" stop-color="#E94057"/>
<stop offset="1" stop-color="#F27121"/>
</linearGradient>
<linearGradient id="paint12_linear_660_10606" x1="451.406" y1="1.55562" x2="74.2881" y2="378.704" gradientUnits="userSpaceOnUse">
<stop stop-color="#8A2387"/>
<stop offset="0.5" stop-color="#E94057"/>
<stop offset="1" stop-color="#F27121"/>
</linearGradient>
<linearGradient id="paint13_linear_660_10606" x1="442.164" y1="-7.71784" x2="65.0159" y2="369.429" gradientUnits="userSpaceOnUse">
<stop stop-color="#8A2387"/>
<stop offset="0.5" stop-color="#E94057"/>
<stop offset="1" stop-color="#F27121"/>
</linearGradient>
<linearGradient id="paint14_linear_660_10606" x1="432.829" y1="-17.0524" x2="55.6795" y2="360.092" gradientUnits="userSpaceOnUse">
<stop stop-color="#8A2387"/>
<stop offset="0.5" stop-color="#E94057"/>
<stop offset="1" stop-color="#F27121"/>
</linearGradient>
<linearGradient id="paint15_linear_660_10606" x1="423.525" y1="-26.3555" x2="46.3782" y2="350.789" gradientUnits="userSpaceOnUse">
<stop stop-color="#8A2387"/>
<stop offset="0.5" stop-color="#E94057"/>
<stop offset="1" stop-color="#F27121"/>
</linearGradient>
<linearGradient id="paint16_linear_660_10606" x1="414.314" y1="-35.5671" x2="37.1678" y2="341.581" gradientUnits="userSpaceOnUse">
<stop stop-color="#8A2387"/>
<stop offset="0.5" stop-color="#E94057"/>
<stop offset="1" stop-color="#F27121"/>
</linearGradient>
<linearGradient id="paint17_linear_660_10606" x1="405.254" y1="-44.6273" x2="28.1058" y2="332.52" gradientUnits="userSpaceOnUse">
<stop stop-color="#8A2387"/>
<stop offset="0.5" stop-color="#E94057"/>
<stop offset="1" stop-color="#F27121"/>
</linearGradient>
<linearGradient id="paint18_linear_660_10606" x1="396.469" y1="-53.4116" x2="19.3233" y2="323.737" gradientUnits="userSpaceOnUse">
<stop stop-color="#8A2387"/>
<stop offset="0.5" stop-color="#E94057"/>
<stop offset="1" stop-color="#F27121"/>
</linearGradient>
<linearGradient id="paint19_linear_660_10606" x1="388.02" y1="-61.8611" x2="10.8735" y2="315.287" gradientUnits="userSpaceOnUse">
<stop stop-color="#8A2387"/>
<stop offset="0.5" stop-color="#E94057"/>
<stop offset="1" stop-color="#F27121"/>
</linearGradient>
<linearGradient id="paint20_linear_660_10606" x1="379.936" y1="-69.9448" x2="2.78908" y2="307.202" gradientUnits="userSpaceOnUse">
<stop stop-color="#8A2387"/>
<stop offset="0.5" stop-color="#E94057"/>
<stop offset="1" stop-color="#F27121"/>
</linearGradient>
<linearGradient id="paint21_linear_660_10606" x1="372.341" y1="-77.5406" x2="-4.80699" y2="299.608" gradientUnits="userSpaceOnUse">
<stop stop-color="#8A2387"/>
<stop offset="0.5" stop-color="#E94057"/>
<stop offset="1" stop-color="#F27121"/>
</linearGradient>
<linearGradient id="paint22_linear_660_10606" x1="365.263" y1="-84.6171" x2="-11.8838" y2="292.528" gradientUnits="userSpaceOnUse">
<stop stop-color="#8A2387"/>
<stop offset="0.5" stop-color="#E94057"/>
<stop offset="1" stop-color="#F27121"/>
</linearGradient>
<linearGradient id="paint23_linear_660_10606" x1="358.798" y1="-91.0834" x2="-18.3485" y2="286.066" gradientUnits="userSpaceOnUse">
<stop stop-color="#8A2387"/>
<stop offset="0.5" stop-color="#E94057"/>
<stop offset="1" stop-color="#F27121"/>
</linearGradient>
<linearGradient id="paint24_linear_660_10606" x1="352.97" y1="-96.9103" x2="-24.1771" y2="280.235" gradientUnits="userSpaceOnUse">
<stop stop-color="#8A2387"/>
<stop offset="0.5" stop-color="#E94057"/>
<stop offset="1" stop-color="#F27121"/>
</linearGradient>
<linearGradient id="paint25_linear_660_10606" x1="347.846" y1="-102.035" x2="-29.303" y2="275.11" gradientUnits="userSpaceOnUse">
<stop stop-color="#8A2387"/>
<stop offset="0.5" stop-color="#E94057"/>
<stop offset="1" stop-color="#F27121"/>
</linearGradient>
<linearGradient id="paint26_linear_660_10606" x1="343.455" y1="-106.427" x2="-33.6916" y2="270.723" gradientUnits="userSpaceOnUse">
<stop stop-color="#8A2387"/>
<stop offset="0.5" stop-color="#E94057"/>
<stop offset="1" stop-color="#F27121"/>
</linearGradient>
<linearGradient id="paint27_linear_660_10606" x1="339.854" y1="-110.026" x2="-37.2917" y2="267.119" gradientUnits="userSpaceOnUse">
<stop stop-color="#8A2387"/>
<stop offset="0.5" stop-color="#E94057"/>
<stop offset="1" stop-color="#F27121"/>
</linearGradient>
<linearGradient id="paint28_linear_660_10606" x1="337.049" y1="-112.833" x2="-40.099" y2="264.317" gradientUnits="userSpaceOnUse">
<stop stop-color="#8A2387"/>
<stop offset="0.5" stop-color="#E94057"/>
<stop offset="1" stop-color="#F27121"/>
</linearGradient>
<linearGradient id="paint29_linear_660_10606" x1="335.066" y1="-114.817" x2="-42.0829" y2="262.332" gradientUnits="userSpaceOnUse">
<stop stop-color="#8A2387"/>
<stop offset="0.5" stop-color="#E94057"/>
<stop offset="1" stop-color="#F27121"/>
</linearGradient>
<linearGradient id="paint30_linear_660_10606" x1="333.937" y1="-115.944" x2="-43.2081" y2="261.205" gradientUnits="userSpaceOnUse">
<stop stop-color="#8A2387"/>
<stop offset="0.5" stop-color="#E94057"/>
<stop offset="1" stop-color="#F27121"/>
</linearGradient>
<linearGradient id="paint31_linear_660_10606" x1="333.662" y1="-116.189" x2="-43.4557" y2="260.958" gradientUnits="userSpaceOnUse">
<stop stop-color="#8A2387"/>
<stop offset="0.5" stop-color="#E94057"/>
<stop offset="1" stop-color="#F27121"/>
</linearGradient>
<linearGradient id="paint32_linear_660_10606" x1="334.302" y1="-115.578" x2="-42.8442" y2="261.569" gradientUnits="userSpaceOnUse">
<stop stop-color="#8A2387"/>
<stop offset="0.5" stop-color="#E94057"/>
<stop offset="1" stop-color="#F27121"/>
</linearGradient>
<linearGradient id="paint33_linear_660_10606" x1="335.767" y1="-114.114" x2="-41.3807" y2="263.032" gradientUnits="userSpaceOnUse">
<stop stop-color="#8A2387"/>
<stop offset="0.5" stop-color="#E94057"/>
<stop offset="1" stop-color="#F27121"/>
</linearGradient>
<linearGradient id="paint34_linear_660_10606" x1="338.055" y1="-111.796" x2="-39.0925" y2="265.322" gradientUnits="userSpaceOnUse">
<stop stop-color="#8A2387"/>
<stop offset="0.5" stop-color="#E94057"/>
<stop offset="1" stop-color="#F27121"/>
</linearGradient>
<linearGradient id="paint35_linear_660_10606" x1="341.196" y1="-108.685" x2="-35.9515" y2="268.462" gradientUnits="userSpaceOnUse">
<stop stop-color="#8A2387"/>
<stop offset="0.5" stop-color="#E94057"/>
<stop offset="1" stop-color="#F27121"/>
</linearGradient>
<linearGradient id="paint36_linear_660_10606" x1="345.132" y1="-104.75" x2="-32.0156" y2="272.398" gradientUnits="userSpaceOnUse">
<stop stop-color="#8A2387"/>
<stop offset="0.5" stop-color="#E94057"/>
<stop offset="1" stop-color="#F27121"/>
</linearGradient>
<linearGradient id="paint37_linear_660_10606" x1="349.8" y1="-100.082" x2="-27.3471" y2="277.066" gradientUnits="userSpaceOnUse">
<stop stop-color="#8A2387"/>
<stop offset="0.5" stop-color="#E94057"/>
<stop offset="1" stop-color="#F27121"/>
</linearGradient>
<linearGradient id="paint38_linear_660_10606" x1="355.197" y1="-94.6524" x2="-21.9192" y2="282.494" gradientUnits="userSpaceOnUse">
<stop stop-color="#8A2387"/>
<stop offset="0.5" stop-color="#E94057"/>
<stop offset="1" stop-color="#F27121"/>
</linearGradient>
<linearGradient id="paint39_linear_660_10606" x1="361.299" y1="-88.5821" x2="-15.8479" y2="288.566" gradientUnits="userSpaceOnUse">
<stop stop-color="#8A2387"/>
<stop offset="0.5" stop-color="#E94057"/>
<stop offset="1" stop-color="#F27121"/>
</linearGradient>
<linearGradient id="paint40_linear_660_10606" x1="368.008" y1="-81.8708" x2="-9.13709" y2="295.276" gradientUnits="userSpaceOnUse">
<stop stop-color="#8A2387"/>
<stop offset="0.5" stop-color="#E94057"/>
<stop offset="1" stop-color="#F27121"/>
</linearGradient>
<linearGradient id="paint41_linear_660_10606" x1="375.301" y1="-74.5802" x2="-1.8446" y2="302.569" gradientUnits="userSpaceOnUse">
<stop stop-color="#8A2387"/>
<stop offset="0.5" stop-color="#E94057"/>
<stop offset="1" stop-color="#F27121"/>
</linearGradient>
<linearGradient id="paint42_linear_660_10606" x1="383.079" y1="-66.7728" x2="5.96222" y2="310.376" gradientUnits="userSpaceOnUse">
<stop stop-color="#8A2387"/>
<stop offset="0.5" stop-color="#E94057"/>
<stop offset="1" stop-color="#F27121"/>
</linearGradient>
<linearGradient id="paint43_linear_660_10606" x1="391.343" y1="-58.5371" x2="14.1949" y2="318.608" gradientUnits="userSpaceOnUse">
<stop stop-color="#8A2387"/>
<stop offset="0.5" stop-color="#E94057"/>
<stop offset="1" stop-color="#F27121"/>
</linearGradient>
<linearGradient id="paint44_linear_660_10606" x1="469.525" y1="19.6442" x2="92.3777" y2="396.79" gradientUnits="userSpaceOnUse">
<stop stop-color="#8A2387"/>
<stop offset="0.5" stop-color="#E94057"/>
<stop offset="1" stop-color="#F27121"/>
</linearGradient>
<linearGradient id="paint45_linear_660_10606" x1="38.3392" y1="253.169" x2="75.66" y2="262.792" gradientUnits="userSpaceOnUse">
<stop stop-color="#F25C05"/>
<stop offset="1" stop-color="#F21305"/>
</linearGradient>
<linearGradient id="paint46_linear_660_10606" x1="31.1315" y1="202.074" x2="93.5277" y2="213.805" gradientUnits="userSpaceOnUse">
<stop stop-color="#F25C05"/>
<stop offset="1" stop-color="#F21305"/>
</linearGradient>
<linearGradient id="paint47_linear_660_10606" x1="37.2039" y1="210.175" x2="96.8022" y2="221.561" gradientUnits="userSpaceOnUse">
<stop stop-color="#F25C05"/>
<stop offset="1" stop-color="#F21305"/>
</linearGradient>
</defs>
</svg>
