<svg width="513" height="347" viewBox="0 0 513 347" fill="none" xmlns="http://www.w3.org/2000/svg">
<path d="M110.646 277.88H108.688C108.997 276.007 109.205 274.115 109.323 272.186H112.686C113.211 272.186 113.646 271.743 113.646 271.188V262.924C113.646 261.032 112.169 259.498 110.347 259.498H108.679C108.317 257.315 107.836 255.178 107.238 253.098V245.549C107.238 243.658 105.761 242.123 103.939 242.123H102.769C100.812 238.481 98.4731 235.093 95.7901 232.024V231.384C95.7901 229.492 94.3127 227.958 92.4908 227.958H91.8381C82.5111 219.29 70.202 214 56.7236 214C43.2451 214 30.9451 219.28 21.609 227.958H21.4549C19.633 227.958 18.1555 229.492 18.1555 231.384V231.478C15.2731 234.688 12.7624 238.264 10.6867 242.123H10.0069C8.18497 242.123 6.7075 243.658 6.7075 245.549V251.479C5.8736 254.077 5.22098 256.75 4.77683 259.498H3.5985C1.7766 259.498 0.299133 261.032 0.299133 262.924V271.188C0.299133 271.734 0.725146 272.186 1.25993 272.186H4.12424C4.24207 274.115 4.4505 276.016 4.75869 277.88H3.29937C1.47747 277.88 0 279.414 0 281.306V289.57C0 290.116 0.426013 290.568 0.960799 290.568H8.39342C9.0823 292.215 9.85278 293.815 10.6867 295.377H10.0069C8.18497 295.377 6.7075 296.911 6.7075 298.803V307.067C6.7075 307.613 7.13352 308.065 7.6683 308.065H17.9652C18.4909 308.065 18.926 307.622 18.926 307.067V306.86C19.7146 307.707 20.5303 308.535 21.3733 309.326C19.5877 309.373 18.1555 310.879 18.1555 312.743V317.053L2.25702 338.033L4.49584 340L18.3912 321.656C18.5634 321.863 18.8263 322.004 19.1163 322.004H29.4132C29.9389 322.004 30.374 321.562 30.374 321.006V316.14C32.1234 317.194 33.9362 318.154 35.8034 318.992C34.5163 319.453 33.5828 320.715 33.5828 322.211V330.475C33.5828 331.021 34.0088 331.473 34.5436 331.473H44.8404C45.3662 331.473 45.8012 331.03 45.8012 330.475V322.305C47.7319 322.729 49.7079 323.039 51.7111 323.246C51.2307 323.839 50.9315 324.592 50.9315 325.43V333.694C50.9315 334.24 51.3576 334.692 51.8923 334.692H62.1893C62.715 334.692 63.1501 334.249 63.1501 333.694V325.43C63.1501 324.574 62.8328 323.792 62.3343 323.19C64.3193 322.973 66.2681 322.635 68.1807 322.192C68.1807 322.202 68.1807 322.211 68.1807 322.221V330.484C68.1807 331.03 68.6067 331.482 69.1415 331.482H79.4383C79.9641 331.482 80.3991 331.04 80.3991 330.484V322.221C80.3991 320.611 79.3205 319.265 77.8793 318.898C79.8553 317.994 81.7679 316.978 83.6079 315.839V321.006C83.6079 321.552 84.0339 322.004 84.5687 322.004H94.8656C95.074 322.004 95.2735 321.929 95.4275 321.806L109.214 340L111.453 338.033L95.8264 317.411V312.743C95.8264 310.851 94.3489 309.316 92.527 309.316H92.1282C93.1434 308.356 94.1223 307.349 95.0649 306.314V307.067C95.0649 307.613 95.491 308.065 96.0257 308.065H106.323C106.848 308.065 107.283 307.622 107.283 307.067V298.803C107.283 296.911 105.806 295.377 103.984 295.377H102.815C103.658 293.824 104.419 292.215 105.108 290.568H113.039C113.565 290.568 114 290.125 114 289.57V281.306C114 279.414 112.523 277.88 110.701 277.88H110.646ZM107.229 262.708V266.981H102.942V262.708H107.229ZM61.3191 270.981C61.446 270.699 61.5548 270.407 61.6273 270.096L70.6008 271.743C70.3198 273.146 69.8394 274.482 69.2049 275.715L61.3191 270.99V270.981ZM68.7608 276.478C68.1897 277.428 67.5281 278.313 66.7757 279.104L61.4732 272.101L68.7608 276.468V276.478ZM60.8931 265.72C60.7209 265.465 60.5305 265.221 60.313 264.995L66.1503 257.766C67.1655 258.708 68.0447 259.79 68.7608 260.995L60.8931 265.71V265.72ZM69.214 261.766C69.8485 262.999 70.3289 264.327 70.6099 265.738L61.6363 267.386C61.5547 267.075 61.4551 266.783 61.3282 266.501L69.214 261.776V261.766ZM61.7904 269.202C61.7995 269.042 61.8176 268.891 61.8176 268.731C61.8176 268.571 61.8086 268.421 61.7904 268.261L70.7458 266.623C70.8455 267.31 70.909 268.016 70.909 268.731C70.909 269.447 70.8455 270.153 70.7458 270.84L61.7904 269.202ZM70.4649 261.014L86.2093 251.573C87.9768 254.83 89.2458 258.406 89.9437 262.19L72.042 265.465C71.7338 263.884 71.199 262.388 70.4739 261.004L70.4649 261.014ZM70.0297 260.232C69.223 258.877 68.235 257.653 67.093 256.599L78.7767 242.142C81.5322 244.608 83.907 247.526 85.7833 250.792L70.0388 260.232H70.0297ZM66.4313 256.025C65.2439 255.046 63.9115 254.237 62.4793 253.644L68.6973 235.902C72.1417 237.257 75.3142 239.177 78.115 241.559L66.4313 256.025ZM65.4977 257.183L59.6513 264.411C59.4065 264.232 59.1437 264.072 58.8627 263.941L61.9717 255.065C63.2497 255.592 64.4281 256.307 65.4886 257.183H65.4977ZM64.5188 281.024C63.7211 281.57 62.8781 282.031 61.9808 282.398L58.899 273.607L64.5188 281.024ZM65.4161 282.21L76.6647 297.062C74.2355 298.916 71.5525 300.431 68.6973 301.561L62.4793 283.819C63.5217 283.396 64.5006 282.85 65.4161 282.219V282.21ZM67.6822 280.29C68.5795 279.377 69.368 278.351 70.0297 277.231L85.7742 286.671C83.9432 289.862 81.6319 292.723 78.9489 295.161L67.6822 280.29ZM70.4649 276.459C71.19 275.085 71.7157 273.579 72.0329 271.997L89.9347 275.273C89.2458 279.057 87.9677 282.633 86.2002 285.89L70.4558 276.449L70.4649 276.459ZM72.1779 271.113C72.2867 270.341 72.3502 269.55 72.3502 268.741C72.3502 267.931 72.2958 267.141 72.1779 266.369L90.0887 263.094C90.3788 264.938 90.5329 266.821 90.5329 268.741C90.5329 270.661 90.3788 272.553 90.0887 274.398L72.1779 271.122V271.113ZM87.4511 250.839L95.0196 246.302V253.804C95.0196 254.35 95.4457 254.802 95.9804 254.802H104.7C105.099 256.279 105.434 257.785 105.706 259.319L104.709 259.498C104.356 259.498 104.011 259.573 103.694 259.686L91.3577 261.945C90.6417 257.983 89.3002 254.246 87.4511 250.839ZM91.5027 262.83L102.081 260.891C101.673 261.456 101.428 262.162 101.428 262.924V271.188C101.428 271.734 101.854 272.186 102.389 272.186H106.431C106.323 273.908 106.132 275.612 105.86 277.287L91.5118 274.661C91.8109 272.732 91.9741 270.764 91.9741 268.75C91.9741 266.736 91.8109 264.76 91.5118 262.839L91.5027 262.83ZM101.428 245.333H105.715V249.606H101.428V245.333ZM100.821 249.606H96.5333V245.333H100.821V249.606ZM94.8293 240.646C95.355 240.646 95.7901 240.203 95.7901 239.648V236.683C97.1135 238.415 98.3371 240.232 99.4339 242.123H98.319C96.5968 242.123 95.201 243.498 95.0469 245.248L87.016 250.058C85.0581 246.641 82.5746 243.592 79.6922 241.013L83.5716 236.213V239.639C83.5716 240.184 83.9976 240.636 84.5324 240.636H94.8293V240.646ZM89.989 231.177H94.2764V235.45H89.989V231.177ZM89.3818 235.45H85.0944V231.177H89.3818V235.45ZM80.372 230.415V223.224C82.8284 224.607 85.1488 226.198 87.3333 227.977H86.871C85.0491 227.977 83.5716 229.511 83.5716 231.403V234.838L79.0395 240.448C76.1118 237.954 72.7852 235.949 69.1868 234.528L70.2745 231.412H79.4021C79.9278 231.412 80.3629 230.97 80.3629 230.415H80.372ZM74.5709 221.934H78.8582V226.208H74.5709V221.934ZM73.9636 226.208H69.6762V221.934H73.9636V226.208ZM57.3399 218.264H61.6273V222.537H57.3399V218.264ZM57.1677 227.732H62.1893C62.715 227.732 63.1501 227.29 63.1501 226.735V218.471C63.1501 218.104 63.0776 217.765 62.9778 217.426C65.4705 217.755 67.8997 218.264 70.2654 218.96C69.0417 219.459 68.1625 220.692 68.1625 222.141V230.405C68.1625 230.951 68.5885 231.403 69.1233 231.403H69.3681L68.3801 234.208C64.8632 232.928 61.0925 232.203 57.1677 232.156V227.723V227.732ZM57.1677 233.662C60.9202 233.709 64.5187 234.396 67.8906 235.62L61.6726 253.361C60.2495 252.872 58.7449 252.58 57.1768 252.543V233.662H57.1677ZM57.1677 254.058C58.5636 254.105 59.9051 254.35 61.1741 254.783L58.065 263.668C57.775 263.583 57.4759 263.527 57.1768 263.498V254.058H57.1677ZM57.1677 274.021C57.4759 273.993 57.775 273.936 58.056 273.852L61.165 282.737C59.896 283.17 58.5545 283.414 57.1586 283.461V274.021H57.1677ZM57.1677 284.977C58.7358 284.93 60.2495 284.647 61.6635 284.158L67.8815 301.9C64.5187 303.123 60.9112 303.81 57.1586 303.857V284.977H57.1677ZM51.131 217.36C51.0131 217.718 50.9315 218.085 50.9315 218.48V226.744C50.9315 227.29 51.3576 227.742 51.8923 227.742H56.3066V232.175C52.3818 232.222 48.6111 232.947 45.0942 234.227L44.1153 231.422H44.8495C45.3752 231.422 45.8103 230.979 45.8103 230.424V222.16C45.8103 220.617 44.8223 219.327 43.4717 218.904C45.9553 218.188 48.5114 217.671 51.14 217.36H51.131ZM9.20015 277.927L22.1075 275.565C22.8236 279.527 24.1651 283.264 26.0142 286.671L13.3969 294.238C12.7352 293.034 12.1188 291.801 11.5568 290.53C11.9466 290.408 12.2366 290.031 12.2366 289.579V281.315C12.2366 279.518 10.9042 278.068 9.20922 277.918L9.20015 277.927ZM11.9556 261.023L21.9534 262.849C21.6543 264.778 21.4912 266.745 21.4912 268.76C21.4912 270.774 21.6543 272.75 21.9534 274.67L7.60485 277.296C7.33292 275.621 7.14257 273.918 7.0338 272.195H11.575C12.1007 272.195 12.5358 271.753 12.5358 271.197V262.934C12.5358 262.218 12.3273 261.559 11.9647 261.014L11.9556 261.023ZM52.1371 266.529C52.0102 266.811 51.9015 267.103 51.8289 267.414L42.8554 265.767C43.1364 264.364 43.6077 263.028 44.2513 261.795L52.1371 266.52V266.529ZM44.6954 261.032C45.4115 259.828 46.2998 258.745 47.3059 257.804L53.1432 265.032C52.9257 265.258 52.7354 265.494 52.5631 265.757L44.6954 261.042V261.032ZM51.6748 268.299C51.6657 268.449 51.6476 268.609 51.6476 268.769C51.6476 268.929 51.6567 269.08 51.6748 269.24L42.7194 270.877C42.6197 270.19 42.5563 269.484 42.5563 268.769C42.5563 268.054 42.6197 267.348 42.7194 266.661L51.6748 268.299ZM51.8289 270.124C51.9105 270.435 52.0102 270.727 52.1371 271.009L44.2513 275.734C43.6168 274.501 43.1364 273.174 42.8554 271.762L51.8289 270.115V270.124ZM52.3999 271.894L46.8164 279.264C46.0097 278.435 45.3027 277.513 44.7045 276.506L52.3999 271.894ZM54.376 274.2L51.4845 282.435C50.6506 282.087 49.8529 281.654 49.1006 281.155L54.376 274.2ZM53.8139 264.458L47.9676 257.23C49.0281 256.364 50.2064 255.639 51.4845 255.112L54.5935 263.988C54.3216 264.12 54.0587 264.28 53.8139 264.458ZM47.034 256.072L35.3502 241.606C38.1511 239.224 41.3235 237.304 44.7679 235.949L50.9859 253.691C49.5538 254.284 48.2214 255.084 47.034 256.072ZM46.3723 256.646C45.2302 257.7 44.2422 258.924 43.4355 260.279L27.6911 250.839C29.5673 247.573 31.9331 244.655 34.6976 242.189L46.3814 256.646H46.3723ZM43.0004 261.051C42.2753 262.425 41.7496 263.931 41.4323 265.513L23.5306 262.237C24.2195 258.444 25.4975 254.877 27.265 251.62L43.0095 261.061L43.0004 261.051ZM41.2873 266.397C41.1785 267.169 41.1151 267.96 41.1151 268.769C41.1151 269.579 41.1695 270.369 41.2873 271.141L23.3765 274.416C23.0865 272.572 22.9324 270.689 22.9324 268.76C22.9324 266.83 23.0865 264.948 23.3765 263.112L41.2873 266.388V266.397ZM23.5306 275.311L41.4323 272.035C41.7405 273.616 42.2753 275.113 43.0004 276.496L27.2559 285.937C25.4884 282.68 24.2195 279.104 23.5215 275.32L23.5306 275.311ZM43.4355 277.268C44.1335 278.435 44.9673 279.508 45.91 280.45L34.6433 295.311C31.9059 292.855 29.5492 289.946 27.682 286.699L43.4264 277.259L43.4355 277.268ZM48.2033 282.351C49.0734 282.944 50.007 283.452 50.995 283.857L44.777 301.599C41.9671 300.488 39.3385 299.01 36.9455 297.203L48.2033 282.351ZM51.8108 284.167C53.2339 284.657 54.7385 284.949 56.3066 284.986V303.867C52.554 303.82 48.9556 303.133 45.5837 301.909L51.8017 284.167H51.8108ZM52.3093 282.756L55.4183 273.87C55.7084 273.955 56.0075 274.012 56.3066 274.04V283.48C54.9107 283.433 53.5692 283.188 52.3002 282.756H52.3093ZM55.4183 263.687L52.3093 254.802C53.5783 254.369 54.9198 254.124 56.3157 254.077V263.517C56.0075 263.545 55.7084 263.602 55.4274 263.687H55.4183ZM51.8108 253.39L45.5928 235.648C48.9556 234.424 52.5631 233.737 56.3157 233.69V252.571C54.7476 252.618 53.2339 252.9 51.8199 253.39H51.8108ZM40.0092 221.953H44.2966V226.226H40.0092V221.953ZM35.1146 221.953H39.4019V226.226H35.1146V221.953ZM33.6009 222.979V230.434C33.6009 230.979 34.0269 231.431 34.5617 231.431H43.1998L44.2875 234.547C40.6891 235.968 37.3625 237.973 34.4348 240.467L30.3922 235.469V231.422C30.3922 229.53 28.9147 227.996 27.0928 227.996H26.1411C28.4706 226.104 30.9632 224.419 33.6009 222.979ZM24.5911 231.205H28.8785V235.478H24.5911V231.205ZM19.6965 231.205H23.9838V235.478H19.6965V231.205ZM18.1827 236.062V239.686C18.1827 240.232 18.6087 240.683 19.1435 240.683H29.4404C29.9662 240.683 30.4012 240.241 30.4012 239.686V236.871L33.7822 241.06C30.8998 243.639 28.4162 246.688 26.4583 250.105L18.9532 245.606C18.9532 243.705 17.4757 242.17 15.6538 242.17H14.0404C15.2822 240.034 16.669 237.991 18.1827 236.071V236.062ZM13.143 245.371H17.4304V249.644H13.143V245.371ZM8.24842 245.371H12.5358V249.644H8.24842V245.371ZM8.77416 254.839H17.9924C18.5181 254.839 18.9532 254.397 18.9532 253.841V246.632L26.0232 250.867C24.1741 254.274 22.8417 258.011 22.1166 261.974L10.6685 259.875C10.2335 259.658 9.75304 259.526 9.23639 259.526H8.74694L7.75892 259.348C8.03085 257.823 8.36626 256.317 8.76509 254.83L8.77416 254.839ZM6.73472 262.736H11.0221V267.009H6.73472V262.736ZM5.82831 285.381H1.54092V281.108H5.82831V285.381ZM6.12738 267.009H1.84005V262.736H6.12738V267.009ZM6.42652 285.381V281.108H10.7138V285.381H6.42652ZM12.5358 302.869H8.24842V298.596H12.5358V302.869ZM17.4304 302.869H13.143V298.596H17.4304V302.869ZM23.9747 316.809H19.6874V312.535H23.9747V316.809ZM18.9351 302.427V298.822C18.9351 296.93 17.4576 295.396 15.6357 295.396H14.0223C13.9498 295.274 13.8863 295.151 13.8138 295.019L26.4311 287.452C28.389 290.859 30.8635 293.909 33.7459 296.488L33.5193 296.789L24.3917 308.084C22.4338 306.342 20.6028 304.45 18.926 302.417L18.9351 302.427ZM28.8694 316.809H24.582V312.535H28.8694V316.809ZM30.374 312.648C30.3196 311.03 29.1957 309.693 27.7092 309.401L36.0573 298.389C38.568 300.29 41.3326 301.853 44.2875 303.01L39.3023 317.232C36.1661 316.009 33.1839 314.465 30.3831 312.648H30.374ZM39.3929 326.277H35.1055V322.004H39.3929V326.277ZM44.2875 326.277H40.0002V322.004H44.2875V326.277ZM40.0999 317.533L45.0852 303.312C48.6021 304.592 52.3728 305.316 56.2976 305.363V320.498C50.6234 320.451 45.1758 319.406 40.0999 317.533ZM56.7326 329.487H52.4453V325.214H56.7326V329.487ZM56.7326 222.546H52.4453V218.273H56.7326V222.546ZM61.6273 329.487H57.3399V325.214H61.6273V329.487ZM57.1586 320.498V305.363C61.0834 305.316 64.8541 304.592 68.371 303.312L73.3563 317.533C68.2804 319.406 62.8328 320.442 57.1586 320.498ZM73.9545 326.277H69.6672V322.004H73.9545V326.277ZM78.8492 322.004V326.277H74.5618V322.004H78.8492ZM83.6169 312.291C80.662 314.267 77.4986 315.933 74.1721 317.232L69.1868 303.01C72.1961 301.824 75.006 300.224 77.553 298.285L86.028 309.467C84.759 309.815 83.7982 310.926 83.6169 312.3V312.291ZM89.3727 316.809H85.0853V312.535H89.3727V316.809ZM94.2673 312.535V316.809H89.98V312.535H94.2673ZM95.0106 298.813V301.824C93.1977 304.083 91.2036 306.173 89.0554 308.084L83.5081 301.213L79.8372 296.365C82.6652 293.815 85.0944 290.803 87.016 287.443L99.6333 295.01C99.5608 295.132 99.4973 295.264 99.4248 295.387H98.3099C96.488 295.387 95.0106 296.921 95.0106 298.813ZM100.812 302.869H96.5243V298.596H100.812V302.869ZM105.706 298.596V302.869H101.419V298.596H105.706ZM101.718 281.325V289.589C101.718 289.862 101.827 290.116 101.999 290.295C101.401 291.641 100.757 292.958 100.05 294.238L87.4329 286.671C89.282 283.264 90.6145 279.527 91.3396 275.565L104.428 277.965C102.887 278.257 101.718 279.65 101.718 281.325ZM107.519 285.381H103.232V281.108H107.519V285.381ZM107.818 262.736H112.106V267.009H107.818V262.736ZM112.414 285.381H108.126V281.108H112.414V285.381Z" fill="#1F2026"/>
<path d="M110.646 277.88H108.688C108.997 276.007 109.205 274.115 109.323 272.186H112.686C113.211 272.186 113.646 271.743 113.646 271.188V262.924C113.646 261.032 112.169 259.498 110.347 259.498H108.679C108.317 257.315 107.836 255.178 107.238 253.098V245.549C107.238 243.658 105.761 242.123 103.939 242.123H102.769C100.812 238.481 98.4731 235.093 95.7901 232.024V231.384C95.7901 229.492 94.3127 227.958 92.4908 227.958H91.8381C82.5111 219.29 70.202 214 56.7236 214C43.2451 214 30.9451 219.28 21.609 227.958H21.4549C19.633 227.958 18.1555 229.492 18.1555 231.384V231.478C15.2731 234.688 12.7624 238.264 10.6867 242.123H10.0069C8.18497 242.123 6.7075 243.658 6.7075 245.549V251.479C5.8736 254.077 5.22098 256.75 4.77683 259.498H3.5985C1.7766 259.498 0.299133 261.032 0.299133 262.924V271.188C0.299133 271.734 0.725146 272.186 1.25993 272.186H4.12424C4.24207 274.115 4.4505 276.016 4.75869 277.88H3.29937C1.47747 277.88 0 279.414 0 281.306V289.57C0 290.116 0.426013 290.568 0.960799 290.568H8.39342C9.0823 292.215 9.85278 293.815 10.6867 295.377H10.0069C8.18497 295.377 6.7075 296.911 6.7075 298.803V307.067C6.7075 307.613 7.13352 308.065 7.6683 308.065H17.9652C18.4909 308.065 18.926 307.622 18.926 307.067V306.86C19.7146 307.707 20.5303 308.535 21.3733 309.326C19.5877 309.373 18.1555 310.879 18.1555 312.743V317.053L2.25702 338.033L4.49584 340L18.3912 321.656C18.5634 321.863 18.8263 322.004 19.1163 322.004H29.4132C29.9389 322.004 30.374 321.562 30.374 321.006V316.14C32.1234 317.194 33.9362 318.154 35.8034 318.992C34.5163 319.453 33.5828 320.715 33.5828 322.211V330.475C33.5828 331.021 34.0088 331.473 34.5436 331.473H44.8404C45.3662 331.473 45.8012 331.03 45.8012 330.475V322.305C47.7319 322.729 49.7079 323.039 51.7111 323.246C51.2307 323.839 50.9315 324.592 50.9315 325.43V333.694C50.9315 334.24 51.3576 334.692 51.8923 334.692H62.1893C62.715 334.692 63.1501 334.249 63.1501 333.694V325.43C63.1501 324.574 62.8328 323.792 62.3343 323.19C64.3193 322.973 66.2681 322.635 68.1807 322.192C68.1807 322.202 68.1807 322.211 68.1807 322.221V330.484C68.1807 331.03 68.6067 331.482 69.1415 331.482H79.4383C79.9641 331.482 80.3991 331.04 80.3991 330.484V322.221C80.3991 320.611 79.3205 319.265 77.8793 318.898C79.8553 317.994 81.7679 316.978 83.6079 315.839V321.006C83.6079 321.552 84.0339 322.004 84.5687 322.004H94.8656C95.074 322.004 95.2735 321.929 95.4275 321.806L109.214 340L111.453 338.033L95.8264 317.411V312.743C95.8264 310.851 94.3489 309.316 92.527 309.316H92.1282C93.1434 308.356 94.1223 307.349 95.0649 306.314V307.067C95.0649 307.613 95.491 308.065 96.0257 308.065H106.323C106.848 308.065 107.283 307.622 107.283 307.067V298.803C107.283 296.911 105.806 295.377 103.984 295.377H102.815C103.658 293.824 104.419 292.215 105.108 290.568H113.039C113.565 290.568 114 290.125 114 289.57V281.306C114 279.414 112.523 277.88 110.701 277.88H110.646ZM107.229 262.708V266.981H102.942V262.708H107.229ZM61.3191 270.981C61.446 270.699 61.5548 270.407 61.6273 270.096L70.6008 271.743C70.3198 273.146 69.8394 274.482 69.2049 275.715L61.3191 270.99V270.981ZM68.7608 276.478C68.1897 277.428 67.5281 278.313 66.7757 279.104L61.4732 272.101L68.7608 276.468V276.478ZM60.8931 265.72C60.7209 265.465 60.5305 265.221 60.313 264.995L66.1503 257.766C67.1655 258.708 68.0447 259.79 68.7608 260.995L60.8931 265.71V265.72ZM69.214 261.766C69.8485 262.999 70.3289 264.327 70.6099 265.738L61.6363 267.386C61.5547 267.075 61.4551 266.783 61.3282 266.501L69.214 261.776V261.766ZM61.7904 269.202C61.7995 269.042 61.8176 268.891 61.8176 268.731C61.8176 268.571 61.8086 268.421 61.7904 268.261L70.7458 266.623C70.8455 267.31 70.909 268.016 70.909 268.731C70.909 269.447 70.8455 270.153 70.7458 270.84L61.7904 269.202ZM70.4649 261.014L86.2093 251.573C87.9768 254.83 89.2458 258.406 89.9437 262.19L72.042 265.465C71.7338 263.884 71.199 262.388 70.4739 261.004L70.4649 261.014ZM70.0297 260.232C69.223 258.877 68.235 257.653 67.093 256.599L78.7767 242.142C81.5322 244.608 83.907 247.526 85.7833 250.792L70.0388 260.232H70.0297ZM66.4313 256.025C65.2439 255.046 63.9115 254.237 62.4793 253.644L68.6973 235.902C72.1417 237.257 75.3142 239.177 78.115 241.559L66.4313 256.025ZM65.4977 257.183L59.6513 264.411C59.4065 264.232 59.1437 264.072 58.8627 263.941L61.9717 255.065C63.2497 255.592 64.4281 256.307 65.4886 257.183H65.4977ZM64.5188 281.024C63.7211 281.57 62.8781 282.031 61.9808 282.398L58.899 273.607L64.5188 281.024ZM65.4161 282.21L76.6647 297.062C74.2355 298.916 71.5525 300.431 68.6973 301.561L62.4793 283.819C63.5217 283.396 64.5006 282.85 65.4161 282.219V282.21ZM67.6822 280.29C68.5795 279.377 69.368 278.351 70.0297 277.231L85.7742 286.671C83.9432 289.862 81.6319 292.723 78.9489 295.161L67.6822 280.29ZM70.4649 276.459C71.19 275.085 71.7157 273.579 72.0329 271.997L89.9347 275.273C89.2458 279.057 87.9677 282.633 86.2002 285.89L70.4558 276.449L70.4649 276.459ZM72.1779 271.113C72.2867 270.341 72.3502 269.55 72.3502 268.741C72.3502 267.931 72.2958 267.141 72.1779 266.369L90.0887 263.094C90.3788 264.938 90.5329 266.821 90.5329 268.741C90.5329 270.661 90.3788 272.553 90.0887 274.398L72.1779 271.122V271.113ZM87.4511 250.839L95.0196 246.302V253.804C95.0196 254.35 95.4457 254.802 95.9804 254.802H104.7C105.099 256.279 105.434 257.785 105.706 259.319L104.709 259.498C104.356 259.498 104.011 259.573 103.694 259.686L91.3577 261.945C90.6417 257.983 89.3002 254.246 87.4511 250.839ZM91.5027 262.83L102.081 260.891C101.673 261.456 101.428 262.162 101.428 262.924V271.188C101.428 271.734 101.854 272.186 102.389 272.186H106.431C106.323 273.908 106.132 275.612 105.86 277.287L91.5118 274.661C91.8109 272.732 91.9741 270.764 91.9741 268.75C91.9741 266.736 91.8109 264.76 91.5118 262.839L91.5027 262.83ZM101.428 245.333H105.715V249.606H101.428V245.333ZM100.821 249.606H96.5333V245.333H100.821V249.606ZM94.8293 240.646C95.355 240.646 95.7901 240.203 95.7901 239.648V236.683C97.1135 238.415 98.3371 240.232 99.4339 242.123H98.319C96.5968 242.123 95.201 243.498 95.0469 245.248L87.016 250.058C85.0581 246.641 82.5746 243.592 79.6922 241.013L83.5716 236.213V239.639C83.5716 240.184 83.9976 240.636 84.5324 240.636H94.8293V240.646ZM89.989 231.177H94.2764V235.45H89.989V231.177ZM89.3818 235.45H85.0944V231.177H89.3818V235.45ZM80.372 230.415V223.224C82.8284 224.607 85.1488 226.198 87.3333 227.977H86.871C85.0491 227.977 83.5716 229.511 83.5716 231.403V234.838L79.0395 240.448C76.1118 237.954 72.7852 235.949 69.1868 234.528L70.2745 231.412H79.4021C79.9278 231.412 80.3629 230.97 80.3629 230.415H80.372ZM74.5709 221.934H78.8582V226.208H74.5709V221.934ZM73.9636 226.208H69.6762V221.934H73.9636V226.208ZM57.3399 218.264H61.6273V222.537H57.3399V218.264ZM57.1677 227.732H62.1893C62.715 227.732 63.1501 227.29 63.1501 226.735V218.471C63.1501 218.104 63.0776 217.765 62.9778 217.426C65.4705 217.755 67.8997 218.264 70.2654 218.96C69.0417 219.459 68.1625 220.692 68.1625 222.141V230.405C68.1625 230.951 68.5885 231.403 69.1233 231.403H69.3681L68.3801 234.208C64.8632 232.928 61.0925 232.203 57.1677 232.156V227.723V227.732ZM57.1677 233.662C60.9202 233.709 64.5187 234.396 67.8906 235.62L61.6726 253.361C60.2495 252.872 58.7449 252.58 57.1768 252.543V233.662H57.1677ZM57.1677 254.058C58.5636 254.105 59.9051 254.35 61.1741 254.783L58.065 263.668C57.775 263.583 57.4759 263.527 57.1768 263.498V254.058H57.1677ZM57.1677 274.021C57.4759 273.993 57.775 273.936 58.056 273.852L61.165 282.737C59.896 283.17 58.5545 283.414 57.1586 283.461V274.021H57.1677ZM57.1677 284.977C58.7358 284.93 60.2495 284.647 61.6635 284.158L67.8815 301.9C64.5187 303.123 60.9112 303.81 57.1586 303.857V284.977H57.1677ZM51.131 217.36C51.0131 217.718 50.9315 218.085 50.9315 218.48V226.744C50.9315 227.29 51.3576 227.742 51.8923 227.742H56.3066V232.175C52.3818 232.222 48.6111 232.947 45.0942 234.227L44.1153 231.422H44.8495C45.3752 231.422 45.8103 230.979 45.8103 230.424V222.16C45.8103 220.617 44.8223 219.327 43.4717 218.904C45.9553 218.188 48.5114 217.671 51.14 217.36H51.131ZM9.20015 277.927L22.1075 275.565C22.8236 279.527 24.1651 283.264 26.0142 286.671L13.3969 294.238C12.7352 293.034 12.1188 291.801 11.5568 290.53C11.9466 290.408 12.2366 290.031 12.2366 289.579V281.315C12.2366 279.518 10.9042 278.068 9.20922 277.918L9.20015 277.927ZM11.9556 261.023L21.9534 262.849C21.6543 264.778 21.4912 266.745 21.4912 268.76C21.4912 270.774 21.6543 272.75 21.9534 274.67L7.60485 277.296C7.33292 275.621 7.14257 273.918 7.0338 272.195H11.575C12.1007 272.195 12.5358 271.753 12.5358 271.197V262.934C12.5358 262.218 12.3273 261.559 11.9647 261.014L11.9556 261.023ZM52.1371 266.529C52.0102 266.811 51.9015 267.103 51.8289 267.414L42.8554 265.767C43.1364 264.364 43.6077 263.028 44.2513 261.795L52.1371 266.52V266.529ZM44.6954 261.032C45.4115 259.828 46.2998 258.745 47.3059 257.804L53.1432 265.032C52.9257 265.258 52.7354 265.494 52.5631 265.757L44.6954 261.042V261.032ZM51.6748 268.299C51.6657 268.449 51.6476 268.609 51.6476 268.769C51.6476 268.929 51.6567 269.08 51.6748 269.24L42.7194 270.877C42.6197 270.19 42.5563 269.484 42.5563 268.769C42.5563 268.054 42.6197 267.348 42.7194 266.661L51.6748 268.299ZM51.8289 270.124C51.9105 270.435 52.0102 270.727 52.1371 271.009L44.2513 275.734C43.6168 274.501 43.1364 273.174 42.8554 271.762L51.8289 270.115V270.124ZM52.3999 271.894L46.8164 279.264C46.0097 278.435 45.3027 277.513 44.7045 276.506L52.3999 271.894ZM54.376 274.2L51.4845 282.435C50.6506 282.087 49.8529 281.654 49.1006 281.155L54.376 274.2ZM53.8139 264.458L47.9676 257.23C49.0281 256.364 50.2064 255.639 51.4845 255.112L54.5935 263.988C54.3216 264.12 54.0587 264.28 53.8139 264.458ZM47.034 256.072L35.3502 241.606C38.1511 239.224 41.3235 237.304 44.7679 235.949L50.9859 253.691C49.5538 254.284 48.2214 255.084 47.034 256.072ZM46.3723 256.646C45.2302 257.7 44.2422 258.924 43.4355 260.279L27.6911 250.839C29.5673 247.573 31.9331 244.655 34.6976 242.189L46.3814 256.646H46.3723ZM43.0004 261.051C42.2753 262.425 41.7496 263.931 41.4323 265.513L23.5306 262.237C24.2195 258.444 25.4975 254.877 27.265 251.62L43.0095 261.061L43.0004 261.051ZM41.2873 266.397C41.1785 267.169 41.1151 267.96 41.1151 268.769C41.1151 269.579 41.1695 270.369 41.2873 271.141L23.3765 274.416C23.0865 272.572 22.9324 270.689 22.9324 268.76C22.9324 266.83 23.0865 264.948 23.3765 263.112L41.2873 266.388V266.397ZM23.5306 275.311L41.4323 272.035C41.7405 273.616 42.2753 275.113 43.0004 276.496L27.2559 285.937C25.4884 282.68 24.2195 279.104 23.5215 275.32L23.5306 275.311ZM43.4355 277.268C44.1335 278.435 44.9673 279.508 45.91 280.45L34.6433 295.311C31.9059 292.855 29.5492 289.946 27.682 286.699L43.4264 277.259L43.4355 277.268ZM48.2033 282.351C49.0734 282.944 50.007 283.452 50.995 283.857L44.777 301.599C41.9671 300.488 39.3385 299.01 36.9455 297.203L48.2033 282.351ZM51.8108 284.167C53.2339 284.657 54.7385 284.949 56.3066 284.986V303.867C52.554 303.82 48.9556 303.133 45.5837 301.909L51.8017 284.167H51.8108ZM52.3093 282.756L55.4183 273.87C55.7084 273.955 56.0075 274.012 56.3066 274.04V283.48C54.9107 283.433 53.5692 283.188 52.3002 282.756H52.3093ZM55.4183 263.687L52.3093 254.802C53.5783 254.369 54.9198 254.124 56.3157 254.077V263.517C56.0075 263.545 55.7084 263.602 55.4274 263.687H55.4183ZM51.8108 253.39L45.5928 235.648C48.9556 234.424 52.5631 233.737 56.3157 233.69V252.571C54.7476 252.618 53.2339 252.9 51.8199 253.39H51.8108ZM40.0092 221.953H44.2966V226.226H40.0092V221.953ZM35.1146 221.953H39.4019V226.226H35.1146V221.953ZM33.6009 222.979V230.434C33.6009 230.979 34.0269 231.431 34.5617 231.431H43.1998L44.2875 234.547C40.6891 235.968 37.3625 237.973 34.4348 240.467L30.3922 235.469V231.422C30.3922 229.53 28.9147 227.996 27.0928 227.996H26.1411C28.4706 226.104 30.9632 224.419 33.6009 222.979ZM24.5911 231.205H28.8785V235.478H24.5911V231.205ZM19.6965 231.205H23.9838V235.478H19.6965V231.205ZM18.1827 236.062V239.686C18.1827 240.232 18.6087 240.683 19.1435 240.683H29.4404C29.9662 240.683 30.4012 240.241 30.4012 239.686V236.871L33.7822 241.06C30.8998 243.639 28.4162 246.688 26.4583 250.105L18.9532 245.606C18.9532 243.705 17.4757 242.17 15.6538 242.17H14.0404C15.2822 240.034 16.669 237.991 18.1827 236.071V236.062ZM13.143 245.371H17.4304V249.644H13.143V245.371ZM8.24842 245.371H12.5358V249.644H8.24842V245.371ZM8.77416 254.839H17.9924C18.5181 254.839 18.9532 254.397 18.9532 253.841V246.632L26.0232 250.867C24.1741 254.274 22.8417 258.011 22.1166 261.974L10.6685 259.875C10.2335 259.658 9.75304 259.526 9.23639 259.526H8.74694L7.75892 259.348C8.03085 257.823 8.36626 256.317 8.76509 254.83L8.77416 254.839ZM6.73472 262.736H11.0221V267.009H6.73472V262.736ZM5.82831 285.381H1.54092V281.108H5.82831V285.381ZM6.12738 267.009H1.84005V262.736H6.12738V267.009ZM6.42652 285.381V281.108H10.7138V285.381H6.42652ZM12.5358 302.869H8.24842V298.596H12.5358V302.869ZM17.4304 302.869H13.143V298.596H17.4304V302.869ZM23.9747 316.809H19.6874V312.535H23.9747V316.809ZM18.9351 302.427V298.822C18.9351 296.93 17.4576 295.396 15.6357 295.396H14.0223C13.9498 295.274 13.8863 295.151 13.8138 295.019L26.4311 287.452C28.389 290.859 30.8635 293.909 33.7459 296.488L33.5193 296.789L24.3917 308.084C22.4338 306.342 20.6028 304.45 18.926 302.417L18.9351 302.427ZM28.8694 316.809H24.582V312.535H28.8694V316.809ZM30.374 312.648C30.3196 311.03 29.1957 309.693 27.7092 309.401L36.0573 298.389C38.568 300.29 41.3326 301.853 44.2875 303.01L39.3023 317.232C36.1661 316.009 33.1839 314.465 30.3831 312.648H30.374ZM39.3929 326.277H35.1055V322.004H39.3929V326.277ZM44.2875 326.277H40.0002V322.004H44.2875V326.277ZM40.0999 317.533L45.0852 303.312C48.6021 304.592 52.3728 305.316 56.2976 305.363V320.498C50.6234 320.451 45.1758 319.406 40.0999 317.533ZM56.7326 329.487H52.4453V325.214H56.7326V329.487ZM56.7326 222.546H52.4453V218.273H56.7326V222.546ZM61.6273 329.487H57.3399V325.214H61.6273V329.487ZM57.1586 320.498V305.363C61.0834 305.316 64.8541 304.592 68.371 303.312L73.3563 317.533C68.2804 319.406 62.8328 320.442 57.1586 320.498ZM73.9545 326.277H69.6672V322.004H73.9545V326.277ZM78.8492 322.004V326.277H74.5618V322.004H78.8492ZM83.6169 312.291C80.662 314.267 77.4986 315.933 74.1721 317.232L69.1868 303.01C72.1961 301.824 75.006 300.224 77.553 298.285L86.028 309.467C84.759 309.815 83.7982 310.926 83.6169 312.3V312.291ZM89.3727 316.809H85.0853V312.535H89.3727V316.809ZM94.2673 312.535V316.809H89.98V312.535H94.2673ZM95.0106 298.813V301.824C93.1977 304.083 91.2036 306.173 89.0554 308.084L83.5081 301.213L79.8372 296.365C82.6652 293.815 85.0944 290.803 87.016 287.443L99.6333 295.01C99.5608 295.132 99.4973 295.264 99.4248 295.387H98.3099C96.488 295.387 95.0106 296.921 95.0106 298.813ZM100.812 302.869H96.5243V298.596H100.812V302.869ZM105.706 298.596V302.869H101.419V298.596H105.706ZM101.718 281.325V289.589C101.718 289.862 101.827 290.116 101.999 290.295C101.401 291.641 100.757 292.958 100.05 294.238L87.4329 286.671C89.282 283.264 90.6145 279.527 91.3396 275.565L104.428 277.965C102.887 278.257 101.718 279.65 101.718 281.325ZM107.519 285.381H103.232V281.108H107.519V285.381ZM107.818 262.736H112.106V267.009H107.818V262.736ZM112.414 285.381H108.126V281.108H112.414V285.381Z" fill="#1F2026"/>
<path d="M102.235 154.444H91.8848V343.131H102.235V154.444Z" fill="#1F2026"/>
<path d="M131.715 154.444H121.365V343.131H131.715V154.444Z" fill="#1F2026"/>
<path d="M119.515 154.444H104.095V343.131H119.515V154.444Z" fill="#1F2026"/>
<path d="M126.535 285.984H97.0547V343.141H126.535V285.984Z" fill="#1F2026"/>
<path d="M123.794 205.013H98.3745V258.524H123.794V205.013Z" fill="#1F2026"/>
<path d="M126.535 171.96H97.0547V175.047H126.535V171.96Z" fill="#1F2026"/>
<path d="M126.535 190.864H97.0547V193.951H126.535V190.864Z" fill="#1F2026"/>
<path d="M126.535 270.716H97.0547V273.803H126.535V270.716Z" fill="#1F2026"/>
<path d="M140.192 150.245C155.876 133.999 155.876 107.66 140.192 91.4149C124.509 75.1695 99.0808 75.1695 83.3974 91.4149C67.7139 107.66 67.7139 133.999 83.3974 150.245C99.0809 166.49 124.509 166.49 140.192 150.245Z" fill="#1F2026"/>
<path d="M103.255 83.3239C102.755 83.3239 102.345 82.8992 102.345 82.3813C102.345 81.8634 102.755 81.4387 103.255 81.4387C103.755 81.4387 104.165 81.8634 104.165 82.3813C104.165 82.8992 103.755 83.3239 103.255 83.3239Z" fill="white" fill-opacity="0.3"/>
<path d="M111.795 83.3239C111.295 83.3239 110.885 82.8992 110.885 82.3813C110.885 81.8634 111.295 81.4387 111.795 81.4387C112.295 81.4387 112.705 81.8634 112.705 82.3813C112.705 82.8992 112.295 83.3239 111.795 83.3239Z" fill="white" fill-opacity="0.3"/>
<path d="M120.345 83.3239C119.845 83.3239 119.435 82.8992 119.435 82.3813C119.435 81.8634 119.845 81.4387 120.345 81.4387C120.845 81.4387 121.255 81.8634 121.255 82.3813C121.255 82.8992 120.845 83.3239 120.345 83.3239Z" fill="white" fill-opacity="0.3"/>
<path d="M90.4451 91.8695C89.9451 91.8695 89.5352 91.4448 89.5352 90.9269C89.5352 90.4089 89.9451 89.9843 90.4451 89.9843C90.9451 89.9843 91.3552 90.4089 91.3552 90.9269C91.3552 91.4448 90.9451 91.8695 90.4451 91.8695Z" fill="white" fill-opacity="0.3"/>
<path d="M98.9847 91.8695C98.4847 91.8695 98.0747 91.4448 98.0747 90.9269C98.0747 90.4089 98.4847 89.9843 98.9847 89.9843C99.4847 89.9843 99.8947 90.4089 99.8947 90.9269C99.8947 91.4448 99.4847 91.8695 98.9847 91.8695Z" fill="white" fill-opacity="0.3"/>
<path d="M107.525 91.8695C107.025 91.8695 106.615 91.4448 106.615 90.9269C106.615 90.4089 107.025 89.9843 107.525 89.9843C108.025 89.9843 108.435 90.4089 108.435 90.9269C108.435 91.4448 108.025 91.8695 107.525 91.8695Z" fill="white" fill-opacity="0.3"/>
<path d="M116.065 91.8695C115.565 91.8695 115.155 91.4448 115.155 90.9269C115.155 90.4089 115.565 89.9843 116.065 89.9843C116.565 89.9843 116.975 90.4089 116.975 90.9269C116.975 91.4448 116.565 91.8695 116.065 91.8695Z" fill="white" fill-opacity="0.3"/>
<path d="M124.615 91.8695C124.115 91.8695 123.705 91.4448 123.705 90.9269C123.705 90.4089 124.115 89.9843 124.615 89.9843C125.115 89.9843 125.525 90.4089 125.525 90.9269C125.525 91.4448 125.115 91.8695 124.615 91.8695Z" fill="white" fill-opacity="0.3"/>
<path d="M133.155 91.8695C132.655 91.8695 132.245 91.4448 132.245 90.9269C132.245 90.4089 132.655 89.9843 133.155 89.9843C133.655 89.9843 134.065 90.4089 134.065 90.9269C134.065 91.4448 133.655 91.8695 133.155 91.8695Z" fill="white" fill-opacity="0.3"/>
<path d="M77.6351 100.415C77.1351 100.415 76.7251 99.9904 76.7251 99.4725C76.7251 98.9545 77.1351 98.5298 77.6351 98.5298C78.1351 98.5298 78.545 98.9545 78.545 99.4725C78.545 99.9904 78.1351 100.415 77.6351 100.415Z" fill="white" fill-opacity="0.3"/>
<path d="M86.1751 100.415C85.6751 100.415 85.2651 99.9904 85.2651 99.4725C85.2651 98.9545 85.6751 98.5298 86.1751 98.5298C86.6751 98.5298 87.0851 98.9545 87.0851 99.4725C87.0851 99.9904 86.6751 100.415 86.1751 100.415Z" fill="white" fill-opacity="0.3"/>
<path d="M94.7152 100.415C94.2152 100.415 93.8052 99.9904 93.8052 99.4725C93.8052 98.9545 94.2152 98.5298 94.7152 98.5298C95.2152 98.5298 95.6252 98.9545 95.6252 99.4725C95.6252 99.9904 95.2152 100.415 94.7152 100.415Z" fill="white" fill-opacity="0.3"/>
<path d="M103.255 100.415C102.755 100.415 102.345 99.9904 102.345 99.4725C102.345 98.9545 102.755 98.5298 103.255 98.5298C103.755 98.5298 104.165 98.9545 104.165 99.4725C104.165 99.9904 103.755 100.415 103.255 100.415Z" fill="white" fill-opacity="0.3"/>
<path d="M111.795 100.415C111.295 100.415 110.885 99.9904 110.885 99.4725C110.885 98.9545 111.295 98.5298 111.795 98.5298C112.295 98.5298 112.705 98.9545 112.705 99.4725C112.705 99.9904 112.295 100.415 111.795 100.415Z" fill="white" fill-opacity="0.3"/>
<path d="M120.345 100.415C119.845 100.415 119.435 99.9904 119.435 99.4725C119.435 98.9545 119.845 98.5298 120.345 98.5298C120.845 98.5298 121.255 98.9545 121.255 99.4725C121.255 99.9904 120.845 100.415 120.345 100.415Z" fill="white" fill-opacity="0.3"/>
<path d="M128.885 100.415C128.385 100.415 127.975 99.9904 127.975 99.4725C127.975 98.9545 128.385 98.5298 128.885 98.5298C129.385 98.5298 129.795 98.9545 129.795 99.4725C129.795 99.9904 129.385 100.415 128.885 100.415Z" fill="white" fill-opacity="0.3"/>
<path d="M137.425 100.415C136.925 100.415 136.515 99.9904 136.515 99.4725C136.515 98.9545 136.925 98.5298 137.425 98.5298C137.925 98.5298 138.335 98.9545 138.335 99.4725C138.335 99.9904 137.925 100.415 137.425 100.415Z" fill="white" fill-opacity="0.3"/>
<path d="M145.965 100.415C145.465 100.415 145.055 99.9904 145.055 99.4725C145.055 98.9545 145.465 98.5298 145.965 98.5298C146.465 98.5298 146.875 98.9545 146.875 99.4725C146.875 99.9904 146.465 100.415 145.965 100.415Z" fill="white" fill-opacity="0.3"/>
<path d="M73.3651 108.961C72.8651 108.961 72.4551 108.536 72.4551 108.018C72.4551 107.5 72.8651 107.075 73.3651 107.075C73.8651 107.075 74.2751 107.5 74.2751 108.018C74.2751 108.536 73.8651 108.961 73.3651 108.961Z" fill="white" fill-opacity="0.3"/>
<path d="M81.9052 108.961C81.4052 108.961 80.9951 108.536 80.9951 108.018C80.9951 107.5 81.4052 107.075 81.9052 107.075C82.4052 107.075 82.8151 107.5 82.8151 108.018C82.8151 108.536 82.4052 108.961 81.9052 108.961Z" fill="white" fill-opacity="0.3"/>
<path d="M90.4451 108.961C89.9451 108.961 89.5352 108.536 89.5352 108.018C89.5352 107.5 89.9451 107.075 90.4451 107.075C90.9451 107.075 91.3552 107.5 91.3552 108.018C91.3552 108.536 90.9451 108.961 90.4451 108.961Z" fill="white" fill-opacity="0.3"/>
<path d="M98.9847 108.961C98.4847 108.961 98.0747 108.536 98.0747 108.018C98.0747 107.5 98.4847 107.075 98.9847 107.075C99.4847 107.075 99.8947 107.5 99.8947 108.018C99.8947 108.536 99.4847 108.961 98.9847 108.961Z" fill="white" fill-opacity="0.3"/>
<path d="M107.525 108.961C107.025 108.961 106.615 108.536 106.615 108.018C106.615 107.5 107.025 107.075 107.525 107.075C108.025 107.075 108.435 107.5 108.435 108.018C108.435 108.536 108.025 108.961 107.525 108.961Z" fill="white" fill-opacity="0.3"/>
<path d="M116.065 108.961C115.565 108.961 115.155 108.536 115.155 108.018C115.155 107.5 115.565 107.075 116.065 107.075C116.565 107.075 116.975 107.5 116.975 108.018C116.975 108.536 116.565 108.961 116.065 108.961Z" fill="white" fill-opacity="0.3"/>
<path d="M124.615 108.961C124.115 108.961 123.705 108.536 123.705 108.018C123.705 107.5 124.115 107.075 124.615 107.075C125.115 107.075 125.525 107.5 125.525 108.018C125.525 108.536 125.115 108.961 124.615 108.961Z" fill="white" fill-opacity="0.3"/>
<path d="M133.155 108.961C132.655 108.961 132.245 108.536 132.245 108.018C132.245 107.5 132.655 107.075 133.155 107.075C133.655 107.075 134.065 107.5 134.065 108.018C134.065 108.536 133.655 108.961 133.155 108.961Z" fill="white" fill-opacity="0.3"/>
<path d="M141.695 108.961C141.195 108.961 140.785 108.536 140.785 108.018C140.785 107.5 141.195 107.075 141.695 107.075C142.195 107.075 142.605 107.5 142.605 108.018C142.605 108.536 142.195 108.961 141.695 108.961Z" fill="white" fill-opacity="0.3"/>
<path d="M150.235 108.961C149.735 108.961 149.325 108.536 149.325 108.018C149.325 107.5 149.735 107.075 150.235 107.075C150.735 107.075 151.145 107.5 151.145 108.018C151.145 108.536 150.735 108.961 150.235 108.961Z" fill="white" fill-opacity="0.3"/>
<path d="M77.6351 117.506C77.1351 117.506 76.7251 117.082 76.7251 116.564C76.7251 116.046 77.1351 115.621 77.6351 115.621C78.1351 115.621 78.545 116.046 78.545 116.564C78.545 117.082 78.1351 117.506 77.6351 117.506Z" fill="white" fill-opacity="0.3"/>
<path d="M86.1751 117.506C85.6751 117.506 85.2651 117.082 85.2651 116.564C85.2651 116.046 85.6751 115.621 86.1751 115.621C86.6751 115.621 87.0851 116.046 87.0851 116.564C87.0851 117.082 86.6751 117.506 86.1751 117.506Z" fill="white" fill-opacity="0.3"/>
<path d="M94.7152 117.506C94.2152 117.506 93.8052 117.082 93.8052 116.564C93.8052 116.046 94.2152 115.621 94.7152 115.621C95.2152 115.621 95.6252 116.046 95.6252 116.564C95.6252 117.082 95.2152 117.506 94.7152 117.506Z" fill="white" fill-opacity="0.3"/>
<path d="M103.255 117.506C102.755 117.506 102.345 117.082 102.345 116.564C102.345 116.046 102.755 115.621 103.255 115.621C103.755 115.621 104.165 116.046 104.165 116.564C104.165 117.082 103.755 117.506 103.255 117.506Z" fill="white" fill-opacity="0.3"/>
<path d="M111.795 117.506C111.295 117.506 110.885 117.082 110.885 116.564C110.885 116.046 111.295 115.621 111.795 115.621C112.295 115.621 112.705 116.046 112.705 116.564C112.705 117.082 112.295 117.506 111.795 117.506Z" fill="white" fill-opacity="0.3"/>
<path d="M120.345 117.506C119.845 117.506 119.435 117.082 119.435 116.564C119.435 116.046 119.845 115.621 120.345 115.621C120.845 115.621 121.255 116.046 121.255 116.564C121.255 117.082 120.845 117.506 120.345 117.506Z" fill="white" fill-opacity="0.3"/>
<path d="M128.885 117.506C128.385 117.506 127.975 117.082 127.975 116.564C127.975 116.046 128.385 115.621 128.885 115.621C129.385 115.621 129.795 116.046 129.795 116.564C129.795 117.082 129.385 117.506 128.885 117.506Z" fill="white" fill-opacity="0.3"/>
<path d="M137.425 117.506C136.925 117.506 136.515 117.082 136.515 116.564C136.515 116.046 136.925 115.621 137.425 115.621C137.925 115.621 138.335 116.046 138.335 116.564C138.335 117.082 137.925 117.506 137.425 117.506Z" fill="white" fill-opacity="0.3"/>
<path d="M145.965 117.506C145.465 117.506 145.055 117.082 145.055 116.564C145.055 116.046 145.465 115.621 145.965 115.621C146.465 115.621 146.875 116.046 146.875 116.564C146.875 117.082 146.465 117.506 145.965 117.506Z" fill="white" fill-opacity="0.3"/>
<path d="M73.3651 126.041C72.8651 126.041 72.4551 125.617 72.4551 125.099C72.4551 124.581 72.8651 124.156 73.3651 124.156C73.8651 124.156 74.2751 124.581 74.2751 125.099C74.2751 125.617 73.8651 126.041 73.3651 126.041Z" fill="white" fill-opacity="0.3"/>
<path d="M81.9052 126.041C81.4052 126.041 80.9951 125.617 80.9951 125.099C80.9951 124.581 81.4052 124.156 81.9052 124.156C82.4052 124.156 82.8151 124.581 82.8151 125.099C82.8151 125.617 82.4052 126.041 81.9052 126.041Z" fill="white" fill-opacity="0.3"/>
<path d="M90.4451 126.041C89.9451 126.041 89.5352 125.617 89.5352 125.099C89.5352 124.581 89.9451 124.156 90.4451 124.156C90.9451 124.156 91.3552 124.581 91.3552 125.099C91.3552 125.617 90.9451 126.041 90.4451 126.041Z" fill="white" fill-opacity="0.3"/>
<path d="M98.9847 126.041C98.4847 126.041 98.0747 125.617 98.0747 125.099C98.0747 124.581 98.4847 124.156 98.9847 124.156C99.4847 124.156 99.8947 124.581 99.8947 125.099C99.8947 125.617 99.4847 126.041 98.9847 126.041Z" fill="white" fill-opacity="0.3"/>
<path d="M107.525 126.041C107.025 126.041 106.615 125.617 106.615 125.099C106.615 124.581 107.025 124.156 107.525 124.156C108.025 124.156 108.435 124.581 108.435 125.099C108.435 125.617 108.025 126.041 107.525 126.041Z" fill="white" fill-opacity="0.3"/>
<path d="M116.065 126.041C115.565 126.041 115.155 125.617 115.155 125.099C115.155 124.581 115.565 124.156 116.065 124.156C116.565 124.156 116.975 124.581 116.975 125.099C116.975 125.617 116.565 126.041 116.065 126.041Z" fill="white" fill-opacity="0.3"/>
<path d="M124.615 126.041C124.115 126.041 123.705 125.617 123.705 125.099C123.705 124.581 124.115 124.156 124.615 124.156C125.115 124.156 125.525 124.581 125.525 125.099C125.525 125.617 125.115 126.041 124.615 126.041Z" fill="white" fill-opacity="0.3"/>
<path d="M133.155 126.041C132.655 126.041 132.245 125.617 132.245 125.099C132.245 124.581 132.655 124.156 133.155 124.156C133.655 124.156 134.065 124.581 134.065 125.099C134.065 125.617 133.655 126.041 133.155 126.041Z" fill="white" fill-opacity="0.3"/>
<path d="M141.695 126.041C141.195 126.041 140.785 125.617 140.785 125.099C140.785 124.581 141.195 124.156 141.695 124.156C142.195 124.156 142.605 124.581 142.605 125.099C142.605 125.617 142.195 126.041 141.695 126.041Z" fill="white" fill-opacity="0.3"/>
<path d="M150.235 126.041C149.735 126.041 149.325 125.617 149.325 125.099C149.325 124.581 149.735 124.156 150.235 124.156C150.735 124.156 151.145 124.581 151.145 125.099C151.145 125.617 150.735 126.041 150.235 126.041Z" fill="white" fill-opacity="0.3"/>
<path d="M77.6351 134.587C77.1351 134.587 76.7251 134.162 76.7251 133.644C76.7251 133.127 77.1351 132.702 77.6351 132.702C78.1351 132.702 78.545 133.127 78.545 133.644C78.545 134.162 78.1351 134.587 77.6351 134.587Z" fill="white" fill-opacity="0.3"/>
<path d="M86.1751 134.587C85.6751 134.587 85.2651 134.162 85.2651 133.644C85.2651 133.127 85.6751 132.702 86.1751 132.702C86.6751 132.702 87.0851 133.127 87.0851 133.644C87.0851 134.162 86.6751 134.587 86.1751 134.587Z" fill="white" fill-opacity="0.3"/>
<path d="M94.7152 134.587C94.2152 134.587 93.8052 134.162 93.8052 133.644C93.8052 133.127 94.2152 132.702 94.7152 132.702C95.2152 132.702 95.6252 133.127 95.6252 133.644C95.6252 134.162 95.2152 134.587 94.7152 134.587Z" fill="white" fill-opacity="0.3"/>
<path d="M103.255 134.587C102.755 134.587 102.345 134.162 102.345 133.644C102.345 133.127 102.755 132.702 103.255 132.702C103.755 132.702 104.165 133.127 104.165 133.644C104.165 134.162 103.755 134.587 103.255 134.587Z" fill="white" fill-opacity="0.3"/>
<path d="M111.795 134.587C111.295 134.587 110.885 134.162 110.885 133.644C110.885 133.127 111.295 132.702 111.795 132.702C112.295 132.702 112.705 133.127 112.705 133.644C112.705 134.162 112.295 134.587 111.795 134.587Z" fill="white" fill-opacity="0.3"/>
<path d="M120.345 134.587C119.845 134.587 119.435 134.162 119.435 133.644C119.435 133.127 119.845 132.702 120.345 132.702C120.845 132.702 121.255 133.127 121.255 133.644C121.255 134.162 120.845 134.587 120.345 134.587Z" fill="white" fill-opacity="0.3"/>
<path d="M128.885 134.587C128.385 134.587 127.975 134.162 127.975 133.644C127.975 133.127 128.385 132.702 128.885 132.702C129.385 132.702 129.795 133.127 129.795 133.644C129.795 134.162 129.385 134.587 128.885 134.587Z" fill="white" fill-opacity="0.3"/>
<path d="M137.425 134.587C136.925 134.587 136.515 134.162 136.515 133.644C136.515 133.127 136.925 132.702 137.425 132.702C137.925 132.702 138.335 133.127 138.335 133.644C138.335 134.162 137.925 134.587 137.425 134.587Z" fill="white" fill-opacity="0.3"/>
<path d="M145.965 134.587C145.465 134.587 145.055 134.162 145.055 133.644C145.055 133.127 145.465 132.702 145.965 132.702C146.465 132.702 146.875 133.127 146.875 133.644C146.875 134.162 146.465 134.587 145.965 134.587Z" fill="white" fill-opacity="0.3"/>
<path d="M81.9052 143.132C81.4052 143.132 80.9951 142.708 80.9951 142.19C80.9951 141.672 81.4052 141.247 81.9052 141.247C82.4052 141.247 82.8151 141.672 82.8151 142.19C82.8151 142.708 82.4052 143.132 81.9052 143.132Z" fill="white" fill-opacity="0.3"/>
<path d="M90.4451 143.132C89.9451 143.132 89.5352 142.708 89.5352 142.19C89.5352 141.672 89.9451 141.247 90.4451 141.247C90.9451 141.247 91.3552 141.672 91.3552 142.19C91.3552 142.708 90.9451 143.132 90.4451 143.132Z" fill="white" fill-opacity="0.3"/>
<path d="M98.9847 143.132C98.4847 143.132 98.0747 142.708 98.0747 142.19C98.0747 141.672 98.4847 141.247 98.9847 141.247C99.4847 141.247 99.8947 141.672 99.8947 142.19C99.8947 142.708 99.4847 143.132 98.9847 143.132Z" fill="white" fill-opacity="0.3"/>
<path d="M107.525 143.132C107.025 143.132 106.615 142.708 106.615 142.19C106.615 141.672 107.025 141.247 107.525 141.247C108.025 141.247 108.435 141.672 108.435 142.19C108.435 142.708 108.025 143.132 107.525 143.132Z" fill="white" fill-opacity="0.3"/>
<path d="M116.065 143.132C115.565 143.132 115.155 142.708 115.155 142.19C115.155 141.672 115.565 141.247 116.065 141.247C116.565 141.247 116.975 141.672 116.975 142.19C116.975 142.708 116.565 143.132 116.065 143.132Z" fill="white" fill-opacity="0.3"/>
<path d="M124.615 143.132C124.115 143.132 123.705 142.708 123.705 142.19C123.705 141.672 124.115 141.247 124.615 141.247C125.115 141.247 125.525 141.672 125.525 142.19C125.525 142.708 125.115 143.132 124.615 143.132Z" fill="white" fill-opacity="0.3"/>
<path d="M133.155 143.132C132.655 143.132 132.245 142.708 132.245 142.19C132.245 141.672 132.655 141.247 133.155 141.247C133.655 141.247 134.065 141.672 134.065 142.19C134.065 142.708 133.655 143.132 133.155 143.132Z" fill="white" fill-opacity="0.3"/>
<path d="M141.695 143.132C141.195 143.132 140.785 142.708 140.785 142.19C140.785 141.672 141.195 141.247 141.695 141.247C142.195 141.247 142.605 141.672 142.605 142.19C142.605 142.708 142.195 143.132 141.695 143.132Z" fill="white" fill-opacity="0.3"/>
<path d="M86.1751 151.678C85.6751 151.678 85.2651 151.253 85.2651 150.735C85.2651 150.217 85.6751 149.793 86.1751 149.793C86.6751 149.793 87.0851 150.217 87.0851 150.735C87.0851 151.253 86.6751 151.678 86.1751 151.678Z" fill="white" fill-opacity="0.3"/>
<path d="M94.7152 151.678C94.2152 151.678 93.8052 151.253 93.8052 150.735C93.8052 150.217 94.2152 149.793 94.7152 149.793C95.2152 149.793 95.6252 150.217 95.6252 150.735C95.6252 151.253 95.2152 151.678 94.7152 151.678Z" fill="white" fill-opacity="0.3"/>
<path d="M103.255 151.678C102.755 151.678 102.345 151.253 102.345 150.735C102.345 150.217 102.755 149.793 103.255 149.793C103.755 149.793 104.165 150.217 104.165 150.735C104.165 151.253 103.755 151.678 103.255 151.678Z" fill="white" fill-opacity="0.3"/>
<path d="M111.795 151.678C111.295 151.678 110.885 151.253 110.885 150.735C110.885 150.217 111.295 149.793 111.795 149.793C112.295 149.793 112.705 150.217 112.705 150.735C112.705 151.253 112.295 151.678 111.795 151.678Z" fill="white" fill-opacity="0.3"/>
<path d="M120.345 151.678C119.845 151.678 119.435 151.253 119.435 150.735C119.435 150.217 119.845 149.793 120.345 149.793C120.845 149.793 121.255 150.217 121.255 150.735C121.255 151.253 120.845 151.678 120.345 151.678Z" fill="white" fill-opacity="0.3"/>
<path d="M128.885 151.678C128.385 151.678 127.975 151.253 127.975 150.735C127.975 150.217 128.385 149.793 128.885 149.793C129.385 149.793 129.795 150.217 129.795 150.735C129.795 151.253 129.385 151.678 128.885 151.678Z" fill="white" fill-opacity="0.3"/>
<path d="M137.425 151.678C136.925 151.678 136.515 151.253 136.515 150.735C136.515 150.217 136.925 149.793 137.425 149.793C137.925 149.793 138.335 150.217 138.335 150.735C138.335 151.253 137.925 151.678 137.425 151.678Z" fill="white" fill-opacity="0.3"/>
<path d="M98.9847 160.224C98.4847 160.224 98.0747 159.799 98.0747 159.281C98.0747 158.763 98.4847 158.338 98.9847 158.338C99.4847 158.338 99.8947 158.763 99.8947 159.281C99.8947 159.799 99.4847 160.224 98.9847 160.224Z" fill="white" fill-opacity="0.3"/>
<path d="M107.525 160.224C107.025 160.224 106.615 159.799 106.615 159.281C106.615 158.763 107.025 158.338 107.525 158.338C108.025 158.338 108.435 158.763 108.435 159.281C108.435 159.799 108.025 160.224 107.525 160.224Z" fill="white" fill-opacity="0.3"/>
<path d="M116.065 160.224C115.565 160.224 115.155 159.799 115.155 159.281C115.155 158.763 115.565 158.338 116.065 158.338C116.565 158.338 116.975 158.763 116.975 159.281C116.975 159.799 116.565 160.224 116.065 160.224Z" fill="white" fill-opacity="0.3"/>
<path d="M124.615 160.224C124.115 160.224 123.705 159.799 123.705 159.281C123.705 158.763 124.115 158.338 124.615 158.338C125.115 158.338 125.525 158.763 125.525 159.281C125.525 159.799 125.115 160.224 124.615 160.224Z" fill="white" fill-opacity="0.3"/>
<path d="M98.195 166.76H93.915V168.21H98.195V166.76Z" fill="#797979" fill-opacity="0.4"/>
<path d="M98.195 171.234H93.915V172.685H98.195V171.234Z" fill="#797979" fill-opacity="0.4"/>
<path d="M98.195 175.709H93.915V177.16H98.195V175.709Z" fill="#797979" fill-opacity="0.4"/>
<path d="M98.195 180.174H93.915V181.624H98.195V180.174Z" fill="#797979" fill-opacity="0.4"/>
<path d="M98.195 184.649H93.915V186.099H98.195V184.649Z" fill="#797979" fill-opacity="0.4"/>
<path d="M98.195 189.123H93.915V190.573H98.195V189.123Z" fill="#797979" fill-opacity="0.4"/>
<path d="M98.195 193.598H93.915V195.048H98.195V193.598Z" fill="#797979" fill-opacity="0.4"/>
<path d="M98.195 198.073H93.915V199.523H98.195V198.073Z" fill="#797979" fill-opacity="0.4"/>
<path d="M98.195 202.537H93.915V203.988H98.195V202.537Z" fill="#797979" fill-opacity="0.4"/>
<path d="M98.195 207.012H93.915V208.462H98.195V207.012Z" fill="#797979" fill-opacity="0.4"/>
<path d="M98.195 211.487H93.915V212.937H98.195V211.487Z" fill="#797979" fill-opacity="0.4"/>
<path d="M98.195 215.962H93.915V217.412H98.195V215.962Z" fill="#797979" fill-opacity="0.4"/>
<path d="M98.195 220.436H93.915V221.886H98.195V220.436Z" fill="#797979" fill-opacity="0.4"/>
<path d="M98.195 224.901H93.915V226.351H98.195V224.901Z" fill="#797979" fill-opacity="0.4"/>
<path d="M98.195 229.376H93.915V230.826H98.195V229.376Z" fill="#797979" fill-opacity="0.4"/>
<path d="M98.195 233.85H93.915V235.301H98.195V233.85Z" fill="#797979" fill-opacity="0.4"/>
<path d="M98.195 238.325H93.915V239.775H98.195V238.325Z" fill="#797979" fill-opacity="0.4"/>
<path d="M98.195 242.8H93.915V244.25H98.195V242.8Z" fill="#797979" fill-opacity="0.4"/>
<path d="M98.195 247.265H93.915V248.715H98.195V247.265Z" fill="#797979" fill-opacity="0.4"/>
<path d="M98.195 251.739H93.915V253.189H98.195V251.739Z" fill="#797979" fill-opacity="0.4"/>
<path d="M98.195 256.214H93.915V257.664H98.195V256.214Z" fill="#797979" fill-opacity="0.4"/>
<path d="M98.195 260.689H93.915V262.139H98.195V260.689Z" fill="#797979" fill-opacity="0.4"/>
<path d="M98.195 265.164H93.915V266.614H98.195V265.164Z" fill="#797979" fill-opacity="0.4"/>
<path d="M98.195 269.628H93.915V271.078H98.195V269.628Z" fill="#797979" fill-opacity="0.4"/>
<path d="M98.195 274.103H93.915V275.553H98.195V274.103Z" fill="#797979" fill-opacity="0.4"/>
<path d="M98.195 278.578H93.915V280.028H98.195V278.578Z" fill="#797979" fill-opacity="0.4"/>
<path d="M98.195 283.052H93.915V284.503H98.195V283.052Z" fill="#797979" fill-opacity="0.4"/>
<path d="M98.195 287.527H93.915V288.977H98.195V287.527Z" fill="#797979" fill-opacity="0.4"/>
<path d="M98.195 291.991H93.915V293.442H98.195V291.991Z" fill="#797979" fill-opacity="0.4"/>
<path d="M98.195 296.467H93.915V297.917H98.195V296.467Z" fill="#797979" fill-opacity="0.4"/>
<path d="M98.195 300.941H93.915V302.391H98.195V300.941Z" fill="#797979" fill-opacity="0.4"/>
<path d="M98.195 305.416H93.915V306.866H98.195V305.416Z" fill="#797979" fill-opacity="0.4"/>
<path d="M98.195 309.891H93.915V311.341H98.195V309.891Z" fill="#797979" fill-opacity="0.4"/>
<path d="M98.195 314.355H93.915V315.806H98.195V314.355Z" fill="#797979" fill-opacity="0.4"/>
<path d="M98.195 318.83H93.915V320.28H98.195V318.83Z" fill="#797979" fill-opacity="0.4"/>
<path d="M98.195 323.305H93.915V324.755H98.195V323.305Z" fill="#797979" fill-opacity="0.4"/>
<path d="M98.195 327.78H93.915V329.23H98.195V327.78Z" fill="#797979" fill-opacity="0.4"/>
<path d="M98.195 332.254H93.915V333.704H98.195V332.254Z" fill="#797979" fill-opacity="0.4"/>
<path d="M127.675 166.76H123.395V168.21H127.675V166.76Z" fill="#797979" fill-opacity="0.4"/>
<path d="M127.675 171.234H123.395V172.685H127.675V171.234Z" fill="#797979" fill-opacity="0.4"/>
<path d="M127.675 175.709H123.395V177.16H127.675V175.709Z" fill="#797979" fill-opacity="0.4"/>
<path d="M127.675 180.174H123.395V181.624H127.675V180.174Z" fill="#797979" fill-opacity="0.4"/>
<path d="M127.675 184.649H123.395V186.099H127.675V184.649Z" fill="#797979" fill-opacity="0.4"/>
<path d="M127.675 189.123H123.395V190.573H127.675V189.123Z" fill="#797979" fill-opacity="0.4"/>
<path d="M127.675 193.598H123.395V195.048H127.675V193.598Z" fill="#797979" fill-opacity="0.4"/>
<path d="M127.675 198.073H123.395V199.523H127.675V198.073Z" fill="#797979" fill-opacity="0.4"/>
<path d="M127.675 202.537H123.395V203.988H127.675V202.537Z" fill="#797979" fill-opacity="0.4"/>
<path d="M127.675 207.012H123.395V208.462H127.675V207.012Z" fill="#797979" fill-opacity="0.4"/>
<path d="M127.675 211.487H123.395V212.937H127.675V211.487Z" fill="#797979" fill-opacity="0.4"/>
<path d="M127.675 215.962H123.395V217.412H127.675V215.962Z" fill="#797979" fill-opacity="0.4"/>
<path d="M127.675 220.436H123.395V221.886H127.675V220.436Z" fill="#797979" fill-opacity="0.4"/>
<path d="M127.675 224.901H123.395V226.351H127.675V224.901Z" fill="#797979" fill-opacity="0.4"/>
<path d="M127.675 229.376H123.395V230.826H127.675V229.376Z" fill="#797979" fill-opacity="0.4"/>
<path d="M127.675 233.85H123.395V235.301H127.675V233.85Z" fill="#797979" fill-opacity="0.4"/>
<path d="M127.675 238.325H123.395V239.775H127.675V238.325Z" fill="#797979" fill-opacity="0.4"/>
<path d="M127.675 242.8H123.395V244.25H127.675V242.8Z" fill="#797979" fill-opacity="0.4"/>
<path d="M127.675 247.265H123.395V248.715H127.675V247.265Z" fill="#797979" fill-opacity="0.4"/>
<path d="M127.675 251.739H123.395V253.189H127.675V251.739Z" fill="#797979" fill-opacity="0.4"/>
<path d="M127.675 256.214H123.395V257.664H127.675V256.214Z" fill="#797979" fill-opacity="0.4"/>
<path d="M127.675 260.689H123.395V262.139H127.675V260.689Z" fill="#797979" fill-opacity="0.4"/>
<path d="M127.675 265.164H123.395V266.614H127.675V265.164Z" fill="#797979" fill-opacity="0.4"/>
<path d="M127.675 269.628H123.395V271.078H127.675V269.628Z" fill="#797979" fill-opacity="0.4"/>
<path d="M127.675 274.103H123.395V275.553H127.675V274.103Z" fill="#797979" fill-opacity="0.4"/>
<path d="M127.675 278.578H123.395V280.028H127.675V278.578Z" fill="#797979" fill-opacity="0.4"/>
<path d="M127.675 283.052H123.395V284.503H127.675V283.052Z" fill="#797979" fill-opacity="0.4"/>
<path d="M127.675 287.527H123.395V288.977H127.675V287.527Z" fill="#797979" fill-opacity="0.4"/>
<path d="M127.675 291.991H123.395V293.442H127.675V291.991Z" fill="#797979" fill-opacity="0.4"/>
<path d="M127.675 296.467H123.395V297.917H127.675V296.467Z" fill="#797979" fill-opacity="0.4"/>
<path d="M127.675 300.941H123.395V302.391H127.675V300.941Z" fill="#797979" fill-opacity="0.4"/>
<path d="M127.675 305.416H123.395V306.866H127.675V305.416Z" fill="#797979" fill-opacity="0.4"/>
<path d="M127.675 309.891H123.395V311.341H127.675V309.891Z" fill="#797979" fill-opacity="0.4"/>
<path d="M127.675 314.355H123.395V315.806H127.675V314.355Z" fill="#797979" fill-opacity="0.4"/>
<path d="M127.675 318.83H123.395V320.28H127.675V318.83Z" fill="#797979" fill-opacity="0.4"/>
<path d="M127.675 323.305H123.395V324.755H127.675V323.305Z" fill="#797979" fill-opacity="0.4"/>
<path d="M127.675 327.78H123.395V329.23H127.675V327.78Z" fill="#797979" fill-opacity="0.4"/>
<path d="M127.675 332.254H123.395V333.704H127.675V332.254Z" fill="#797979" fill-opacity="0.4"/>
<path d="M116.135 166.76H105.455V168.21H116.135V166.76Z" fill="#797979" fill-opacity="0.4"/>
<path d="M116.135 171.234H105.455V172.685H116.135V171.234Z" fill="#797979" fill-opacity="0.4"/>
<path d="M116.135 175.709H105.455V177.16H116.135V175.709Z" fill="#797979" fill-opacity="0.4"/>
<path d="M116.135 180.174H105.455V181.624H116.135V180.174Z" fill="#797979" fill-opacity="0.4"/>
<path d="M116.135 184.649H105.455V186.099H116.135V184.649Z" fill="#797979" fill-opacity="0.4"/>
<path d="M116.135 189.123H105.455V190.573H116.135V189.123Z" fill="#797979" fill-opacity="0.4"/>
<path d="M116.135 193.598H105.455V195.048H116.135V193.598Z" fill="#797979" fill-opacity="0.4"/>
<path d="M116.135 198.073H105.455V199.523H116.135V198.073Z" fill="#797979" fill-opacity="0.4"/>
<path d="M116.135 202.537H105.455V203.988H116.135V202.537Z" fill="#797979" fill-opacity="0.4"/>
<path d="M116.135 207.012H105.455V208.462H116.135V207.012Z" fill="#797979" fill-opacity="0.4"/>
<path d="M116.135 211.487H105.455V212.937H116.135V211.487Z" fill="#797979" fill-opacity="0.4"/>
<path d="M116.135 215.962H105.455V217.412H116.135V215.962Z" fill="#797979" fill-opacity="0.4"/>
<path d="M116.135 220.436H105.455V221.886H116.135V220.436Z" fill="#797979" fill-opacity="0.4"/>
<path d="M116.135 224.901H105.455V226.351H116.135V224.901Z" fill="#797979" fill-opacity="0.4"/>
<path d="M116.135 229.376H105.455V230.826H116.135V229.376Z" fill="#797979" fill-opacity="0.4"/>
<path d="M116.135 233.85H105.455V235.301H116.135V233.85Z" fill="#797979" fill-opacity="0.4"/>
<path d="M116.135 238.325H105.455V239.775H116.135V238.325Z" fill="#797979" fill-opacity="0.4"/>
<path d="M116.135 242.8H105.455V244.25H116.135V242.8Z" fill="#797979" fill-opacity="0.4"/>
<path d="M116.135 247.265H105.455V248.715H116.135V247.265Z" fill="#797979" fill-opacity="0.4"/>
<path d="M116.135 251.739H105.455V253.189H116.135V251.739Z" fill="#797979" fill-opacity="0.4"/>
<path d="M116.135 256.214H105.455V257.664H116.135V256.214Z" fill="#797979" fill-opacity="0.4"/>
<path d="M116.135 260.689H105.455V262.139H116.135V260.689Z" fill="#797979" fill-opacity="0.4"/>
<path d="M116.135 265.164H105.455V266.614H116.135V265.164Z" fill="#797979" fill-opacity="0.4"/>
<path d="M116.135 269.628H105.455V271.078H116.135V269.628Z" fill="#797979" fill-opacity="0.4"/>
<path d="M116.135 274.103H105.455V275.553H116.135V274.103Z" fill="#797979" fill-opacity="0.4"/>
<path d="M116.135 278.578H105.455V280.028H116.135V278.578Z" fill="#797979" fill-opacity="0.4"/>
<path d="M116.135 283.052H105.455V284.503H116.135V283.052Z" fill="#797979" fill-opacity="0.4"/>
<path d="M116.135 287.527H105.455V288.977H116.135V287.527Z" fill="#797979" fill-opacity="0.4"/>
<path d="M116.135 291.991H105.455V293.442H116.135V291.991Z" fill="#797979" fill-opacity="0.4"/>
<path d="M116.135 296.467H105.455V297.917H116.135V296.467Z" fill="#797979" fill-opacity="0.4"/>
<path d="M116.135 300.941H105.455V302.391H116.135V300.941Z" fill="#797979" fill-opacity="0.4"/>
<path d="M116.135 305.416H105.455V306.866H116.135V305.416Z" fill="#797979" fill-opacity="0.4"/>
<path d="M116.135 309.891H105.455V311.341H116.135V309.891Z" fill="#797979" fill-opacity="0.4"/>
<path d="M116.135 314.355H105.455V315.806H116.135V314.355Z" fill="#797979" fill-opacity="0.4"/>
<path d="M116.135 318.83H105.455V320.28H116.135V318.83Z" fill="#797979" fill-opacity="0.4"/>
<path d="M116.135 323.305H105.455V324.755H116.135V323.305Z" fill="#797979" fill-opacity="0.4"/>
<path d="M116.135 327.78H105.455V329.23H116.135V327.78Z" fill="#797979" fill-opacity="0.4"/>
<path d="M116.135 332.254H105.455V333.704H116.135V332.254Z" fill="#797979" fill-opacity="0.4"/>
<path opacity="0.38" d="M512.391 231.225C511.715 230.292 510.998 229.45 510.199 228.787C506.636 225.928 501.68 227.162 498.834 222.978C497.359 220.811 496.601 217.379 494.595 216.446C491.83 215.182 488.963 219.818 486.198 218.553C483.372 217.229 483.454 211.57 482.43 207.537C481.242 202.841 477.72 199.59 474.259 200.042C470.798 200.493 467.747 204.617 467.194 209.584C463.467 208.62 459.166 207.838 456.34 211.45C455.009 213.135 454.231 215.543 453.145 217.56C450.524 222.466 445.896 224.935 441.698 223.7C439.547 223.068 437.581 221.563 435.554 220.45C433.506 219.336 431.233 218.553 429.144 219.486C426.42 220.66 425.519 225.025 422.796 226.44C421.178 227.282 419.703 227.734 418.311 229.359C418.106 229.6 417.553 230.352 417 231.286H512.391V231.225Z" fill="#2B2D34"/>
<path d="M311.373 49.2396H304.173L305.997 24.3054H311.373V49.2396Z" fill="#1F2026"/>
<path d="M311.918 49.6588H303.619L305.507 23.8865H311.918V49.6588ZM304.75 48.8207H310.851V24.7246H306.51L304.75 48.8207Z" fill="#2B2D34"/>
<path d="M311.373 24.3055H307.106L309.24 0.418945H311.373V24.3055Z" fill="#1F2026"/>
<path d="M311.918 24.7247H306.542L308.75 0H311.918V24.7247ZM307.694 23.8865H310.851V0.838124H309.753L307.694 23.8865Z" fill="#2B2D34"/>
<path d="M343.65 78.834V112.485H336.525V28.6052L281.272 52.6175V346.564H330.733H336.525H343.65H354.637H389.804V98.8819L343.65 78.834Z" fill="#1F2026"/>
<path d="M390.336 346.983H280.738V52.366L337.057 27.8928V112.066H343.116V78.1132L390.326 98.6305V346.983H390.336ZM281.805 346.145H389.27V99.1333L344.193 79.5464V112.912H336.001V29.3176L281.816 52.8689V346.154L281.805 346.145Z" fill="#2B2D34"/>
<path d="M451.938 149.165H395.523V332.488H451.938V149.165Z" fill="#1F2026"/>
<path d="M452.482 332.899H395V148.738H452.482V332.899ZM396.067 332.061H451.415V149.576H396.067V332.061Z" fill="#2B2D34"/>
<path d="M451.938 145.084H395.523V149.165H451.938V145.084Z" fill="#1F2026"/>
<path d="M452.482 149.585H395V144.665H452.482V149.585ZM396.067 148.746H451.415V145.503H396.067V148.746Z" fill="#2B2D34"/>
<path d="M433.016 138.698H423.736H414.456V145.084H433.016V138.698Z" fill="#1F2026"/>
<path d="M433.548 145.503H413.922V138.287H433.548V145.503ZM414.989 144.665H432.482V139.125H414.989V144.665Z" fill="#2B2D34"/>
<path d="M403.234 141.89H399.17V145.084H403.234V141.89Z" fill="#1F2026"/>
<path d="M403.767 145.503H398.636V141.471H403.767V145.503ZM399.703 144.665H402.7V142.31H399.703V144.665Z" fill="#2B2D34"/>
<path d="M444.228 145.084H448.292V141.89H444.228V145.084Z" fill="#1F2026"/>
<path d="M448.824 145.503H443.694V141.471H448.824V145.503ZM444.76 144.665H447.758V142.31H444.76V144.665Z" fill="#2B2D34"/>
<path d="M424.27 110H423.202V138.697H424.27V110Z" fill="#2B2D34"/>
<path d="M451.937 155.066H395.522V155.904H451.937V155.066Z" fill="#2B2D34"/>
<path d="M451.937 161.385H395.522V162.223H451.937V161.385Z" fill="#2B2D34"/>
<path d="M451.937 167.705H395.522V168.543H451.937V167.705Z" fill="#2B2D34"/>
<path d="M451.937 174.033H395.522V174.871H451.937V174.033Z" fill="#2B2D34"/>
<path d="M451.937 180.352H395.522V181.19H451.937V180.352Z" fill="#2B2D34"/>
<path d="M451.937 186.672H395.522V187.51H451.937V186.672Z" fill="#2B2D34"/>
<path d="M451.937 192.991H395.522V193.829H451.937V192.991Z" fill="#2B2D34"/>
<path d="M451.937 199.319H395.522V200.157H451.937V199.319Z" fill="#2B2D34"/>
<path d="M451.937 205.638H395.522V206.477H451.937V205.638Z" fill="#2B2D34"/>
<path d="M451.937 211.958H395.522V212.796H451.937V211.958Z" fill="#2B2D34"/>
<path d="M451.937 218.278H395.522V219.116H451.937V218.278Z" fill="#2B2D34"/>
<path d="M451.937 224.597H395.522V225.435H451.937V224.597Z" fill="#2B2D34"/>
<path d="M451.937 230.925H395.522V231.763H451.937V230.925Z" fill="#2B2D34"/>
<path d="M451.937 237.244H395.522V238.082H451.937V237.244Z" fill="#2B2D34"/>
<path d="M451.937 243.564H395.522V244.402H451.937V243.564Z" fill="#2B2D34"/>
<path d="M451.937 249.883H395.522V250.721H451.937V249.883Z" fill="#2B2D34"/>
<path d="M451.937 256.211H395.522V257.049H451.937V256.211Z" fill="#2B2D34"/>
<path d="M451.937 262.53H395.522V263.368H451.937V262.53Z" fill="#2B2D34"/>
<path d="M451.937 268.85H395.522V269.688H451.937V268.85Z" fill="#2B2D34"/>
<path d="M451.937 275.169H395.522V276.007H451.937V275.169Z" fill="#2B2D34"/>
<path d="M451.937 281.497H395.522V282.335H451.937V281.497Z" fill="#2B2D34"/>
<path d="M451.937 287.816H395.522V288.654H451.937V287.816Z" fill="#2B2D34"/>
<path d="M451.937 294.136H395.522V294.974H451.937V294.136Z" fill="#2B2D34"/>
<path d="M451.937 300.455H395.522V301.293H451.937V300.455Z" fill="#2B2D34"/>
<path d="M451.937 306.775H395.522V307.613H451.937V306.775Z" fill="#2B2D34"/>
<path d="M451.937 313.102H395.522V313.94H451.937V313.102Z" fill="#2B2D34"/>
<path d="M451.937 319.422H395.522V320.26H451.937V319.422Z" fill="#2B2D34"/>
<path d="M451.937 325.741H395.522V326.58H451.937V325.741Z" fill="#2B2D34"/>
<path d="M408.389 149.166H407.321V332.489H408.389V149.166Z" fill="#2B2D34"/>
<path d="M417.626 149.166H416.558V332.489H417.626V149.166Z" fill="#2B2D34"/>
<path d="M336.259 31.5666L281.014 55.5986L281.531 56.3319L336.775 32.2999L336.259 31.5666Z" fill="#2B2D34"/>
<path d="M343.881 81.5619L343.365 82.2954L389.515 102.346L390.031 101.613L343.881 81.5619Z" fill="#2B2D34"/>
<path d="M336.493 65.6587H281.272V66.4968H336.493V65.6587Z" fill="#2B2D34"/>
<path d="M336.493 68.2402H281.272V69.0784H336.493V68.2402Z" fill="#2B2D34"/>
<path d="M336.493 79.4878H281.272V80.3259H336.493V79.4878Z" fill="#2B2D34"/>
<path d="M336.493 82.0693H281.272V82.9075H336.493V82.0693Z" fill="#2B2D34"/>
<path d="M389.794 103.952H343.597V104.791H389.794V103.952Z" fill="#2B2D34"/>
<path d="M389.794 106.542H343.597V107.381H389.794V106.542Z" fill="#2B2D34"/>
<path d="M389.804 112.065H281.272V112.904H389.804V112.065Z" fill="#2B2D34"/>
<path d="M336.525 103.952H281.272V104.791H336.525V103.952Z" fill="#2B2D34"/>
<path d="M336.525 95.8479H281.272V96.686H336.525V95.8479Z" fill="#2B2D34"/>
<path d="M336.525 87.7346H281.272V88.5727H336.525V87.7346Z" fill="#2B2D34"/>
<path d="M389.804 120.103H281.272V120.941H389.804V120.103Z" fill="#2B2D34"/>
<path d="M389.804 128.141H281.272V128.979H389.804V128.141Z" fill="#2B2D34"/>
<path d="M389.804 136.178H281.272V137.016H389.804V136.178Z" fill="#2B2D34"/>
<path d="M389.804 144.208H281.272V145.046H389.804V144.208Z" fill="#2B2D34"/>
<path d="M389.804 152.245H281.272V153.083H389.804V152.245Z" fill="#2B2D34"/>
<path d="M389.804 160.283H281.272V161.121H389.804V160.283Z" fill="#2B2D34"/>
<path d="M389.804 168.32H281.272V169.158H389.804V168.32Z" fill="#2B2D34"/>
<path d="M389.804 176.35H281.272V177.188H389.804V176.35Z" fill="#2B2D34"/>
<path d="M389.804 184.387H281.272V185.225H389.804V184.387Z" fill="#2B2D34"/>
<path d="M389.804 192.425H281.272V193.263H389.804V192.425Z" fill="#2B2D34"/>
<path d="M389.804 200.462H281.272V201.301H389.804V200.462Z" fill="#2B2D34"/>
<path d="M389.804 208.491H281.272V209.329H389.804V208.491Z" fill="#2B2D34"/>
<path d="M389.804 216.529H281.272V217.367H389.804V216.529Z" fill="#2B2D34"/>
<path d="M389.804 224.567H281.272V225.405H389.804V224.567Z" fill="#2B2D34"/>
<path d="M389.804 232.596H281.272V233.434H389.804V232.596Z" fill="#2B2D34"/>
<path d="M389.804 240.634H281.272V241.472H389.804V240.634Z" fill="#2B2D34"/>
<path d="M389.804 248.671H281.272V249.51H389.804V248.671Z" fill="#2B2D34"/>
<path d="M389.804 256.709H281.272V257.547H389.804V256.709Z" fill="#2B2D34"/>
<path d="M389.804 264.738H281.272V265.576H389.804V264.738Z" fill="#2B2D34"/>
<path d="M389.804 272.776H281.272V273.614H389.804V272.776Z" fill="#2B2D34"/>
<path d="M389.804 280.813H281.272V281.651H389.804V280.813Z" fill="#2B2D34"/>
<path d="M389.804 288.851H281.272V289.689H389.804V288.851Z" fill="#2B2D34"/>
<path d="M203.237 188.536H134.523V346.572H203.237V188.536Z" fill="#1F2026"/>
<path d="M203.769 346.983H134V188.108H203.769V346.983ZM135.067 346.145H202.703V188.947H135.067V346.145Z" fill="#2B2D34"/>
<path d="M203.237 182.208H134.523V188.527H203.237V182.208Z" fill="#1F2026"/>
<path d="M203.769 188.955H134V181.797H203.769V188.955ZM135.067 188.117H202.703V182.635H135.067V188.117Z" fill="#2B2D34"/>
<path d="M224.488 188.536H203.241V346.572H224.488V188.536Z" fill="#1F2026"/>
<path d="M225.021 346.983H202.707V188.108H225.021V346.983ZM203.773 346.145H223.954V188.947H203.773V346.145Z" fill="#2B2D34"/>
<path d="M145.851 192.014H138.139V197.688H145.851V192.014Z" fill="#2B2D34"/>
<path d="M146.383 198.107H137.604V191.595H146.383V198.107ZM138.671 197.269H145.316V192.433H138.671V197.269Z" fill="#2B2D34"/>
<path d="M159.079 192.014H151.367V197.688H159.079V192.014Z" fill="#2B2D34"/>
<path d="M159.611 198.107H150.833V191.595H159.611V198.107ZM151.899 197.269H158.544V192.433H151.899V197.269Z" fill="#2B2D34"/>
<path d="M172.304 192.014H164.592V197.688H172.304V192.014Z" fill="#2B2D34"/>
<path d="M172.838 198.107H164.059V191.595H172.838V198.107ZM165.126 197.269H171.771V192.433H165.126V197.269Z" fill="#2B2D34"/>
<path d="M185.53 192.014H177.818V197.688H185.53V192.014Z" fill="#2B2D34"/>
<path d="M186.073 198.107H177.295V191.595H186.073V198.107ZM178.362 197.269H185.007V192.433H178.362V197.269Z" fill="#2B2D34"/>
<path d="M198.757 192.014H191.045V197.688H198.757V192.014Z" fill="#2B2D34"/>
<path d="M199.3 198.107H190.522V191.595H199.3V198.107ZM191.589 197.269H198.234V192.433H191.589V197.269Z" fill="#2B2D34"/>
<path d="M145.851 201.175H138.139V206.849H145.851V201.175Z" fill="#2B2D34"/>
<path d="M146.383 207.268H137.604V200.755H146.383V207.268ZM138.671 206.429H145.316V201.593H138.671V206.429Z" fill="#2B2D34"/>
<path d="M159.079 201.175H151.367V206.849H159.079V201.175Z" fill="#2B2D34"/>
<path d="M159.611 207.268H150.833V200.756H159.611V207.268ZM151.899 206.43H158.544V201.594H151.899V206.43Z" fill="#2B2D34"/>
<path d="M172.304 201.175H164.592V206.849H172.304V201.175Z" fill="#2B2D34"/>
<path d="M172.838 207.268H164.059V200.755H172.838V207.268ZM165.126 206.429H171.771V201.593H165.126V206.429Z" fill="#2B2D34"/>
<path d="M185.53 201.175H177.818V206.849H185.53V201.175Z" fill="#2B2D34"/>
<path d="M186.073 207.268H177.295V200.755H186.073V207.268ZM178.362 206.429H185.007V201.593H178.362V206.429Z" fill="#2B2D34"/>
<path d="M198.757 201.175H191.045V206.849H198.757V201.175Z" fill="#2B2D34"/>
<path d="M199.3 207.268H190.522V200.756H199.3V207.268ZM191.589 206.43H198.234V201.594H191.589V206.43Z" fill="#2B2D34"/>
<path d="M145.851 210.335H138.139V216.01H145.851V210.335Z" fill="#2B2D34"/>
<path d="M146.383 216.429H137.604V209.917H146.383V216.429ZM138.671 215.591H145.316V210.755H138.671V215.591Z" fill="#2B2D34"/>
<path d="M159.079 210.335H151.367V216.01H159.079V210.335Z" fill="#2B2D34"/>
<path d="M159.611 216.429H150.833V209.917H159.611V216.429ZM151.899 215.591H158.544V210.755H151.899V215.591Z" fill="#2B2D34"/>
<path d="M172.304 210.335H164.592V216.01H172.304V210.335Z" fill="#2B2D34"/>
<path d="M172.838 216.429H164.059V209.917H172.838V216.429ZM165.126 215.591H171.771V210.755H165.126V215.591Z" fill="#2B2D34"/>
<path d="M185.53 210.335H177.818V216.01H185.53V210.335Z" fill="#2B2D34"/>
<path d="M186.073 216.429H177.295V209.917H186.073V216.429ZM178.362 215.591H185.007V210.755H178.362V215.591Z" fill="#2B2D34"/>
<path d="M198.757 210.335H191.045V216.01H198.757V210.335Z" fill="#2B2D34"/>
<path d="M199.3 216.429H190.522V209.917H199.3V216.429ZM191.589 215.591H198.234V210.755H191.589V215.591Z" fill="#2B2D34"/>
<path d="M145.851 219.496H138.139V225.17H145.851V219.496Z" fill="#2B2D34"/>
<path d="M146.383 225.589H137.604V219.077H146.383V225.589ZM138.671 224.751H145.316V219.915H138.671V224.751Z" fill="#2B2D34"/>
<path d="M159.079 219.497H151.367V225.171H159.079V219.497Z" fill="#2B2D34"/>
<path d="M159.611 225.59H150.833V219.078H159.611V225.59ZM151.899 224.752H158.544V219.916H151.899V224.752Z" fill="#2B2D34"/>
<path d="M172.304 219.496H164.592V225.17H172.304V219.496Z" fill="#2B2D34"/>
<path d="M172.838 225.589H164.059V219.077H172.838V225.589ZM165.126 224.751H171.771V219.915H165.126V224.751Z" fill="#2B2D34"/>
<path d="M185.53 219.496H177.818V225.17H185.53V219.496Z" fill="#2B2D34"/>
<path d="M186.073 225.589H177.295V219.077H186.073V225.589ZM178.362 224.751H185.007V219.915H178.362V224.751Z" fill="#2B2D34"/>
<path d="M198.757 219.497H191.045V225.171H198.757V219.497Z" fill="#2B2D34"/>
<path d="M199.3 225.59H190.522V219.078H199.3V225.59ZM191.589 224.752H198.234V219.916H191.589V224.752Z" fill="#2B2D34"/>
<path d="M145.851 228.657H138.139V234.331H145.851V228.657Z" fill="#2B2D34"/>
<path d="M146.383 234.75H137.604V228.238H146.383V234.75ZM138.671 233.912H145.316V229.076H138.671V233.912Z" fill="#2B2D34"/>
<path d="M159.079 228.657H151.367V234.331H159.079V228.657Z" fill="#2B2D34"/>
<path d="M159.611 234.75H150.833V228.238H159.611V234.75ZM151.899 233.912H158.544V229.076H151.899V233.912Z" fill="#2B2D34"/>
<path d="M172.304 228.657H164.592V234.331H172.304V228.657Z" fill="#2B2D34"/>
<path d="M172.838 234.75H164.059V228.238H172.838V234.75ZM165.126 233.912H171.771V229.076H165.126V233.912Z" fill="#2B2D34"/>
<path d="M185.53 228.657H177.818V234.331H185.53V228.657Z" fill="#2B2D34"/>
<path d="M186.073 234.75H177.295V228.238H186.073V234.75ZM178.362 233.912H185.007V229.076H178.362V233.912Z" fill="#2B2D34"/>
<path d="M198.757 228.657H191.045V234.331H198.757V228.657Z" fill="#2B2D34"/>
<path d="M199.3 234.75H190.522V228.238H199.3V234.75ZM191.589 233.912H198.234V229.076H191.589V233.912Z" fill="#2B2D34"/>
<path d="M145.851 237.81H138.139V243.484H145.851V237.81Z" fill="#2B2D34"/>
<path d="M146.383 243.911H137.604V237.398H146.383V243.911ZM138.671 243.073H145.316V238.237H138.671V243.073Z" fill="#2B2D34"/>
<path d="M159.079 237.809H151.367V243.483H159.079V237.809Z" fill="#2B2D34"/>
<path d="M159.611 243.911H150.833V237.398H159.611V243.911ZM151.899 243.073H158.544V238.237H151.899V243.073Z" fill="#2B2D34"/>
<path d="M172.304 237.81H164.592V243.484H172.304V237.81Z" fill="#2B2D34"/>
<path d="M172.838 243.911H164.059V237.398H172.838V243.911ZM165.126 243.073H171.771V238.237H165.126V243.073Z" fill="#2B2D34"/>
<path d="M185.53 237.81H177.818V243.484H185.53V237.81Z" fill="#2B2D34"/>
<path d="M186.073 243.911H177.295V237.398H186.073V243.911ZM178.362 243.073H185.007V238.237H178.362V243.073Z" fill="#2B2D34"/>
<path d="M198.757 237.809H191.045V243.483H198.757V237.809Z" fill="#2B2D34"/>
<path d="M199.3 243.911H190.522V237.398H199.3V243.911ZM191.589 243.073H198.234V238.237H191.589V243.073Z" fill="#2B2D34"/>
<path d="M145.851 246.97H138.139V252.644H145.851V246.97Z" fill="#2B2D34"/>
<path d="M146.383 253.071H137.604V246.559H146.383V253.071ZM138.671 252.233H145.316V247.397H138.671V252.233Z" fill="#2B2D34"/>
<path d="M159.079 246.97H151.367V252.644H159.079V246.97Z" fill="#2B2D34"/>
<path d="M159.611 253.071H150.833V246.559H159.611V253.071ZM151.899 252.233H158.544V247.397H151.899V252.233Z" fill="#2B2D34"/>
<path d="M172.304 246.97H164.592V252.644H172.304V246.97Z" fill="#2B2D34"/>
<path d="M172.838 253.071H164.059V246.559H172.838V253.071ZM165.126 252.233H171.771V247.397H165.126V252.233Z" fill="#2B2D34"/>
<path d="M185.53 246.97H177.818V252.644H185.53V246.97Z" fill="#2B2D34"/>
<path d="M186.073 253.071H177.295V246.559H186.073V253.071ZM178.362 252.233H185.007V247.397H178.362V252.233Z" fill="#2B2D34"/>
<path d="M198.757 246.97H191.045V252.644H198.757V246.97Z" fill="#2B2D34"/>
<path d="M199.3 253.071H190.522V246.559H199.3V253.071ZM191.589 252.233H198.234V247.397H191.589V252.233Z" fill="#2B2D34"/>
<path d="M145.851 256.131H138.139V261.805H145.851V256.131Z" fill="#2B2D34"/>
<path d="M146.383 262.224H137.604V255.711H146.383V262.224ZM138.671 261.386H145.316V256.55H138.671V261.386Z" fill="#2B2D34"/>
<path d="M159.079 256.131H151.367V261.805H159.079V256.131Z" fill="#2B2D34"/>
<path d="M159.611 262.224H150.833V255.712H159.611V262.224ZM151.899 261.386H158.544V256.55H151.899V261.386Z" fill="#2B2D34"/>
<path d="M172.304 256.131H164.592V261.805H172.304V256.131Z" fill="#2B2D34"/>
<path d="M172.838 262.224H164.059V255.711H172.838V262.224ZM165.126 261.386H171.771V256.55H165.126V261.386Z" fill="#2B2D34"/>
<path d="M185.53 256.131H177.818V261.805H185.53V256.131Z" fill="#2B2D34"/>
<path d="M186.073 262.224H177.295V255.711H186.073V262.224ZM178.362 261.386H185.007V256.55H178.362V261.386Z" fill="#2B2D34"/>
<path d="M198.757 256.131H191.045V261.805H198.757V256.131Z" fill="#2B2D34"/>
<path d="M199.3 262.224H190.522V255.712H199.3V262.224ZM191.589 261.386H198.234V256.55H191.589V261.386Z" fill="#2B2D34"/>
<path d="M145.851 265.291H138.139V270.965H145.851V265.291Z" fill="#2B2D34"/>
<path d="M146.383 271.384H137.604V264.872H146.383V271.384ZM138.671 270.546H145.316V265.71H138.671V270.546Z" fill="#2B2D34"/>
<path d="M159.079 265.291H151.367V270.965H159.079V265.291Z" fill="#2B2D34"/>
<path d="M159.611 271.384H150.833V264.872H159.611V271.384ZM151.899 270.546H158.544V265.71H151.899V270.546Z" fill="#2B2D34"/>
<path d="M172.304 265.291H164.592V270.965H172.304V265.291Z" fill="#2B2D34"/>
<path d="M172.838 271.384H164.059V264.872H172.838V271.384ZM165.126 270.546H171.771V265.71H165.126V270.546Z" fill="#2B2D34"/>
<path d="M185.53 265.291H177.818V270.965H185.53V265.291Z" fill="#2B2D34"/>
<path d="M186.073 271.384H177.295V264.872H186.073V271.384ZM178.362 270.546H185.007V265.71H178.362V270.546Z" fill="#2B2D34"/>
<path d="M198.757 265.291H191.045V270.965H198.757V265.291Z" fill="#2B2D34"/>
<path d="M199.3 271.384H190.522V264.872H199.3V271.384ZM191.589 270.546H198.234V265.71H191.589V270.546Z" fill="#2B2D34"/>
<path d="M145.851 274.452H138.139V280.126H145.851V274.452Z" fill="#2B2D34"/>
<path d="M146.383 280.545H137.604V274.033H146.383V280.545ZM138.671 279.707H145.316V274.871H138.671V279.707Z" fill="#2B2D34"/>
<path d="M159.079 274.452H151.367V280.126H159.079V274.452Z" fill="#2B2D34"/>
<path d="M159.611 280.545H150.833V274.033H159.611V280.545ZM151.899 279.707H158.544V274.871H151.899V279.707Z" fill="#2B2D34"/>
<path d="M172.304 274.452H164.592V280.126H172.304V274.452Z" fill="#2B2D34"/>
<path d="M172.838 280.545H164.059V274.033H172.838V280.545ZM165.126 279.707H171.771V274.871H165.126V279.707Z" fill="#2B2D34"/>
<path d="M185.53 274.452H177.818V280.126H185.53V274.452Z" fill="#2B2D34"/>
<path d="M186.073 280.545H177.295V274.033H186.073V280.545ZM178.362 279.707H185.007V274.871H178.362V279.707Z" fill="#2B2D34"/>
<path d="M198.757 274.452H191.045V280.126H198.757V274.452Z" fill="#2B2D34"/>
<path d="M199.3 280.545H190.522V274.033H199.3V280.545ZM191.589 279.707H198.234V274.871H191.589V279.707Z" fill="#2B2D34"/>
<path d="M145.851 283.613H138.139V289.287H145.851V283.613Z" fill="#2B2D34"/>
<path d="M146.383 289.706H137.604V283.194H146.383V289.706ZM138.671 288.868H145.316V284.032H138.671V288.868Z" fill="#2B2D34"/>
<path d="M159.079 283.613H151.367V289.287H159.079V283.613Z" fill="#2B2D34"/>
<path d="M159.611 289.706H150.833V283.194H159.611V289.706ZM151.899 288.868H158.544V284.032H151.899V288.868Z" fill="#2B2D34"/>
<path d="M172.304 283.613H164.592V289.287H172.304V283.613Z" fill="#2B2D34"/>
<path d="M172.838 289.706H164.059V283.194H172.838V289.706ZM165.126 288.868H171.771V284.032H165.126V288.868Z" fill="#2B2D34"/>
<path d="M185.53 283.613H177.818V289.287H185.53V283.613Z" fill="#2B2D34"/>
<path d="M186.073 289.706H177.295V283.194H186.073V289.706ZM178.362 288.868H185.007V284.032H178.362V288.868Z" fill="#2B2D34"/>
<path d="M198.757 283.613H191.045V289.287H198.757V283.613Z" fill="#2B2D34"/>
<path d="M199.3 289.706H190.522V283.194H199.3V289.706ZM191.589 288.868H198.234V284.032H191.589V288.868Z" fill="#2B2D34"/>
<path d="M145.851 292.773H138.139V298.448H145.851V292.773Z" fill="#2B2D34"/>
<path d="M146.383 298.866H137.604V292.354H146.383V298.866ZM138.671 298.028H145.316V293.192H138.671V298.028Z" fill="#2B2D34"/>
<path d="M159.079 292.773H151.367V298.448H159.079V292.773Z" fill="#2B2D34"/>
<path d="M159.611 298.867H150.833V292.354H159.611V298.867ZM151.899 298.029H158.544V293.193H151.899V298.029Z" fill="#2B2D34"/>
<path d="M172.304 292.773H164.592V298.448H172.304V292.773Z" fill="#2B2D34"/>
<path d="M172.838 298.866H164.059V292.354H172.838V298.866ZM165.126 298.028H171.771V293.192H165.126V298.028Z" fill="#2B2D34"/>
<path d="M185.53 292.773H177.818V298.448H185.53V292.773Z" fill="#2B2D34"/>
<path d="M186.073 298.866H177.295V292.354H186.073V298.866ZM178.362 298.028H185.007V293.192H178.362V298.028Z" fill="#2B2D34"/>
<path d="M198.757 292.773H191.045V298.448H198.757V292.773Z" fill="#2B2D34"/>
<path d="M199.3 298.867H190.522V292.354H199.3V298.867ZM191.589 298.029H198.234V293.193H191.589V298.029Z" fill="#2B2D34"/>
<path d="M145.851 301.925H138.139V307.599H145.851V301.925Z" fill="#2B2D34"/>
<path d="M146.383 308.027H137.604V301.515H146.383V308.027ZM138.671 307.189H145.316V302.353H138.671V307.189Z" fill="#2B2D34"/>
<path d="M159.079 301.925H151.367V307.599H159.079V301.925Z" fill="#2B2D34"/>
<path d="M159.611 308.027H150.833V301.515H159.611V308.027ZM151.899 307.189H158.544V302.353H151.899V307.189Z" fill="#2B2D34"/>
<path d="M172.304 301.925H164.592V307.599H172.304V301.925Z" fill="#2B2D34"/>
<path d="M172.838 308.027H164.059V301.515H172.838V308.027ZM165.126 307.189H171.771V302.353H165.126V307.189Z" fill="#2B2D34"/>
<path d="M185.53 301.925H177.818V307.599H185.53V301.925Z" fill="#2B2D34"/>
<path d="M186.073 308.027H177.295V301.515H186.073V308.027ZM178.362 307.189H185.007V302.353H178.362V307.189Z" fill="#2B2D34"/>
<path d="M198.757 301.925H191.045V307.599H198.757V301.925Z" fill="#2B2D34"/>
<path d="M199.3 308.027H190.522V301.515H199.3V308.027ZM191.589 307.189H198.234V302.353H191.589V307.189Z" fill="#2B2D34"/>
<path d="M145.851 311.086H138.139V316.76H145.851V311.086Z" fill="#2B2D34"/>
<path d="M146.383 317.179H137.604V310.667H146.383V317.179ZM138.671 316.341H145.316V311.505H138.671V316.341Z" fill="#2B2D34"/>
<path d="M159.079 311.086H151.367V316.76H159.079V311.086Z" fill="#2B2D34"/>
<path d="M159.611 317.179H150.833V310.667H159.611V317.179ZM151.899 316.341H158.544V311.505H151.899V316.341Z" fill="#2B2D34"/>
<path d="M172.304 311.086H164.592V316.76H172.304V311.086Z" fill="#2B2D34"/>
<path d="M172.838 317.179H164.059V310.667H172.838V317.179ZM165.126 316.341H171.771V311.505H165.126V316.341Z" fill="#2B2D34"/>
<path d="M185.53 311.086H177.818V316.76H185.53V311.086Z" fill="#2B2D34"/>
<path d="M186.073 317.179H177.295V310.667H186.073V317.179ZM178.362 316.341H185.007V311.505H178.362V316.341Z" fill="#2B2D34"/>
<path d="M198.757 311.086H191.045V316.76H198.757V311.086Z" fill="#2B2D34"/>
<path d="M199.3 317.179H190.522V310.667H199.3V317.179ZM191.589 316.341H198.234V311.505H191.589V316.341Z" fill="#2B2D34"/>
<path d="M145.851 320.247H138.139V325.921H145.851V320.247Z" fill="#2B2D34"/>
<path d="M146.383 326.34H137.604V319.828H146.383V326.34ZM138.671 325.502H145.316V320.666H138.671V325.502Z" fill="#2B2D34"/>
<path d="M159.079 320.247H151.367V325.921H159.079V320.247Z" fill="#2B2D34"/>
<path d="M159.611 326.34H150.833V319.828H159.611V326.34ZM151.899 325.502H158.544V320.666H151.899V325.502Z" fill="#2B2D34"/>
<path d="M172.304 320.247H164.592V325.921H172.304V320.247Z" fill="#2B2D34"/>
<path d="M172.838 326.34H164.059V319.828H172.838V326.34ZM165.126 325.502H171.771V320.666H165.126V325.502Z" fill="#2B2D34"/>
<path d="M185.53 320.247H177.818V325.921H185.53V320.247Z" fill="#2B2D34"/>
<path d="M186.073 326.34H177.295V319.828H186.073V326.34ZM178.362 325.502H185.007V320.666H178.362V325.502Z" fill="#2B2D34"/>
<path d="M198.757 320.247H191.045V325.921H198.757V320.247Z" fill="#2B2D34"/>
<path d="M199.3 326.34H190.522V319.828H199.3V326.34ZM191.589 325.502H198.234V320.666H191.589V325.502Z" fill="#2B2D34"/>
<path d="M145.851 329.408H138.139V335.082H145.851V329.408Z" fill="#2B2D34"/>
<path d="M146.383 335.501H137.604V328.988H146.383V335.501ZM138.671 334.662H145.316V329.826H138.671V334.662Z" fill="#2B2D34"/>
<path d="M159.079 329.408H151.367V335.082H159.079V329.408Z" fill="#2B2D34"/>
<path d="M159.611 335.501H150.833V328.989H159.611V335.501ZM151.899 334.663H158.544V329.827H151.899V334.663Z" fill="#2B2D34"/>
<path d="M172.304 329.408H164.592V335.082H172.304V329.408Z" fill="#2B2D34"/>
<path d="M172.838 335.501H164.059V328.988H172.838V335.501ZM165.126 334.662H171.771V329.826H165.126V334.662Z" fill="#2B2D34"/>
<path d="M185.53 329.408H177.818V335.082H185.53V329.408Z" fill="#2B2D34"/>
<path d="M186.073 335.501H177.295V328.988H186.073V335.501ZM178.362 334.662H185.007V329.826H178.362V334.662Z" fill="#2B2D34"/>
<path d="M198.757 329.408H191.045V335.082H198.757V329.408Z" fill="#2B2D34"/>
<path d="M199.3 335.501H190.522V328.989H199.3V335.501ZM191.589 334.663H198.234V329.827H191.589V334.663Z" fill="#2B2D34"/>
<path d="M145.851 338.568H138.139V344.242H145.851V338.568Z" fill="#2B2D34"/>
<path d="M146.383 344.662H137.604V338.149H146.383V344.662ZM138.671 343.824H145.316V338.988H138.671V343.824Z" fill="#2B2D34"/>
<path d="M159.079 338.568H151.367V344.242H159.079V338.568Z" fill="#2B2D34"/>
<path d="M159.611 344.662H150.833V338.149H159.611V344.662ZM151.899 343.824H158.544V338.988H151.899V343.824Z" fill="#2B2D34"/>
<path d="M172.304 338.568H164.592V344.242H172.304V338.568Z" fill="#2B2D34"/>
<path d="M172.838 344.662H164.059V338.149H172.838V344.662ZM165.126 343.824H171.771V338.988H165.126V343.824Z" fill="#2B2D34"/>
<path d="M185.53 338.568H177.818V344.242H185.53V338.568Z" fill="#2B2D34"/>
<path d="M186.073 344.662H177.295V338.149H186.073V344.662ZM178.362 343.824H185.007V338.988H178.362V343.824Z" fill="#2B2D34"/>
<path d="M198.757 338.568H191.045V344.242H198.757V338.568Z" fill="#2B2D34"/>
<path d="M199.3 344.662H190.522V338.149H199.3V344.662ZM191.589 343.824H198.234V338.988H191.589V343.824Z" fill="#2B2D34"/>
<path d="M219.752 192.014H203.241V197.688H219.752V192.014Z" fill="#2B2D34"/>
<path d="M220.285 198.107H202.707V191.595H220.285V198.107ZM203.773 197.269H219.218V192.433H203.773V197.269Z" fill="#2B2D34"/>
<path d="M219.752 201.175H203.241V206.849H219.752V201.175Z" fill="#2B2D34"/>
<path d="M220.285 207.268H202.707V200.756H220.285V207.268ZM203.773 206.43H219.218V201.594H203.773V206.43Z" fill="#2B2D34"/>
<path d="M219.752 210.335H203.241V216.01H219.752V210.335Z" fill="#2B2D34"/>
<path d="M220.285 216.429H202.707V209.917H220.285V216.429ZM203.773 215.591H219.218V210.755H203.773V215.591Z" fill="#2B2D34"/>
<path d="M219.752 219.497H203.241V225.171H219.752V219.497Z" fill="#2B2D34"/>
<path d="M220.285 225.59H202.707V219.078H220.285V225.59ZM203.773 224.752H219.218V219.916H203.773V224.752Z" fill="#2B2D34"/>
<path d="M219.752 228.657H203.241V234.331H219.752V228.657Z" fill="#2B2D34"/>
<path d="M220.285 234.75H202.707V228.238H220.285V234.75ZM203.773 233.912H219.218V229.076H203.773V233.912Z" fill="#2B2D34"/>
<path d="M219.752 237.809H203.241V243.483H219.752V237.809Z" fill="#2B2D34"/>
<path d="M220.285 243.911H202.707V237.398H220.285V243.911ZM203.773 243.073H219.218V238.237H203.773V243.073Z" fill="#2B2D34"/>
<path d="M219.752 246.97H203.241V252.644H219.752V246.97Z" fill="#2B2D34"/>
<path d="M220.285 253.071H202.707V246.559H220.285V253.071ZM203.773 252.233H219.218V247.397H203.773V252.233Z" fill="#2B2D34"/>
<path d="M219.752 256.131H203.241V261.805H219.752V256.131Z" fill="#2B2D34"/>
<path d="M220.285 262.224H202.707V255.712H220.285V262.224ZM203.773 261.386H219.218V256.55H203.773V261.386Z" fill="#2B2D34"/>
<path d="M219.752 265.291H203.241V270.965H219.752V265.291Z" fill="#2B2D34"/>
<path d="M220.285 271.384H202.707V264.872H220.285V271.384ZM203.773 270.546H219.218V265.71H203.773V270.546Z" fill="#2B2D34"/>
<path d="M219.752 274.452H203.241V280.126H219.752V274.452Z" fill="#2B2D34"/>
<path d="M220.285 280.545H202.707V274.033H220.285V280.545ZM203.773 279.707H219.218V274.871H203.773V279.707Z" fill="#2B2D34"/>
<path d="M219.752 283.613H203.241V289.287H219.752V283.613Z" fill="#2B2D34"/>
<path d="M220.285 289.706H202.707V283.194H220.285V289.706ZM203.773 288.868H219.218V284.032H203.773V288.868Z" fill="#2B2D34"/>
<path d="M219.752 292.773H203.241V298.448H219.752V292.773Z" fill="#2B2D34"/>
<path d="M220.285 298.867H202.707V292.354H220.285V298.867ZM203.773 298.029H219.218V293.193H203.773V298.029Z" fill="#2B2D34"/>
<path d="M219.752 301.925H203.241V307.599H219.752V301.925Z" fill="#2B2D34"/>
<path d="M220.285 308.027H202.707V301.515H220.285V308.027ZM203.773 307.189H219.218V302.353H203.773V307.189Z" fill="#2B2D34"/>
<path d="M219.752 311.086H203.241V316.76H219.752V311.086Z" fill="#2B2D34"/>
<path d="M220.285 317.179H202.707V310.667H220.285V317.179ZM203.773 316.341H219.218V311.505H203.773V316.341Z" fill="#2B2D34"/>
<path d="M219.752 320.247H203.241V325.921H219.752V320.247Z" fill="#2B2D34"/>
<path d="M220.285 326.34H202.707V319.828H220.285V326.34ZM203.773 325.502H219.218V320.666H203.773V325.502Z" fill="#2B2D34"/>
<path d="M219.752 329.408H203.241V335.082H219.752V329.408Z" fill="#2B2D34"/>
<path d="M220.285 335.501H202.707V328.989H220.285V335.501ZM203.773 334.663H219.218V329.827H203.773V334.663Z" fill="#2B2D34"/>
<path d="M219.752 338.568H203.241V344.242H219.752V338.568Z" fill="#2B2D34"/>
<path d="M220.285 344.662H202.707V338.149H220.285V344.662ZM203.773 343.824H219.218V338.988H203.773V343.824Z" fill="#2B2D34"/>
<path d="M138.14 182.208V179.476H138.812C167.665 179.476 191.046 161.096 191.046 138.433H194.907V182.208H138.14Z" fill="#1F2026"/>
<path d="M195.44 182.627H137.606V179.057H138.811C167.323 179.057 190.512 160.827 190.512 138.433V138.014H195.44V182.627ZM138.673 181.789H194.373V138.852H191.578C191.29 161.523 167.728 179.895 138.811 179.895H138.673V181.789Z" fill="#2B2D34"/>
<path d="M186.727 178.629H168.882V182.217H186.727V178.629Z" fill="#1F2026"/>
<path d="M187.259 182.627H168.348V178.202H187.259V182.627ZM169.414 181.789H186.193V179.04H169.414V181.789Z" fill="#2B2D34"/>
<path d="M282.416 163.249H226V346.572H282.416V163.249Z" fill="#1F2026"/>
<path d="M282.959 346.983H225.478V162.822H282.959V346.983ZM226.544 346.145H281.893V163.66H226.544V346.145Z" fill="#2B2D34"/>
<path d="M282.416 159.168H226V163.249H282.416V159.168Z" fill="#1F2026"/>
<path d="M282.959 163.669H225.478V158.749H282.959V163.669ZM226.544 162.83H281.893V159.587H226.544V162.83Z" fill="#2B2D34"/>
<path d="M263.493 152.781H254.213H244.934V159.168H263.493V152.781Z" fill="#1F2026"/>
<path d="M264.026 159.587H244.399V152.371H264.026V159.587ZM245.466 158.749H262.959V153.209H245.466V158.749Z" fill="#2B2D34"/>
<path d="M233.712 155.974H229.648V159.168H233.712V155.974Z" fill="#1F2026"/>
<path d="M234.244 159.587H229.114V155.555H234.244V159.587ZM230.18 158.749H233.178V156.394H230.18V158.749Z" fill="#2B2D34"/>
<path d="M274.706 159.168H278.77V155.974H274.706V159.168Z" fill="#1F2026"/>
<path d="M279.302 159.587H274.171V155.555H279.302V159.587ZM275.238 158.749H278.235V156.394H275.238V158.749Z" fill="#2B2D34"/>
<path d="M254.748 124.084H253.68V152.781H254.748V124.084Z" fill="#2B2D34"/>
<path d="M282.415 169.15H226V169.988H282.415V169.15Z" fill="#2B2D34"/>
<path d="M282.415 175.469H226V176.307H282.415V175.469Z" fill="#2B2D34"/>
<path d="M282.415 181.789H226V182.627H282.415V181.789Z" fill="#2B2D34"/>
<path d="M282.415 188.117H226V188.955H282.415V188.117Z" fill="#2B2D34"/>
<path d="M282.415 194.436H226V195.274H282.415V194.436Z" fill="#2B2D34"/>
<path d="M282.415 200.756H226V201.594H282.415V200.756Z" fill="#2B2D34"/>
<path d="M282.415 207.075H226V207.913H282.415V207.075Z" fill="#2B2D34"/>
<path d="M282.415 213.403H226V214.241H282.415V213.403Z" fill="#2B2D34"/>
<path d="M282.415 219.722H226V220.561H282.415V219.722Z" fill="#2B2D34"/>
<path d="M282.415 226.042H226V226.88H282.415V226.042Z" fill="#2B2D34"/>
<path d="M282.415 232.362H226V233.2H282.415V232.362Z" fill="#2B2D34"/>
<path d="M282.415 238.681H226V239.519H282.415V238.681Z" fill="#2B2D34"/>
<path d="M282.415 245.009H226V245.847H282.415V245.009Z" fill="#2B2D34"/>
<path d="M282.415 251.328H226V252.166H282.415V251.328Z" fill="#2B2D34"/>
<path d="M282.415 257.648H226V258.486H282.415V257.648Z" fill="#2B2D34"/>
<path d="M282.415 263.967H226V264.805H282.415V263.967Z" fill="#2B2D34"/>
<path d="M282.415 270.295H226V271.133H282.415V270.295Z" fill="#2B2D34"/>
<path d="M282.415 276.614H226V277.452H282.415V276.614Z" fill="#2B2D34"/>
<path d="M282.415 282.934H226V283.772H282.415V282.934Z" fill="#2B2D34"/>
<path d="M282.415 289.253H226V290.091H282.415V289.253Z" fill="#2B2D34"/>
<path d="M282.415 295.581H226V296.419H282.415V295.581Z" fill="#2B2D34"/>
<path d="M282.415 301.9H226V302.738H282.415V301.9Z" fill="#2B2D34"/>
<path d="M282.415 308.22H226V309.058H282.415V308.22Z" fill="#2B2D34"/>
<path d="M282.415 314.539H226V315.377H282.415V314.539Z" fill="#2B2D34"/>
<path d="M282.415 320.859H226V321.697H282.415V320.859Z" fill="#2B2D34"/>
<path d="M282.415 327.186H226V328.024H282.415V327.186Z" fill="#2B2D34"/>
<path d="M282.415 333.506H226V334.344H282.415V333.506Z" fill="#2B2D34"/>
<path d="M282.415 339.825H226V340.664H282.415V339.825Z" fill="#2B2D34"/>
<path d="M238.867 163.25H237.798V346.573H238.867V163.25Z" fill="#2B2D34"/>
<path d="M248.104 163.25H247.036V346.573H248.104V163.25Z" fill="#2B2D34"/>
<path opacity="0.38" d="M280.391 123.225C279.715 122.292 278.998 121.45 278.199 120.787C274.636 117.928 269.68 119.162 266.834 114.978C265.359 112.811 264.601 109.379 262.595 108.446C259.83 107.182 256.963 111.818 254.198 110.553C251.372 109.229 251.454 103.57 250.43 99.5368C249.242 94.8412 245.72 91.5903 242.259 92.0418C238.798 92.4933 235.747 96.6171 235.194 101.584C231.467 100.62 227.166 99.8377 224.34 103.45C223.009 105.135 222.231 107.543 221.145 109.56C218.524 114.466 213.896 116.935 209.698 115.7C207.547 115.068 205.581 113.563 203.554 112.45C201.506 111.336 199.233 110.553 197.144 111.486C194.42 112.66 193.519 117.025 190.796 118.44C189.178 119.282 187.703 119.734 186.311 121.359C186.106 121.6 185.553 122.352 185 123.286H280.391V123.225Z" fill="#2B2D34"/>
<rect x="238" y="163" width="10" height="179" fill="#D9D9D9"/>
<rect x="238" y="163" width="10" height="179" fill="#2B2D34"/>
</svg>
