<svg width="789" height="789" viewBox="0 0 789 789" fill="none" xmlns="http://www.w3.org/2000/svg">
<circle cx="394.5" cy="394.5" r="394.5" fill="#1C39BB"/>
<circle cx="405.074" cy="396.127" r="383.926" fill="#DEB645"/>
<path d="M420.65 74.0953C409.159 72.8765 397.581 72.5283 386.003 72.6154C374.424 72.7024 362.933 73.2247 351.442 74.3564C328.46 76.5328 305.826 80.8854 283.976 88.0238C278.492 89.7649 273.181 91.7671 267.871 93.9435C262.561 96.0327 257.338 98.3832 252.288 100.995C249.764 102.214 247.239 103.606 244.715 104.912C242.277 106.305 239.753 107.698 237.315 109.178C232.44 112.138 227.652 115.185 223.126 118.58C218.512 121.888 214.072 125.457 209.893 129.2C207.717 131.028 205.715 133.03 203.626 134.946C201.623 136.948 199.621 138.95 197.706 141.039C189.958 149.309 183.168 158.363 177.161 167.939L177.074 168.113L176.987 168.287C176.639 168.809 176.117 170.028 175.856 171.421C175.507 172.814 175.333 174.381 175.246 176.035C174.985 179.343 174.985 182.738 174.898 186.307C174.898 189.789 174.811 193.359 174.637 197.015C174.463 200.671 174.114 204.414 173.244 208.245C172.809 210.16 172.199 212.162 171.329 214.164C170.893 215.122 170.371 216.167 169.675 217.124C169.065 217.995 168.456 218.778 167.847 219.562C165.496 222.521 163.146 225.133 160.708 227.832C155.92 233.055 151.045 238.191 146.17 243.327C136.507 253.512 126.844 263.698 117.791 274.231C113.264 279.541 108.824 284.852 104.907 290.336C102.992 293.122 101.077 295.907 99.5967 298.693C98.8132 300.086 98.2038 301.479 97.7686 302.785C97.3333 304.091 97.0721 305.309 97.1592 305.832C97.1592 305.919 97.1592 305.919 97.1592 306.006C97.1592 306.006 97.1592 306.093 97.2462 306.18L97.3333 306.441C97.4204 306.789 97.5074 307.137 97.5945 307.486C97.8556 308.182 98.0297 308.878 98.2909 309.575C98.8132 310.968 99.5096 312.448 100.206 313.84C101.686 316.713 103.427 319.586 105.342 322.459C109.086 328.117 113.264 333.776 117.356 339.608C121.447 345.354 125.539 351.273 129.195 357.628C131.023 360.849 132.764 364.07 134.244 367.552L135.289 370.164L136.246 372.689C136.681 373.82 137.291 375.039 138.074 376.258C139.641 378.608 141.818 380.872 144.255 382.874C146.693 384.876 149.391 386.704 152.177 388.271C157.835 391.405 164.103 393.669 170.458 394.887C176.813 396.106 183.342 396.28 189.61 395.148C195.878 394.017 201.71 391.492 206.759 387.749C211.809 384.006 215.9 378.956 219.034 373.211C220.601 370.338 221.994 367.378 223.126 364.244C224.257 361.111 225.215 357.977 225.911 354.843C227.217 348.488 227.391 342.046 225.824 335.865C224.344 329.684 221.21 323.939 217.38 318.454C213.463 312.97 208.849 307.747 204.409 302.088C202.146 299.215 199.969 296.256 198.054 293.035C196.139 289.814 194.398 286.245 193.353 282.501C192.831 280.586 192.396 278.671 192.222 276.669C192.047 274.666 192.047 272.664 192.135 270.749C192.309 268.747 192.657 266.832 193.005 265.003C193.44 263.175 194.05 261.26 194.746 259.519C195.094 258.562 195.443 257.778 195.791 256.995L196.835 254.557C197.532 252.903 198.228 251.249 199.012 249.682C200.492 246.461 201.972 243.153 203.626 240.019C210.068 227.309 217.554 214.948 227.043 204.066C231.831 198.669 237.054 193.707 242.974 189.441C248.893 185.263 255.509 181.867 262.561 179.952C266.043 178.995 269.699 178.385 273.355 178.211C275.184 178.124 277.012 178.124 278.84 178.211C280.668 178.298 282.409 178.559 284.15 178.734C291.201 179.517 298.253 180.823 305.043 182.564C308.438 183.434 311.92 184.392 315.228 185.437C318.623 186.481 321.931 187.613 325.239 188.832C328.547 189.963 331.855 191.182 335.25 192.14C336.904 192.575 338.645 193.01 340.387 193.184C342.128 193.358 343.956 193.184 345.436 192.227C343.956 193.271 342.128 193.533 340.387 193.446C338.645 193.359 336.817 193.097 335.163 192.749C331.681 191.966 328.286 191.008 324.978 189.963C318.188 188.048 311.485 186.133 304.608 184.74C297.73 183.347 290.853 182.39 283.889 181.867C282.148 181.78 280.407 181.606 278.666 181.606C276.925 181.606 275.271 181.606 273.529 181.78C270.134 182.042 266.826 182.738 263.605 183.783C257.163 185.785 251.157 189.18 245.672 193.359C240.275 197.537 235.4 202.412 231.047 207.722C222.255 218.343 215.291 230.443 209.458 242.979C207.978 246.113 206.585 249.334 205.28 252.555C204.583 254.122 203.974 255.776 203.364 257.43L202.407 259.867C202.146 260.651 201.797 261.521 201.536 262.305C200.927 263.872 200.579 265.352 200.23 266.919C199.882 268.486 199.708 270.053 199.621 271.62C199.447 274.753 199.795 277.8 200.753 280.76C202.581 286.68 206.411 292.164 210.764 297.474C215.117 302.785 219.992 308.008 224.344 313.928C228.697 319.847 232.614 326.55 234.53 334.124C236.532 341.611 236.445 349.619 234.965 357.019C234.268 360.762 233.224 364.331 231.918 367.901C230.612 371.383 229.132 374.865 227.391 378.173C223.822 384.789 218.947 391.057 212.766 395.845C209.719 398.282 206.324 400.285 202.755 401.852C199.186 403.418 195.443 404.637 191.612 405.334C183.951 406.814 176.204 406.552 168.717 405.16C161.231 403.767 154.092 401.155 147.389 397.499C144.081 395.671 140.86 393.581 137.813 391.057C134.853 388.532 131.981 385.747 129.63 382.264C128.498 380.523 127.454 378.608 126.67 376.519L125.8 374.081L124.929 371.818C123.623 368.858 122.056 365.898 120.402 362.939C117.007 357.106 113.09 351.448 108.998 345.789C104.907 340.131 100.728 334.385 96.7239 328.378C94.7217 325.332 92.8065 322.198 91.0654 318.803C90.1949 317.061 89.4114 315.32 88.715 313.492C88.3668 312.535 88.0186 311.577 87.7574 310.532C87.5833 310.01 87.4963 309.488 87.4092 308.965L87.3222 308.53C87.3222 308.356 87.2351 308.269 87.2351 308.095C87.148 307.66 87.148 307.311 87.061 306.876C86.8869 303.829 87.5833 301.566 88.2797 299.564C88.9762 297.561 89.8467 295.733 90.8043 294.079C92.6324 290.684 94.7217 287.637 96.811 284.591C101.077 278.671 105.69 273.187 110.304 267.789C119.706 256.995 129.456 246.809 139.206 236.624C144.081 231.575 149.043 226.526 153.744 221.477C156.094 218.952 158.445 216.341 160.534 213.816C161.056 213.207 161.492 212.597 161.927 211.988C162.275 211.466 162.536 210.943 162.885 210.334C163.407 209.115 163.929 207.722 164.277 206.242C164.974 203.283 165.322 199.975 165.583 196.579C165.757 193.184 165.844 189.702 165.931 186.22C166.018 182.651 166.106 179.082 166.454 175.338C166.628 173.423 166.889 171.508 167.324 169.506C167.847 167.504 168.456 165.327 170.197 162.977L169.936 163.325C182.733 143.303 199.621 125.979 219.034 112.573C223.822 109.178 228.871 106.044 234.007 103.084C239.143 100.124 244.367 97.5127 249.677 95.0752C254.987 92.6377 260.471 90.3743 265.956 88.285C271.44 86.2828 277.012 84.3676 282.583 82.7136C288.242 81.0595 293.9 79.5796 299.558 78.2738C305.304 76.968 310.962 75.9234 316.795 74.9658C328.286 73.0506 339.864 71.8319 351.529 71.2225C374.424 69.8297 397.755 70.5261 420.65 74.0953Z" fill="#1C39BB"/>
<path d="M367.982 125.02C372.509 119.536 377.21 114.225 381.998 109.002C386.786 103.779 391.661 98.6427 396.71 93.5936C406.721 83.4954 417.168 73.8325 428.049 64.6919C439.018 55.6383 450.596 47.1071 463.132 40.0557C469.4 36.5736 476.016 33.4397 483.067 31.2633C486.549 30.2187 490.205 29.3482 493.949 28.8258C497.692 28.3906 501.522 28.3035 505.353 28.8258C507.268 29.087 509.183 29.5223 511.011 30.1316C512.839 30.741 514.755 31.5245 516.322 32.395C519.63 34.1361 522.851 36.1383 525.81 38.6629C528.77 41.1004 531.295 44.0602 533.471 47.2812C535.647 50.5021 537.301 53.8972 538.607 57.4664C541.219 64.5177 542.438 71.8302 543.308 78.9686C544.179 86.107 544.614 93.2454 545.397 100.123C546.181 107.087 547.225 113.877 549.228 120.232C550.272 123.453 551.491 126.5 553.058 129.373C553.842 130.852 554.712 132.158 555.583 133.551C556.54 134.857 557.498 136.163 558.629 137.469C563.069 142.692 568.031 147.828 572.819 152.964C577.694 158.1 582.569 163.323 587.357 168.547C606.509 189.614 624.703 211.725 640.286 235.752C648.033 247.765 655.172 260.214 661.353 273.098C664.486 279.54 667.359 286.156 669.971 292.772C672.582 299.475 674.933 306.265 676.935 313.142C680.94 326.897 683.812 341.087 684.944 355.363C686.163 369.64 685.815 384.091 683.725 398.281C681.636 412.47 677.98 426.312 672.844 439.631C670.232 446.247 667.359 452.776 664.138 459.131C660.917 465.486 657.348 471.58 653.518 477.586C660.395 465.225 666.315 452.254 670.754 438.935C675.194 425.528 678.415 411.774 679.895 397.845C683.029 369.901 679.46 341.609 671.015 314.971C668.926 308.267 666.489 301.738 663.79 295.296C661.178 288.855 658.219 282.413 655.085 276.145C648.817 263.609 641.678 251.509 633.931 239.843C618.435 216.426 600.502 194.663 581.438 173.857C576.65 168.634 571.862 163.498 566.987 158.274C562.112 153.051 557.237 148.002 552.536 142.431C551.317 141.038 550.185 139.558 549.054 137.904C548.009 136.337 546.964 134.683 546.094 133.029C544.266 129.634 542.873 126.152 541.741 122.582C539.565 115.444 538.52 108.132 537.824 100.993C537.127 93.8548 536.779 86.7164 536.083 79.8392C535.386 72.9619 534.255 66.1718 531.991 59.9039C529.815 53.6361 526.246 48.0647 521.371 43.712C518.933 41.5356 516.234 39.7075 513.275 38.1406C511.795 37.3571 510.402 36.6606 508.922 36.1383C507.442 35.616 505.875 35.2678 504.308 35.0066C497.953 33.962 491.163 34.9196 484.634 36.8348C478.105 38.7499 471.75 41.5356 465.482 44.7566C453.121 51.1986 441.543 59.2945 430.4 67.8258C419.257 76.4441 408.549 85.6717 398.19 95.2476C392.967 100.036 387.918 104.911 382.869 109.96C377.819 114.835 372.77 119.797 367.982 125.02Z" fill="#1C39BB"/>
<path d="M237.576 197.536C237.402 197.361 237.402 197.361 237.315 197.274L237.141 197.1L236.88 196.665L236.358 195.881C236.009 195.359 235.748 194.924 235.4 194.402C234.791 193.444 234.268 192.486 233.746 191.529C232.701 189.527 231.831 187.524 231.047 185.522C229.567 181.431 228.523 177.078 228.262 172.638C228 168.199 228.436 163.759 229.654 159.58C230.873 155.402 232.788 151.571 235.052 148.176C239.579 141.386 245.324 136.25 250.896 131.288C253.681 128.763 256.467 126.413 259.079 123.801C261.69 121.19 264.215 118.578 266.13 115.357C264.911 118.839 262.822 122.147 260.733 125.194C258.556 128.328 256.293 131.201 254.029 134.161C249.59 140.08 245.237 146 242.625 152.268C241.929 153.835 241.407 155.402 241.058 156.969C240.623 158.536 240.362 160.103 240.275 161.67C240.014 164.803 240.362 167.85 241.146 170.723C241.929 173.683 243.235 176.469 244.802 178.993C245.585 180.299 246.543 181.518 247.5 182.649C248.023 183.259 248.458 183.781 248.98 184.303C249.241 184.565 249.503 184.826 249.764 185.087L250.112 185.435L250.286 185.609L250.373 185.696L237.576 197.536Z" fill="#1C39BB"/>
<path d="M205.018 244.11C206.672 241.672 208.936 239.67 211.286 237.842C213.637 236.014 216.248 234.534 218.947 233.315C224.344 230.791 230.264 229.311 236.183 228.527C237.663 228.353 239.143 228.266 240.623 228.092L244.976 227.744C246.369 227.657 247.762 227.309 249.154 227.048C249.851 226.873 250.547 226.873 251.244 226.612L253.246 226.003C258.643 224.349 263.692 221.65 268.306 218.255C273.007 214.947 277.186 210.943 281.538 206.938C285.891 203.021 290.244 198.929 295.032 195.36C296.25 194.49 297.382 193.532 298.688 192.748C299.994 191.965 301.212 191.094 302.605 190.485L304.607 189.44L306.697 188.57L307.741 188.135L308.786 187.786C309.482 187.612 310.266 187.351 310.962 187.177C313.922 186.481 316.969 186.219 319.929 186.655C320.712 186.742 321.409 187.003 322.105 187.09C322.802 187.351 323.585 187.525 324.195 187.873C325.587 188.483 326.893 189.179 327.938 190.224C326.719 189.353 325.413 188.831 324.02 188.396C323.324 188.135 322.628 188.048 321.931 187.873C321.235 187.786 320.538 187.612 319.755 187.612C316.882 187.438 314.009 187.873 311.311 188.831C305.826 190.659 301.038 193.88 296.599 197.536C287.545 204.849 279.971 213.902 270.308 221.041C265.433 224.523 259.949 227.483 254.116 229.05L251.94 229.659C251.244 229.92 250.46 229.92 249.677 230.094C248.197 230.356 246.717 230.617 245.15 230.704C243.67 230.791 242.103 230.878 240.71 230.965C239.23 231.052 237.837 231.052 236.358 231.139C230.612 231.574 224.867 232.706 219.469 234.795C216.771 235.84 214.159 237.059 211.634 238.539C209.371 240.106 206.933 241.847 205.018 244.11Z" fill="#1C39BB"/>
<path d="M265.982 181.387C242.882 183.99 213.518 217.99 208.231 240.358C218.398 233.851 229.786 228.564 245.647 231.005C260.124 233.234 279.964 212.956 290.384 202.535C299.738 193.18 306.652 189.114 317.227 187.488C308.686 185.048 289.083 178.784 265.982 181.387Z" fill="#1C39BB"/>
<path d="M704.879 337.433C708.971 347.009 711.844 357.02 714.281 367.118C716.719 377.216 718.46 387.489 719.853 397.848C721.158 408.207 721.855 418.654 722.203 429.1C722.464 439.546 722.203 449.993 721.42 460.439C721.245 463.051 720.984 465.662 720.81 468.274L720.027 476.109C719.678 478.721 719.33 481.332 718.982 483.857C718.547 486.468 718.199 489.08 717.763 491.604C716.022 501.964 713.759 512.149 711.147 522.334C708.449 532.52 705.315 542.444 701.658 552.368C698.002 562.205 693.911 571.868 689.471 581.357C688.339 583.707 687.208 586.144 686.076 588.408L682.507 595.372L678.763 602.249C677.545 604.6 676.152 606.776 674.846 609.127L672.844 612.522L670.754 615.83C669.362 618.093 668.056 620.357 666.576 622.533L662.31 629.149C660.83 631.325 659.35 633.502 657.87 635.591C651.864 644.122 645.596 652.566 638.98 660.575L636.542 663.622L634.018 666.582C632.364 668.584 630.623 670.586 628.969 672.502L623.746 678.334C622.875 679.292 622.004 680.249 621.134 681.207L618.435 684.08L613.038 689.738L607.554 695.31L604.768 698.095L601.982 700.794L596.324 706.191C588.576 713.155 580.828 720.12 572.732 726.649C556.54 739.707 539.739 751.981 522.241 763.037C538.52 750.24 554.538 737.095 569.685 723.08C584.92 709.238 599.371 694.526 613.038 679.118C640.199 648.301 663.529 614.176 681.027 577.178C698.524 540.267 710.015 500.484 714.281 459.656C716.37 439.285 716.893 418.741 715.413 398.196C714.716 387.924 713.585 377.738 711.931 367.553C711.147 362.504 710.103 357.368 709.058 352.319C707.665 347.357 706.446 342.395 704.879 337.433Z" fill="#1C39BB"/>
<path d="M623.92 515.024C620.002 520.943 615.824 526.689 611.471 532.347C607.205 538.006 602.679 543.49 598.152 548.974C588.924 559.769 579.348 570.303 569.337 580.401C549.315 600.597 527.726 619.314 504.656 636.115L500.304 639.249C498.824 640.294 497.431 641.338 495.951 642.296L487.072 648.302C484.112 650.305 481.065 652.133 478.018 654.048C476.538 655.006 475.058 655.963 473.491 656.921L468.878 659.619L464.264 662.318C462.697 663.189 461.217 664.146 459.65 665.017L450.248 670.153C448.681 671.023 447.114 671.807 445.46 672.59L440.672 675.028L435.884 677.378L431.009 679.642C418.125 685.735 404.632 690.698 391.139 695.05L380.866 698.097C379.212 698.619 377.384 698.968 375.73 699.49L370.507 700.709L365.284 701.927C363.543 702.363 361.802 702.624 360.061 702.972C356.579 703.581 353.096 704.278 349.614 704.887C353.009 703.756 356.317 702.711 359.712 701.579C361.366 701.057 363.108 700.535 364.762 700.012L369.724 698.184L374.686 696.443C376.34 695.834 377.994 695.311 379.648 694.615L389.485 690.698L391.922 689.74L394.36 688.695L399.148 686.606C402.369 685.213 405.59 683.82 408.724 682.253C411.857 680.686 415.078 679.206 418.212 677.727C421.346 676.16 424.48 674.506 427.614 672.939L432.315 670.501L436.929 667.977C439.976 666.236 443.11 664.669 446.07 662.84L455.123 657.53C456.603 656.66 458.17 655.702 459.65 654.831L464.09 652.046C475.929 644.646 487.594 636.811 498.911 628.454C521.632 612.001 543.221 594.068 564.027 575.091C574.386 565.602 584.659 555.939 594.583 545.928C597.107 543.49 599.545 540.966 602.069 538.441L609.382 530.78C611.819 528.256 614.257 525.644 616.607 523.033C619.219 520.334 621.569 517.635 623.92 515.024Z" fill="#1C39BB"/>
<path d="M522.067 91.0712C519.717 96.9908 517.453 102.823 515.451 108.656C513.449 114.489 511.621 120.408 510.141 126.328C509.444 129.288 508.835 132.247 508.313 135.294C507.79 138.341 507.442 141.301 507.181 144.348C506.92 147.395 506.92 150.442 506.92 153.576C507.007 156.709 507.355 159.756 507.703 162.89C506.223 160.018 505.179 156.971 504.395 153.837C503.699 150.703 503.264 147.482 503.09 144.261C503.002 141.04 503.089 137.819 503.438 134.598C503.786 131.377 504.395 128.243 505.092 125.109C506.659 118.841 508.835 112.835 511.708 107.089C514.493 101.343 517.889 95.8591 522.067 91.0712Z" fill="#1C39BB"/>
<path d="M335.773 219.042C335.512 224.7 323.411 231.404 316.621 226.877C312.529 224.091 310.266 217.127 313.139 212.948C315.576 209.466 320.538 209.466 321.844 209.466C328.547 209.466 335.947 214.515 335.773 219.042Z" fill="#1C39BB"/>
<path d="M305.304 234.709C305.391 239.845 298.862 244.198 293.116 243.414C288.938 242.892 284.498 239.41 284.411 235.579C284.237 230.269 292.072 225.133 298.34 226.874C301.735 227.832 305.217 230.966 305.304 234.709Z" fill="#1C39BB"/>
<path d="M313.922 246.287C311.485 243.936 306 244.633 304.085 248.115C302.605 250.813 303.563 254.731 305.913 256.124C309.134 257.952 314.183 254.992 315.141 251.249C315.489 249.682 315.315 247.592 313.922 246.287Z" fill="#1C39BB"/>
<path d="M304.346 268.922C301.909 266.572 296.425 267.268 294.509 270.75C293.029 273.449 293.987 277.366 296.338 278.759C299.558 280.587 304.608 277.627 305.565 273.884C305.913 272.317 305.739 270.228 304.346 268.922Z" fill="#1C39BB"/>
<path d="M268.742 258.214C268.655 255.864 275.009 252.991 280.929 252.991C287.458 252.991 294.248 256.647 293.987 259.085C293.726 261.609 285.978 263.002 280.059 262.567C275.619 262.219 268.829 260.565 268.742 258.214Z" fill="#1C39BB"/>
<path d="M268.741 270.403C268.654 268.487 264.824 266.921 261.777 266.921C257.337 266.921 252.724 270.054 253.072 272.144C253.42 274.146 258.121 275.278 261.777 274.755C264.911 274.32 268.828 272.405 268.741 270.403Z" fill="#1C39BB"/>
<path d="M273.965 288.681C274.487 285.721 282.67 283.806 288.764 286.069C289.547 286.33 293.9 287.984 293.987 290.422C294.074 292.859 289.808 295.297 286.152 295.645C280.058 296.254 273.529 291.553 273.965 288.681Z" fill="#1C39BB"/>
<path d="M315.75 273.013C316.621 271.098 320.016 270.924 320.974 272.143C322.105 273.536 320.19 277.366 318.362 277.366C316.882 277.366 314.967 274.841 315.75 273.013Z" fill="#1C39BB"/>
<path d="M264.389 288.683C258.904 285.636 250.46 283.982 249.59 286.072C248.632 288.335 256.728 295.909 263.518 294.777C265.085 294.516 267.697 293.645 267.871 292.165C268.045 290.772 265.695 289.467 264.389 288.683Z" fill="#1C39BB"/>
<path d="M368.853 223.393C370.507 221.042 381.998 224.96 390.616 231.227C392.183 232.359 394.011 234.013 397.581 237.321C409.159 248.029 414.991 253.426 414.121 255.602C412.989 258.475 404.806 258.91 398.451 256.473C393.489 254.558 391.226 251.511 384.523 243.415C371.116 227.31 367.895 224.786 368.853 223.393Z" fill="#1C39BB"/>
<path d="M357.536 227.745C350.659 225.133 339.516 224.959 338.384 228.615C336.991 233.055 349.788 244.111 356.666 240.803C360.148 239.149 362.672 233.577 361.018 230.356C360.322 228.963 359.016 228.267 357.536 227.745Z" fill="#1C39BB"/>
<path d="M333.248 247.768C329.853 248.116 325.065 250.379 325.413 252.12C325.761 254.297 333.422 256.212 335.686 253.426C336.817 252.033 336.73 249.161 335.337 248.116C334.641 247.681 333.944 247.681 333.248 247.768Z" fill="#1C39BB"/>
<path d="M256.554 150.267C257.512 152.966 265.172 152.879 270.483 151.138C274.835 149.658 281.364 145.741 280.929 141.562C280.755 139.647 279.101 137.993 277.447 137.209C269.786 133.64 254.987 146.089 256.554 150.267Z" fill="#1C39BB"/>
<path d="M289.634 120.669C290.679 117.709 302.083 116.664 304.433 121.539C305.652 124.064 304.259 128.156 301.822 129.374C297.121 131.725 288.59 123.629 289.634 120.669Z" fill="#1C39BB"/>
<path d="M299.21 99.775C297.556 96.0317 282.496 97.3375 281.799 100.646C281.277 103.083 287.98 109.09 293.987 106.739C297.295 105.433 300.081 101.777 299.21 99.775Z" fill="#1C39BB"/>
<path d="M314.88 90.2031C314.88 91.8571 320.364 94.0334 325.326 92.8147C330.114 91.5959 333.945 87.3303 333.161 85.8504C331.855 83.1518 314.88 87.2433 314.88 90.2031Z" fill="#1C39BB"/>
<path d="M326.197 101.518C326.632 99.1674 333.509 96.3817 338.384 99.7768C342.128 102.388 343.52 107.786 341.866 109.353C339.081 112.051 325.587 105.087 326.197 101.518Z" fill="#1C39BB"/>
<path d="M331.42 129.375C332.291 125.197 320.974 118.145 319.233 119.799C317.579 121.366 322.802 132.422 327.938 131.987C329.418 131.9 331.159 130.855 331.42 129.375Z" fill="#1C39BB"/>
<path d="M334.032 184.217C334.293 182.215 338.036 180.3 340.125 181.606C342.389 182.999 341.953 187.612 340.125 188.57C338.123 189.702 333.683 186.655 334.032 184.217Z" fill="#1C39BB"/>
<path d="M394.969 295.648C394.708 293.733 394.099 288.684 396.71 286.943C402.978 282.677 426.134 299.914 423.697 306.965C422.391 310.882 413.163 312.188 406.286 309.576C400.541 307.4 395.753 302.09 394.969 295.648Z" fill="#1C39BB"/>
<path d="M293.987 300.87C296.773 295.56 326.806 302.35 327.067 308.705C327.241 312.187 318.449 316.54 310.527 315.669C299.733 314.537 292.333 304.178 293.987 300.87Z" fill="#1C39BB"/>
<path d="M326.284 267.616C329.07 262.306 359.103 269.444 359.277 275.799C359.364 279.281 350.572 283.46 342.65 282.589C331.855 281.37 324.543 270.837 326.284 267.616Z" fill="#1C39BB"/>
<path d="M229.568 124.155C226.172 128.072 222.777 131.903 219.382 135.82C216.074 139.738 212.853 143.655 209.806 147.747C208.326 149.749 206.847 151.838 205.454 153.927C204.061 156.017 202.755 158.193 201.536 160.369C199.186 164.809 197.271 169.51 196.4 174.646C196.052 172.034 196.226 169.423 196.748 166.811C197.271 164.2 198.054 161.675 199.099 159.238C201.101 154.363 203.887 149.836 207.021 145.657C210.155 141.479 213.637 137.561 217.38 133.992C221.21 130.336 225.215 126.941 229.568 124.155Z" fill="#1C39BB"/>
<path d="M183.865 414.473C185.17 416.476 186.911 418.217 188.74 419.697C190.568 421.176 192.657 422.395 194.833 423.353C199.099 425.268 203.887 426.051 208.501 425.877C213.202 425.703 217.815 424.746 222.255 423.353C226.695 421.873 231.047 419.958 235.226 417.781C239.405 415.605 243.409 413.081 247.326 410.469C249.329 409.163 251.157 407.77 253.159 406.377C254.117 405.681 255.161 404.985 256.119 404.288L259.166 402.286C267.262 396.976 276.141 392.449 285.717 389.75C290.505 388.357 295.467 387.487 300.429 387.226C305.391 386.965 310.527 387.313 315.402 388.183C325.326 390.011 334.554 394.016 343.085 398.891C347.351 401.328 351.442 404.027 355.447 406.813C357.449 408.206 359.364 409.685 361.279 411.165L364.152 413.429L367.025 415.779C374.599 422.047 381.476 429.011 387.744 436.498C390.965 440.241 393.837 444.159 396.623 448.076C399.409 452.08 402.108 456.172 404.545 460.351C409.507 468.708 413.86 477.413 417.603 486.467C419.518 490.993 421.085 495.52 422.652 500.134C424.132 504.748 425.525 509.449 426.744 514.15C427.353 516.5 427.875 518.85 428.485 521.201C429.007 523.551 429.529 525.989 429.878 528.339C430.748 533.127 431.357 537.915 431.88 542.79C432.315 547.665 432.663 552.453 432.75 557.328C432.75 562.203 432.663 567.078 432.228 571.953C431.27 581.616 429.529 591.192 426.918 600.507C424.219 609.821 420.737 618.875 416.471 627.493C412.206 636.111 407.244 644.469 401.237 651.955C403.936 648.038 406.373 643.859 408.549 639.681C410.813 635.502 412.815 631.149 414.643 626.797C418.299 618.004 421.346 608.951 423.523 599.723C425.786 590.495 427.092 581.094 427.614 571.692C427.788 566.991 427.875 562.29 427.701 557.589C427.527 552.888 427.092 548.188 426.482 543.487C423.958 524.77 418.996 506.402 411.509 489.078C409.681 484.726 407.679 480.46 405.59 476.281C403.413 472.103 401.237 467.924 398.712 463.92C396.362 459.828 393.663 455.998 391.052 452.08C388.266 448.25 385.48 444.507 382.433 440.938C376.427 433.712 369.898 427.009 362.672 421.002L359.974 418.739L357.188 416.563C355.36 415.17 353.445 413.69 351.529 412.297C347.699 409.598 343.869 406.9 339.777 404.549C331.768 399.848 323.237 395.931 314.271 394.19C309.831 393.319 305.217 392.884 300.69 393.058C296.163 393.145 291.55 393.842 287.11 394.973C278.143 397.237 269.612 401.415 261.516 406.203L258.469 408.031C257.512 408.641 256.467 409.337 255.509 409.947C253.507 411.252 251.505 412.645 249.416 413.864C245.324 416.389 241.059 418.826 236.706 420.915C232.266 423.005 227.739 424.746 223.039 426.051C218.338 427.357 213.463 428.054 208.501 427.967C203.626 427.793 198.664 426.748 194.398 424.485C192.222 423.353 190.219 421.96 188.478 420.306C186.65 418.391 184.996 416.563 183.865 414.473Z" fill="#1C39BB"/>
<path d="M325.326 71.9192C332.465 67.6536 339.777 63.7362 347.09 59.9058C350.746 57.9907 354.489 56.1625 358.146 54.2474L369.288 48.763C373.119 46.8478 377.384 45.542 381.737 45.1938C383.913 45.1068 386.177 45.1067 388.353 45.542C390.529 45.8902 392.619 46.5867 394.621 47.5442C398.625 49.3724 402.021 52.1581 404.806 55.292C407.592 58.513 409.942 61.9951 411.509 65.9125C409.246 62.4304 406.634 59.2965 403.587 56.5108C402.108 55.1179 400.541 53.8992 398.8 52.8545C397.146 51.8099 395.404 50.8523 393.489 50.1558C391.661 49.4594 389.746 49.0242 387.831 48.6759C385.916 48.4148 383.913 48.4148 381.998 48.5889C378.081 49.0242 374.338 50.2429 370.768 52.071L359.538 57.3813C355.795 59.1224 352.052 60.8634 348.221 62.5174C340.735 65.7384 333.074 68.9594 325.326 71.9192Z" fill="#1C39BB"/>
<path d="M95.5052 306.094C95.5052 306.094 117.094 307.139 127.28 311.753C136.856 316.105 163.407 295.648 163.407 295.648C163.407 295.648 162.536 312.188 145.996 330.469C129.456 348.75 130.327 367.032 130.327 367.032C130.327 367.032 94.6346 316.541 95.5052 306.094Z" fill="#1C39BB"/>
<path d="M631.319 573.782L617.391 567.688C617.391 567.688 521.632 682.598 414.556 719.161L430.226 748.759C478.105 739.183 592.145 643.424 631.319 573.782Z" fill="#1C39BB"/>
<path d="M631.319 548.537L644.377 552.89C673.976 518.068 688.775 464.095 697.48 431.885H689.645C682.681 455.39 659.176 518.939 631.319 548.537Z" fill="#1C39BB"/>
<path d="M693.998 398.807H700.091C703.574 389.231 702.703 332.646 686.163 313.494C694.868 348.316 696.609 378.784 693.998 398.807Z" fill="#1C39BB"/>
<path d="M373.206 149.398C379.735 138.517 387.134 128.07 395.056 118.059C398.973 113.01 403.065 108.135 407.243 103.347C409.333 100.997 411.509 98.5592 413.685 96.2958L416.993 92.8137L420.389 89.4186C421.52 88.2869 422.652 87.1552 423.784 86.0235C424.915 84.8918 426.047 83.7601 427.266 82.7155C429.616 80.5391 431.967 78.3628 434.491 76.3606C436.929 74.2713 439.453 72.269 441.978 70.2668C443.284 69.3092 444.589 68.3516 445.808 67.394C447.114 66.4365 448.42 65.4789 449.726 64.6083L453.73 61.9097L457.822 59.3851C458.518 58.9499 459.214 58.5146 459.911 58.1664L462 57.0347C463.393 56.2512 464.786 55.4677 466.266 54.7713C472.011 51.8115 478.105 49.374 484.373 47.4588L489.161 46.2401C489.944 45.9789 490.728 45.8918 491.598 45.7177L494.036 45.2825L496.473 44.8472L498.998 44.6731L501.522 44.499L502.741 44.4119C503.176 44.4119 503.612 44.4119 504.047 44.4119C507.442 44.499 510.75 44.8472 514.145 45.8048C517.453 46.7624 520.761 48.2423 523.46 50.4186C524.853 51.4633 526.159 52.7691 527.203 54.0749C528.335 55.3807 529.292 56.8606 530.163 58.3405C531.904 61.3874 533.036 64.5213 533.819 67.8293C534.603 71.0503 535.125 74.3583 535.299 77.5793C535.386 79.2333 535.473 80.8003 535.473 82.4543V87.2422C535.56 99.6909 537.911 112.227 543.308 123.456C545.92 129.115 549.402 134.425 553.319 139.3L554.799 141.128C555.321 141.738 555.844 142.26 556.366 142.869C557.411 144.001 558.455 145.22 559.674 146.264L561.415 147.918C562.025 148.441 562.547 149.05 563.156 149.485L566.812 152.532L562.895 149.747C562.199 149.311 561.589 148.789 560.98 148.267L559.152 146.787C557.846 145.829 556.714 144.698 555.583 143.566C554.973 143.043 554.364 142.521 553.841 141.912L552.187 140.171C547.835 135.47 544.004 130.16 540.958 124.501C537.911 118.843 535.56 112.662 533.993 106.394C532.426 100.126 531.556 93.5971 531.295 87.1552L531.121 82.3672C531.034 80.8003 530.946 79.2333 530.772 77.7534C530.424 74.7065 529.989 71.6597 529.205 68.6999C527.725 62.8673 524.853 57.47 520.239 54.0749C515.712 50.5927 509.792 49.2869 503.786 49.2869C497.866 49.5481 491.685 50.5057 485.766 52.2467C479.846 53.9878 474.101 56.2512 468.529 59.124C467.136 59.8204 465.743 60.6039 464.438 61.3003L462.348 62.432C461.652 62.7802 461.042 63.2155 460.346 63.6507L456.342 66.0882L452.424 68.6999C451.118 69.5704 449.813 70.4409 448.594 71.3985C447.288 72.3561 446.069 73.2266 444.764 74.1842C442.239 76.0994 439.714 78.0146 437.364 80.0168C432.489 84.0213 427.788 88.1998 423.174 92.4654C413.947 101.084 405.241 110.311 396.971 119.887C388.614 129.202 380.692 139.126 373.206 149.398Z" fill="#1C39BB"/>
</svg>
