<svg width="784" height="633" viewBox="0 0 784 633" fill="none" xmlns="http://www.w3.org/2000/svg">
<path d="M76.0443 190.002L176.299 131.745L236.279 166.358L136.023 224.633L76.0443 190.002Z" fill="#F7E6BB"/>
<path d="M172.536 278.293L272.791 220.036L272.596 288.997L172.341 347.254L172.536 278.293Z" fill="#E69900"/>
<path d="M205.073 264.501L305.329 206.244L305.24 238.763L204.985 297.038L205.073 264.501Z" fill="#FFA600"/>
<path d="M172.624 245.757L272.88 187.499L305.328 206.244L205.072 264.501L172.624 245.757Z" fill="#F7E6BB"/>
<path d="M136.272 135.739L236.527 77.4812L176.299 131.745L76.0443 190.002L136.272 135.739Z" fill="#E69900"/>
<path d="M172.802 58.2573L273.057 0L272.88 187.499L172.624 245.756L172.802 58.2573Z" fill="#E69900"/>
<path d="M172.625 245.757L205.091 264.501L205.002 297.038L172.536 278.293L172.341 347.254L135.739 326.113L135.935 257.152L20.84 190.694L172.82 58.2396L172.643 245.739L172.625 245.757ZM136.023 224.616L136.272 135.739L76.0442 190.002L136.023 224.633V224.616Z" fill="#DEB645"/>
<path d="M7.95294 342.852L84.9904 298.422L84.9371 356.005L7.89969 400.435L7.95294 342.852Z" fill="#333333"/>
<path d="M7.952 342.852L0.0352478 338.29L77.0727 293.86L84.9894 298.422L7.952 342.852Z" fill="#737373"/>
<path d="M7.899 400.435L0 395.873L0.0355019 338.29L7.95225 342.852L7.899 400.435Z" fill="#595959"/>
<path d="M92.782 317.309C92.64 318.711 91.6992 320.042 89.9419 321.072L37.5245 351.337C33.2821 353.768 25.8624 353.467 20.9632 350.644L12.869 345.976V391.897L20.9277 396.565C25.8269 399.405 33.2466 399.689 37.489 397.24L89.9064 366.993C91.8412 365.874 92.782 364.366 92.7642 362.804H92.782V317.309Z" fill="#808080"/>
<path d="M32.4478 352.845C28.6137 353.289 24.2293 352.508 20.9632 350.627L12.869 345.958V391.897L20.9455 396.565C24.2293 398.464 28.6137 399.21 32.4478 398.766V352.845Z" fill="#999999"/>
<path d="M88.7524 311.487L80.6582 306.818L12.8688 345.958L20.9631 350.627C25.8622 353.449 33.2819 353.751 37.5243 351.319L89.9417 321.054C91.699 320.025 92.6398 318.693 92.7818 317.291C92.7818 317.273 92.7818 317.238 92.7818 317.202C92.9593 315.232 91.5925 313.12 88.7524 311.487Z" fill="#D9D9D9"/>
<path d="M56.7662 391.027L41.838 382.4L41.7847 355.774L56.7129 364.383L56.7662 391.027Z" fill="#595959"/>
<path d="M91.8945 343.952L56.7129 364.383L41.7847 355.774L76.9663 335.326L91.8945 343.952Z" fill="#333333"/>
<path d="M56.7131 364.383L56.7664 391.027L91.948 370.596L91.8947 343.952L56.7131 364.383Z" fill="#D9D9D9"/>
<path d="M85.5754 338.255L48.459 359.68L156.027 429.457L206.404 400.364L85.5754 338.255Z" fill="#D9D9D9"/>
<path d="M48.459 359.68L48.4768 389.341L156.045 459.101L156.027 429.457L48.459 359.68Z" fill="#999999"/>
<path d="M206.404 400.364L206.439 430.007L156.045 459.1L156.027 429.457L206.404 400.364Z" fill="#808080"/>
<path d="M89.0909 387.672L84.2449 384.885C83.9787 384.743 83.7302 384.619 83.4817 384.53C83.2509 384.442 83.0024 384.388 82.7894 384.37C82.5586 384.353 82.3634 384.353 82.1681 384.37C81.9729 384.406 81.7954 384.459 81.6356 384.548L75.9377 387.832C76.5767 387.548 77.4642 387.654 78.4405 388.222L83.2864 391.009C83.3929 391.08 83.5172 391.151 83.6237 391.222C85.381 392.394 86.7655 394.684 86.7655 396.494V397.062L86.801 410.819C86.801 411.6 86.5348 412.168 86.1088 412.505L91.8244 409.221C92.3215 408.902 92.6232 408.316 92.6232 407.464L92.5877 393.707V393.122C92.5877 392.767 92.5345 392.376 92.428 392.003C92.1262 390.849 91.3984 389.625 90.4576 388.702C90.1381 388.382 89.8009 388.098 89.4459 387.85C89.3394 387.779 89.2328 387.708 89.1086 387.637L89.0909 387.672Z" fill="#808080"/>
<path d="M89.0901 387.672L87.9896 387.033L82.1674 390.388L83.268 391.027C83.3745 391.098 83.4987 391.169 83.6052 391.24C85.3625 392.412 86.7471 394.701 86.7471 396.512V397.08L92.5692 393.725V393.139C92.5692 392.767 92.516 392.394 92.4095 392.021C92.1077 390.867 91.38 389.66 90.4392 388.72C90.1197 388.4 89.7824 388.116 89.4274 387.867C89.3209 387.796 89.2144 387.725 89.0901 387.654V387.672Z" fill="#D9D9D9"/>
<path d="M89.0909 387.672L84.2449 384.885C83.9787 384.743 83.7302 384.619 83.4817 384.53C83.2332 384.442 83.0024 384.388 82.7894 384.37C82.5586 384.353 82.3634 384.353 82.1681 384.37C81.9729 384.406 81.7954 384.459 81.6356 384.548L75.9377 387.85C76.5767 387.566 77.4642 387.672 78.4405 388.24L83.2864 391.027C83.3929 391.098 83.5172 391.169 83.6237 391.24L89.4459 387.885C89.3394 387.814 89.2328 387.743 89.1086 387.672H89.0909Z" fill="#E6E6E6"/>
<path d="M83.2686 391.027L78.4227 388.24C77.4464 387.672 76.5589 387.566 75.9198 387.85L75.7246 387.956C75.2453 388.276 74.9436 388.861 74.9436 389.696L74.9791 404.038C74.9791 405.955 76.5411 408.405 78.4582 409.523L83.3041 412.31C84.4401 412.967 85.4341 413.002 86.0732 412.523C86.5169 412.186 86.7654 411.618 86.7654 410.837L86.7299 396.494C86.7299 394.577 85.1679 392.128 83.2508 391.009L83.2686 391.027Z" fill="#B3B3B3"/>
<path d="M81.9904 396.334L79.6296 394.968C79.1503 394.684 78.7243 394.648 78.4048 394.772L78.3161 394.826C78.0853 394.985 77.9433 395.269 77.9433 395.678L78.0676 401.535C78.0676 402.476 78.8308 403.665 79.7716 404.216L82.1324 405.582C82.6827 405.902 83.1797 405.92 83.4815 405.689C83.6945 405.529 83.8187 405.245 83.8187 404.872L83.6945 399.015C83.6945 398.074 82.9312 396.885 81.9904 396.334Z" fill="#CB0A29"/>
<path d="M414.795 580.177L418.346 593.49L420.174 592.141L420.138 601.105C420.174 606.661 413.198 611.56 403.4 612.465C392.607 613.459 382.525 609.235 380.874 603.004L377.945 591.981C377.111 588.875 374.182 586.106 369.78 584.277L293.719 552.575V543.593L305.452 545.812L308.097 544.285L403.737 571.461C409.666 573.148 413.801 576.396 414.813 580.177H414.795Z" fill="#808080"/>
<path d="M403.719 562.48C409.648 564.166 413.784 567.414 414.796 571.195L419.926 590.419C421.576 596.632 414.192 602.489 403.4 603.483C392.607 604.477 382.525 600.253 380.874 594.022L377.945 582.999C377.111 579.893 374.182 577.124 369.78 575.295L293.719 543.593L308.079 535.303L403.719 562.48Z" fill="#D9D9D9"/>
<path d="M255.856 514.837L339.16 466.698L285.18 435.581L201.877 483.721L255.856 514.837Z" fill="#737373"/>
<path d="M255.856 514.837V524.707L339.16 476.567V466.698L255.856 514.837Z" fill="#333333"/>
<path d="M201.877 483.721V493.608L255.856 524.707V514.837L201.877 483.721Z" fill="#595959"/>
<path d="M325.687 449.178C324.285 448.556 322.527 448.698 320.628 449.799L263.915 482.549C259.335 485.194 255.608 492.312 255.608 498.436V508.536L212.563 483.703V473.603C212.563 467.479 216.29 460.361 220.888 457.716L277.583 424.966C279.678 423.759 281.595 423.688 283.05 424.558L325.669 449.16L325.687 449.178Z" fill="#D9D9D9"/>
<path d="M259.743 486.472C257.258 489.827 255.608 494.353 255.608 498.436V508.536L212.562 483.703V473.603C212.562 469.502 214.231 464.994 216.716 461.639L259.761 486.472H259.743Z" fill="#999999"/>
<path d="M328.936 456.083V466.183L255.59 508.518V498.418C255.59 492.294 259.318 485.176 263.898 482.531L320.611 449.781C322.528 448.681 324.285 448.521 325.67 449.16C325.705 449.16 325.723 449.16 325.741 449.213C327.693 450.101 328.918 452.533 328.918 456.083H328.936Z" fill="#808080"/>
<path d="M237.13 443.036V461.692L262.051 476.159V457.485L237.13 443.036Z" fill="#595959"/>
<path d="M300.233 435.581L262.051 457.485V476.159L300.233 454.237V435.581Z" fill="#333333"/>
<path d="M262.051 457.485L237.129 443.036L275.293 421.132L300.233 435.581L262.051 457.485Z" fill="#737373"/>
<path d="M333.958 227.722L324.196 217.995L326.272 217.089L318.48 212.634C313.687 209.829 305.966 213.433 300.286 221.438C294.037 230.278 292.653 241.124 297.215 245.685L305.291 253.744C307.563 256.016 308.504 259.939 307.883 264.661L297.304 346.384L305.096 350.858L309.037 339.604L311.681 338.077L335.982 241.656C337.491 235.674 336.745 230.473 333.976 227.704L333.958 227.722Z" fill="#B3B3B3"/>
<path d="M343.775 246.165C345.284 240.183 344.539 234.982 341.769 232.213L327.693 218.172C323.131 213.628 314.363 217.107 308.114 225.947C301.866 234.787 300.482 245.632 305.044 250.194L313.12 258.253C315.392 260.525 316.333 264.448 315.712 269.17L305.132 350.893L319.492 342.604L343.793 246.183L343.775 246.165Z" fill="#333333"/>
<path d="M339.816 232.195L326.645 255.004L311.504 246.005C309.836 245.011 308.806 242.934 308.806 239.952C308.806 233.988 312.96 226.763 318.09 223.799C320.663 222.308 322.989 222.184 324.675 223.178L339.816 232.177V232.195Z" fill="#B3B3B3"/>
<path d="M339.816 232.195L324.675 223.196C322.989 222.202 320.663 222.326 318.089 223.817C315.214 225.468 312.658 228.467 310.954 231.822L332.645 244.603L339.816 232.195Z" fill="#E6E6E6"/>
<path d="M332.716 232.514C327.586 235.479 323.432 242.703 323.432 248.667C323.432 254.632 327.586 257.063 332.716 254.099C337.846 251.135 342 243.91 342 237.946C342 231.982 337.846 229.55 332.716 232.514Z" fill="#999999"/>
<path d="M351.727 231.822L332.183 265.655L320.983 259.193C318.515 257.72 316.971 254.631 316.971 250.229C316.971 241.39 323.13 230.668 330.745 226.284C334.562 224.083 338.023 223.887 340.508 225.361L351.709 231.822H351.727Z" fill="#B3B3B3"/>
<path d="M351.727 231.822L340.526 225.361C338.024 223.888 334.58 224.083 330.764 226.266C326.503 228.734 322.705 233.154 320.184 238.142L341.094 250.212L351.727 231.805V231.822Z" fill="#E6E6E6"/>
<path d="M341.201 232.302C333.604 236.686 327.426 247.425 327.426 256.247C327.426 265.069 333.586 268.69 341.201 264.306C348.798 259.922 354.975 249.183 354.975 240.361C354.975 231.539 348.816 227.917 341.201 232.302Z" fill="#999999"/>
<path d="M352.97 508.252V456.189L371.768 467.035V519.097L352.97 508.252Z" fill="#999999"/>
<path d="M371.768 519.098L481.59 463.645V390.335L371.768 467.035V519.098Z" fill="#808080"/>
<path d="M481.59 390.335L371.768 467.035L352.97 456.189L452.71 373.667L481.59 390.335Z" fill="#D9D9D9"/>
<path d="M299.984 369.371V386.607L405.92 447.935V430.682L299.984 369.371Z" fill="#999999"/>
<path d="M495.827 378.744L405.921 430.682V447.935L495.827 395.997V378.744Z" fill="#808080"/>
<path d="M405.919 430.682L299.984 369.371L389.891 317.433L495.826 378.744L405.919 430.682Z" fill="#D9D9D9"/>
<path d="M495.826 378.744L420.44 422.304H404.606L404.34 337.917H425.303L495.826 378.744Z" fill="#999999"/>
<path d="M482.105 258.608V377.608L404.837 422.304V303.286C404.837 291.5 397.665 277.796 388.826 272.684L327.941 237.538C324.071 235.301 320.504 235.088 317.752 236.544L394.506 192.15V192.185C397.346 190.41 401.109 190.463 405.227 192.86L466.111 228.006C474.969 233.1 482.122 246.804 482.122 258.608H482.105Z" fill="#F2F2F2"/>
<path d="M482.105 258.608V277.992L404.837 322.616V303.286C404.837 294.908 401.216 285.589 395.979 279.057L473.283 234.432C478.537 240.946 482.123 250.265 482.123 258.626L482.105 258.608Z" fill="#B3B3B3"/>
<path d="M482.105 261.892V377.607L404.819 422.303V306.517L482.105 261.892Z" fill="#808080"/>
<path d="M404.819 303.286V422.303L311.895 368.644V249.644C311.895 243.094 314.114 238.496 317.611 236.597C317.646 236.562 317.664 236.544 317.717 236.544C320.468 235.088 324.036 235.301 327.906 237.538L388.79 272.684C397.648 277.796 404.801 291.5 404.801 303.286H404.819Z" fill="#999999"/>
<path d="M366.158 209.83H427.824V232.799C427.77 237.343 424.735 241.869 418.718 245.348C406.63 252.324 387.122 252.36 375.105 245.419C369.069 241.94 366.087 237.361 366.14 232.799V209.83H366.158Z" fill="#999999"/>
<path d="M366.158 209.83V232.799C366.105 237.378 369.104 241.958 375.122 245.437C381.832 249.307 390.902 251.011 399.706 250.514V209.83H366.176H366.158Z" fill="#B3B3B3"/>
<path d="M375.123 223.835C387.122 230.757 406.648 230.722 418.736 223.764C430.824 216.805 430.877 205.516 418.878 198.593C406.879 191.671 387.353 191.688 375.265 198.664C363.177 205.64 363.123 216.912 375.123 223.835Z" fill="#F2F2F2"/>
<path d="M467.248 298.387L447.704 332.219L436.504 325.758C434.036 324.285 432.492 321.196 432.492 316.794C432.492 307.954 438.651 297.233 446.266 292.849C450.083 290.647 453.544 290.452 456.029 291.925L467.23 298.387H467.248Z" fill="#B3B3B3"/>
<path d="M467.248 298.387L456.065 291.926C453.562 290.452 450.119 290.648 446.302 292.831C442.042 295.28 438.244 299.718 435.723 304.706L456.633 316.776L467.266 298.369L467.248 298.387Z" fill="#E6E6E6"/>
<path d="M456.722 298.866C449.125 303.25 442.948 313.989 442.948 322.812C442.948 331.634 449.107 335.255 456.722 330.87C464.319 326.486 470.497 315.747 470.497 306.925C470.497 298.103 464.337 294.482 456.722 298.866Z" fill="#999999"/>
<path d="M478.555 312.534L465.384 335.343L450.243 326.344C448.574 325.35 447.545 323.255 447.545 320.291C447.545 314.327 451.698 307.102 456.828 304.138C459.402 302.647 461.727 302.523 463.414 303.517L478.555 312.516V312.534Z" fill="#B3B3B3"/>
<path d="M478.555 312.534L463.414 303.534C461.727 302.54 459.402 302.665 456.828 304.156C453.953 305.807 451.397 308.806 449.692 312.161L471.384 324.942L478.555 312.534Z" fill="#E6E6E6"/>
<path d="M471.472 312.853C466.342 315.818 462.189 323.042 462.189 329.006C462.189 334.971 466.342 337.402 471.472 334.438C476.602 331.474 480.756 324.249 480.756 318.285C480.756 312.321 476.602 309.889 471.472 312.853Z" fill="#999999"/>
<path d="M386.607 317.362V354.354C386.607 354.993 386.554 355.597 386.447 356.147C386.359 356.68 386.199 357.177 386.004 357.603C385.808 358.046 385.595 358.419 385.311 358.739C385.045 359.058 384.743 359.325 384.406 359.52L379.613 362.324C380.82 361.455 381.566 359.697 381.566 357.283V320.291C381.566 320.025 381.566 319.723 381.53 319.457C381.229 314.93 378.477 309.925 375.122 307.99L374.057 307.369L330.799 282.411C329.344 281.577 327.995 281.453 326.912 281.897L331.705 279.074C332.823 278.488 334.243 278.577 335.823 279.483L379.045 304.44L380.11 305.061C380.785 305.434 381.424 305.949 382.01 306.552C383.838 308.345 385.311 310.99 386.039 313.723C386.288 314.646 386.447 315.587 386.518 316.528C386.536 316.812 386.554 317.096 386.554 317.38L386.607 317.362Z" fill="#E6E6E6"/>
<path d="M386.607 317.362V320.06L381.584 323.007V320.291C381.584 320.025 381.584 319.723 381.548 319.457C381.246 314.93 378.495 309.925 375.14 307.99L374.075 307.369L379.081 304.44L380.146 305.061C380.82 305.451 381.442 305.948 382.045 306.552C383.873 308.363 385.329 311.007 386.075 313.723C386.323 314.646 386.483 315.587 386.554 316.528C386.572 316.812 386.589 317.096 386.589 317.38L386.607 317.362Z" fill="#D9D9D9"/>
<path d="M386.607 317.362V354.354C386.607 354.993 386.553 355.597 386.447 356.147C386.34 356.68 386.198 357.177 386.003 357.603C385.808 358.047 385.577 358.419 385.311 358.739C385.045 359.058 384.743 359.325 384.406 359.52L379.613 362.324C380.82 361.455 381.566 359.697 381.566 357.283V320.291C381.566 320.025 381.566 319.723 381.53 319.457L386.553 316.51C386.571 316.794 386.589 317.078 386.589 317.362H386.607Z" fill="#808080"/>
<path d="M381.565 320.291V357.283C381.565 359.697 380.82 361.455 379.613 362.324L379.205 362.555C378.104 363.105 376.684 363.017 375.14 362.147L330.834 336.568C327.284 334.509 324.391 329.007 324.391 324.249V287.257C324.391 284.453 325.385 282.553 326.947 281.879C328.03 281.435 329.361 281.559 330.834 282.394L375.14 307.972C378.69 310.031 381.583 315.534 381.583 320.273L381.565 320.291Z" fill="#B3B3B3"/>
<path d="M366.939 314.895V345.781C366.939 346.952 366.566 347.822 365.981 348.248L365.785 348.372C365.253 348.639 364.561 348.603 363.797 348.177L342.177 335.699C340.438 334.687 339.035 332.006 339.035 329.681V298.795C339.035 297.428 339.515 296.505 340.278 296.168C340.81 295.955 341.449 296.008 342.177 296.417L363.797 308.895C365.537 309.907 366.939 312.587 366.939 314.895Z" fill="#333333"/>
<path d="M366.602 312.836C366.194 314.38 365.448 315.995 364.437 317.54C362.306 320.717 359.537 323.255 356.484 325.474C355.384 326.291 354.265 327.054 353.112 327.782C351.922 328.545 350.698 329.291 349.491 330.054C349.207 330.214 348.887 330.391 348.603 330.586C348.212 330.817 347.84 331.048 347.449 331.279C346.686 331.74 345.94 332.184 345.213 332.663C345.159 332.681 345.124 332.734 345.071 332.752C344.236 333.249 343.455 333.799 342.639 334.296C342.231 334.562 341.822 334.846 341.45 335.13C338.556 337.083 335.911 339.142 333.426 341.308C330.267 344.024 327.427 346.899 324.924 349.899C324.373 350.538 323.841 351.195 323.344 351.852C320.841 355.1 318.64 358.561 316.829 362.236C315.942 364.011 315.161 365.821 314.469 367.65C314.131 368.555 313.83 369.496 313.546 370.401C313.315 371.111 313.208 372.247 312.321 372.424C311.984 372.495 311.629 372.442 311.309 372.336C310.209 371.945 311.167 370.099 311.398 369.407C312.587 365.626 314.185 362.005 316.102 358.543C318.125 354.958 320.504 351.55 323.149 348.39C325.563 345.497 328.314 342.674 331.314 340.083C333.994 337.669 336.87 335.397 340.012 333.249C340.935 332.61 341.893 331.989 342.87 331.367C343.225 331.101 343.58 330.87 343.97 330.657C344.467 330.338 344.982 330.018 345.497 329.734C345.656 329.61 345.852 329.504 346.029 329.397C346.491 329.113 346.934 328.847 347.414 328.581C347.627 328.456 347.84 328.314 348.053 328.172C350.218 326.859 352.402 325.527 354.478 324.036C355.579 323.273 356.626 322.457 357.656 321.605C359.502 320.007 361.17 318.267 362.502 316.226C363.726 314.345 364.774 311.877 364.65 309.534C365.502 310.315 366.229 311.54 366.602 312.8V312.836Z" fill="#CB0A29"/>
<path d="M345.053 332.752C344.911 334.278 344.964 335.805 345.071 337.367C345.195 338.822 345.408 340.278 345.621 341.734C345.763 342.639 345.923 343.544 346.082 344.432C346.136 344.733 346.207 345.071 346.242 345.408C346.455 346.597 346.65 347.822 346.792 349.047C346.881 349.757 346.952 350.431 347.023 351.124C347.307 354.159 347.804 357.159 348.319 360.07C349.082 364.632 349.899 369.353 349.845 374.253C349.792 377.998 349.384 381.779 348.532 385.435C347.928 387.921 347.147 390.352 346.118 392.678C345.639 393.707 345.142 394.737 344.591 395.713C344.165 396.459 343.775 397.328 343.136 397.914C342.71 398.322 341.361 398.518 341.112 397.772C340.846 397.08 341.503 395.962 341.929 395.411C342.568 394.577 343.083 393.672 343.526 392.713C344.414 390.92 345.106 389.039 345.674 387.122C346.917 382.95 347.467 378.601 347.52 374.253C347.573 369.549 346.775 364.934 346.011 360.478C345.532 357.514 345.017 354.461 344.716 351.354C344.645 350.609 344.556 349.846 344.449 349.118C344.378 348.621 344.307 348.106 344.236 347.609C344.112 346.757 343.952 345.905 343.81 345.071C343.793 344.982 343.793 344.911 343.757 344.84C343.26 341.982 342.781 338.982 342.639 336C342.621 335.45 342.621 334.882 342.621 334.332C342.639 333.728 342.674 333.089 342.71 332.486C342.727 332.131 342.781 331.776 342.852 331.403C343.065 329.663 343.455 327.941 343.899 326.273C344.201 325.243 344.538 324.214 344.875 323.184C345.372 321.782 345.905 320.397 346.455 319.013C346.917 317.788 347.378 316.581 347.822 315.338C349.206 311.451 350.804 305.931 349.739 300.801L352.295 302.274C352.828 307.368 351.336 312.463 350.023 316.12C349.597 317.362 349.1 318.605 348.638 319.847C347.875 321.835 347.094 323.859 346.473 325.918C346.153 326.93 345.905 327.924 345.656 328.918C345.603 329.202 345.532 329.468 345.497 329.752C345.284 330.728 345.142 331.687 345.071 332.663V332.752H345.053Z" fill="#CB0A29"/>
<path d="M359.644 306.481C359.644 311.611 358.951 316.705 357.638 321.622C357.301 322.918 356.928 324.196 356.466 325.474C355.614 328.013 354.585 330.48 353.36 332.876C353.236 333.107 353.129 333.355 352.97 333.568C352.899 333.71 352.845 333.852 352.774 333.977C352.49 334.598 352.153 335.166 351.798 335.77C351.727 335.894 351.656 336.036 351.585 336.142C350.875 337.438 350.129 338.681 349.419 339.888C349.402 339.905 349.402 339.941 349.366 339.959C348.319 341.751 347.218 343.544 346.242 345.408C345.745 346.313 345.284 347.219 344.858 348.159C344.716 348.461 344.573 348.781 344.449 349.082C344.147 349.686 343.899 350.307 343.668 350.929C342.568 353.857 341.822 356.875 341.378 359.981C340.846 363.585 340.704 367.224 340.757 370.862C340.775 372.655 340.828 374.448 340.917 376.241C340.97 377.128 341.006 378.016 341.059 378.886C341.112 379.649 341.361 380.199 340.704 380.803C340.562 380.927 340.384 380.998 340.225 381.034C339.266 381.318 338.84 380.732 338.787 379.862C338.734 378.957 338.663 378.069 338.627 377.164C338.538 375.3 338.467 373.454 338.432 371.608C338.29 364.348 338.858 356.946 341.467 350.094C341.893 349.011 342.319 348 342.834 346.97C343.136 346.331 343.473 345.674 343.81 345.035C344.378 343.917 345 342.817 345.621 341.734C346.189 340.722 346.792 339.746 347.36 338.769C347.36 338.752 347.378 338.752 347.378 338.716C348.23 337.261 349.118 335.805 349.952 334.296C350.023 334.154 350.112 334.012 350.183 333.87C350.52 333.267 350.804 332.681 351.106 332.095C351.159 332.006 351.194 331.9 351.248 331.811C351.301 331.74 351.319 331.669 351.336 331.598C351.958 330.356 352.561 329.06 353.023 327.782H353.041C353.573 326.557 354.017 325.314 354.407 324.054C356.395 318.125 357.336 311.86 357.247 305.594C357.247 305.452 357.247 305.292 357.23 305.132L359.59 306.463L359.644 306.481Z" fill="#CB0A29"/>
<path d="M368.785 361.739C368.039 357.052 366.495 352.526 364.152 348.372C363.726 347.609 363.247 346.846 362.767 346.1C360.424 342.444 357.442 339.16 354.584 335.983C353.981 335.308 353.395 334.651 352.792 333.977C352.33 333.497 351.904 333 351.46 332.503C351.372 332.379 351.247 332.237 351.141 332.113C350.679 331.58 350.289 331.066 349.827 330.515C349.703 330.373 349.596 330.231 349.472 330.054C348.975 329.45 348.496 328.829 348.034 328.19C347.484 327.444 346.952 326.681 346.455 325.9C345.887 325.013 345.354 324.107 344.875 323.184C344.573 322.616 344.307 322.031 344.041 321.445C341.147 314.806 341.573 305.523 343.331 297.091L342.159 296.417C341.804 296.204 341.467 296.079 341.129 296.062C339.141 305.168 338.715 315.072 341.893 322.386C342.461 323.717 343.153 325.03 343.899 326.273C344.449 327.178 345.052 328.066 345.638 328.918C345.762 329.078 345.904 329.255 345.993 329.415C346.472 330.054 346.952 330.657 347.431 331.279C347.839 331.776 348.247 332.29 348.673 332.787C349.099 333.32 349.525 333.835 349.969 334.314C350.058 334.438 350.182 334.545 350.271 334.669C350.697 335.166 351.159 335.681 351.585 336.142C352.011 336.622 352.419 337.083 352.845 337.545C355.241 340.189 357.708 342.941 359.785 345.887C360.14 346.367 360.478 346.864 360.815 347.361C363.371 351.284 365.146 355.65 366.087 360.177C367.187 365.289 367.241 370.596 366.211 375.726C365.732 378.069 365.039 380.359 364.223 382.631C363.815 383.749 363.389 384.85 362.927 385.968C362.661 386.643 361.543 388.24 362.572 388.684C364.312 389.394 364.915 387.299 365.412 386.057C365.838 384.974 366.246 383.891 366.637 382.791C367.4 380.625 368.039 378.424 368.501 376.152C369.459 371.395 369.53 366.513 368.767 361.721L368.785 361.739Z" fill="#CB0A29"/>
<path d="M352.065 138.863L338.894 161.672L334.119 158.921C332.451 157.927 331.421 155.85 331.421 152.868C331.421 146.904 335.575 139.679 340.705 136.715C343.279 135.224 345.604 135.099 347.29 136.094L352.065 138.845V138.863Z" fill="#B3B3B3"/>
<path d="M352.065 138.863L347.29 136.111C345.604 135.117 343.278 135.242 340.705 136.733C337.829 138.383 335.273 141.383 333.569 144.738L344.894 151.27L352.065 138.863Z" fill="#E6E6E6"/>
<path d="M344.965 139.182C339.835 142.147 335.681 149.371 335.681 155.335C335.681 161.299 339.835 163.731 344.965 160.767C350.095 157.803 354.248 150.578 354.248 144.614C354.248 138.65 350.095 136.218 344.965 139.182Z" fill="#999999"/>
<path d="M368.431 141.791L348.887 175.624L337.687 169.163C335.219 167.689 333.675 164.601 333.675 160.199C333.675 151.359 339.834 140.638 347.449 136.253C351.266 134.052 354.727 133.857 357.212 135.33L368.413 141.791H368.431Z" fill="#B3B3B3"/>
<path d="M368.431 141.791L357.248 135.33C354.745 133.857 351.302 134.052 347.485 136.236C343.225 138.685 339.427 143.123 336.906 148.111L357.816 160.181L368.449 141.774L368.431 141.791Z" fill="#E6E6E6"/>
<path d="M357.923 142.271C350.325 146.655 344.148 157.394 344.148 166.216C344.148 175.038 350.308 178.659 357.923 174.275C365.52 169.891 371.697 159.152 371.697 150.33C371.697 141.508 365.538 137.886 357.923 142.271Z" fill="#999999"/>
<path d="M442.699 146.637L394.204 118.645C392.5 117.651 390.92 117.562 389.696 118.219L342.781 145.324L350.343 161.015L387.14 171.95V177.009C387.14 182.192 390.299 188.227 394.187 190.481L398.003 192.682L388.027 220.107L400.044 246.129L447.349 218.829C448.823 217.941 449.746 215.971 449.746 213.149V160.128C449.746 154.945 446.586 148.91 442.699 146.655V146.637Z" fill="#E6E6E6"/>
<path d="M449.746 160.092V163.057L397.897 192.984L367.863 210.309V188.476L387.158 177.328L441.51 145.945L442.681 146.62C446.569 148.874 449.746 154.909 449.746 160.075V160.092Z" fill="#B3B3B3"/>
<path d="M449.746 160.092V213.113C449.746 215.918 448.805 217.906 447.332 218.776L400.027 246.076L388.009 220.054L398.003 192.629L394.861 190.801L449.693 159.152C449.71 159.471 449.728 159.755 449.728 160.075L449.746 160.092Z" fill="#808080"/>
<path d="M395.607 245.632L347.112 217.64C343.225 215.385 340.066 209.368 340.066 204.167V151.146C340.066 145.963 343.225 143.567 347.112 145.821L395.607 173.814C399.494 176.068 402.654 182.085 402.654 187.286V240.307C402.654 245.49 399.494 247.887 395.607 245.632Z" fill="#999999"/>
<g style="mix-blend-mode:multiply">
<path d="M394.897 184.872C395.394 185.156 395.891 185.653 396.264 186.31L397.489 188.422C398.234 189.736 398.234 191.138 397.489 191.564L393.051 194.085L397.471 201.717C398.217 203.013 398.217 204.415 397.471 204.859L396.246 205.552C395.874 205.765 395.377 205.694 394.88 205.41C394.382 205.126 393.886 204.628 393.513 203.972L389.111 196.339L384.673 198.877C384.3 199.09 383.803 199.019 383.306 198.735C382.809 198.451 382.312 197.954 381.939 197.298L380.732 195.185C379.969 193.889 379.987 192.469 380.732 192.043L385.17 189.505L380.768 181.872C380.005 180.576 380.022 179.156 380.768 178.73L381.993 178.038C382.365 177.825 382.862 177.896 383.359 178.18C383.856 178.464 384.353 178.961 384.726 179.618L389.128 187.251L393.566 184.73C393.939 184.517 394.436 184.588 394.933 184.872H394.897Z" fill="#999999"/>
</g>
<g style="mix-blend-mode:multiply">
<path d="M390.53 226.391L388.081 217.799L385.844 220.994L361.899 207.167C361.064 206.688 360.301 206.617 359.68 206.883C358.792 207.273 358.224 208.356 358.224 209.954V216.788C358.224 219.503 359.875 222.645 361.899 223.835L387.247 238.461C388.116 238.958 388.933 239.011 389.572 238.692L389.803 238.55C390.495 238.053 390.921 237.041 390.921 235.656V228.822C390.921 228.024 390.761 227.189 390.513 226.373L390.53 226.391Z" fill="#999999"/>
</g>
<g style="mix-blend-mode:multiply">
<path d="M359.965 169.749C364.118 172.145 367.491 178.003 367.491 182.831C367.491 187.659 364.118 189.629 359.965 187.233C355.811 184.837 352.438 178.979 352.438 174.151C352.438 169.323 355.811 167.352 359.965 169.749Z" fill="#999999"/>
</g>
<path d="M421.683 158.743L373.188 130.751C371.484 129.757 369.904 129.668 368.68 130.325L365.254 132.331C366.478 131.692 368.04 131.78 369.762 132.757L418.257 160.749C422.144 163.004 425.304 169.021 425.304 174.222V227.243C425.304 229.959 424.434 231.876 423.067 232.799L426.333 230.917C427.807 230.03 428.73 228.059 428.73 225.237V172.216C428.73 167.033 425.57 160.998 421.683 158.743Z" fill="#686868"/>
<path d="M445.734 186.434L426.191 220.267L414.99 213.805C412.523 212.332 410.978 209.244 410.978 204.841C410.978 196.002 417.138 185.28 424.753 180.896C428.569 178.695 432.031 178.5 434.516 179.973L445.716 186.434H445.734Z" fill="#B3B3B3"/>
<path d="M445.716 186.434L434.515 179.973C432.013 178.5 428.569 178.695 424.753 180.878C420.492 183.328 416.694 187.765 414.173 192.753L435.083 204.824L445.716 186.416V186.434Z" fill="#E6E6E6"/>
<path d="M435.209 186.913C427.611 191.298 421.434 202.037 421.434 210.859C421.434 219.681 427.594 223.302 435.209 218.918C442.806 214.533 448.983 203.812 448.983 194.972C448.983 186.132 442.824 182.529 435.209 186.913Z" fill="#999999"/>
<path d="M446.675 194.333L433.504 217.143L428.729 214.391C427.061 213.397 426.031 211.303 426.031 208.338C426.031 202.374 430.185 195.15 435.315 192.185C437.888 190.694 440.214 190.57 441.9 191.564L446.675 194.315V194.333Z" fill="#B3B3B3"/>
<path d="M446.675 194.333L441.9 191.582C440.214 190.588 437.889 190.712 435.315 192.203C432.439 193.854 429.883 196.854 428.179 200.209L439.504 206.741L446.675 194.333Z" fill="#E6E6E6"/>
<path d="M439.593 194.653C434.463 197.617 430.309 204.841 430.309 210.806C430.309 216.77 434.463 219.202 439.593 216.237C444.723 213.273 448.876 206.048 448.876 200.084C448.876 194.12 444.723 191.688 439.593 194.653Z" fill="#999999"/>
<g style="mix-blend-mode:multiply">
<path d="M424.825 140.212C422.322 138.774 419.003 138.099 415.736 138.188L394.613 138.17V152.3H415.736C418.985 152.335 422.286 151.661 424.771 150.223C429.564 147.454 429.582 142.981 424.825 140.229V140.212Z" fill="#D9D9D9"/>
</g>
<path d="M382.329 138.987H406.789V145.2C406.772 146.992 405.565 148.803 403.186 150.17C398.393 152.939 390.654 152.957 385.879 150.205C383.483 148.821 382.311 147.01 382.329 145.2V138.987Z" fill="#999999"/>
<path d="M382.329 138.987V145.2C382.311 147.01 383.501 148.839 385.879 150.205C388.542 151.75 392.145 152.424 395.624 152.229V138.987H382.329Z" fill="#B3B3B3"/>
<path d="M385.879 144.543C390.636 147.294 398.393 147.276 403.186 144.507C407.979 141.738 407.996 137.265 403.239 134.514C398.482 131.762 390.725 131.78 385.933 134.549C381.14 137.318 381.122 141.791 385.879 144.543Z" fill="#F2F2F2"/>
<path d="M400.914 138.277C400.861 139.164 400.239 140.052 399.068 140.726C396.583 142.164 392.571 142.164 390.104 140.744C388.968 140.087 388.364 139.253 388.276 138.383L388.347 137.602L394.541 60.6005L400.861 137.638L400.914 138.277Z" fill="#B3B3B3"/>
<path d="M400.915 138.277C400.862 139.164 400.24 140.052 399.069 140.726C397.826 141.436 396.175 141.809 394.542 141.809V60.6182L400.862 137.656L400.915 138.295V138.277Z" fill="#999999"/>
<path d="M399.44 59.2514C401.002 61.9495 400.079 65.3931 397.381 66.9551C394.683 68.5172 391.24 67.5941 389.678 64.8961C388.116 62.198 389.039 58.7544 391.737 57.1923C394.435 55.6303 397.878 56.5533 399.44 59.2514Z" fill="url(#paint0_radial_642_4775)"/>
<path d="M348.337 164.778L359.005 183.257L362.875 181.02C364.224 180.221 365.058 178.517 365.058 176.121C365.058 171.293 361.685 165.435 357.532 163.039C355.455 161.832 353.556 161.725 352.206 162.542L348.337 164.778Z" fill="#808080"/>
<path d="M348.337 164.778L352.206 162.542C353.573 161.743 355.455 161.832 357.549 163.039C359.875 164.388 361.952 166.802 363.318 169.518L354.141 174.808L348.337 164.761V164.778Z" fill="#E6E6E6"/>
<path d="M354.071 165.045C358.224 167.441 361.597 173.299 361.597 178.127C361.597 182.955 358.224 184.925 354.071 182.529C349.917 180.133 346.545 174.275 346.545 169.447C346.545 164.619 349.917 162.648 354.071 165.045Z" fill="#B3B3B3"/>
<path d="M354.071 168.95C356.36 170.281 358.224 173.512 358.224 176.192C358.224 178.872 356.36 179.955 354.071 178.624C351.781 177.293 349.917 174.062 349.917 171.382C349.917 168.701 351.781 167.619 354.071 168.95Z" fill="#686868"/>
<path d="M388.347 219.716V226.55C388.347 226.923 388.311 227.26 388.258 227.58C388.205 227.882 388.116 228.166 388.01 228.414C387.903 228.663 387.779 228.876 387.619 229.071C387.459 229.248 387.3 229.408 387.104 229.515L380.129 233.544C380.821 233.047 381.247 232.035 381.247 230.651V223.817C381.247 223.657 381.247 223.497 381.229 223.337C381.052 220.746 379.489 217.888 377.572 216.77L376.969 216.415L352.225 202.143C351.39 201.664 350.627 201.593 350.006 201.859L356.982 197.812C357.621 197.475 358.437 197.528 359.343 198.043L384.069 212.314L384.69 212.669C385.063 212.882 385.436 213.166 385.773 213.521C386.82 214.533 387.655 216.06 388.081 217.622C388.223 218.154 388.312 218.687 388.347 219.219C388.347 219.379 388.365 219.539 388.365 219.699L388.347 219.716Z" fill="#E6E6E6"/>
<path d="M388.347 219.716V221.261L381.229 225.379V223.835C381.229 223.675 381.229 223.515 381.211 223.355C381.034 220.764 379.472 217.906 377.555 216.788L376.951 216.433L384.052 212.314L384.673 212.669C385.046 212.9 385.418 213.184 385.756 213.522C386.803 214.551 387.637 216.06 388.063 217.622C388.205 218.154 388.294 218.687 388.329 219.219C388.329 219.379 388.347 219.539 388.347 219.699V219.716Z" fill="#D9D9D9"/>
<path d="M388.347 219.716V226.55C388.347 226.923 388.311 227.26 388.258 227.58C388.205 227.882 388.116 228.166 388.01 228.414C387.903 228.663 387.761 228.876 387.619 229.071C387.459 229.248 387.299 229.408 387.104 229.515L380.128 233.544C380.821 233.047 381.247 232.035 381.247 230.651V223.817C381.247 223.657 381.247 223.497 381.229 223.337L388.347 219.219C388.347 219.379 388.364 219.539 388.364 219.699L388.347 219.716Z" fill="#808080"/>
<path d="M381.229 223.834V230.668C381.229 232.053 380.803 233.065 380.111 233.562L379.88 233.704C379.241 234.023 378.442 233.97 377.555 233.473L352.207 218.846C350.166 217.675 348.533 214.515 348.533 211.8V204.966C348.533 203.368 349.101 202.285 349.988 201.895C350.61 201.628 351.373 201.717 352.207 202.179L377.555 216.805C379.596 217.977 381.229 221.136 381.229 223.834Z" fill="#B3B3B3"/>
<path d="M372.869 220.746V224.083C372.869 224.758 372.656 225.255 372.319 225.485L372.194 225.556C371.893 225.716 371.484 225.681 371.058 225.432L358.686 218.296C357.692 217.728 356.894 216.184 356.894 214.853V211.516C356.894 210.735 357.178 210.202 357.604 210.007C357.905 209.883 358.278 209.918 358.686 210.149L371.058 217.285C372.052 217.853 372.851 219.397 372.851 220.71L372.869 220.746Z" fill="#CB0A29"/>
<path d="M374.643 191.813L378.264 189.7L382.702 187.162L379.063 189.274L374.643 191.813Z" fill="#6D64FF"/>
<path d="M374.679 178.5L378.318 176.387L379.525 175.695L375.904 177.807L374.679 178.5Z" fill="#6D64FF"/>
<path d="M395.021 199.374L390.601 191.741L386.962 193.854L391.382 201.487C392.128 202.782 392.128 204.185 391.382 204.628L395.021 202.516C395.784 202.09 395.784 200.688 395.021 199.374Z" fill="#CC0007"/>
<path d="M382.276 177.275C381.903 176.618 381.406 176.121 380.909 175.837C380.412 175.553 379.915 175.482 379.542 175.695L375.903 177.807C376.276 177.594 376.773 177.665 377.27 177.949C377.767 178.233 378.264 178.73 378.637 179.387L383.039 187.02L386.678 184.908L382.276 177.275Z" fill="#FF999D"/>
<path d="M383.039 187.02L386.678 184.908L391.116 182.369L387.477 184.482L383.039 187.02Z" fill="#CC0007"/>
<path d="M388.844 184.624C389.341 184.908 389.838 185.405 390.211 186.061L391.435 188.174C392.181 189.487 392.181 190.89 391.435 191.316L386.998 193.836L391.418 201.469C392.163 202.765 392.163 204.167 391.418 204.611L390.193 205.303C389.82 205.516 389.323 205.445 388.826 205.161C388.329 204.877 387.832 204.38 387.459 203.723L383.057 196.09L378.619 198.629C378.247 198.842 377.75 198.771 377.253 198.487C376.756 198.203 376.259 197.706 375.886 197.049L374.679 194.937C373.916 193.641 373.933 192.221 374.679 191.795L379.116 189.256L374.714 181.624C373.951 180.328 373.969 178.908 374.714 178.482L375.939 177.79C376.312 177.577 376.809 177.648 377.306 177.932C377.803 178.216 378.3 178.713 378.673 179.369L383.075 187.002L387.513 184.482C387.885 184.269 388.382 184.34 388.879 184.624H388.844Z" fill="#FF3D44"/>
<path d="M395.056 186.061L393.831 183.949C393.458 183.292 392.961 182.795 392.464 182.511C391.967 182.227 391.47 182.156 391.097 182.369L387.458 184.482C387.831 184.269 388.328 184.34 388.825 184.624C389.322 184.908 389.819 185.405 390.192 186.061L391.417 188.174C392.162 189.487 392.162 190.889 391.417 191.315L395.056 189.203C395.819 188.777 395.819 187.357 395.056 186.061Z" fill="#FF999D"/>
<path d="M382.4 458.177L387.228 454.947C387.494 454.769 387.707 454.592 387.92 454.397C388.115 454.219 388.275 454.024 388.399 453.829C388.541 453.633 388.63 453.438 388.701 453.243C388.772 453.048 388.808 452.852 388.808 452.657V445.805C388.737 446.533 388.204 447.314 387.228 447.953L382.4 451.184C382.293 451.255 382.169 451.326 382.063 451.397C380.163 452.497 377.501 452.746 375.939 451.911L375.442 451.645L363.513 445.326C362.839 444.953 362.466 444.456 362.395 443.888V450.74C362.413 451.361 362.785 451.911 363.513 452.302L375.424 458.603L375.921 458.87C376.223 459.047 376.578 459.171 376.968 459.242C378.122 459.491 379.524 459.384 380.802 458.923C381.228 458.781 381.654 458.586 382.045 458.355C382.169 458.284 382.276 458.213 382.4 458.142V458.177Z" fill="#CCCCCC"/>
<path d="M382.4 458.177L383.483 457.45V450.474L382.383 451.201C382.276 451.272 382.152 451.343 382.045 451.414C380.146 452.515 377.483 452.763 375.921 451.929L375.424 451.663V458.639L375.921 458.905C376.241 459.065 376.578 459.189 376.969 459.278C378.122 459.526 379.525 459.402 380.803 458.958C381.229 458.816 381.655 458.621 382.045 458.39C382.17 458.319 382.276 458.248 382.4 458.177Z" fill="#B3B3B3"/>
<path d="M382.4 458.178L387.228 454.947C387.495 454.769 387.708 454.592 387.921 454.397C388.116 454.201 388.276 454.024 388.4 453.829C388.542 453.633 388.631 453.438 388.702 453.243C388.773 453.048 388.808 452.852 388.808 452.657V445.805C388.737 446.533 388.187 447.314 387.211 447.953L382.382 451.184C382.276 451.255 382.152 451.326 382.045 451.397V458.373C382.169 458.302 382.276 458.231 382.4 458.16V458.178Z" fill="#808080"/>
<path d="M382.4 451.184L387.229 447.953C388.205 447.296 388.737 446.515 388.808 445.805V445.575C388.773 444.971 388.4 444.421 387.69 444.048L375.265 437.462C373.596 436.575 370.703 436.894 368.786 438.19L363.958 441.421C362.822 442.184 362.289 443.089 362.378 443.906C362.449 444.474 362.822 444.971 363.496 445.344L375.921 451.929C377.59 452.817 380.483 452.497 382.4 451.201V451.184Z" fill="#E6E6E6"/>
<path d="M378.442 447.545L380.803 445.965C381.282 445.645 381.548 445.273 381.566 444.918V444.793C381.566 444.509 381.371 444.225 381.016 444.048L375.886 441.474C375.069 441.048 373.667 441.208 372.726 441.829L370.365 443.409C369.815 443.782 369.549 444.225 369.602 444.616C369.638 444.882 369.815 445.131 370.152 445.308L375.282 447.882C376.099 448.308 377.501 448.148 378.442 447.527V447.545Z" fill="#FF3D44"/>
<path d="M513.79 442.734L614.045 384.477L674.06 419.126L573.805 477.384L513.79 442.734Z" fill="#F7E6BB"/>
<path d="M610.317 531.043L710.573 472.786L710.377 541.747L610.122 600.022L610.317 531.043Z" fill="#E69900"/>
<path d="M642.872 517.251L743.11 458.994L743.021 491.531L642.766 549.788L642.872 517.251Z" fill="#FFA600"/>
<path d="M610.406 498.507L710.661 440.249L743.109 458.994L642.871 517.251L610.406 498.507Z" fill="#F7E6BB"/>
<path d="M574.053 388.489L674.309 330.231L614.045 384.477L513.79 442.734L574.053 388.489Z" fill="#E69900"/>
<path d="M610.548 310.99L710.803 252.732L710.661 440.249L610.406 498.507L610.548 310.99Z" fill="#E69900"/>
<path d="M610.406 498.507L642.872 517.251L642.783 549.788L610.318 531.043L610.122 600.004L573.521 578.863L573.716 509.902L458.621 443.444L610.548 310.972L610.406 498.507ZM573.805 477.366L574.053 388.489L513.79 442.717L573.805 477.366Z" fill="#DEB645"/>
<path d="M493.129 183.523L483.685 189.008C487.111 189.274 489.88 188.564 492.099 187.268L501.542 181.783C499.323 183.079 496.554 183.772 493.129 183.523Z" fill="#FFEA00"/>
<path d="M518.459 198.966L527.902 193.481C531.203 191.564 534.328 188.333 537.008 183.345L527.565 188.83C524.884 193.818 521.778 197.049 518.459 198.966Z" fill="#FFEA00"/>
<path d="M588.432 124.201L505.483 76.1499C501.312 73.7358 497.513 73.5228 494.78 75.1026L485.336 80.5875C488.07 78.99 491.869 79.2207 496.04 81.6348L578.988 129.686C587.296 134.478 594.023 146.105 593.988 155.637L593.863 209.954C593.863 214.693 592.177 218.012 589.479 219.592L598.922 214.107C601.62 212.545 603.289 209.208 603.307 204.469L603.431 150.152C603.466 140.62 596.739 128.993 588.432 124.201Z" fill="#FFEA00"/>
<path d="M579.006 129.686C587.313 134.478 594.04 146.105 594.005 155.637L593.881 209.954C593.845 219.486 587.1 223.338 578.793 218.527L527.564 188.795C518.228 206.208 503.583 202.09 493.821 196.445C487.839 193.002 483.898 189.185 483.685 188.972C495.01 189.824 499.075 180.221 500.566 173.21L495.844 170.476C487.555 165.684 480.827 154.057 480.845 144.525L480.969 90.2083C481.005 80.6763 487.768 76.8422 496.075 81.6348L579.023 129.686H579.006Z" fill="#FFAA00"/>
<path d="M536.102 167.636L532.818 165.737C531.771 165.133 530.937 163.518 530.937 162.134V118.609C530.937 117.225 531.789 116.586 532.818 117.189L536.102 119.089C537.149 119.692 537.984 121.307 537.984 122.692V166.216C537.984 167.601 537.132 168.24 536.102 167.636Z" fill="white"/>
<path d="M538.676 180.275C538.676 182.937 536.794 184.02 534.469 182.671C532.144 181.322 530.262 178.074 530.262 175.411C530.262 172.749 532.144 171.666 534.469 173.015C536.794 174.364 538.676 177.612 538.676 180.275Z" fill="white"/>
<path d="M66.7419 448.397C66.4757 448.237 66.1917 448.095 65.8899 447.971L49.5594 440.942L49.5239 451.681L65.8544 458.71C66.1562 458.834 66.4402 458.976 66.7064 459.136C68.162 459.97 68.9963 461.106 68.9785 462.455L69.014 451.716C69.014 450.385 68.1797 449.249 66.7419 448.397Z" fill="#C2C3C7"/>
<path d="M64.8067 471.703C55.8959 471.703 49.488 469.68 44.9084 467.035C36.3171 462.065 34.329 455.266 34.2225 454.911L34.187 465.65C34.2935 466.005 36.2816 472.804 44.8728 477.774C49.4347 480.419 55.8604 482.425 64.7712 482.425C68.6586 482.425 72.3862 483.366 75.1553 484.963L75.1908 474.224C72.4217 472.626 68.7118 471.686 64.8067 471.686V471.703Z" fill="#808080"/>
<path d="M169.837 528.896L169.819 539.635L75.1557 484.981L75.1734 474.242L169.837 528.896Z" fill="#C7C7C7"/>
<path d="M214.514 533.706C212.916 532.783 210.68 532.304 208.39 532.393C203.082 532.641 198.379 533.813 194.686 535.765C193 536.653 192.113 537.878 192.095 539.138L192.059 549.877C192.059 548.635 192.965 547.392 194.651 546.505C198.325 544.552 203.029 543.38 208.354 543.132C210.644 543.025 212.881 543.522 214.478 544.445C214.745 544.605 214.993 544.765 215.206 544.942L215.242 534.203C215.011 534.026 214.762 533.866 214.514 533.706Z" fill="#808080"/>
<path d="M227.454 543.629L227.419 554.368L215.206 544.924L215.242 534.203L227.454 543.629Z" fill="#C7C7C7"/>
<path d="M230.365 538.854C229.673 541.872 227.561 543.54 227.454 543.629L227.419 554.368C227.525 554.279 229.638 552.593 230.33 549.593C230.454 549.025 230.525 548.457 230.525 547.907L230.561 537.168C230.561 537.718 230.49 538.286 230.365 538.854Z" fill="#808080"/>
<path d="M194.687 535.765C192.042 537.15 191.332 539.404 193.001 541.232L203.332 552.557C202.71 552.504 190.977 551.368 182.368 546.398C177.806 543.753 174.292 540.061 174.256 534.895C174.256 532.641 172.606 530.493 169.836 528.896L75.1727 474.242C72.4036 472.644 68.6937 471.703 64.7886 471.703C55.8778 471.703 49.4699 469.68 44.8903 467.035C36.299 462.065 34.3109 455.266 34.2044 454.911L53.7833 460.858C56.9606 461.816 60.8303 461.408 63.2266 459.864C66.5637 457.716 68.5872 455 68.96 452.107C69.1553 450.58 68.321 449.284 66.7057 448.361C66.4394 448.202 66.1554 448.06 65.8537 447.935L49.5231 440.906C49.6829 440.835 52.5762 439.61 57.7772 439.202C65.0371 438.634 71.9244 440.161 76.788 442.965C80.2849 444.989 82.7167 447.651 83.4622 450.669L85.5923 459.278C86.0538 461.142 87.5448 462.881 89.8524 464.213L187.054 520.322C189.362 521.654 192.344 522.523 195.575 522.772L210.432 523.979C215.633 524.405 220.266 525.807 223.745 527.813C228.609 530.617 231.271 534.611 230.313 538.818C229.62 541.836 227.508 543.504 227.401 543.593L215.207 534.15C214.976 533.972 214.728 533.813 214.479 533.653C212.882 532.73 210.645 532.251 208.355 532.339C203.048 532.588 198.344 533.759 194.652 535.712L194.687 535.765Z" fill="#DEDEDE"/>
<path d="M174.594 525.417L79.6816 470.621L85.8588 467.053L180.753 521.849L174.594 525.417Z" fill="#C7C7C7"/>
<path d="M85.8588 468.615L179.422 522.63L180.753 521.849L85.8588 467.053L79.6816 470.621L81.0306 471.402L85.8588 468.615Z" fill="#808080"/>
<path d="M203.331 552.557L203.295 563.296C202.674 563.243 190.941 562.107 182.332 557.137C177.77 554.492 174.255 550.782 174.22 545.635C174.22 543.38 172.569 541.232 169.8 539.635L169.835 528.896C172.605 530.493 174.238 532.641 174.255 534.895C174.291 540.061 177.788 543.771 182.367 546.398C190.976 551.368 202.71 552.486 203.331 552.557Z" fill="#808080"/>
<path d="M516.062 599.863L511.766 609.253C511.162 610.584 509.37 611.631 507.062 611.986L490.874 614.507L490.82 632.861L507.009 630.34C509.316 629.985 511.109 628.938 511.713 627.607L516.008 618.217C516.15 617.897 516.239 617.56 516.239 617.24L516.292 598.886C516.292 599.206 516.221 599.543 516.062 599.863Z" fill="#808080"/>
<path d="M484.43 613.513L472.537 606.643C471.259 605.898 470.567 604.904 470.567 603.892L470.513 622.246C470.513 623.258 471.206 624.269 472.484 624.997L484.377 631.867C486.063 632.843 488.53 633.234 490.838 632.861L490.891 614.507C488.583 614.862 486.134 614.489 484.43 613.513Z" fill="#999999"/>
<path d="M514.322 596.135C516.009 597.111 516.683 598.531 516.062 599.88L511.766 609.27C511.163 610.602 509.37 611.649 507.062 612.004L490.874 614.524C488.566 614.879 486.117 614.507 484.413 613.53L472.52 606.661C470.834 605.685 470.159 604.265 470.78 602.916L475.076 593.526C475.679 592.194 477.472 591.147 479.78 590.792L495.968 588.271C498.276 587.916 500.726 588.289 502.43 589.265L514.322 596.135Z" fill="#D9D9D9"/>
<path d="M504.754 607.69C498.79 611.134 489.08 611.116 483.081 607.655C477.081 604.194 477.046 598.584 483.01 595.141C488.974 591.697 498.683 591.715 504.683 595.176C510.683 598.638 510.718 604.247 504.754 607.69Z" fill="#A3A3A3"/>
<path d="M483.028 598.744C488.992 595.301 498.702 595.318 504.701 598.78C506.92 600.058 508.322 601.62 508.908 603.271C509.92 600.448 508.518 597.395 504.701 595.194C498.702 591.733 488.992 591.715 483.028 595.159C479.265 597.324 477.898 600.359 478.892 603.182C479.478 601.567 480.845 600.004 483.028 598.762V598.744Z" fill="#808080"/>
<path d="M508.375 604.353C508.003 604.975 507.506 605.578 506.884 606.146C506.263 605.56 505.535 605.028 504.683 604.531C498.684 601.07 488.974 601.052 483.01 604.495C482.176 604.975 481.466 605.507 480.862 606.057C480.241 605.489 479.744 604.886 479.389 604.247C480.117 603.022 481.324 601.886 483.01 600.91C488.974 597.466 498.684 597.484 504.683 600.945C506.405 601.939 507.63 603.111 508.375 604.353Z" fill="#808080"/>
<path d="M505.518 607.211C505.269 607.371 505.021 607.531 504.754 607.69C503.867 608.205 502.908 608.631 501.879 608.986C496.997 607.247 490.785 607.211 485.903 608.933C484.909 608.578 483.951 608.152 483.099 607.655C482.797 607.495 482.531 607.318 482.264 607.122C482.513 606.963 482.761 606.803 483.028 606.643C488.992 603.2 498.701 603.217 504.701 606.679C505.003 606.838 505.269 607.016 505.535 607.211H505.518Z" fill="#808080"/>
<path d="M739.985 389.838L750.263 388.862C751.718 388.72 753.529 389.749 754.984 391.577L765.262 404.34L781.184 395.199L770.907 382.436C769.451 380.625 767.64 379.596 766.185 379.72L755.907 380.696C755.552 380.732 755.233 380.838 754.949 380.998L739.027 390.14C739.311 389.98 739.63 389.873 739.985 389.838Z" fill="#D9D9D9"/>
<path d="M767.622 410.428V424.167C767.622 425.641 767.108 426.741 766.22 427.256L782.142 418.114C783.03 417.6 783.545 416.517 783.545 415.026V401.287C783.545 399.334 782.639 397.009 781.184 395.198L765.261 404.34C766.717 406.151 767.622 408.476 767.622 410.428Z" fill="#808080"/>
<path d="M737.625 393.228C737.625 391.276 738.53 389.98 739.985 389.838L750.263 388.862C751.718 388.72 753.529 389.749 754.985 391.577L765.262 404.34C766.718 406.151 767.623 408.476 767.623 410.429V424.168C767.623 426.12 766.718 427.416 765.262 427.558L754.985 428.534C753.529 428.676 751.718 427.647 750.263 425.818L739.985 413.056C738.53 411.245 737.625 408.92 737.625 406.967V393.228Z" fill="#A3A3A3"/>
<path d="M752.428 395.731C758.392 399.175 763.22 407.588 763.22 414.511C763.22 421.434 758.392 424.274 752.428 420.83C746.463 417.387 741.635 408.973 741.635 402.05C741.635 395.128 746.463 392.288 752.428 395.731Z" fill="#D9D9D9"/>
<path d="M755.534 419.038C749.57 415.594 744.742 407.18 744.742 400.257C744.742 397.701 745.398 395.696 746.534 394.364C743.588 394.897 741.635 397.648 741.635 402.05C741.635 408.973 746.463 417.387 752.428 420.83C756.191 422.996 759.51 422.676 761.445 420.404C759.741 420.706 757.717 420.298 755.552 419.038H755.534Z" fill="#808080"/>
<path d="M747.707 394.258C748.435 394.258 749.198 394.4 749.997 394.648C749.801 395.465 749.713 396.37 749.713 397.364C749.713 404.287 754.559 412.701 760.505 416.144C761.339 416.624 762.138 416.979 762.919 417.227C762.724 418.044 762.458 418.771 762.103 419.41C760.682 419.393 759.085 418.913 757.399 417.955C751.434 414.511 746.588 406.097 746.606 399.175C746.606 397.187 746.997 395.536 747.725 394.276L747.707 394.258Z" fill="#808080"/>
<path d="M751.629 395.305C751.896 395.429 752.162 395.571 752.428 395.731C753.316 396.246 754.168 396.867 755.002 397.577C755.925 402.689 759.014 408.068 762.936 411.44C763.132 412.487 763.238 413.517 763.238 414.511C763.238 414.848 763.238 415.168 763.203 415.487C762.936 415.363 762.67 415.221 762.404 415.061C756.44 411.618 751.594 403.204 751.612 396.281C751.612 395.944 751.612 395.624 751.647 395.305H751.629Z" fill="#808080"/>
<path d="M581.455 270.962L574.976 285.127C574.053 287.151 571.355 288.713 567.876 289.263L543.433 293.062L543.362 320.788L567.805 316.989C571.284 316.457 573.982 314.877 574.905 312.854L581.384 298.689C581.615 298.192 581.721 297.695 581.721 297.198L581.792 269.471C581.792 269.968 581.686 270.465 581.455 270.962Z" fill="#808080"/>
<path d="M533.688 291.553L515.724 281.187C513.79 280.068 512.742 278.56 512.742 277.033L512.671 304.759C512.671 306.304 513.719 307.795 515.653 308.913L533.617 319.279C536.173 320.753 539.901 321.338 543.362 320.788L543.433 293.062C539.954 293.612 536.244 293.026 533.688 291.553Z" fill="#999999"/>
<path d="M578.828 265.318C581.384 266.791 582.396 268.939 581.472 270.962L574.994 285.127C574.071 287.151 571.372 288.713 567.893 289.263L543.451 293.062C539.972 293.612 536.262 293.026 533.706 291.553L515.742 281.187C513.186 279.713 512.174 277.565 513.097 275.542L519.576 261.377C520.499 259.353 523.197 257.791 526.677 257.241L551.119 253.442C554.598 252.91 558.308 253.478 560.864 254.951L578.828 265.318Z" fill="#D9D9D9"/>
<path d="M564.379 282.784C555.379 287.985 540.717 287.949 531.665 282.731C522.594 277.494 522.559 269.045 531.558 263.844C540.558 258.643 555.22 258.679 564.272 263.897C573.343 269.134 573.378 277.583 564.379 282.784Z" fill="#A3A3A3"/>
<path d="M531.558 269.258C540.557 264.057 555.219 264.093 564.272 269.311C567.609 271.246 569.722 273.607 570.609 276.092C572.136 271.832 570.023 267.199 564.272 263.88C555.202 258.643 540.557 258.625 531.558 263.826C525.878 267.11 523.801 271.69 525.31 275.932C526.179 273.483 528.256 271.14 531.558 269.24V269.258Z" fill="#808080"/>
<path d="M569.846 277.743C569.278 278.684 568.532 279.589 567.609 280.441C566.686 279.571 565.568 278.755 564.272 278.009C555.201 272.773 540.557 272.755 531.558 277.956C530.315 278.684 529.232 279.465 528.327 280.299C527.404 279.429 526.641 278.524 526.091 277.566C527.191 275.719 529.019 273.998 531.558 272.524C540.557 267.323 555.219 267.341 564.272 272.578C566.881 274.086 568.727 275.844 569.846 277.725V277.743Z" fill="#808080"/>
<path d="M565.532 282.056C565.159 282.305 564.786 282.553 564.378 282.784C563.047 283.547 561.591 284.204 560.029 284.754C552.645 282.11 543.273 282.092 535.906 284.666C534.397 284.133 532.977 283.476 531.664 282.731C531.22 282.482 530.812 282.216 530.404 281.932C530.776 281.684 531.149 281.435 531.557 281.204C540.557 276.003 555.219 276.021 564.272 281.258C564.715 281.506 565.124 281.772 565.532 282.056Z" fill="#808080"/>
<defs>
<radialGradient id="paint0_radial_642_4775" cx="0" cy="0" r="1" gradientUnits="userSpaceOnUse" gradientTransform="translate(393.103 60.8489) scale(6.3902 6.3902)">
<stop stop-color="#F2F2F2"/>
<stop offset="1" stop-color="#686868"/>
</radialGradient>
</defs>
</svg>
