<svg width="573" height="338" viewBox="0 0 573 338" fill="none" xmlns="http://www.w3.org/2000/svg">
<path opacity="0.66" d="M562 110.9C553.044 105.363 538.386 102.754 525.975 98.9568C515.291 95.7101 505.96 91.4777 498.675 86.5496C493.52 83.0709 488.941 79.0414 480.907 77.0991C473.218 75.2438 463.744 75.7076 455.853 77.36C432.815 82.1722 416.804 93.275 391.318 96.1159C364.566 99.1018 363.644 83.7665 340.981 84.0274C334.156 84.1144 328.425 86.6075 325.257 89.4485C318.951 95.1593 319.44 105.885 302.565 107.567C292.313 108.581 284.941 104.03 274.949 104.668C269.218 105.045 261.356 107.132 257.843 109.364C257.094 109.857 256.518 110.349 256 110.871C319.728 110.871 383.457 110.871 447.185 110.871C485.486 110.9 523.728 110.9 562 110.9Z" fill="#97CAFE"/>
<path opacity="0.38" d="M95.3907 142.145C94.7149 141.51 93.9981 140.937 93.1995 140.486C89.6361 138.541 84.6803 139.38 81.8337 136.534C80.3592 135.059 79.6015 132.725 77.5946 132.09C74.8299 131.23 71.9629 134.383 69.1983 133.523C66.3722 132.622 66.454 128.772 65.4301 126.028C64.2423 122.833 60.72 120.622 57.259 120.929C53.7981 121.236 50.7467 124.042 50.1938 127.421C46.4666 126.765 42.1661 126.233 39.34 128.69C38.0089 129.837 37.2307 131.475 36.1453 132.847C33.524 136.186 28.8957 137.865 24.6975 137.025C22.5473 136.595 20.5813 135.571 18.5539 134.813C16.506 134.056 14.2328 133.523 12.144 134.158C9.42028 134.957 8.51926 137.926 5.79556 138.889C4.17773 139.462 2.70324 139.769 1.31068 140.875C1.10589 141.039 0.55293 141.551 0 142.186H95.3907V142.145Z" fill="#97CAFE"/>
<path opacity="0.38" d="M573 303.823C571.725 302.63 570.372 301.553 568.865 300.706C562.141 297.05 552.79 298.628 547.418 293.279C544.636 290.508 543.206 286.121 539.419 284.928C534.202 283.311 528.792 289.238 523.575 287.622C518.243 285.928 518.397 278.693 516.465 273.536C514.224 267.533 507.577 263.377 501.046 263.954C494.516 264.531 488.758 269.803 487.714 276.153C480.681 274.922 472.566 273.921 467.234 278.539C464.722 280.694 463.253 283.773 461.205 286.352C456.259 292.624 447.526 295.78 439.604 294.202C435.546 293.394 431.836 291.47 428.011 290.046C424.146 288.622 419.857 287.622 415.915 288.815C410.776 290.315 409.076 295.896 403.936 297.704C400.883 298.782 398.101 299.359 395.473 301.437C395.087 301.745 394.043 302.707 393 303.9H573V303.823Z" fill="#97CAFE"/>
<path d="M406.163 149.029L405.585 185.939L376.609 202.251L377.187 165.341L406.163 149.029Z" fill="#E0B477"/>
<path d="M377.187 165.341L376.609 202.251L347.469 184.871L348.048 147.961L377.187 165.341Z" fill="#BB884F"/>
<path d="M406.163 149.029L377.187 165.341L348.048 147.961L377.024 131.649L406.163 149.029Z" fill="#EFCD90"/>
<path d="M365.754 137.996L359.748 141.377L388.902 158.757L394.893 155.376L365.754 137.996Z" fill="#F7ECEA"/>
<path d="M388.902 158.757L394.893 155.376L394.804 161.382L388.828 164.733L388.902 158.757Z" fill="#C2AB9D"/>
<path d="M90.1232 141.333L90.3902 237.382L200.26 301.221L199.978 205.173L90.1232 141.333Z" fill="#BB884F"/>
<path d="M199.978 205.173L200.26 301.221L360.682 208.598L360.415 112.549L199.978 205.173Z" fill="#E0B477"/>
<path d="M90.1232 141.333L199.978 205.173L360.415 112.549L250.546 48.7097L90.1232 141.333Z" fill="#EFCD90"/>
<path d="M293.298 73.5486L316.031 86.7614L155.594 179.385L132.861 166.172L293.298 73.5486Z" fill="#F7ECEA"/>
<path d="M155.55 179.37L132.861 166.172V189.113L155.55 202.207V179.37Z" fill="#C2AB9D"/>
<path d="M101.809 231.821V234.075L118.981 243.995V241.741L101.809 231.821Z" fill="#5C4123"/>
<path d="M105.116 232.443L107.058 233.556V221.47L108.986 222.582L106.094 215.909L103.203 219.245L105.116 220.358V232.443Z" fill="#5C4123"/>
<path d="M113.731 237.411L115.659 238.538V226.452L117.587 227.565L114.695 220.877L111.804 224.228L113.731 225.325V237.411Z" fill="#5C4123"/>
<path d="M118.818 247.895L101.972 238.168C98.7242 236.299 96.0846 232.117 96.0846 228.87V212.024C96.0846 208.776 98.7242 207.664 101.972 209.532L118.818 219.26C122.065 221.129 124.705 225.311 124.705 228.558V245.404C124.705 248.652 122.065 249.764 118.818 247.895ZM101.972 210.719C99.3767 209.221 97.2709 210.111 97.2709 212.706V229.552C97.2709 232.147 99.3767 235.483 101.972 236.981L118.818 246.709C121.413 248.207 123.519 247.317 123.519 244.722V227.876C123.519 225.281 121.413 221.944 118.818 220.447L101.972 210.719Z" fill="#5C4123"/>
<path d="M154.408 253.101C154.408 253.101 154.319 253.012 154.319 252.952C154.319 252.582 152.88 251.336 150.804 250.15C148.728 248.948 147.29 248.518 147.29 248.889C147.29 248.934 147.245 248.948 147.201 248.919C147.156 248.889 147.112 248.83 147.112 248.77C147.112 248.429 145.926 247.391 144.176 246.309V255.607L144.131 256.704C143.924 257.846 142.915 258.009 141.67 257.282C140.305 256.496 139.178 254.776 139.178 253.442C139.178 253.101 139.43 252.982 139.742 253.16C140.053 253.338 140.305 253.753 140.305 254.079C140.305 254.732 140.928 255.636 141.684 256.066C143.167 256.926 143.019 255.102 143.019 255.102V245.597C141.254 244.648 140.083 244.336 140.083 244.663C140.083 244.707 140.038 244.722 139.994 244.692C139.949 244.663 139.905 244.603 139.905 244.544C139.905 244.173 138.466 242.943 136.39 241.741C134.314 240.54 132.876 240.11 132.876 240.481C132.876 240.525 132.831 240.54 132.772 240.511C132.728 240.481 132.683 240.422 132.683 240.362C132.846 236.18 137.339 234.534 142.811 237.293C142.811 236.996 143.167 236.981 143.612 237.233C144.057 237.485 144.428 237.93 144.428 238.227C149.9 241.771 154.393 248.622 154.556 252.982C154.556 253.026 154.512 253.041 154.467 253.012L154.408 253.101Z" fill="#5C4123"/>
<path d="M151.991 267.055L135.145 257.327C131.897 255.444 129.257 251.277 129.257 248.029V231.183C129.257 227.935 131.897 226.823 135.145 228.692L151.991 238.42C155.238 240.303 157.878 244.47 157.878 247.718V264.563C157.878 267.811 155.238 268.923 151.991 267.055ZM135.145 229.878C132.55 228.38 130.429 229.27 130.429 231.865V248.711C130.429 251.306 132.55 254.643 135.145 256.141L151.991 265.868C154.586 267.366 156.706 266.476 156.706 263.881V247.035C156.706 244.44 154.601 241.104 151.991 239.606L135.145 229.878Z" fill="#5C4123"/>
<path d="M181.189 265.453C181.115 268.078 179.351 269.205 177.097 268.122V276.442L179.988 278.117V279.2L173.478 275.433V274.351L176.37 276.026V267.707C174.116 266.195 172.351 263.021 172.277 260.322V254.183L181.189 259.329V265.468V265.453Z" fill="#5C4123"/>
<path d="M185.164 286.199L168.318 276.471C165.07 274.588 162.43 270.421 162.43 267.173V250.327C162.43 247.08 165.07 245.968 168.318 247.836L185.164 257.564C188.411 259.433 191.051 263.614 191.051 266.862V283.708C191.051 286.956 188.411 288.068 185.164 286.199ZM168.318 249.022C165.723 247.525 163.602 248.414 163.602 251.01V267.856C163.602 270.451 165.708 273.787 168.318 275.285L185.164 285.013C187.759 286.511 189.879 285.621 189.879 283.026V266.18C189.879 263.585 187.774 260.248 185.164 258.75L168.318 249.022Z" fill="#5C4123"/>
<path d="M319.546 144.432L317.618 143.305L342.472 268.063L344.414 269.19L319.546 144.432Z" fill="#331B0D"/>
<path d="M322.63 142.653L320.703 141.526L317.618 143.305L319.546 144.432L322.63 142.653Z" fill="#412210"/>
<path d="M319.546 144.432L344.414 269.19L347.499 267.411L322.63 142.653L319.546 144.432Z" fill="#28150A"/>
<path d="M318.923 266.862L339.906 254.746L341.834 255.874L318.923 269.101V266.862Z" fill="#412210"/>
<path d="M318.923 269.101L341.834 255.874L342.175 257.416L318.923 270.807V269.101Z" fill="#28150A"/>
<path d="M315.868 251.884L336.852 239.784L338.779 240.896L315.868 254.124V251.884Z" fill="#412210"/>
<path d="M315.868 254.124L338.779 240.896L339.12 242.453L315.868 255.844V254.124Z" fill="#28150A"/>
<path d="M313.036 237.293L334.019 225.177L335.947 226.304L313.036 239.532V237.293Z" fill="#412210"/>
<path d="M313.036 239.532L335.947 226.304L336.288 227.846L313.036 241.237V239.532Z" fill="#28150A"/>
<path d="M310.129 222.849L331.113 210.733L333.04 211.846L310.129 225.088V222.849Z" fill="#412210"/>
<path d="M310.129 225.088L333.04 211.846L333.382 213.403L310.129 226.793V225.088Z" fill="#28150A"/>
<path d="M307.282 208.628L328.265 196.512L330.193 197.639L307.282 210.867V208.628Z" fill="#412210"/>
<path d="M307.282 210.867L330.193 197.639L330.534 199.196L307.282 212.587V210.867Z" fill="#28150A"/>
<path d="M304.405 194.258L325.374 182.143L327.316 183.27L304.405 196.497V194.258Z" fill="#412210"/>
<path d="M304.405 196.497L327.316 183.27L327.657 184.827L304.405 198.218V196.497Z" fill="#28150A"/>
<path d="M301.677 179.859L322.66 167.744L324.588 168.871L301.677 182.098V179.859Z" fill="#412210"/>
<path d="M301.677 182.098L324.588 168.871L324.929 170.428L301.677 183.818V182.098Z" fill="#28150A"/>
<path d="M298.77 165.49L319.754 153.374L321.681 154.501L298.77 167.729V165.49Z" fill="#412210"/>
<path d="M298.77 167.729L321.681 154.501L322.022 156.058L298.77 169.449V167.729Z" fill="#28150A"/>
<path d="M295.715 158.194L293.773 157.067L318.641 281.825L320.569 282.952L295.715 158.194Z" fill="#331B0D"/>
<path d="M298.785 156.414L296.857 155.287L293.773 157.067L295.715 158.194L298.785 156.414Z" fill="#412210"/>
<path d="M295.715 158.194L320.569 282.952L323.654 281.172L298.785 156.414L295.715 158.194Z" fill="#28150A"/>
<path d="M235.331 294.518L231.535 292.309L231.357 225.592L235.153 227.802L235.331 294.518Z" fill="#01293C"/>
<path d="M235.153 227.802L231.357 225.592L239.32 220.995L243.116 223.205L235.153 227.802Z" fill="#023E5A"/>
<path d="M243.116 223.205L243.294 289.921L235.331 294.518L235.153 227.802L243.116 223.205Z" fill="#024362"/>
<path d="M221.213 235.869L217.417 233.659L217.373 215.449L221.169 217.659L221.213 235.869Z" fill="#01293C"/>
<path d="M221.169 217.659L217.373 215.449L252.696 195.059L256.492 197.254L221.169 217.659Z" fill="#023E5A"/>
<path d="M256.492 197.254L256.551 215.464L221.213 235.869L221.169 217.659L256.492 197.254Z" fill="#024362"/>
<path d="M235.019 224.599L253.689 213.818L253.66 202.192L235.019 212.958V224.599Z" fill="#F1F9FC"/>
<path d="M240.551 211.935V213.314L237.659 214.989L237.585 216.813C237.778 216.517 238.03 216.324 238.237 216.176C238.371 216.072 238.519 215.983 238.667 215.894C238.905 215.761 239.127 215.642 239.261 215.583C240.358 215.004 240.818 215.538 240.818 216.636V217.748C240.818 219.216 239.854 220.254 239.083 220.699C237.926 221.366 237.451 221.633 236.191 222.108V220.936L238.831 219.409C239.439 219.068 239.513 218.578 239.513 218.252V217.54C239.513 217.184 239.453 216.813 238.89 217.14L238.015 217.644C237.689 217.837 237.437 218.163 237.437 218.608L236.206 219.32L236.399 214.352L240.551 211.949V211.935Z" fill="#023852"/>
<path d="M244.955 209.399C246.215 208.672 246.616 209.325 246.616 210.363V214.396C246.631 215.672 246.008 216.68 244.97 217.273L243.428 218.163C242.39 218.771 241.707 218.534 241.707 217.229V213.254C241.693 211.964 242.375 210.897 243.413 210.289L244.94 209.399H244.955ZM245.311 214.915V211.356C245.311 210.867 245.118 210.689 244.658 210.956L243.68 211.519C243.116 211.846 243.012 212.365 243.012 212.676V216.22C243.012 216.873 243.413 216.784 243.724 216.591L244.629 216.072C245.059 215.82 245.296 215.494 245.296 214.915H245.311Z" fill="#023852"/>
<path d="M250.842 205.988C252.103 205.262 252.503 205.914 252.503 206.952V210.986C252.518 212.261 251.895 213.269 250.857 213.862L249.33 214.752C248.292 215.36 247.609 215.123 247.609 213.818V209.844C247.595 208.554 248.277 207.486 249.315 206.878L250.842 205.988ZM251.198 211.505V207.946C251.198 207.456 251.005 207.278 250.546 207.545L249.552 208.109C248.989 208.435 248.885 208.954 248.885 209.265V212.81C248.885 213.462 249.3 213.358 249.611 213.18L250.501 212.661C250.946 212.409 251.183 212.068 251.183 211.505H251.198Z" fill="#023852"/>
<path d="M226.626 216.888L226.641 221.114L222.963 223.235L222.948 219.008L226.626 216.888Z" fill="#3498DB"/>
<path d="M231.001 214.426L231.016 218.652L227.338 220.773L227.323 216.561L231.001 214.426Z" fill="#3498DB"/>
<path d="M226.626 221.944L226.641 226.171L222.963 228.291L222.948 224.065L226.626 221.944Z" fill="#3498DB"/>
<path d="M231.001 219.498L231.016 223.709L227.338 225.844L227.323 221.618L231.001 219.498Z" fill="#3498DB"/>
<path d="M310.5 301.696L310.485 308.992L262.468 336.9L262.483 329.604L310.5 301.696Z" fill="#012E42"/>
<path d="M262.483 329.604L262.468 336.9L211.426 307.435L211.456 300.139L262.483 329.604Z" fill="#012C3F"/>
<path d="M310.5 301.696L262.483 329.604L211.456 300.139L259.473 272.23L310.5 301.696Z" fill="#025073"/>
<path d="M261.223 321.671L234.99 306.411L234.901 276.723L261.134 291.983L261.223 321.671Z" fill="#E0B477"/>
<path d="M261.134 291.983L234.901 276.723L260.733 261.805L286.981 277.064L261.134 291.983Z" fill="#EFCD90"/>
<path d="M286.981 277.064L287.055 306.753L261.223 321.671L261.134 291.983L286.981 277.064Z" fill="#BB884F"/>
<path d="M332.551 36.787L332.225 114.507L271.603 149.563L271.929 71.8432L332.551 36.787Z" fill="#BB884F"/>
<path d="M271.929 71.8432L271.603 149.563L209.825 113.662L210.136 35.9417L271.929 71.8432Z" fill="#E0B477"/>
<path d="M332.551 36.787L271.929 71.8432L210.136 35.9417L270.758 0.900299L332.551 36.787Z" fill="#EFCD90"/>
<path d="M247.179 14.5283L234.634 21.7946L296.412 57.6813L308.958 50.4298L247.179 14.5283Z" fill="#F7ECEA"/>
<path d="M296.442 57.6813L308.958 50.4298L308.928 63.0643L296.412 70.2565L296.442 57.6813Z" fill="#C2AB9D"/>
<path d="M67.2122 229.062L56.8614 223.042L56.7576 188.208L67.1084 194.229L67.2122 229.062Z" fill="#278704"/>
<path d="M67.1084 194.229L56.7576 188.208L66.5894 182.528L76.9402 188.549L67.1084 194.229Z" fill="#95D94C"/>
<path d="M76.9402 188.549L77.044 223.383L67.2122 229.062L67.1084 194.229L76.9402 188.549Z" fill="#67A329"/>
<path d="M57.3804 234.742L47.0297 228.721L47 217.851L57.3508 223.872L57.3804 234.742Z" fill="#A31010"/>
<path d="M57.3508 223.872L47 217.851L56.8318 212.172L67.1825 218.193L57.3508 223.872Z" fill="#FF5542"/>
<path d="M67.1825 218.193L67.2122 229.062L57.3804 234.742L57.3508 223.872L67.1825 218.193Z" fill="#D62222"/>
<path d="M86.3863 259.966V263.614L84.933 264.46V260.812L86.3863 259.966Z" fill="#19232D"/>
<path d="M101.156 259.418L101.141 263.066L97.5527 265.157L97.5675 261.509L101.156 259.418Z" fill="#D62222"/>
<path d="M86.8905 261.939L86.8756 265.587L84.933 264.46V260.812L86.8905 261.939Z" fill="#D62222"/>
<path d="M106.317 262.057L106.02 262.22V265.868L106.302 265.705C106.836 265.394 107.103 264.994 107.103 264.578V260.93C107.103 261.331 106.851 261.746 106.317 262.057Z" fill="#8F7200"/>
<path d="M97.5675 261.509V265.157C97.0188 265.468 96.7519 265.868 96.7519 266.284V262.636C96.7519 262.235 97.0336 261.82 97.5675 261.509Z" fill="#B02B19"/>
<path d="M97.5823 263.778V267.426C97.0336 267.114 96.7519 266.699 96.7519 266.284V262.636C96.7519 263.051 97.0336 263.466 97.5823 263.778Z" fill="#BE9700"/>
<path d="M106.02 262.235V265.883L102.417 267.974L102.431 264.326L106.02 262.235Z" fill="#8F7200"/>
<path d="M98.5314 264.326L98.5166 267.974L97.5675 267.426L97.5823 263.778L98.5314 264.326Z" fill="#907200"/>
<path d="M106.302 259.803C107.384 260.426 107.384 261.449 106.302 262.072L106.005 262.235L102.417 264.326C101.349 264.949 99.5843 264.949 98.5166 264.326L97.5675 263.778C96.485 263.155 96.485 262.131 97.5675 261.509L101.156 259.418L101.453 259.255C102.52 258.632 104.285 258.632 105.353 259.255L106.302 259.803Z" fill="#FBC800"/>
<path d="M102.431 264.326V267.974C101.349 268.597 99.5991 268.597 98.5166 267.974V264.326C99.6139 264.949 101.364 264.949 102.431 264.326Z" fill="#BE9700"/>
<path d="M128.071 274.959L128.056 278.607L124.453 280.698L124.468 277.05L128.071 274.959Z" fill="#D62222"/>
<path d="M133.232 277.598L132.935 277.761V281.409L133.217 281.246C133.751 280.935 134.018 280.535 134.018 280.119V276.471C134.018 276.872 133.766 277.287 133.232 277.598Z" fill="#8F7200"/>
<path d="M124.468 277.05V280.698C123.919 281.009 123.652 281.409 123.652 281.825V278.177C123.652 277.776 123.934 277.361 124.468 277.05Z" fill="#B02B19"/>
<path d="M124.482 279.304V282.952C123.934 282.64 123.652 282.225 123.652 281.81V278.162C123.652 278.577 123.934 278.992 124.482 279.304Z" fill="#BE9700"/>
<path d="M132.935 277.761L132.92 281.424L129.332 283.5V279.852L132.935 277.761Z" fill="#8F7200"/>
<path d="M125.432 279.852L125.417 283.5L124.468 282.952L124.482 279.304L125.432 279.852Z" fill="#907200"/>
<path d="M133.217 275.329C134.299 275.952 134.299 276.975 133.217 277.598L132.92 277.761L129.332 279.852C128.264 280.475 126.499 280.475 125.432 279.852L124.482 279.304C123.4 278.681 123.4 277.658 124.482 277.035L128.071 274.944L128.368 274.781C129.435 274.158 131.2 274.158 132.268 274.781L133.217 275.329Z" fill="#FBC800"/>
<path d="M129.332 279.852V283.5C128.249 284.123 126.499 284.123 125.417 283.5V279.852C126.514 280.475 128.264 280.475 129.332 279.852Z" fill="#BE9700"/>
<path d="M129.658 286.629V290.292L86.8756 265.587L86.8905 261.939L129.658 286.629Z" fill="#D62222"/>
<path d="M138.956 283.5L134.685 285.992L133.573 286.644L131.63 287.771V291.419L133.573 290.292L134.685 289.64L138.956 287.148C139.49 286.837 139.757 286.437 139.757 286.021V282.373C139.757 282.774 139.504 283.189 138.971 283.5H138.956Z" fill="#D62222"/>
<path d="M131.615 287.771V291.419L129.658 290.292V286.629L131.615 287.771Z" fill="#D62222"/>
<path d="M86.3863 259.966L84.933 260.812L86.8905 261.939L129.658 286.629L131.615 287.756L103.9 303.861C102.832 304.484 101.067 304.484 99.9995 303.861L57.2321 279.17C56.1644 278.547 56.1496 277.539 57.2321 276.916L86.4011 259.966H86.3863Z" fill="#18617C"/>
<path d="M138.941 281.246C140.023 281.869 140.023 282.892 138.941 283.515L134.67 286.006L133.558 286.659L131.615 287.786L129.658 286.659L86.8905 261.968L84.933 260.841L86.3863 259.996L86.8756 259.714L87.9878 259.062L92.2586 256.571C93.3263 255.948 95.091 255.948 96.1587 256.571L101.141 259.447L97.5527 261.538C96.485 262.161 96.485 263.184 97.5527 263.807L98.5017 264.356C99.5843 264.979 101.334 264.979 102.402 264.356L105.99 262.265L128.027 274.988L124.438 277.079C123.37 277.702 123.37 278.725 124.438 279.348L125.387 279.897C126.47 280.52 128.219 280.52 129.287 279.897L132.876 277.806L138.896 281.276L138.941 281.246Z" fill="#FF5542"/>
<path d="M84.6661 270.495L84.6512 272.319L80.3804 269.843V268.019L84.6661 270.495Z" fill="#909091"/>
<path d="M80.3804 268.019V269.843L76.1245 272.319V270.495L80.3804 268.019Z" fill="#909091"/>
<path d="M80.4101 272.972L80.3953 274.796L76.1245 272.319V270.495L80.4101 272.972Z" fill="#6C6F71"/>
<path d="M84.6661 270.495L84.6513 272.319L80.3953 274.796L80.4101 272.972L84.6661 270.495Z" fill="#6C6F71"/>
<path d="M79.5797 273.446V275.27L75.294 272.809L75.3089 270.97L79.5797 273.446Z" fill="#909091"/>
<path d="M75.3089 270.97L75.294 272.809L71.0381 275.27L71.0529 273.446L75.3089 270.97Z" fill="#909091"/>
<path d="M90.0342 273.594V275.418L85.7486 272.957V271.118L90.0342 273.594Z" fill="#909091"/>
<path d="M85.7486 271.118V272.957L81.4926 275.418V273.594L85.7486 271.118Z" fill="#909091"/>
<path d="M79.5797 273.446L75.3237 275.923L71.0529 273.446L75.3089 270.97L79.5797 273.446Z" fill="#BDC2C6"/>
<path d="M75.3237 275.923V277.747L71.0381 275.27L71.0529 273.446L75.3237 275.923Z" fill="#6C6F71"/>
<path d="M79.5797 273.446V275.27L75.3237 277.747V275.923L79.5797 273.446Z" fill="#6C6F71"/>
<path d="M90.0343 273.594V275.418L85.7783 277.895V276.071L90.0343 273.594Z" fill="#6C6F71"/>
<path d="M90.0343 273.594L85.7783 276.071L81.4926 273.594L85.7486 271.118L90.0343 273.594Z" fill="#BDC2C6"/>
<path d="M85.7783 276.071V277.895L81.4926 275.418V273.594L85.7783 276.071Z" fill="#6C6F71"/>
<path d="M74.5081 276.397L74.4933 278.221L70.2224 275.759V273.921L74.5081 276.397Z" fill="#909091"/>
<path d="M70.2225 273.921V275.759L65.9665 278.221L65.9813 276.397L70.2225 273.921Z" fill="#909091"/>
<path d="M84.9627 276.545L84.9478 278.369L80.677 275.908V274.069L84.9627 276.545Z" fill="#909091"/>
<path d="M80.677 274.069V275.908L76.4211 278.369V276.545L80.677 274.069Z" fill="#909091"/>
<path d="M95.4024 276.694V278.518L91.1168 276.056V274.217L95.4024 276.694Z" fill="#909091"/>
<path d="M91.1168 274.217V276.056L86.8608 278.518L86.8756 276.694L91.1168 274.217Z" fill="#909091"/>
<path d="M105.857 276.842V278.666L101.571 276.204V274.38L105.857 276.842Z" fill="#909091"/>
<path d="M101.571 274.38V276.204L97.3154 278.666V276.842L101.571 274.38Z" fill="#909091"/>
<path d="M74.5081 276.397L74.4933 278.221L70.2521 280.698V278.859L74.5081 276.397Z" fill="#6C6F71"/>
<path d="M74.5081 276.397L70.2521 278.859L65.9813 276.397L70.2225 273.921L74.5081 276.397Z" fill="#BDC2C6"/>
<path d="M70.2521 278.859V280.698L65.9665 278.221L65.9813 276.397L70.2521 278.859Z" fill="#6C6F71"/>
<path d="M84.9627 276.545L84.9478 278.369L80.6919 280.846L80.7067 279.022L84.9627 276.545Z" fill="#6C6F71"/>
<path d="M80.7067 279.022L80.6919 280.846L76.4211 278.369V276.545L80.7067 279.022Z" fill="#6C6F71"/>
<path d="M95.4024 276.694V278.518L91.1465 280.994V279.17L95.4024 276.694Z" fill="#6C6F71"/>
<path d="M95.4024 276.694L91.1464 279.17L86.8756 276.694L91.1316 274.217L95.4024 276.694Z" fill="#BDC2C6"/>
<path d="M91.1464 279.17V280.994L86.8608 278.518L86.8756 276.694L91.1464 279.17Z" fill="#6C6F71"/>
<path d="M105.857 276.842V278.666L101.601 281.143V279.319L105.857 276.842Z" fill="#6C6F71"/>
<path d="M101.601 279.319V281.143L97.3154 278.666V276.842L101.601 279.319Z" fill="#6C6F71"/>
<path d="M79.8762 279.496V281.32L75.5906 278.859V277.035L79.8762 279.496Z" fill="#909091"/>
<path d="M75.5906 277.035V278.859L71.3495 281.32V279.496L75.5906 277.035Z" fill="#909091"/>
<path d="M90.3308 279.645L90.316 281.469L86.0452 279.007V277.183L90.3308 279.645Z" fill="#909091"/>
<path d="M86.0452 277.183V279.007L81.7892 281.469V279.645L86.0452 277.183Z" fill="#909091"/>
<path d="M100.771 279.793V281.617L96.485 279.155L96.4998 277.331L100.771 279.793Z" fill="#909091"/>
<path d="M96.4998 277.331L96.485 279.155L92.229 281.617L92.2438 279.793L96.4998 277.331Z" fill="#909091"/>
<path d="M111.225 279.941V281.765L106.94 279.304V277.48L111.225 279.941Z" fill="#909091"/>
<path d="M106.94 277.48V279.304L102.684 281.765V279.941L106.94 277.48Z" fill="#909091"/>
<path d="M79.8762 279.496V281.32L75.6203 283.797L75.6351 281.973L79.8762 279.496Z" fill="#6C6F71"/>
<path d="M79.8762 279.496L75.6351 281.973L71.3495 279.496L75.5906 277.035L79.8762 279.496Z" fill="#BDC2C6"/>
<path d="M75.6351 281.973L75.6203 283.797L71.3495 281.32V279.496L75.6351 281.973Z" fill="#6C6F71"/>
<path d="M90.3308 279.645L90.316 281.469L86.0749 283.945V282.121L90.3308 279.645Z" fill="#6C6F71"/>
<path d="M86.0749 282.121V283.945L81.7892 281.469V279.645L86.0749 282.121Z" fill="#6C6F71"/>
<path d="M96.5294 282.27L96.5146 284.094L92.229 281.617L92.2438 279.793L96.5294 282.27Z" fill="#6C6F71"/>
<path d="M100.771 279.793V281.617L96.5146 284.094L96.5294 282.27L100.771 279.793Z" fill="#6C6F71"/>
<path d="M100.771 279.793L96.5294 282.27L92.2438 279.793L96.4998 277.331L100.771 279.793Z" fill="#BDC2C6"/>
<path d="M111.225 279.941L106.969 282.418L102.684 279.941L106.94 277.48L111.225 279.941Z" fill="#BDC2C6"/>
<path d="M111.225 279.941V281.765L106.969 284.242V282.418L111.225 279.941Z" fill="#6C6F71"/>
<path d="M106.969 282.418V284.242L102.684 281.765V279.941L106.969 282.418Z" fill="#6C6F71"/>
<path d="M85.2444 282.596V284.42L80.9588 281.958V280.134L85.2444 282.596Z" fill="#909091"/>
<path d="M80.9588 280.134V281.958L76.7177 284.42V282.596L80.9588 280.134Z" fill="#909091"/>
<path d="M95.699 282.744V284.568L91.4134 282.106V280.282L95.699 282.744Z" fill="#909091"/>
<path d="M91.4134 280.282V282.106L87.1574 284.568V282.744L91.4134 280.282Z" fill="#909091"/>
<path d="M106.154 282.892L106.139 284.716L101.853 282.255L101.868 280.431L106.154 282.892Z" fill="#909091"/>
<path d="M101.868 280.431L101.853 282.255L97.5972 284.716L97.612 282.892L101.868 280.431Z" fill="#909091"/>
<path d="M116.593 283.041L116.579 284.865L112.308 282.403V280.579L116.593 283.041Z" fill="#909091"/>
<path d="M112.308 280.579V282.403L108.052 284.879V283.041L112.308 280.579Z" fill="#909091"/>
<path d="M85.2444 282.596L81.0033 285.072L76.7177 282.596L80.9588 280.134L85.2444 282.596Z" fill="#BDC2C6"/>
<path d="M81.0033 285.072L80.9885 286.896L76.7177 284.42V282.596L81.0033 285.072Z" fill="#6C6F71"/>
<path d="M85.2444 282.596V284.42L80.9884 286.896L81.0033 285.072L85.2444 282.596Z" fill="#6C6F71"/>
<path d="M95.699 282.744L91.443 285.221L87.1574 282.744L91.4134 280.282L95.699 282.744Z" fill="#FF5542"/>
<path d="M101.898 285.369L101.883 287.193L97.5972 284.716L97.612 282.892L101.898 285.369Z" fill="#6C6F71"/>
<path d="M106.154 282.892L106.139 284.716L101.883 287.193L101.898 285.369L106.154 282.892Z" fill="#6C6F71"/>
<path d="M112.337 285.517L112.323 287.341L108.052 284.879V283.041L112.337 285.517Z" fill="#6C6F71"/>
<path d="M116.593 283.041L112.337 285.517L108.052 283.041L112.308 280.579L116.593 283.041Z" fill="#BDC2C6"/>
<path d="M116.593 283.041L116.579 284.865L112.323 287.341L112.337 285.517L116.593 283.041Z" fill="#6C6F71"/>
<path d="M90.6126 285.695V287.534L86.327 285.057L86.3418 283.233L90.6126 285.695Z" fill="#909091"/>
<path d="M86.3418 283.233L86.327 285.057L82.0858 287.519V285.695L86.3418 283.233Z" fill="#909091"/>
<path d="M101.067 285.843V287.682L96.7816 285.206V283.382L101.067 285.843Z" fill="#909091"/>
<path d="M96.7815 283.382V285.206L92.5255 287.682V285.843L96.7815 283.382Z" fill="#909091"/>
<path d="M111.507 285.992V287.816L107.221 285.354L107.236 283.53L111.507 285.992Z" fill="#909091"/>
<path d="M107.236 283.53L107.221 285.354L102.98 287.83V285.992L107.236 283.53Z" fill="#909091"/>
<path d="M121.962 286.14L121.947 287.964L117.676 285.502V283.678L121.962 286.14Z" fill="#909091"/>
<path d="M117.676 283.678V285.502L113.42 287.979L113.435 286.14L117.676 283.678Z" fill="#909091"/>
<path d="M90.6126 285.695V287.534L86.3714 289.996V288.172L90.6126 285.695Z" fill="#6C6F71"/>
<path d="M86.3714 288.172V289.996L82.0858 287.519V285.695L86.3714 288.172Z" fill="#6C6F71"/>
<path d="M90.6126 285.695L86.3714 288.172L82.0858 285.695L86.3418 283.233L90.6126 285.695Z" fill="#BDC2C6"/>
<path d="M101.067 285.843V287.682L96.8112 290.144V288.32L101.067 285.843Z" fill="#6C6F71"/>
<path d="M96.8112 288.32V290.144L92.5255 287.682V285.843L96.8112 288.32Z" fill="#6C6F71"/>
<path d="M111.507 285.992L107.251 288.468L102.98 285.992L107.236 283.53L111.507 285.992Z" fill="#BDC2C6"/>
<path d="M111.507 285.992V287.816L107.251 290.292V288.468L111.507 285.992Z" fill="#6C6F71"/>
<path d="M107.251 288.468V290.292L102.98 287.83V285.992L107.251 288.468Z" fill="#6C6F71"/>
<path d="M121.962 286.14L121.947 287.964L117.706 290.44V288.616L121.962 286.14Z" fill="#D62222"/>
<path d="M117.706 288.616V290.44L113.42 287.979L113.435 286.14L117.706 288.616Z" fill="#D62222"/>
<path d="M95.9956 288.794L95.9808 290.633L91.6951 288.157L91.7099 286.333L95.9956 288.794Z" fill="#909091"/>
<path d="M91.71 286.333L91.6951 288.157L87.454 290.618V288.794L91.71 286.333Z" fill="#909091"/>
<path d="M106.435 288.943L106.421 290.767L102.15 288.305V286.481L106.435 288.943Z" fill="#909091"/>
<path d="M102.15 286.481V288.305L97.8937 290.781V288.943L102.15 286.481Z" fill="#909091"/>
<path d="M116.875 289.091V290.915L112.604 288.453V286.629L116.875 289.091Z" fill="#909091"/>
<path d="M112.604 286.629V288.453L108.348 290.93V289.091L112.604 286.629Z" fill="#909091"/>
<path d="M95.9956 288.794L95.9808 290.633L91.7396 293.095V291.271L95.9956 288.794Z" fill="#6C6F71"/>
<path d="M95.9956 288.794L91.7396 291.271L87.454 288.794L91.71 286.333L95.9956 288.794Z" fill="#BDC2C6"/>
<path d="M91.7396 291.271V293.095L87.454 290.618V288.794L91.7396 291.271Z" fill="#6C6F71"/>
<path d="M106.435 288.943L106.42 290.767L102.165 293.243L102.179 291.419L106.435 288.943Z" fill="#6C6F71"/>
<path d="M102.179 291.419L102.165 293.243L97.8937 290.781V288.943L102.179 291.419Z" fill="#6C6F71"/>
<path d="M106.435 288.943L102.179 291.419L97.8937 288.943L102.15 286.481L106.435 288.943Z" fill="#BDC2C6"/>
<path d="M112.619 291.567V293.391L108.348 290.93V289.091L112.619 291.567Z" fill="#D62222"/>
<path d="M116.875 289.091V290.915L112.619 293.391V291.567L116.875 289.091Z" fill="#D62222"/>
<path d="M111.804 292.042L111.789 293.866L107.518 291.404V289.58L111.804 292.042Z" fill="#909091"/>
<path d="M107.518 289.58V291.404L103.262 293.881L103.277 292.057L107.518 289.58Z" fill="#909091"/>
<path d="M111.804 292.042L111.789 293.866L107.533 296.342L107.548 294.518L111.804 292.042Z" fill="#D62222"/>
<path d="M107.548 294.518L107.533 296.342L103.262 293.881L103.277 292.057L107.548 294.518Z" fill="#D62222"/>
<path d="M84.6661 270.495L80.4101 272.972L76.1245 270.495L80.3804 268.019L84.6661 270.495Z" fill="#BDC2C6"/>
<path d="M84.9627 276.545L80.7067 279.022L76.4211 276.545L80.677 274.069L84.9627 276.545Z" fill="#BDC2C6"/>
<path d="M105.857 276.842L101.601 279.319L97.3154 276.842L101.571 274.38L105.857 276.842Z" fill="#BDC2C6"/>
<path d="M90.3308 279.645L86.0749 282.121L81.7892 279.645L86.0452 277.183L90.3308 279.645Z" fill="#BDC2C6"/>
<path d="M106.154 282.892L101.898 285.369L97.612 282.892L101.868 280.431L106.154 282.892Z" fill="#BDC2C6"/>
<path d="M101.067 285.843L96.8112 288.32L92.5255 285.843L96.7815 283.382L101.067 285.843Z" fill="#BDC2C6"/>
<path d="M85.2296 262.695L61.8588 276.279L98.5907 297.484L102.654 295.112L106.747 297.484L126.054 286.273L85.2148 262.695H85.2296ZM116.579 283.041L112.323 285.517L108.052 283.055L112.308 280.579L116.579 283.041ZM107.251 288.468L102.98 286.006L107.236 283.53L111.507 285.992L107.251 288.468ZM101.883 285.369L97.5971 282.892L101.853 280.416L106.139 282.892L101.883 285.369ZM111.21 279.941L106.954 282.418L102.669 279.941L106.925 277.465L111.21 279.941ZM101.557 274.366L105.842 276.842L101.586 279.319L97.3006 276.842L101.557 274.366ZM100.756 279.793L96.4998 282.27L92.2141 279.793L96.4701 277.317L100.756 279.793ZM95.3876 276.694L91.1316 279.17L86.846 276.694L91.102 274.217L95.3876 276.694ZM86.0304 277.168L90.316 279.645L86.06 282.121L81.7744 279.645L86.0304 277.168ZM80.6919 279.007L76.4062 276.531L80.6622 274.054L84.9478 276.531L80.6919 279.007ZM85.7486 271.103L90.0343 273.58L85.7783 276.056L81.4926 273.58L85.7486 271.103ZM80.3804 268.004L84.6513 270.465L80.3953 272.942L76.1245 270.48L80.3804 268.004ZM75.294 270.955L79.5648 273.416L75.3089 275.893L71.0381 273.431L75.294 270.955ZM65.9665 276.382L70.2076 273.921L74.4784 276.382L70.2373 278.844L65.9665 276.382ZM71.3346 279.482L75.5758 277.02L79.8614 279.496L75.6203 281.958L71.3346 279.482ZM76.7028 282.581L80.944 280.119L85.2296 282.596L80.9884 285.057L76.7028 282.581ZM82.071 285.68L86.3121 283.219L90.5978 285.695L86.3566 288.157L82.071 285.68ZM91.7248 291.256L87.4391 288.78L91.6803 286.318L95.9659 288.794L91.7248 291.256ZM92.5107 285.829L96.7667 283.352L101.052 285.829L96.7964 288.305L92.5107 285.829ZM102.15 291.404L97.8789 288.943L102.135 286.466L106.406 288.928L102.15 291.404Z" fill="#FCFCFD"/>
<path d="M107.533 293.821V294.533L103.247 292.057V291.345L107.533 293.821Z" fill="#D62222"/>
<path d="M111.789 291.345V292.057L107.533 294.533V293.821L111.789 291.345Z" fill="#D62222"/>
<path d="M107.533 293.821L111.789 291.345L107.503 288.869L103.247 291.345L107.533 293.821Z" fill="#FF5542"/>
<path d="M112.649 290.885L112.634 291.597L108.363 289.121V288.409L112.649 290.885Z" fill="#D62222"/>
<path d="M116.905 288.409L116.89 289.121L112.634 291.597L112.649 290.885L116.905 288.409Z" fill="#D62222"/>
<path d="M112.649 290.885L116.905 288.409L112.619 285.932L108.363 288.409L112.649 290.885Z" fill="#FF5542"/>
<path d="M117.735 287.89L117.72 288.602L113.435 286.125L113.45 285.413L117.735 287.89Z" fill="#D62222"/>
<path d="M121.991 285.413L121.976 286.125L117.72 288.602L117.735 287.89L121.991 285.413Z" fill="#D62222"/>
<path d="M117.735 287.89L121.991 285.413L117.706 282.952L113.45 285.413L117.735 287.89Z" fill="#FF5542"/>
<path d="M106.776 297.484L106.762 299.308L102.669 296.95V295.126L106.776 297.484Z" fill="#909091"/>
<path d="M102.669 295.126V296.95L98.5907 299.308L98.6055 297.484L102.669 295.126Z" fill="#909091"/>
<path d="M106.776 297.484H98.6055L98.5907 299.308H106.762L126.069 288.097V286.273L106.776 297.484Z" fill="#83878A"/>
<path d="M61.8588 276.279V278.103L98.5907 299.308L98.6055 297.484L61.8588 276.279Z" fill="#83878A"/>
<path d="M106.776 297.484H98.6055L102.669 295.126L106.776 297.484Z" fill="#D7DCE1"/>
<path d="M91.3392 284.672V285.384L87.0536 282.907V282.195L91.3392 284.672Z" fill="#D62222"/>
<path d="M95.5952 282.195V282.907L91.3392 285.384V284.672L95.5952 282.195Z" fill="#D62222"/>
<path d="M91.3392 284.672L95.5952 282.195L91.3096 279.734L87.0536 282.195L91.3392 284.672Z" fill="#FF5542"/>
<path d="M103.914 303.876C102.847 304.498 101.082 304.498 100.014 303.876L57.2469 279.185C56.7131 278.874 56.4313 278.458 56.4461 278.058V281.706C56.4461 282.121 56.6982 282.522 57.2469 282.833L100.014 307.524C101.097 308.146 102.847 308.146 103.914 307.524L131.63 291.419V287.771L103.929 303.876H103.914Z" fill="#0E3847"/>
<path d="M224.313 44.9726L225.929 44.0384L205.109 148.569L203.478 149.519L224.313 44.9726Z" fill="#331B0D"/>
<path d="M221.732 43.4897L223.349 42.5407L225.929 44.0384L224.313 44.9727L221.732 43.4897Z" fill="#412210"/>
<path d="M224.313 44.9727L203.478 149.519L200.897 148.021L221.732 43.4897L224.313 44.9727Z" fill="#28150A"/>
<path d="M224.832 147.561L207.259 137.418L205.628 138.352L224.832 149.444V147.561Z" fill="#412210"/>
<path d="M224.832 149.444L205.628 138.352L205.346 139.657L224.832 150.868V149.444Z" fill="#28150A"/>
<path d="M227.397 135.016L209.825 124.872L208.193 125.807L227.397 136.899V135.016Z" fill="#412210"/>
<path d="M227.397 136.899L208.193 125.807L207.912 127.112L227.397 138.337V136.899Z" fill="#28150A"/>
<path d="M229.77 122.781L212.182 112.638L210.566 113.573L229.77 124.665V122.781Z" fill="#412210"/>
<path d="M229.77 124.665L210.566 113.573L210.284 114.877L229.77 126.103V124.665Z" fill="#28150A"/>
<path d="M232.202 110.681L214.629 100.523L212.998 101.472L232.202 112.549V110.681Z" fill="#412210"/>
<path d="M232.202 112.549L212.998 101.472L212.716 102.777L232.202 113.988V112.549Z" fill="#28150A"/>
<path d="M234.589 98.773L217.017 88.615L215.4 89.5641L234.589 100.641V98.773Z" fill="#412210"/>
<path d="M234.589 100.641L215.4 89.5641L215.104 90.869L234.589 102.08V100.641Z" fill="#28150A"/>
<path d="M237.007 86.7317L219.419 76.5737L217.803 77.5227L237.007 88.6002V86.7317Z" fill="#412210"/>
<path d="M237.007 88.6002L217.803 77.5227L217.521 78.8277L237.007 90.0386V88.6002Z" fill="#28150A"/>
<path d="M239.29 74.6607L221.703 64.5175L220.086 65.4518L239.29 76.544V74.6607Z" fill="#412210"/>
<path d="M239.29 76.544L220.086 65.4518L219.805 66.7567L239.29 77.9824V76.544Z" fill="#28150A"/>
<path d="M241.722 62.6342L224.135 52.4762L222.518 53.4253L241.722 64.5027V62.6342Z" fill="#412210"/>
<path d="M241.722 64.5027L222.518 53.4253L222.237 54.7154L241.722 65.9411V64.5027Z" fill="#28150A"/>
<path d="M244.288 56.5098L245.904 55.5755L225.069 160.107L223.453 161.041L244.288 56.5098Z" fill="#331B0D"/>
<path d="M241.707 55.012L243.324 54.0778L245.904 55.5755L244.288 56.5098L241.707 55.012Z" fill="#412210"/>
<path d="M244.288 56.5098L223.453 161.041L220.872 159.558L241.707 55.012L244.288 56.5098Z" fill="#28150A"/>
<path d="M104.997 162.227C103.039 163.903 100.103 163.666 98.4276 161.708C96.7519 159.751 96.9892 156.814 98.9466 155.139L118.892 142.875C120.849 141.199 123.786 141.437 125.461 143.394C127.137 145.352 126.9 148.288 124.942 149.963L104.997 162.227Z" fill="#F6871E"/>
<path d="M115.704 166.542C113.835 168.307 110.884 168.233 109.119 166.364C107.355 164.496 107.429 161.545 109.297 159.78L128.264 146.419C130.132 144.655 133.083 144.729 134.848 146.597C136.613 148.466 136.539 151.417 134.67 153.181L115.704 166.542Z" fill="#F6871E"/>
<path d="M93.7861 176.967C93.7861 176.967 99.0208 175.692 97.5972 181.564C97.5379 181.787 97.0337 183.107 94.9872 182.78C93.6229 182.573 92.3476 183.789 91.9621 184.085C89.6042 185.85 86.8905 185.806 84.8885 185.509C80.6474 184.901 85.4372 180.956 88.3586 179.562C91.4282 178.109 93.7861 176.953 93.7861 176.953V176.967Z" fill="#1E2022"/>
<path d="M104.982 182.84C104.982 182.84 110.217 181.564 108.793 187.437C108.734 187.659 108.23 188.979 106.183 188.653C104.819 188.445 103.544 189.661 103.158 189.958C100.8 191.722 98.0865 191.678 96.0846 191.381C91.8434 190.773 96.6333 186.829 99.5546 185.435C102.624 183.982 104.982 182.825 104.982 182.825V182.84Z" fill="#1E2022"/>
<path d="M94.3496 179.562C92.8518 179.014 91.013 178.51 89.2928 178.569L97.2561 157.778C97.7899 155.257 100.266 153.656 102.787 154.19C105.308 154.724 106.91 157.2 106.376 159.721L98.0569 181.446C97.1375 180.497 95.3431 179.918 94.3644 179.548L94.3496 179.562Z" fill="#F6871E"/>
<path d="M109.594 187.496C108.289 185.895 105.768 185.005 103.929 184.619C103.173 184.456 102.165 184.248 101.156 184.16L108.096 162.02C108.497 159.484 110.899 157.749 113.435 158.149C115.971 158.55 117.706 160.952 117.305 163.488L110.365 185.628C110.246 186.325 109.98 186.962 109.609 187.511L109.594 187.496Z" fill="#F6871E"/>
<path d="M111.64 136.914C110.751 138.367 108.853 138.812 107.399 137.922C105.946 137.032 105.501 135.134 106.391 133.681L116.237 117.636C117.127 116.182 119.025 115.738 120.479 116.627C121.932 117.517 122.377 119.415 121.487 120.869L111.64 136.914Z" fill="#0D598A"/>
<path d="M129.717 120.542C129.332 119.934 125.965 118.748 123.133 118.748C120.301 118.748 118.907 116.242 118.907 119.059C118.907 121.877 119.322 134.778 122.14 134.778C124.957 134.778 131.23 122.93 129.702 120.557L129.717 120.542Z" fill="#114269"/>
<path d="M136.123 146.301L136.509 130.641C136.316 129.173 136.539 123.894 135.649 122.351C135.145 121.491 133.632 119.934 132.075 118.6C131.956 118.496 131.838 118.392 131.719 118.303C130.918 117.71 130.088 117.339 129.346 116.924C129.317 116.924 129.272 116.879 129.243 116.865C125.298 114.625 120.464 115.53 120.138 115.574C118.669 115.723 117.75 116.168 117.142 116.79C116.015 117.947 116.045 119.697 115.956 121.18C115.674 125.302 114.473 136.232 114.058 144.047C114.058 144.121 114.058 144.195 114.058 144.269C114.013 144.966 113.998 145.648 113.969 146.301H136.123Z" fill="#114269"/>
<path d="M133.721 141.704C129.584 141.793 125.491 141.466 121.383 141.081C119.07 140.858 116.579 140.695 114.339 139.909C114.236 141.348 114.147 142.742 114.072 144.061C114.072 144.136 114.072 144.21 114.072 144.284C114.028 145.085 113.998 145.871 113.969 146.597C114.399 148.436 116.816 151.239 118.729 152.306C121.042 153.597 123.726 154.234 126.381 154.145C128.902 154.071 131.423 153.3 133.513 151.773C134.507 151.061 135.337 150.171 136.064 149.177L136.257 141.526C135.412 141.615 134.581 141.689 133.736 141.704H133.721Z" fill="#F6871E"/>
<path d="M132.075 118.6C127.537 124.339 129.08 140.873 128.561 152.366L126.351 154.116L115.274 162.924L113.85 146.701C113.894 145.96 113.969 145.129 114.043 144.269C114.043 144.195 114.043 144.121 114.043 144.047C114.769 135.238 116.46 121.017 117.127 116.79C117.72 116.168 118.655 115.723 120.123 115.574L119.381 123.449L126.737 125.243L129.317 116.924C130.073 117.339 130.904 117.71 131.689 118.303C131.808 118.392 131.927 118.496 132.045 118.6H132.075Z" fill="#F6871E"/>
<path d="M123.252 118.14C124.023 118.348 124.853 118.184 125.61 117.962C126.781 117.636 127.463 116.538 127.463 116.538L127.522 113.573L122.273 113.113L122.08 116.776C122.243 117.384 122.51 117.932 123.237 118.14H123.252Z" fill="#E9C2B0"/>
<path d="M130.562 110.191C127.508 113.172 126.692 115.649 123.652 113.647C120.612 111.645 118.18 106.618 118.907 102.421C119.678 97.9574 126.158 96.5041 129.791 98.5654C135.071 101.561 133.513 107.3 130.548 110.191H130.562Z" fill="#915533"/>
<path d="M129.51 108.16C129.317 109.42 128.442 113.128 127.508 113.81C126.203 114.774 123.163 116.286 121.457 115.13C119.174 113.587 118.803 109.45 118.803 105.402C118.803 101.353 121.887 100.582 124.527 102.317C127.152 104.037 130.132 104.156 129.51 108.16Z" fill="#E9C2B0"/>
<path d="M130.31 107.685C130.073 105.936 129.658 101.309 129.658 101.309C129.346 101.072 122.896 100.137 122.747 100.137C122.659 100.137 122.851 100.063 123.014 100.019C122.629 99.811 121.131 99.5293 120.464 99.8111C118.758 100.538 117.898 105.639 117.898 105.639C117.898 105.639 119.974 103.637 122.11 103.162C123.222 102.91 125.283 103.845 125.669 104.156C126.277 104.645 126.425 107.033 126.751 107.937C126.974 108.545 127.73 107.418 127.923 107.137C128.13 106.959 129.999 107.834 130.31 107.7V107.685Z" fill="#915533"/>
<path d="M129.435 108.323C129.065 109.376 128.561 110.014 127.893 109.925C127.226 109.836 126.87 109.124 127.003 108.012C127.152 106.899 128.116 106.084 128.798 106.173C129.465 106.262 129.851 107.137 129.435 108.323Z" fill="#E9C2B0"/>
<path d="M108.422 132.865C106.761 132.865 105.412 134.23 105.412 135.89L105.456 151.165C106.509 150.468 107.948 150.052 108.749 150.067C109.698 150.097 110.662 150.319 111.492 150.794L111.447 135.861C111.447 134.2 110.083 132.851 108.422 132.851V132.865Z" fill="#0D598A"/>
<path d="M108.408 149.192C110.098 149.118 111.492 149.8 111.537 150.69C111.566 151.595 110.232 152.366 108.541 152.44C106.851 152.514 105.457 151.832 105.412 150.942C105.382 150.038 106.717 149.266 108.408 149.192Z" fill="#0B2130"/>
<path d="M108.422 149.341C109.95 149.281 111.21 149.889 111.24 150.705C111.27 151.52 110.054 152.217 108.526 152.292C106.999 152.351 105.738 151.743 105.709 150.927C105.679 150.112 106.895 149.415 108.422 149.341Z" fill="#0B2130"/>
<path d="M106.584 149.919C108.052 149.296 109.431 149.4 110.039 149.711C110.202 150.23 110.335 151.431 110.484 152.573C110.677 154.205 110.395 156.963 109.802 158.016C108.526 160.329 107.666 159.128 106.762 158.461C105.397 157.467 106.702 153.611 106.91 151.58C107.014 150.557 106.539 149.934 106.584 149.904V149.919Z" fill="#E9C2B0"/>
<path d="M137.354 142.415C137.399 144.21 135.99 145.707 134.196 145.752C132.401 145.796 130.918 144.373 130.874 142.578L130.37 122.663C130.325 120.869 131.734 119.371 133.528 119.326C135.323 119.282 136.806 120.705 136.85 122.5L137.354 142.415Z" fill="#0D598A"/>
<path d="M136.613 140.68C135.53 139.286 133.528 139.019 132.134 140.102L117.29 151.684C118.551 152.114 119.841 153.063 120.33 153.745C120.924 154.56 121.354 155.524 121.502 156.533L136.064 145.174C137.458 144.091 137.695 142.074 136.613 140.68Z" fill="#0D598A"/>
<path d="M120.849 152.9C122.006 154.279 122.347 155.895 121.62 156.503C120.894 157.111 119.366 156.503 118.225 155.109C117.068 153.73 116.727 152.114 117.453 151.506C118.18 150.898 119.707 151.506 120.849 152.9Z" fill="#0B2130"/>
<path d="M120.716 153.018C121.739 154.249 122.051 155.687 121.398 156.236C120.746 156.785 119.396 156.236 118.373 155.005C117.35 153.774 117.038 152.336 117.691 151.802C118.343 151.254 119.693 151.802 120.716 153.033V153.018Z" fill="#0B2130"/>
<path d="M121.724 155.243C121.724 153.863 120.182 152.306 119.5 151.98C118.996 152.158 118.032 152.603 117.038 153.181C115.629 154.012 114.147 155.154 113.835 156.34C113.183 158.846 114.206 159.246 115.318 159.365C117.009 159.528 119.722 155.228 121.709 155.257L121.724 155.243Z" fill="#E9C2B0"/>
<path d="M172.974 170.843C171.995 172.444 169.89 172.949 168.288 171.955C166.686 170.976 166.182 168.871 167.176 167.269L178.046 149.563C179.024 147.961 181.13 147.457 182.732 148.451C184.333 149.43 184.837 151.535 183.844 153.137L172.974 170.843Z" fill="#0D598A"/>
<path d="M169.593 172.741C171.432 172.83 172.989 171.406 173.078 169.568L173.982 149.934C172.781 150.646 171.165 151.031 170.305 150.957C169.252 150.883 168.199 150.571 167.309 150.008L166.42 169.256C166.331 171.095 167.754 172.652 169.593 172.741Z" fill="#0D598A"/>
<path d="M170.601 151.965C168.733 151.95 167.235 151.135 167.235 150.141C167.235 149.148 168.763 148.362 170.631 148.377C172.499 148.391 173.997 149.207 173.997 150.201C173.997 151.194 172.47 151.98 170.601 151.965Z" fill="#0B2130"/>
<path d="M170.601 151.802C168.911 151.787 167.547 151.046 167.561 150.156C167.561 149.266 168.94 148.54 170.631 148.555C172.322 148.569 173.686 149.311 173.671 150.201C173.671 151.09 172.292 151.817 170.601 151.802Z" fill="#0B2130"/>
<path d="M172.544 151.491C170.868 152.054 169.371 151.832 168.718 151.431C168.585 150.853 168.525 149.504 168.466 148.243C168.377 146.434 168.926 143.424 169.667 142.312C171.269 139.88 172.114 141.259 173.048 142.074C174.472 143.29 172.707 147.413 172.322 149.637C172.129 150.749 172.588 151.491 172.544 151.506V151.491Z" fill="#E9C2B0"/>
<path d="M172.529 147.783C172.529 147.783 172.618 147.783 172.618 147.843V148.228C172.618 148.228 172.574 148.362 172.529 148.391L172.188 148.584C172.188 148.584 172.099 148.584 172.099 148.54V148.154C172.099 148.154 172.144 148.021 172.188 147.991L172.529 147.798V147.783Z" fill="#1A4B6C"/>
<path d="M172.781 141.184V141.273L171.891 141.792V141.689L172.781 141.184Z" fill="#02314B"/>
<path d="M173.73 140.962C173.819 140.903 173.893 140.962 173.908 141.066V146.567C173.923 146.671 173.849 146.805 173.76 146.864L170.972 148.48C170.883 148.54 170.794 148.48 170.794 148.377V142.875C170.779 142.771 170.853 142.638 170.942 142.578L173.73 140.962Z" fill="#1A4B6C"/>
<path d="M172.351 143.958C172.663 143.78 172.93 143.883 172.974 144.21C173.018 144.165 173.078 144.121 173.137 144.091C173.434 143.913 173.686 144.061 173.686 144.402C173.686 144.744 173.449 145.174 173.137 145.352L171.565 146.256C171.269 146.434 171.017 146.286 171.017 145.945C171.017 145.604 171.254 145.174 171.565 144.996C171.625 144.966 171.669 144.936 171.728 144.936C171.773 144.566 172.04 144.136 172.351 143.958Z" fill="#F8F9FC"/>
<path d="M173.715 140.31C173.953 140.176 174.146 140.28 174.146 140.547V147.161C174.16 147.428 173.968 147.769 173.745 147.902L170.972 149.504C170.735 149.637 170.542 149.533 170.542 149.266V142.653C170.527 142.386 170.72 142.045 170.942 141.911L173.715 140.31ZM173.908 146.568V141.066C173.893 140.962 173.819 140.918 173.715 140.962L170.928 142.578C170.839 142.638 170.75 142.771 170.764 142.875V148.377C170.779 148.48 170.853 148.525 170.957 148.48L173.745 146.864C173.834 146.805 173.908 146.671 173.908 146.568ZM172.603 148.228V147.843C172.603 147.843 172.559 147.754 172.514 147.783L172.173 147.976C172.173 147.976 172.084 148.08 172.084 148.139V148.525C172.084 148.525 172.129 148.614 172.173 148.569L172.514 148.377C172.514 148.377 172.603 148.273 172.603 148.214V148.228ZM171.877 141.704V141.792L172.752 141.288V141.199L171.877 141.704Z" fill="white"/>
<path d="M173.612 140.043C173.612 140.043 173.508 140.013 173.434 140.028C173.389 140.028 173.345 140.057 173.3 140.072L170.527 141.674C170.527 141.674 170.379 141.778 170.32 141.852C170.186 142.015 170.097 142.223 170.097 142.415V149.029C170.112 149.163 170.171 149.252 170.245 149.296L170.661 149.533C170.586 149.489 170.542 149.4 170.542 149.266V142.653C170.527 142.475 170.616 142.252 170.75 142.089C170.809 142.015 170.883 141.956 170.957 141.911L173.73 140.31C173.73 140.31 173.819 140.265 173.864 140.265C173.923 140.265 173.997 140.265 174.042 140.28L173.626 140.043H173.612Z" fill="#DCDCDC"/>
<path d="M169.919 148.703C169.919 148.703 170.394 147.146 171.803 145.841C173.078 144.669 172.099 143.35 169.904 145.381C167.962 147.175 168.332 148.377 168.94 148.777C169.548 149.177 169.919 148.703 169.919 148.703Z" fill="#E9C2B0"/>
<path d="M166.924 194.154C164.966 195.83 162.03 195.593 160.354 193.635C158.679 191.678 158.916 188.742 160.873 187.066L180.819 174.802C182.776 173.127 185.712 173.364 187.388 175.321C189.064 177.279 188.826 180.215 186.869 181.891L166.924 194.154Z" fill="#05263B"/>
<path d="M177.616 198.47C175.747 200.234 172.796 200.16 171.031 198.292C169.267 196.423 169.341 193.472 171.209 191.708L190.176 178.346C192.044 176.582 194.995 176.656 196.76 178.524C198.525 180.393 198.451 183.344 196.582 185.109L177.616 198.47Z" fill="#05263B"/>
<path d="M155.713 208.895C155.713 208.895 160.948 207.619 159.524 213.492C159.465 213.714 158.96 215.034 156.914 214.708C155.55 214.5 154.274 215.716 153.889 216.013C151.531 217.777 148.817 217.733 146.815 217.436C142.574 216.828 147.364 212.884 150.285 211.49C153.355 210.036 155.713 208.88 155.713 208.88V208.895Z" fill="#1E2022"/>
<path d="M166.909 214.767C166.909 214.767 172.144 213.492 170.72 219.364C170.661 219.586 170.156 220.906 168.11 220.58C166.746 220.372 165.47 221.588 165.085 221.885C162.727 223.65 160.013 223.605 158.011 223.309C153.77 222.701 158.56 218.756 161.481 217.362C164.551 215.909 166.909 214.752 166.909 214.752V214.767Z" fill="#1E2022"/>
<path d="M156.261 211.49C154.764 210.941 152.925 210.437 151.205 210.496L159.168 189.706C159.702 187.185 162.178 185.583 164.699 186.117C167.22 186.651 168.822 189.127 168.288 191.648L159.969 213.373C159.049 212.424 157.255 211.846 156.276 211.475L156.261 211.49Z" fill="#05263B"/>
<path d="M171.521 219.423C170.216 217.807 167.695 216.932 165.856 216.546C165.1 216.383 164.091 216.176 163.083 216.087L170.023 193.947C170.423 191.411 172.826 189.676 175.361 190.076C177.897 190.477 179.632 192.879 179.232 195.415L172.292 217.555C172.173 218.252 171.906 218.89 171.536 219.438L171.521 219.423Z" fill="#05263B"/>
<path d="M191.629 152.47C191.244 151.862 187.877 150.675 185.045 150.675C182.213 150.675 180.819 148.169 180.819 150.987C180.819 153.804 181.234 166.706 184.051 166.706C186.869 166.706 193.142 154.857 191.614 152.484L191.629 152.47Z" fill="#114269"/>
<path d="M198.05 178.228L198.436 162.568C198.243 161.1 198.465 155.821 197.576 154.279C197.071 153.419 195.559 151.862 194.002 150.527C193.883 150.423 193.765 150.319 193.661 150.23C192.86 149.637 192.03 149.266 191.288 148.851C191.258 148.851 191.214 148.807 191.184 148.792C187.24 146.553 182.405 147.457 182.079 147.502C180.611 147.65 179.692 148.095 179.084 148.718C177.957 149.874 177.986 151.624 177.897 153.107C177.616 157.23 176.414 168.159 175.999 175.974C175.999 176.048 175.999 176.122 175.999 176.196C175.955 176.893 175.94 177.575 175.91 178.228H198.065H198.05Z" fill="#114269"/>
<path d="M195.633 173.631C191.496 173.72 187.403 173.394 183.295 173.008C180.982 172.786 178.49 172.622 176.251 171.836C176.147 173.275 176.058 174.669 175.984 175.989C175.984 176.063 175.984 176.137 175.984 176.211C175.94 177.012 175.91 177.798 175.881 178.524C176.311 180.363 178.728 183.166 180.641 184.234C182.954 185.524 185.638 186.161 188.293 186.072C190.814 185.998 193.334 185.227 195.425 183.7C196.419 182.988 197.249 182.098 197.976 181.105L198.169 173.453C197.324 173.542 196.493 173.616 195.648 173.631H195.633Z" fill="#05263B"/>
<path d="M194.002 150.527C189.464 156.266 191.006 172.8 190.487 184.293L188.278 186.043L177.2 194.851L175.777 178.628C175.821 177.887 175.895 177.056 175.969 176.196C175.969 176.122 175.969 176.048 175.969 175.974C176.696 167.165 178.387 152.944 179.054 148.718C179.647 148.095 180.581 147.65 182.049 147.502L181.308 155.376L188.663 157.17L191.244 148.851C192 149.266 192.83 149.637 193.616 150.23C193.735 150.319 193.854 150.423 193.957 150.527H194.002Z" fill="#05263B"/>
<path d="M185.178 150.067C185.95 150.275 186.78 150.112 187.536 149.889C188.708 149.563 189.39 148.466 189.39 148.466L189.449 145.5L184.2 145.04L184.007 148.703C184.17 149.311 184.437 149.86 185.164 150.067H185.178Z" fill="#E9C2B0"/>
<path d="M199.281 174.343C199.325 176.137 197.917 177.635 196.122 177.679C194.328 177.724 192.845 176.3 192.801 174.506L192.296 154.59C192.252 152.796 193.661 151.298 195.455 151.254C197.249 151.209 198.732 152.633 198.777 154.427L199.281 174.343Z" fill="#0D598A"/>
<path d="M198.525 172.608C197.442 171.214 195.44 170.947 194.046 172.029L179.202 183.611C180.463 184.041 181.753 184.99 182.242 185.672C182.835 186.488 183.265 187.452 183.414 188.46L197.976 177.101C199.37 176.018 199.607 174.002 198.525 172.608Z" fill="#0D598A"/>
<path d="M182.776 184.827C183.933 186.206 184.274 187.822 183.547 188.43C182.821 189.038 181.293 188.43 180.151 187.036C178.995 185.657 178.654 184.041 179.38 183.433C180.107 182.825 181.634 183.433 182.776 184.827Z" fill="#0B2130"/>
<path d="M182.628 184.945C183.651 186.176 183.962 187.615 183.31 188.163C182.657 188.712 181.308 188.163 180.285 186.933C179.262 185.702 178.95 184.263 179.603 183.715C180.255 183.166 181.605 183.715 182.628 184.945Z" fill="#0B2130"/>
<path d="M183.636 187.17C183.636 185.791 182.094 184.234 181.412 183.907C180.908 184.085 179.944 184.515 178.95 185.109C177.541 185.939 176.058 187.081 175.747 188.267C175.109 190.773 176.118 191.174 177.23 191.292C178.921 191.455 181.634 187.155 183.621 187.185L183.636 187.17Z" fill="#E9C2B0"/>
<path d="M192.904 141.244C190.502 144.862 188.53 147.531 185.431 145.485C182.85 143.794 180.715 139.983 180.478 136.276C180.433 135.52 180.478 134.763 180.596 134.022C180.715 133.384 187.462 129.217 187.462 129.217C187.462 129.217 190.22 128.891 191.852 129.87C196.493 132.628 194.209 139.257 192.904 141.229V141.244Z" fill="#2B0D04"/>
<path d="M191.392 139.894C191.184 141.184 190.295 144.966 189.36 145.663C188.026 146.642 184.941 148.184 183.191 147.012C180.863 145.44 180.478 141.214 180.478 137.092C180.478 132.954 183.636 132.183 186.305 133.948C188.99 135.713 192.03 135.831 191.392 139.909V139.894Z" fill="#E9C2B0"/>
<path d="M187.447 129.247C187.314 129.084 180.73 131.842 180.581 134.052C180.537 134.793 180.418 135.535 180.463 136.306C180.492 136.157 180.522 136.009 180.567 135.861C180.848 135.09 181.516 134.971 182.183 135.06C183.488 135.223 184.259 135.579 184.259 135.579C184.259 135.579 184.289 135.579 184.318 135.579C185.697 136.128 187.818 135.979 188.115 137.551C188.218 138.056 188.174 138.634 188.144 139.212C188.129 139.776 188.248 140.295 188.189 140.873C188.144 141.229 187.863 141.807 188.189 141.896C188.337 141.941 191.807 141.229 190.828 141.778C191.184 141.733 190.65 142.475 190.117 144.477C190.191 144.254 191.97 141.288 191.97 141.288V134.763C191.97 134.763 187.61 129.529 187.403 129.262L187.447 129.247Z" fill="#2B0D04"/>
<path d="M191.748 139.761C191.585 139.301 191.14 139.108 190.739 139.242C190.339 139.36 189.998 139.761 189.746 140.206C189.494 140.651 189.138 141.526 188.99 142.03C188.975 142.089 189.79 143.216 189.716 143.142C190.472 143.246 191.095 142.4 191.466 141.585C191.718 141.007 191.955 140.324 191.763 139.776L191.748 139.761Z" fill="#E9C2B0"/>
<path opacity="0.38" d="M214.544 43.1124C213.789 42.5682 212.964 42.0767 212.052 41.6905C208.014 40.0228 202.379 40.7425 199.149 38.3025C197.481 37.0386 196.621 35.0374 194.339 34.4932C191.197 33.7559 187.949 36.4593 184.807 35.722C181.595 34.9496 181.682 31.6494 180.524 29.2971C179.19 26.5586 175.17 24.6627 171.238 24.926C167.306 25.1894 163.83 27.5943 163.198 30.4908C158.967 29.9291 154.087 29.4726 150.857 31.5792C149.347 32.5622 148.47 33.9665 147.241 35.1427C144.257 38.004 139.008 39.4435 134.216 38.7238C131.776 38.3551 129.546 37.4774 127.229 36.8279C124.912 36.1784 122.331 35.722 119.944 36.2662C116.837 36.9508 115.836 39.4962 112.729 40.3212C110.886 40.8128 109.218 41.0761 107.638 42.024C107.41 42.1644 106.778 42.6033 106.146 43.1475H214.544V43.1124Z" fill="#97CAFE"/>
<path d="M268.914 26.3089L268.901 30.9764L267.125 32.0055L267.137 27.3502L268.914 26.3089Z" fill="#A83131"/>
<path d="M267.137 27.3502L267.125 32.0055L263.107 34.3454L263.119 29.6779L267.137 27.3502Z" fill="#C38E0F"/>
<path d="M268.914 26.3089L267.137 27.3502L263.119 29.6779L261.33 30.7192L245.012 21.2983L252.595 16.9003L268.914 26.3089Z" fill="#FA7564"/>
<path d="M263.119 29.6779L263.107 34.3454L261.318 35.3867L261.33 30.7192L263.119 29.6779Z" fill="#A83131"/>
<path d="M261.33 30.7192L261.318 35.3867L245 25.9659L245.012 21.2983L261.33 30.7192Z" fill="#D43E3E"/>
<path d="M267.407 32.1525L267.394 36.8201L263.107 34.3454L263.119 29.6779L267.407 32.1525Z" fill="#D7E7F7"/>
<path d="M271.425 29.8249V34.4924C269.845 35.1172 268.472 35.9135 267.394 36.8201V32.1525C268.497 31.2337 269.857 30.4497 271.425 29.8249Z" fill="#024462"/>
<path d="M271.425 29.8249C269.857 30.4497 268.485 31.246 267.407 32.1525L263.119 29.6779L267.137 27.3502L271.425 29.8249Z" fill="#F8F9FC"/>
<path d="M292.251 37.3223V41.9899C292.251 40.091 290.904 38.3514 288.711 37.0773C287.535 36.4035 286.126 35.8645 284.533 35.5092C284.484 35.5092 284.448 35.4847 284.399 35.4847C284.362 35.4847 284.325 35.4725 284.301 35.4602C283.835 35.3622 283.357 35.2887 282.867 35.2275C282.843 35.2275 282.818 35.2275 282.794 35.2275C282.487 35.1907 282.181 35.154 281.875 35.1417C281.752 35.1417 281.63 35.1294 281.507 35.1172C277.808 34.8967 274.353 35.6807 271.915 37.0773C270.016 38.1676 268.742 39.6255 268.46 41.2916C268.423 41.5244 268.399 41.7449 268.399 41.9776V37.3101C268.411 37.0773 268.436 36.8568 268.472 36.624C268.754 34.9579 270.028 33.5001 271.927 32.4098C274.365 31.0132 277.832 30.2291 281.532 30.4497C281.654 30.4497 281.777 30.4619 281.899 30.4742C282.206 30.4987 282.512 30.5232 282.818 30.5599C282.843 30.5599 282.867 30.5599 282.892 30.5599C283.382 30.6212 283.859 30.7069 284.325 30.7927C284.362 30.7927 284.398 30.8049 284.423 30.8172C284.472 30.8172 284.509 30.8417 284.558 30.8417C286.15 31.1969 287.559 31.736 288.735 32.4098C290.928 33.6716 292.264 35.4235 292.264 37.3223H292.251Z" fill="#BE8A0E"/>
<path d="M296 37.3223V41.9899C295.988 42.2839 295.963 42.5779 295.914 42.8842V38.2166C295.975 37.9226 296 37.6164 296 37.3223Z" fill="#BE8A0E"/>
<path d="M292.251 37.3223V41.9899C292.239 42.2227 292.215 42.4432 292.178 42.6759C291.896 44.342 290.622 45.7999 288.735 46.8902C286.836 47.9805 284.325 48.6911 281.556 48.8503C280.772 48.8993 279.964 48.8993 279.143 48.8503C276.301 48.6911 273.789 47.956 271.915 46.8657C269.722 45.6039 268.387 43.852 268.399 41.9654V37.2978C268.399 39.1845 269.734 40.9363 271.927 42.1981C273.802 43.2762 276.313 44.0113 279.155 44.1828C279.976 44.2318 280.785 44.2318 281.569 44.1828C284.325 44.0235 286.849 43.313 288.748 42.2227C290.646 41.1323 291.921 39.6745 292.19 38.0084C292.227 37.7756 292.251 37.5429 292.251 37.3223Z" fill="#40A19E"/>
<path d="M292.251 37.3223V41.9899C292.239 42.2227 292.215 42.4432 292.178 42.6759C291.896 44.342 290.622 45.7999 288.735 46.8902C286.836 47.9805 284.325 48.6911 281.556 48.8503C280.772 48.8993 279.964 48.8993 279.143 48.8503C276.301 48.6911 273.789 47.956 271.915 46.8657C269.722 45.6039 268.387 43.852 268.399 41.9654V37.2978C268.399 39.1845 269.734 40.9363 271.927 42.1981C273.802 43.2762 276.313 44.0113 279.155 44.1828C279.976 44.2318 280.785 44.2318 281.569 44.1828C284.325 44.0235 286.849 43.313 288.748 42.2227C290.646 41.1323 291.921 39.6745 292.19 38.0084C292.227 37.7756 292.251 37.5429 292.251 37.3223Z" fill="#40A19E"/>
<path d="M292.251 37.3223V41.9899C292.239 42.2227 292.215 42.4432 292.178 42.6759C291.896 44.342 290.622 45.7999 288.735 46.8902C286.836 47.9805 284.325 48.6911 281.556 48.8503C280.772 48.8993 279.964 48.8993 279.143 48.8503C276.301 48.6911 273.789 47.956 271.915 46.8657C269.722 45.6039 268.387 43.852 268.399 41.9654V37.2978C268.399 39.1845 269.734 40.9363 271.927 42.1981C273.802 43.2762 276.313 44.0113 279.155 44.1828C279.976 44.2318 280.785 44.2318 281.569 44.1828C284.325 44.0235 286.849 43.313 288.748 42.2227C290.646 41.1323 291.921 39.6745 292.19 38.0084C292.227 37.7756 292.251 37.5429 292.251 37.3223Z" fill="#40A19E"/>
<path d="M295.914 38.2166C295.057 43.2027 287.388 46.8289 278.788 46.3267C275.063 46.1062 271.768 45.1383 269.306 43.7172C266.071 41.8551 264.27 39.1967 264.748 36.3668C265.018 34.7987 265.961 33.3653 267.394 32.1525C268.485 31.2337 269.845 30.4497 271.413 29.8249C274.353 28.6488 278.016 28.0485 281.863 28.269C285.599 28.4895 288.895 29.4573 291.357 30.8784C294.579 32.7405 296.392 35.3867 295.902 38.2166H295.914ZM281.569 44.1705C284.325 44.0113 286.849 43.3007 288.748 42.2104C290.646 41.1201 291.92 39.6622 292.19 37.9961C292.558 35.84 291.185 33.8186 288.723 32.3975C287.547 31.7237 286.138 31.1847 284.546 30.8294C284.497 30.8294 284.46 30.8049 284.411 30.8049C284.374 30.8049 284.337 30.7927 284.313 30.7804C283.847 30.6824 283.369 30.6089 282.879 30.5477C282.855 30.5477 282.83 30.5477 282.806 30.5477C282.5 30.5109 282.193 30.4742 281.887 30.4619C281.765 30.4619 281.642 30.4497 281.52 30.4374C277.82 30.2169 274.365 31.0009 271.915 32.3975C270.016 33.4878 268.742 34.9457 268.46 36.6118C268.093 38.7679 269.465 40.7893 271.915 42.1981C273.789 43.2762 276.301 44.0113 279.143 44.1828C279.964 44.2318 280.772 44.2318 281.556 44.1828L281.569 44.1705Z" fill="#FA7564"/>
<path d="M288.723 32.4098C291.185 33.8309 292.558 35.8523 292.19 38.0084C291.908 39.6745 290.634 41.1323 288.748 42.2227C286.849 43.313 284.337 44.0235 281.569 44.1828C280.785 44.2318 279.976 44.2318 279.155 44.1828C276.313 44.0235 273.802 43.2885 271.927 42.1982C269.477 40.7771 268.093 38.7557 268.473 36.6118C268.754 34.9457 270.028 33.4879 271.927 32.3975C274.365 31.0009 277.832 30.2169 281.532 30.4374C281.654 30.4374 281.777 30.4497 281.899 30.4619C282.206 30.4864 282.524 30.5109 282.818 30.5477C282.843 30.5477 282.867 30.5477 282.892 30.5477C283.382 30.6089 283.859 30.6947 284.325 30.7804C284.362 30.7804 284.399 30.7927 284.423 30.8049C284.472 30.8049 284.509 30.8294 284.558 30.8294C286.15 31.1847 287.559 31.7237 288.735 32.3975L288.723 32.4098Z" fill="#2AD4D0"/>
<path d="M295.914 38.2166V42.8842C295.044 47.8703 287.375 51.4965 278.775 50.9942C275.051 50.7737 271.756 49.8059 269.293 48.3848C266.402 46.7187 264.65 44.4155 264.663 41.9286V37.2611C264.663 39.748 266.427 42.0511 269.306 43.7172C271.768 45.1383 275.063 46.1062 278.788 46.3267C287.388 46.8289 295.057 43.2027 295.914 38.2166Z" fill="#D43E3E"/>
<path d="M377.688 216.391L377.674 221.951L369.416 226.741L369.43 221.194L377.688 216.391Z" fill="#919191"/>
<path d="M361.24 225.957L361.227 231.504L352.955 236.307L352.968 230.76L361.24 225.957Z" fill="#919191"/>
<path d="M343.939 236.004L343.926 241.565L335.653 246.369L335.667 240.808L343.939 236.004Z" fill="#919191"/>
<path d="M327.478 245.57L327.464 251.131L319.206 255.921L319.219 250.374L327.478 245.57Z" fill="#919191"/>
<path d="M483.835 234.49L483.821 240.037L455.11 256.719L455.124 251.172L483.835 234.49Z" fill="#919191"/>
<path d="M439.281 251.957L439.268 257.517L377.674 221.951L377.688 216.391L439.281 251.957Z" fill="#919191"/>
<path d="M439.281 251.957L439.268 257.517L431.023 262.307L431.037 256.76L439.281 251.957Z" fill="#717173"/>
<path d="M431.037 256.76L431.023 262.307L369.416 226.741L369.43 221.195L431.037 256.76Z" fill="#727273"/>
<path d="M439.281 251.957L431.037 256.76L369.43 221.194L377.688 216.391L439.281 251.957Z" fill="#C7C7C9"/>
<path d="M311.044 255.122L311.016 260.683L302.744 265.486L302.758 259.94L311.044 255.122Z" fill="#919191"/>
<path d="M483.835 234.49L484 267.84L455.124 251.172L483.835 234.49Z" fill="#D1DCE6"/>
<path d="M484 267.84L483.986 273.401L455.11 256.719L455.124 251.172L484 267.84Z" fill="#727273"/>
<path d="M452.371 278.562L452.357 284.123L361.227 231.504L361.24 225.957L452.371 278.562Z" fill="#919191"/>
<path d="M444.099 283.379L444.085 288.926L352.955 236.307L352.968 230.76L444.099 283.379Z" fill="#727273"/>
<path d="M452.371 278.562L452.357 284.123L444.085 288.926L444.099 283.379L452.371 278.562Z" fill="#717173"/>
<path d="M435.07 288.623L435.056 294.17L343.926 241.565L343.939 236.004L435.07 288.623Z" fill="#919191"/>
<path d="M426.798 293.427L426.784 298.988L335.653 246.369L335.667 240.808L426.798 293.427Z" fill="#727273"/>
<path d="M435.07 288.623L435.056 294.17L426.784 298.988L426.798 293.427L435.07 288.623Z" fill="#717173"/>
<path d="M435.07 288.623L426.798 293.427L335.667 240.808L343.939 236.004L435.07 288.623Z" fill="#C7C7C9"/>
<path d="M418.608 298.189L418.594 303.736L327.464 251.131L327.478 245.57L418.608 298.189Z" fill="#919191"/>
<path d="M410.364 302.979L410.336 308.54L319.206 255.921L319.219 250.374L410.364 302.979Z" fill="#727273"/>
<path d="M418.608 298.189L418.594 303.736L410.336 308.54L410.364 302.979L418.608 298.189Z" fill="#717173"/>
<path d="M402.174 307.741L402.16 313.288L311.016 260.683L311.044 255.122L402.174 307.741Z" fill="#919191"/>
<path d="M402.174 307.741L402.16 313.288L393.874 318.106L393.902 312.545L402.174 307.741Z" fill="#717173"/>
<path d="M393.902 312.545L393.874 318.106L302.744 265.486L302.758 259.94L393.902 312.545Z" fill="#727273"/>
<path d="M455.124 251.172L484 267.84L374.385 331.539L270.014 271.281L408.34 190.9L483.835 234.49L455.124 251.172ZM426.798 293.427L435.07 288.623L343.939 236.004L335.667 240.808L426.798 293.427ZM393.902 312.545L402.174 307.741L311.044 255.122L302.772 259.926L393.902 312.545ZM444.112 283.366L452.384 278.562L361.254 225.943L352.982 230.747L444.112 283.366ZM410.364 302.979L418.622 298.189L327.492 245.57L319.233 250.36L410.364 302.979ZM377.688 216.391L369.43 221.181L431.037 256.746L439.295 251.957L377.688 216.391Z" fill="#FDFDFD"/>
<path d="M452.371 278.562L444.099 283.379L352.968 230.76L361.24 225.957L452.371 278.562Z" fill="#C7C7C9"/>
<path d="M418.608 298.189L410.364 302.979L319.219 250.374L327.478 245.57L418.608 298.189Z" fill="#C7C7C9"/>
<path d="M402.174 307.741L393.902 312.545L302.758 259.94L311.044 255.122L402.174 307.741Z" fill="#C7C7C9"/>
<path d="M484 267.84L483.986 273.401L374.371 337.1L374.385 331.539L484 267.84Z" fill="#A8BDCC"/>
<path d="M374.385 331.539L374.371 337.1L270 276.842L270.014 271.281L374.385 331.539Z" fill="#A8BDCC"/>
<path d="M434.366 228.044C434.846 227.684 435.696 226.934 436.296 226.104C436.486 226.254 436.666 226.414 436.816 226.624L443.816 234.964C444.596 236.064 444.236 237.574 443.146 238.354C442.056 239.134 440.635 238.884 439.855 237.784L432.855 229.434C432.745 229.284 432.666 229.124 432.596 228.964C433.226 228.754 433.826 228.444 434.366 228.034V228.044Z" fill="#0F3B5E"/>
<path d="M395.706 214.244C396.466 215.324 397.946 215.594 399.026 214.834C400.096 214.084 400.356 212.594 399.596 211.514L393.126 202.494C392.366 201.414 390.886 201.144 389.806 201.904C388.736 202.654 388.476 204.144 389.236 205.224L395.706 214.244Z" fill="#0D598A"/>
<path d="M398.676 222.514C398.936 223.694 400.156 224.414 401.326 224.144C402.426 223.894 403.106 222.844 402.896 221.794C402.896 221.794 400.466 212.894 399.726 211.754L398.326 211.074C397.026 210.904 395.876 214.444 395.876 214.444L398.676 222.514Z" fill="#0D598A"/>
<path d="M402.215 221.964C402.385 222.314 402.606 222.814 402.796 223.364C403.166 224.434 403.426 225.684 403.066 226.434C402.286 228.034 401.576 227.794 400.946 227.344C400.056 226.724 400.416 223.724 399.646 222.594C400.416 222.204 401.386 221.954 402.226 221.964H402.215Z" fill="#E5BD99"/>
<path d="M390.876 253.004C390.876 253.004 387.146 252.084 388.146 256.274C388.186 256.434 388.546 257.373 390.006 257.153C390.976 257.003 391.886 257.874 392.166 258.084C393.846 259.344 395.786 259.314 397.206 259.114C400.236 258.684 396.826 255.863 394.736 254.873C392.546 253.833 390.866 253.004 390.866 253.004H390.876Z" fill="#1E2022"/>
<path d="M381.455 252.684C381.455 252.684 378.366 252.364 378.636 255.044C378.656 255.204 379.165 256.454 380.595 256.834C381.325 257.024 382.476 257.554 382.756 257.764C384.436 259.024 386.536 260.084 387.306 259.924C390.296 259.294 386.676 256.054 385.336 254.554C383.716 252.754 381.465 252.684 381.465 252.684H381.455Z" fill="#1E2022"/>
<path d="M391.056 255.794C389.826 255.614 388.836 255.214 387.936 254.624L386.736 220.234L393.566 221.184L394.736 254.854C393.596 255.504 392.376 255.974 391.056 255.774V255.794Z" fill="#F6871E"/>
<path d="M382.215 255.664C383.445 255.504 384.445 255.114 385.355 254.544L387.016 220.184L380.166 221.034L378.546 254.684C379.676 255.344 380.885 255.834 382.215 255.664Z" fill="#F6871E"/>
<path d="M393.726 226.624C393.726 227.094 393.726 227.584 393.726 228.074C393.416 229.344 388.926 228.704 387.496 229.154C383.696 230.334 379.756 231.254 379.676 230.474C379.676 230.454 379.676 230.454 379.676 230.434C380.056 222.104 379.936 223.744 380.176 217.184C380.216 216.164 378.656 205.684 379.276 204.634C379.576 204.114 380.596 203.494 381.706 202.934C381.726 202.924 381.756 202.914 381.776 202.894C382.416 202.574 383.076 202.274 383.656 202.024C383.706 202.004 383.766 201.974 383.826 201.944C384.186 201.794 384.506 201.654 384.736 201.564C385.386 200.994 386.276 200.664 387.266 200.664C388.116 200.664 389.036 200.804 389.756 201.184C389.846 201.184 389.936 201.184 390.026 201.204C390.256 201.224 390.476 201.274 390.686 201.344C391.296 201.544 391.796 201.934 392.176 202.434C392.256 202.524 392.316 202.624 392.386 202.724C393.586 204.504 393.766 207.344 393.836 208.454C394.026 211.464 393.836 217.194 393.746 226.624H393.726Z" fill="#114269"/>
<path d="M393.836 228.724L379.605 231.574C379.605 231.424 379.606 231.044 379.666 230.484C380.426 222.154 381.456 207.424 381.686 202.944C381.706 202.934 381.736 202.924 381.756 202.904C382.396 202.584 383.056 202.284 383.636 202.034C383.686 202.014 383.746 201.984 383.806 201.954L384.546 206.824L390.486 206.084L390.016 201.204C390.246 201.224 390.466 201.274 390.676 201.344C391.286 201.544 391.786 201.934 392.166 202.434C392.606 204.924 392.906 210.404 393.286 216.164C393.556 220.234 393.586 224.304 393.736 226.624C393.806 227.794 393.846 228.554 393.846 228.714L393.836 228.724Z" fill="#F6871E"/>
<path d="M388.326 203.004C387.796 203.144 387.226 203.024 386.706 202.884C385.896 202.654 385.436 201.904 385.436 201.904L385.406 199.864L389.016 199.564L389.136 202.074C389.026 202.494 388.836 202.874 388.336 203.004H388.326Z" fill="#E5BD99"/>
<path d="M383.316 197.524C385.406 199.574 385.956 201.284 388.056 199.914C390.156 198.544 391.826 195.094 391.336 192.204C390.816 189.134 386.365 188.114 383.855 189.524C380.215 191.574 381.286 195.524 383.316 197.514V197.524Z" fill="#424143"/>
<path d="M383.776 196.424C383.906 197.294 384.766 199.544 385.396 200.014C386.286 200.674 388.376 201.724 389.556 200.934C391.136 199.874 391.396 197.034 391.396 194.254C391.396 191.474 389.286 190.944 387.476 192.124C385.666 193.304 383.356 193.674 383.776 196.424Z" fill="#EFD0B4"/>
<path d="M383.636 195.514C382.936 196.454 383.956 191.424 383.956 191.424C384.166 191.254 388.606 190.634 388.706 190.634C388.766 190.634 388.636 190.584 388.516 190.554C388.776 190.414 389.816 190.224 390.266 190.424C391.436 190.934 391.406 194.104 391.406 194.104C391.406 194.104 391.226 192.764 390.426 193.054C390.216 193.134 390.316 193.564 388.866 193.704C387.556 193.824 387.256 193.174 386.446 194.174C386.106 194.594 386.596 195.304 385.456 195.914C384.696 196.314 384.936 193.784 383.636 195.534V195.514Z" fill="#424143"/>
<path d="M437.225 218.004L437.176 237.554L414.806 250.554L414.866 230.994L437.225 218.004Z" fill="#BB884F"/>
<path d="M414.866 230.994L414.806 250.554L382.146 231.694L382.196 212.144L414.866 230.994Z" fill="#E0B477"/>
<path d="M437.225 218.004L414.866 230.994L382.196 212.144L404.566 199.144L437.225 218.004Z" fill="#EFCD90"/>
<path d="M395.866 204.204L391.236 206.884L423.896 225.744L428.526 223.054L395.866 204.204Z" fill="#F7ECEA"/>
<path d="M423.906 225.744L428.526 223.054V227.724L423.906 230.394V225.744Z" fill="#C2AB9D"/>
<path d="M434.846 236.424V236.884L431.355 238.904V238.444L434.846 236.424Z" fill="#5C4123"/>
<path d="M434.176 236.554L433.776 236.774V234.314L433.385 234.544L433.975 233.184L434.566 233.864L434.176 234.094V236.554Z" fill="#5C4123"/>
<path d="M432.426 237.564L432.026 237.784V235.324L431.635 235.554L432.225 234.194L432.816 234.874L432.426 235.104V237.564Z" fill="#5C4123"/>
<path d="M430.186 239.184V235.754C430.186 235.094 430.725 234.244 431.385 233.864L434.816 231.884C435.476 231.504 436.016 231.734 436.016 232.394V235.824C436.016 236.484 435.476 237.334 434.816 237.714L431.385 239.694C430.725 240.074 430.186 239.844 430.186 239.184ZM431.385 234.104C430.855 234.414 430.426 235.084 430.426 235.614V239.044C430.426 239.574 430.855 239.754 431.385 239.454L434.816 237.474C435.346 237.164 435.776 236.494 435.776 235.964V232.534C435.776 232.004 435.346 231.824 434.816 232.124L431.385 234.104Z" fill="#5C4123"/>
<path d="M424.146 240.753C424.146 240.753 424.166 240.733 424.166 240.723C424.166 240.643 424.456 240.393 424.886 240.153C425.306 239.913 425.605 239.824 425.605 239.894C425.605 239.894 425.606 239.904 425.626 239.894C425.636 239.894 425.646 239.874 425.646 239.864C425.646 239.794 425.886 239.584 426.246 239.364V241.484C426.296 241.714 426.505 241.744 426.755 241.604C427.035 241.444 427.266 241.094 427.266 240.824C427.266 240.754 427.216 240.734 427.156 240.764C427.096 240.804 427.046 240.884 427.046 240.954C427.046 241.084 426.916 241.274 426.766 241.364C426.466 241.534 426.496 241.174 426.496 241.174V239.244C426.856 239.054 427.096 238.984 427.096 239.054C427.096 239.054 427.096 239.064 427.116 239.054C427.126 239.054 427.135 239.034 427.135 239.024C427.135 238.944 427.425 238.694 427.855 238.454C428.275 238.214 428.576 238.123 428.576 238.193C428.576 238.193 428.576 238.203 428.596 238.193C428.596 238.193 428.616 238.173 428.616 238.163C428.586 237.313 427.666 236.974 426.556 237.544C426.556 237.484 426.486 237.483 426.396 237.533C426.306 237.583 426.236 237.674 426.236 237.734C425.126 238.454 424.206 239.854 424.176 240.744C424.176 240.744 424.176 240.754 424.196 240.744L424.146 240.753Z" fill="#5C4123"/>
<path d="M423.436 243.084V239.654C423.436 238.994 423.976 238.144 424.636 237.764L428.066 235.784C428.726 235.404 429.266 235.634 429.266 236.294V239.724C429.266 240.384 428.726 241.234 428.066 241.614L424.636 243.594C423.976 243.974 423.436 243.744 423.436 243.084ZM424.636 238.004C424.106 238.314 423.676 238.984 423.676 239.514V242.944C423.676 243.474 424.106 243.654 424.636 243.354L428.066 241.374C428.596 241.064 429.026 240.394 429.026 239.864V236.434C429.026 235.904 428.596 235.724 428.066 236.024L424.636 238.004Z" fill="#5C4123"/>
<path d="M418.686 243.274C418.696 243.804 419.066 244.044 419.516 243.814V245.504L418.926 245.844V246.064L420.256 245.294V245.074L419.666 245.414V243.724C420.126 243.414 420.486 242.774 420.496 242.214V240.964L418.686 242.014V243.264V243.274Z" fill="#5C4123"/>
<path d="M416.676 246.984V243.554C416.676 242.894 417.216 242.044 417.876 241.664L421.306 239.684C421.966 239.304 422.506 239.534 422.506 240.194V243.623C422.506 244.283 421.966 245.134 421.306 245.514L417.876 247.494C417.216 247.874 416.676 247.644 416.676 246.984ZM417.876 241.903C417.346 242.213 416.916 242.884 416.916 243.414V246.843C416.916 247.373 417.346 247.553 417.876 247.253L421.306 245.274C421.836 244.964 422.266 244.294 422.266 243.764V240.334C422.266 239.804 421.836 239.624 421.306 239.924L417.876 241.903Z" fill="#5C4123"/>
<path d="M435.166 228.854C434.076 228.064 432.236 228.384 431.676 228.894C429.946 230.444 430.586 232.564 431.676 233.364L440.396 238.284C441.486 239.074 443.016 238.844 443.806 237.754C444.596 236.674 444.356 235.144 443.266 234.354L435.186 228.854H435.166Z" fill="#114269"/>
<path d="M436.825 274.534C436.825 274.534 437.515 276.714 436.825 277.504C436.635 277.724 435.785 277.804 434.795 277.604C434.145 277.474 433.445 277.094 432.805 277.014C430.925 276.784 429.796 275.794 428.996 274.774C427.306 272.594 430.325 273.214 432.305 273.874C434.375 274.574 436.825 274.534 436.825 274.534Z" fill="#3D1F0B"/>
<path d="M432.285 275.394C431.105 274.814 430.506 274.054 430.126 273.114L429.785 250.344C429.755 248.394 431.316 246.784 433.266 246.754C435.216 246.724 436.825 248.284 436.855 250.234L437.225 274.704C437.225 274.754 437.225 274.804 437.225 274.864C436.005 276.254 433.896 276.174 432.296 275.394H432.285Z" fill="#E66E1C"/>
<path d="M430.426 276.774C430.426 276.774 431.116 278.954 430.426 279.744C430.236 279.964 429.386 280.043 428.396 279.843C427.746 279.713 427.046 279.333 426.406 279.253C424.526 279.023 423.396 278.034 422.596 277.014C420.906 274.834 423.926 275.454 425.906 276.114C427.976 276.814 430.426 276.774 430.426 276.774Z" fill="#51290F"/>
<path d="M425.885 277.634C424.705 277.054 424.106 276.294 423.726 275.354L423.386 252.584C423.356 250.634 424.916 249.024 426.866 248.994C428.816 248.964 430.426 250.524 430.456 252.474L430.825 276.944C430.825 276.994 430.825 277.044 430.825 277.104C429.605 278.494 427.496 278.414 425.896 277.634H425.885Z" fill="#F6871E"/>
<path d="M426.186 230.594C425.846 230.304 427.856 229.404 427.856 229.404L427.776 227.014L431.986 226.584L432.046 228.424C432.046 228.424 432.466 228.234 432.606 228.274C433.246 228.444 434.466 230.134 434.466 230.134C434.466 230.144 426.206 232.394 426.176 230.594H426.186Z" fill="#E5BD99"/>
<path d="M432.915 225.554C430.975 227.654 429.856 226.954 427.866 225.594C425.876 224.234 425.036 222.614 425.466 219.684C425.916 216.574 428.036 216.024 431.966 216.794C436.226 217.624 435.335 222.944 432.915 225.554Z" fill="#67432D"/>
<path d="M431.686 222.894C431.586 223.774 431.106 226.364 430.566 226.844C429.806 227.524 427.626 228.004 426.596 227.214C425.226 226.164 425.276 223.814 425.236 221.004C425.196 218.184 427.106 217.704 428.676 218.884C430.246 220.054 432.006 220.113 431.676 222.903L431.686 222.894Z" fill="#EFD0B4"/>
<path d="M434.855 219.724C434.565 218.524 431.716 218.714 431.716 218.714C431.496 218.554 431.695 215.374 425.355 216.954C424.105 217.264 425.265 220.274 425.265 220.274C425.265 220.274 425.825 220.234 426.485 220.074C427.265 219.894 426.895 221.524 427.165 221.734C427.415 221.934 428.385 223.474 429.195 224.844C429.305 225.024 429.415 225.214 429.515 225.384C429.945 226.134 429.006 227.394 429.086 227.604C429.236 227.984 431.276 227.604 432.156 226.714C432.656 226.214 435.545 222.574 434.855 219.724Z" fill="#67432D"/>
<path d="M429.086 223.534C428.846 224.274 428.496 224.714 428.026 224.664C427.556 224.614 427.306 224.114 427.396 223.344C427.486 222.564 428.156 221.994 428.626 222.044C429.096 222.094 429.366 222.694 429.096 223.534H429.086Z" fill="#EFD0B4"/>
<path d="M423.446 251.104L437.316 250.884C437.236 245.464 436.865 237.554 436.635 234.654C436.495 232.964 436.275 228.274 432.605 228.274C432.605 228.274 433.835 229.874 431.035 230.534C428.285 231.184 427.026 229.784 427.026 229.784C425.806 230.334 423.356 232.294 423.546 238.984C423.646 242.604 423.546 247.644 423.436 251.094L423.446 251.104Z" fill="#114269"/>
<path d="M423.596 241.954C423.596 240.904 423.586 239.904 423.556 238.984C423.456 235.644 424.026 233.474 424.766 232.084C425.936 233.144 426.665 234.204 427.035 235.514C426.935 235.884 426.836 236.254 426.746 236.624C426.636 236.694 426.515 236.784 426.415 236.924C425.195 238.444 423.946 240.004 423.596 241.954Z" fill="#F6871E"/>
<path d="M437.066 242.454C436.396 241.804 435.386 241.164 434.866 240.494C432.156 237.004 433.276 232.274 433.866 230.704C434.096 230.104 434.366 229.514 434.686 228.954C434.166 228.534 433.486 228.264 432.616 228.264C432.616 228.264 432.616 228.274 432.616 228.284C432.696 228.404 432.636 230.154 432.596 230.404C432.526 230.834 432.446 231.264 432.296 231.674C432.236 231.834 432.126 232.074 431.926 232.094C431.606 232.134 431.266 231.974 430.986 231.824C430.586 231.614 430.216 231.374 429.836 231.134C429.556 230.954 427.016 229.764 427.016 229.764C426.626 229.944 426.116 230.254 425.606 230.824C427.266 230.614 429.046 232.204 429.626 232.884C431.396 234.944 431.866 236.824 431.636 238.284C430.966 242.464 428.166 246.354 424.106 247.734C423.916 247.834 423.716 247.934 423.516 248.004C423.486 249.244 423.386 250.404 423.376 251.414C423.356 253.534 423.456 254.994 423.456 254.994C423.966 255.674 431.696 255.594 435.196 254.784C436.436 254.504 437.026 253.684 437.326 252.404C437.326 249.664 437.206 245.894 437.056 242.434L437.066 242.454Z" fill="#F6871E"/>
<path d="M412.546 238.914C412.436 239.014 411.906 239.254 411.776 239.354C410.566 238.354 407.806 236.594 407.706 235.674C407.606 234.794 407.746 233.944 409.786 234.034C410.556 234.064 412.536 235.814 413.306 236.554C413.446 237.564 413.296 238.284 412.546 238.914Z" fill="#E5BD99"/>
<path d="M411.976 237.824C412.306 237.324 412.846 236.324 413.136 235.344C413.366 235.414 413.586 235.514 413.796 235.654L423.206 241.124C424.316 241.894 424.486 243.444 423.726 244.544C422.966 245.644 421.546 245.894 420.436 245.124L411.026 239.644C410.876 239.544 410.746 239.424 410.626 239.294C411.146 238.884 411.606 238.384 411.976 237.824Z" fill="#0D598A"/>
<path d="M428.406 235.294C429.046 234.104 428.465 232.334 427.885 231.844C426.115 230.344 424.096 231.264 423.456 232.454L419.776 241.764C419.136 242.954 419.576 244.434 420.766 245.064C421.946 245.694 423.426 245.254 424.066 244.064L428.415 235.304L428.406 235.294Z" fill="#0D598A"/>
<path d="M381.436 218.404C381.816 219.824 383.276 220.674 384.686 220.294C386.106 219.914 386.946 218.454 386.556 217.034L383.216 205.084C382.836 203.664 381.376 202.814 379.966 203.194C378.546 203.574 377.706 205.034 378.096 206.454L381.436 218.404Z" fill="#0D598A"/>
<path d="M381.336 217.714C381.336 217.884 381.346 218.064 381.386 218.234C381.446 218.514 381.536 218.784 381.686 219.034C381.826 219.284 382.006 219.514 382.226 219.704C382.266 219.744 382.315 219.784 382.355 219.814L382.396 219.844L390.476 226.054C390.786 226.294 391.396 226.274 392.076 226.024C392.466 225.884 392.886 225.683 393.296 225.403C393.986 224.933 394.496 224.384 394.766 223.894C394.956 223.524 395.016 223.174 394.876 222.924C394.846 222.874 394.816 222.814 394.766 222.774C394.766 222.754 394.736 222.734 394.715 222.714C394.606 222.574 394.476 222.444 394.326 222.324L386.296 216.154L385.626 215.634C384.466 214.724 382.796 214.914 381.886 216.074C381.506 216.564 381.316 217.134 381.316 217.704L381.336 217.714Z" fill="#0D598A"/>
<path d="M390.355 225.914C390.395 225.964 390.435 226.014 390.485 226.054C390.795 226.294 391.406 226.274 392.086 226.024C392.086 226.024 392.106 226.024 392.116 226.014C392.496 225.884 392.906 225.673 393.306 225.403C393.996 224.933 394.506 224.384 394.776 223.894C394.786 223.854 394.815 223.824 394.815 223.794C394.975 223.454 395.006 223.154 394.886 222.924C394.886 222.904 394.875 222.874 394.855 222.854C394.835 222.824 394.816 222.794 394.776 222.774C394.776 222.754 394.746 222.734 394.726 222.714C394.366 222.434 393.646 222.504 392.836 222.864C392.786 222.874 392.735 222.904 392.685 222.924C392.435 223.034 392.166 223.184 391.916 223.364C391.526 223.624 391.186 223.924 390.916 224.214C390.836 224.304 390.775 224.374 390.715 224.464C390.275 225.034 390.125 225.574 390.345 225.914H390.355Z" fill="#093E61"/>
<path d="M390.736 224.464C390.886 224.774 391.076 225.054 391.256 225.234C391.366 225.344 391.496 225.454 391.636 225.574C391.786 225.714 391.946 225.864 392.126 226.004C393.326 227.054 394.976 228.314 395.965 228.184C396.806 228.074 397.556 227.744 397.006 225.874C396.766 225.084 395.816 224.354 394.836 223.774C394.726 223.714 394.626 223.654 394.516 223.594C394.436 223.554 394.356 223.514 394.276 223.484C393.736 223.204 393.215 222.984 392.855 222.854C392.805 222.864 392.756 222.894 392.706 222.914C392.456 223.024 392.186 223.174 391.936 223.354C391.546 223.614 391.206 223.914 390.936 224.204C390.856 224.294 390.796 224.364 390.736 224.454V224.464Z" fill="#E5BD99"/>
</svg>
